<?xml version="1.0" standalone="no"?>
<!DOCTYPE svg PUBLIC "-//W3C//DTD SVG 1.1//EN" "http://www.w3.org/Graphics/SVG/1.1/DTD/svg11.dtd" >
<svg>
<metadata>
Created by FontForge 20090914 at Mon Jul 26 09:40:26 2021
 By www-data
Copyright 2016 The Dancing Script Project Authors (impallari@gmail.com), with Reserved Font Name 'Dancing Script'.
</metadata>
<defs>
<font id="DancingScript-SemiBold" horiz-adv-x="0" >
  <font-face 
    font-family="Dancing Script SemiBold"
    font-weight="600"
    font-stretch="normal"
    units-per-em="1000"
    panose-1="0 0 0 0 0 0 0 0 0 0"
    ascent="800"
    descent="-200"
    x-height="298.004"
    cap-height="719.001"
    bbox="-195.002 -299.002 1358.01 1096"
    underline-thickness="50"
    underline-position="-75"
    unicode-range="U+000D-U+FB02"
  />
<missing-glyph horiz-adv-x="428" 
d="M0 0v720h428v-720h-428zM80 70h268v580h-268v-580z" />
    <glyph glyph-name="fi" unicode="fi" horiz-adv-x="568" 
d="M-5 -280c-7.33301 0 -15.834 2.33691 -25.501 7.00391s-18.167 13.667 -25.5 27s-11 32.666 -11 57.999c0 29.333 5 67.333 15 114s23.5 98.334 40.5 155.001s37 114.667 60 174s47.667 116.666 74 171.999s53.5 105 81.5 149s55.833 79 83.5 105s54.167 39 79.5 39
c16 0 26.5 -4.83301 31.5 -14.5s7.5 -20.834 7.5 -33.501c0 -28.667 -7.83301 -60 -23.5 -94s-36.5 -68.167 -62.5 -102.5s-55 -67 -87 -98s-64.667 -57.833 -98 -80.5l-8 -17.5c-2.66699 -5.66699 -5 -12.167 -7 -19.5c10 -4.66699 17.667 -13.334 23 -26.001
c10 -29.333 22.833 -50.166 38.5 -62.499s32.5 -18.5 50.5 -18.5c22 0 44.167 6.33301 66.5 19s41.833 27.334 58.5 44.001c10 22 20.833 42.667 32.5 62s24.167 34.833 37.5 46.5s26.333 17.5 39 17.5c8 0 14.5 -2.16699 19.5 -6.5s7.5 -10.833 7.5 -19.5
s-5.16699 -22 -15.5 -40l-36.5 -61.5c-14 -23 -26.167 -47 -36.5 -72s-15.5 -48.5 -15.5 -70.5c0 -22.667 4 -37.667 12 -45s20 -11 36 -11c22.667 0 47 11.333 73 34s54 63 84 121l13 -14c-21.333 -58.667 -50.5 -104.334 -87.5 -137.001s-76.167 -49 -117.5 -49
c-27.333 0 -48.333 8.66699 -63 26s-22 38 -22 62c0 12 1.83301 27 5.5 45s8.5 37 14.5 57c-18.667 -13.333 -38.5 -23.833 -59.5 -31.5s-41.833 -11.5 -62.5 -11.5c-9.33301 0 -19.666 1.16699 -30.999 3.5s-23 5.5 -35 9.5c1.33301 -9.33301 2.5 -18.833 3.5 -28.5
s1.5 -18.834 1.5 -27.501c0 -42 -4.33301 -83.833 -13 -125.5s-20.5 -79.834 -35.5 -114.501s-32 -62.5 -51 -83.5s-38.833 -31.5 -59.5 -31.5zM21.999 -222.996c9.33301 0 19.499 9.33398 30.499 28.001s21.5 43 31.5 73s18.167 62.167 24.5 96.5s9.5 67.166 9.5 98.499
c0 13.333 -0.666992 26.666 -2 39.999s-3.83301 26 -7.5 38s-9.16699 22 -16.5 30c-16.667 -48.667 -31.667 -96 -45 -142s-23.666 -87.667 -30.999 -125s-11 -67.666 -11 -90.999c0 -30.667 5.66699 -46 17 -46zM159.998 358.005c40.667 38 75.833 75.668 105.5 113.001
s52.5 70.666 68.5 99.999s24 50.333 24 63c0 6.66699 -3.33301 10 -10 10c-16 0 -34.667 -12.833 -56 -38.5s-43.333 -60.167 -66 -103.5s-44.667 -91.333 -66 -144zM519.997 425.006c-12 0 -22.833 2.99805 -32.5 8.99805s-14.5 15.333 -14.5 28
c0 10.667 4.16699 20.334 12.5 29.001s18.5 15.5 30.5 20.5s24 7.5 36 7.5c11.333 0 20.5 -2.66699 27.5 -8s10.5 -14.666 10.5 -27.999s-7 -26.333 -21 -39s-30.333 -19 -49 -19z" />
    <glyph glyph-name="fl" unicode="fl" horiz-adv-x="566" 
d="M-5 -280c-7.33301 0 -15.833 2.33594 -25.5 7.00293s-18.167 13.667 -25.5 27s-11 32.666 -11 57.999c0 29.333 5 67.333 15 114s23.5 98.334 40.5 155.001s37 114.667 60 174s47.667 116.666 74 171.999s53.5 105 81.5 149s55.833 79 83.5 105s54.167 39 79.5 39
c16 0 26.5 -4.83301 31.5 -14.5s7.5 -20.834 7.5 -33.501c0 -28.667 -7.83301 -60 -23.5 -94s-36.5 -68.167 -62.5 -102.5s-55 -67 -87 -98s-64.667 -57.833 -98 -80.5l-7.5 -17c-2.33301 -5.33301 -4.83301 -11.666 -7.5 -18.999c6 -3.33301 11.167 -7.83301 15.5 -13.5
s6.83301 -12.167 7.5 -19.5c5.33301 -36 16.5 -61.167 33.5 -75.5s36.5 -21.5 58.5 -21.5c16 0 32.833 3.16699 50.5 9.5s34.5 13.833 50.5 22.5c8 36 19.5 74.5 34.5 115.5s32.333 82.5 52 124.5s40 81.833 61 119.5s41.667 71.5 62 101.5s38.833 53.5 55.5 70.5
s30.334 25.5 41.001 25.5c8 0 14.833 -4.33301 20.5 -13s10.167 -19.167 13.5 -31.5s5 -23.5 5 -33.5c0 -18 -4.5 -41.333 -13.5 -70s-21.5 -60.5 -37.5 -95.5s-35.167 -70.667 -57.5 -107s-47 -70.833 -74 -103.5s-55.5 -61 -85.5 -85c-4 -18 -7.16699 -35.667 -9.5 -53
s-3.5 -33.333 -3.5 -48c0 -24 3.83301 -41.833 11.5 -53.5s18.167 -17.5 31.5 -17.5c18 0 36 8 54 24s35 36.167 51 60.5s29.667 49.5 41 75.5l22 -12c-28 -58.667 -58.333 -105 -91 -139s-68.334 -51 -107.001 -51c-32.667 0 -55.5 11.167 -68.5 33.5
s-19.5 49.5 -19.5 81.5c0 13.333 1.33301 28 4 44c-36 -18.667 -72 -28 -108 -28c-10.667 0 -22 1.33301 -34 4s-23.667 6.66699 -35 12c0 -6.66699 0.333008 -13.334 1 -20.001s1 -13 1 -19c0 -42 -4.33301 -83.833 -13 -125.5s-20.5 -79.834 -35.5 -114.501
s-32 -62.5 -51 -83.5s-38.833 -31.5 -59.5 -31.5zM22 -222.997c9.33301 0 19.499 9.66992 30.499 29.0029s21.5 44 31.5 74s18.167 62.167 24.5 96.5s9.5 66.5 9.5 96.5c0 16 -1.66699 33.667 -5 53s-10.666 36 -21.999 50c-16.667 -48.667 -31.5 -95.834 -44.5 -141.501
s-23.167 -86.834 -30.5 -123.501s-11 -66.334 -11 -89.001c0 -30 5.66699 -45 17 -45zM159.999 358.006c40.667 38 75.833 75.668 105.5 113.001s52.5 70.666 68.5 99.999s24 50.333 24 63c0 6.66699 -3.33301 10 -10 10c-16 0 -34.667 -12.833 -56 -38.5
s-43.333 -60.167 -66 -103.5s-44.667 -91.333 -66 -144zM426.998 230.007c17.333 18 35.3301 39.501 53.9971 64.501s37.167 51.667 55.5 80s35 57 50 86s27.5 56.667 37.5 83s16 49.833 18 70.5c0 4.66699 -0.166992 8.5 -0.5 11.5s-1.16602 4.5 -2.49902 4.5
c-5.33301 1.33301 -14.166 -5.83398 -26.499 -21.501s-26.666 -37 -42.999 -64s-33.333 -57.833 -51 -92.5s-34.5 -71 -50.5 -109s-29.667 -75.667 -41 -113z" />
    <glyph glyph-name="b_r" unicode="br" horiz-adv-x="761" 
d="M102 -73c-37.333 0 -65.3301 11.6689 -83.9971 35.002s-28 55.333 -28 96c0 33.333 5.66699 72.333 17 117s26.333 91.667 45 141s39.667 97.5 63 144.5s46.833 89.667 70.5 128s46 68.833 67 91.5s38.833 34 53.5 34c12.667 0 22.167 -7.5 28.5 -22.5
s9.5 -30.167 9.5 -45.5c0 -18.667 -4 -41.334 -12 -68.001s-19.333 -54.834 -34 -84.501s-31.667 -59.167 -51 -88.5s-40.5 -56.166 -63.5 -80.499s-46.5 -43.5 -70.5 -57.5c-4.66699 -8 -10.5 -23 -17.5 -45s-13.5 -46.833 -19.5 -74.5s-9 -54.834 -9 -81.501
c0 -27.333 4.16699 -49.5 12.5 -66.5s22.166 -25.5 41.499 -25.5c18 0 37 7.16699 57 21.5s36.333 32.5 49 54.5c-24.667 13.333 -43.334 32 -56.001 56s-19 49 -19 75c0 32 8.66699 58 26 78s38.333 30 63 30c20.667 0 37.5 -8 50.5 -24s19.5 -40.667 19.5 -74
c0 -19.333 -2.33301 -39.5 -7 -60.5s-12 -42.5 -22 -64.5c2.66699 -0.666992 5.16699 -1 7.5 -1h7.5c26.667 0 50 8.66699 70 26s37.667 39.333 53 66s28.5 54.167 39.5 82.5s20.167 53.833 27.5 76.5c-2.66699 3.33301 -4.83398 6.83301 -6.50098 10.5s-2.5 8.5 -2.5 14.5
c0 18.667 5.5 35.334 16.5 50.001s21.5 22 31.5 22c7.33301 0 12 -4 14 -12s3 -13.333 3 -16c0 -6 -1.83301 -12.833 -5.5 -20.5s-5.5 -13.834 -5.5 -18.501c0 -6.66699 5.33301 -13.5 16 -20.5l37 -25c14 -9.66699 26.5 -21.834 37.5 -36.501s16.5 -33 16.5 -55
c0 -19.333 -4.16699 -39.333 -12.5 -60s-16.666 -40 -24.999 -58s-12.5 -34 -12.5 -48c0 -9.33301 2.66699 -15.666 8 -18.999s11.666 -5 18.999 -5c16 0 32.5 5 49.5 15s33.333 22.667 49 38s29.834 31.666 42.501 48.999s22 33.333 28 48l17 -11
c-13.333 -29.333 -30.833 -58.166 -52.5 -86.499s-46.167 -51.833 -73.5 -70.5s-56 -28 -86 -28c-24 0 -43.333 6.33301 -58 19s-22 30 -22 52c0 18.667 4.5 39 13.5 61l27 65c9 21.333 13.5 40.333 13.5 57c0 18 -5.5 31.833 -16.5 41.5s-22.833 18.5 -35.5 26.5
c-8.66699 -26.667 -18.667 -55 -30 -85s-25.333 -58.5 -42 -85.5s-37 -48.833 -61 -65.5s-52.667 -25 -86 -25c-4 0 -8.33301 0.166992 -13 0.5s-9.33398 0.833008 -14.001 1.5c-18.667 -30 -41.5 -55.667 -68.5 -77s-58.833 -32 -95.5 -32zM241.003 79.002
c6 13.333 10.832 27.499 14.499 42.499s5.5 30.833 5.5 47.5c0 22 -2.66699 39.5 -8 52.5s-12.666 19.5 -21.999 19.5s-17.333 -6.33301 -24 -19s-10 -28 -10 -46c0 -16.667 3.33301 -34.167 10 -52.5s18 -33.166 34 -44.499zM129.002 322.001
c17.333 15.333 34 33.332 50 53.999s31 42.667 45 66s26.5 46 37.5 68s19.833 42.333 26.5 61s10.667 33.334 12 44.001v7.5c0 2.33301 -0.666992 3.16602 -2 2.49902c-6 -0.666992 -16 -10 -30 -28s-29.5 -41.667 -46.5 -71s-33.833 -61.666 -50.5 -96.999
s-30.667 -71 -42 -107z" />
    <glyph glyph-name="e_e" unicode="ee" horiz-adv-x="677" 
d="M452 -49c-40.667 0 -71.6641 11.3359 -92.9971 34.0029s-33 50 -35 82c-28.667 -34.667 -61.5 -61.834 -98.5 -81.501s-74.167 -29.5 -111.5 -29.5c-42.667 0 -75 11.333 -97 34s-33 51 -33 85c0 29.333 7.5 60.5 22.5 93.5s35.167 64 60.5 93s53.166 52.667 83.499 71
s61.166 27.5 92.499 27.5c16.667 0 32.167 -4.16699 46.5 -12.5s21.5 -25.5 21.5 -51.5c0 -25.333 -7.5 -48.833 -22.5 -70.5s-34.667 -41 -59 -58s-51.333 -30.833 -81 -41.5s-59.167 -17.667 -88.5 -21c-0.666992 -4 -1.33398 -8.5 -2.00098 -13.5s-1 -10.167 -1 -15.5
c0 -12 2.16699 -24.333 6.5 -37s12 -23.334 23 -32.001s27.5 -13 49.5 -13c35.333 0 70 11.833 104 35.5s63.667 53.167 89 88.5c6 27.333 16.667 54.5 32 81.5s34 51.5 56 73.5s46 39.833 72 53.5s52.667 20.5 80 20.5c16.667 0 32.167 -4.33301 46.5 -13
s21.5 -26 21.5 -52c0 -33.333 -11.5 -62.666 -34.5 -87.999s-52.5 -45.833 -88.5 -61.5s-74 -25.834 -114 -30.501c-0.666992 -4 -1.33398 -8.33301 -2.00098 -13s-1 -9.66699 -1 -15c0 -12 2 -24.667 6 -38s11.333 -24.5 22 -33.5s26.667 -13.5 48 -13.5
c28.667 0 57.5 8.5 86.5 25.5s55.833 39 80.5 66s45.334 56.5 62.001 88.5l16 -13c-18 -40 -41.167 -75.333 -69.5 -106s-59.333 -54.834 -93 -72.501s-68.167 -26.5 -103.5 -26.5zM69.0029 133.003c18.667 6 38.666 14.667 59.999 26s41.833 24.5 61.5 39.5
s35.834 31.167 48.501 48.5s19 35.333 19 54c0 6 -1.16699 10.667 -3.5 14s-7.5 5 -15.5 5c-14.667 0 -30.5 -5.5 -47.5 -16.5s-33.5 -25.667 -49.5 -44s-30.333 -38.5 -43 -60.5s-22.667 -44 -30 -66zM409.002 133.003c17.333 6 36.167 13.667 56.5 23
s39.5 20.166 57.5 32.499s32.833 26.5 44.5 42.5s17.5 33.667 17.5 53c0 7.33301 -1.33301 12.833 -4 16.5s-8 5.5 -16 5.5c-19.333 0 -39.333 -8.33301 -60 -25s-39.5 -38.167 -56.5 -64.5s-30.167 -54.166 -39.5 -83.499z" />
    <glyph glyph-name="l_l" unicode="ll" horiz-adv-x="484" 
d="M90 -30c-30 0 -52.1709 10.1689 -66.5039 30.502s-21.5 46.166 -21.5 77.499c0 32 6 69.667 18 113s27.833 89.166 47.5 137.499s41.334 95.5 65.001 141.5s47.334 88 71.001 126s45.667 68.167 66 90.5s36.5 33.5 48.5 33.5c8 0 14.833 -4.33301 20.5 -13
s10.167 -19.167 13.5 -31.5s5 -23.833 5 -34.5c0 -18 -4.5 -41.167 -13.5 -69.5s-21.667 -59.833 -38 -94.5s-35.666 -70 -57.999 -106s-46.833 -70.333 -73.5 -103s-55.334 -61 -86.001 -85c-2.66699 -16.667 -5.16699 -34 -7.5 -52s-3.5 -34 -3.5 -48
c0 -48 14.333 -72 43 -72c15.333 0 30.833 6.5 46.5 19.5s31 29.833 46 50.5s28.167 43 39.5 67c6.66699 34 16.667 70.667 30 110s28.833 79 46.5 119s36.334 78.167 56.001 114.5s39.167 68.666 58.5 96.999s37 50.833 53 67.5s29.333 25 40 25c8 0 15 -4.5 21 -13.5
s10.667 -19.667 14 -32s5 -24.166 5 -35.499c0 -21.333 -5.66699 -49.166 -17 -83.499s-27.5 -71.5 -48.5 -111.5s-46.5 -79.5 -76.5 -118.5s-63.667 -73.5 -101 -103.5c-4 -16 -7 -32.667 -9 -50s-3 -33 -3 -47c0 -50 14 -75 42 -75c17.333 0 35 8 53 24s35 36.167 51 60.5
s29.667 49.5 41 75.5l21 -12c-27.333 -58 -57.166 -104 -89.499 -138s-67.833 -51 -106.5 -51c-30.667 0 -53 10.667 -67 32s-20.667 48.666 -20 81.999c-22.667 -36 -47 -64 -73 -84s-53.667 -30 -83 -30zM102.996 232.002c22.667 23.333 44.4961 49.498 65.4961 78.498
s40.333 58.667 58 89s33.334 59.833 47.001 88.5s24.334 54.334 32.001 77.001s11.5 40.334 11.5 53.001c0 4.66699 -0.333008 8 -1 10s-1.66699 3.33301 -3 4c-4.66699 0 -13.167 -7.83301 -25.5 -23.5s-26.666 -37 -42.999 -64s-33.166 -57.667 -50.499 -92
s-34 -70.5 -50 -108.5s-29.667 -75.333 -41 -112zM345.992 231c28 28.667 53.501 59.667 76.501 93s42.833 66.5 59.5 99.5s29.667 63.167 39 90.5s14 48.666 14 63.999c0 4.66699 -0.166992 7.83398 -0.5 9.50098s-1.16602 3.16699 -2.49902 4.5
c-6.66699 0 -17.334 -10.167 -32.001 -30.5s-31.334 -47.5 -50.001 -81.5s-37.167 -72.5 -55.5 -115.5s-34.5 -87.5 -48.5 -133.5z" />
    <glyph glyph-name="o_r" unicode="or" horiz-adv-x="748" 
d="M75 -32c-28.667 0 -50.1729 8.82617 -64.5059 26.4932s-21.5 39.5 -21.5 65.5c0 30.667 5.5 60.334 16.5 89.001s25.5 55.5 43.5 80.5s37.833 47 59.5 66s42.834 33.833 63.501 44.5s39.334 16 56.001 16c6.66699 0 13 -1.16699 19 -3.5s10.333 -6.16602 13 -11.499
c2 1.33301 4 2.16602 6 2.49902s4 0.5 6 0.5c16.667 0 27.667 -5.16699 33 -15.5s8 -20.833 8 -31.5c0 -10 -3.16699 -22.167 -9.5 -36.5s-12.666 -30 -18.999 -47s-9.5 -36.167 -9.5 -57.5c0 -14 3.83301 -24.667 11.5 -32s18.167 -11 31.5 -11c22 0 41 6.16699 57 18.5
s30 28.333 42 48s22.333 41.167 31 64.5s16.334 46 23.001 68c-6 7.33301 -9 15.666 -9 24.999c0 14 2.83301 26.5 8.5 37.5s12.167 19.5 19.5 25.5s13.333 9 18 9c9.33301 0 14.833 -3.66699 16.5 -11s2.5 -13.333 2.5 -18c0 -3.33301 -1.83301 -9.5 -5.5 -18.5
s-5.5 -14.833 -5.5 -17.5c0 -7.33301 5.33301 -14.666 16 -21.999l37 -25c14 -9.33301 26.333 -21.166 37 -35.499s16 -32.166 16 -53.499c0 -20 -4 -40 -12 -60s-16.167 -39 -24.5 -57s-12.5 -33.333 -12.5 -46c0 -10.667 2.66699 -17.667 8 -21s11.666 -5 18.999 -5
c15.333 0 31.5 4.83301 48.5 14.5s33.5 22.167 49.5 37.5s30.333 31.5 43 48.5s22 32.5 28 46.5l18 -12c-13.333 -28.667 -31 -56.834 -53 -84.501s-46.667 -50.667 -74 -69s-55.666 -27.5 -84.999 -27.5c-24 0 -43.5 6.5 -58.5 19.5s-22.5 29.5 -22.5 49.5
s4.5 40.667 13.5 62l26.5 63c8.66699 20.667 13 39.334 13 56.001c0 18.667 -5.83301 33.334 -17.5 44.001s-23.834 19.667 -36.501 27c-7.33301 -23.333 -16.333 -47.666 -27 -72.999s-23.167 -48.666 -37.5 -69.999s-31.666 -38.5 -51.999 -51.5
s-44.166 -19.5 -71.499 -19.5c-12 0 -24.167 2.16699 -36.5 6.5s-22.5 9.83301 -30.5 16.5c-18.667 -39.333 -42.667 -71.666 -72 -96.999s-59.666 -38 -90.999 -38zM94.9941 15.9932c11.333 0 24.1689 5.16895 38.502 15.502s28.666 24.166 42.999 41.499
s25.833 36 34.5 56c-10.667 18 -16 43 -16 75c0 10.667 1 22.334 3 35.001s5 25.167 9 37.5s8.66699 22.833 14 31.5c-16.667 -8.66699 -32.834 -20.334 -48.501 -35.001s-30.167 -30.834 -43.5 -48.501s-25 -36 -35 -55s-17.833 -37.5 -23.5 -55.5s-8.5 -34.333 -8.5 -49
c0 -17.333 3 -29.833 9 -37.5s14 -11.5 24 -11.5z" />
    <glyph glyph-name="t_h" unicode="th" horiz-adv-x="781" 
d="M92 -46c-30.667 0 -54.665 8.50488 -71.998 25.5049s-26 42.5 -26 76.5c0 20 2.66699 43.5 8 70.5s12.666 55.833 21.999 86.5s19.333 61 30 91c-6 1.33301 -11.667 3.16602 -17 5.49902s-11.666 4.83301 -18.999 7.5v27c10 -2 18.167 -4 24.5 -6
s14.166 -3.33301 23.499 -4c18.667 47.333 38.5 91.166 59.5 131.499s41.5 72.5 61.5 96.5s37 36 51 36c6.66699 0 12.667 -2.33301 18 -7s8 -10.334 8 -17.001c0 -8 -3.5 -20 -10.5 -36s-16.167 -34.167 -27.5 -54.5l-35 -62.5l-34 -59.5
c-10.667 -18.333 -18.667 -33.166 -24 -44.499c17.333 -2.66699 33.5 -4.83398 48.5 -6.50098s30.167 -2.5 45.5 -2.5c18.667 0 38.334 1.33301 59.001 4s44 6.33398 70 11.001c18 48 37.833 95.167 59.5 141.5s44 88.166 67 125.499s44.833 67.333 65.5 90s38.667 34 54 34
c13.333 0 23.166 -7.33301 29.499 -22s9.5 -30 9.5 -46c0 -22.667 -5.66699 -49.667 -17 -81s-27 -63.833 -47 -97.5s-43.333 -65 -70 -94s-55.334 -52.5 -86.001 -70.5c-9.33301 -22 -17.833 -48.5 -25.5 -79.5s-13.334 -61.167 -17.001 -90.5s-5.16699 -53 -4.5 -71
c16 43.333 34 83.333 54 120s42.5 66 67.5 88s52.167 33 81.5 33c30 0 51.5 -9.83301 64.5 -29.5s19.5 -41.167 19.5 -64.5c0 -20 -3.5 -39.833 -10.5 -59.5s-14 -38.334 -21 -56.001s-10.5 -33.834 -10.5 -48.501c0 -12.667 2.83301 -21.5 8.5 -26.5s12.167 -7.5 19.5 -7.5
c14.667 0 31.834 7.33301 51.501 22s38.834 34.334 57.501 59.001s34.667 51 48 79l17 -16c-14.667 -32.667 -32.167 -62.834 -52.5 -90.501s-42.833 -49.5 -67.5 -65.5s-50.667 -24 -78 -24c-24.667 0 -43.5 6.5 -56.5 19.5s-19.5 29.167 -19.5 48.5
c0 14 2.5 29.333 7.5 46l15 51.5c5 17.667 7.5 33.834 7.5 48.501c0 16 -3.33301 27.5 -10 34.5s-15.334 10.5 -26.001 10.5c-16.667 0 -31.5 -6.5 -44.5 -19.5s-24.833 -30 -35.5 -51s-20.834 -43 -30.501 -66l-27.5 -65.5c-8.66699 -20.667 -17.667 -37.667 -27 -51
s-19.333 -20 -30 -20c-9.33301 0 -17.166 4.66699 -23.499 14s-11.333 20.833 -15 34.5s-6.16699 28 -7.5 43s-1.33301 28.167 0 39.5c-26.667 -40.667 -58 -73.834 -94 -99.501s-74 -38.5 -114 -38.5zM121.002 0.00488281c33.333 0 66.832 14.667 100.499 44
s62.834 69.666 87.501 120.999c4.66699 20.667 9.33398 40.334 14.001 59.001s11 39.334 19 62.001c-21.333 -4.66699 -41.5 -8 -60.5 -10s-37.833 -3 -56.5 -3c-18 0 -35.833 1.16699 -53.5 3.5s-35.5 4.83301 -53.5 7.5c-14.667 -33.333 -26.834 -67.333 -36.501 -102
s-14.5 -69.334 -14.5 -104.001c0 -28 4 -48 12 -60s22 -18 42 -18zM438.001 358.005c20.667 17.333 40.002 37.167 58.002 59.5s34 45.333 48 69s25.5 46 34.5 67s14.5 38.5 16.5 52.5c1.33301 8 1.66602 14 0.999023 18c-5.33301 -1.33301 -14 -8.83301 -26 -22.5
s-26 -32.5 -42 -56.5s-31.833 -52 -47.5 -84s-29.834 -66.333 -42.501 -103z" />
    <glyph glyph-name="v_r" unicode="vr" horiz-adv-x="769" 
d="M70 -39c-23.333 0 -39.333 11.1689 -48 33.502s-13 50.833 -13 85.5c0 6.66699 0.333008 20.667 1 42s1.66699 48 3 80c1.33301 18.667 3.5 31.667 6.5 39s12.833 11 29.5 11c14 0 22.833 -2.5 26.5 -7.5s5.5 -14.833 5.5 -29.5c0 -13.333 -0.666992 -29.166 -2 -47.499
s-2.5 -37 -3.5 -56s-1.5 -35.833 -1.5 -50.5c0 -19.333 1.66699 -32.833 5 -40.5s8.66602 -11.5 15.999 -11.5c11.333 0 24.166 6.5 38.499 19.5s28.833 30.333 43.5 52s28.834 44.667 42.501 69s25.5 47.833 35.5 70.5c0.666992 45.333 5.5 75.5 14.5 90.5
s20.5 22.5 34.5 22.5c14.667 0 25.334 -5 32.001 -15s10 -19 10 -27l-7 -19.5c-4.66699 -13 -9.33398 -28.333 -14.001 -46s-7 -34.5 -7 -50.5c0 -15.333 3.16699 -27.833 9.5 -37.5s17.5 -14.5 33.5 -14.5c16.667 0 31.834 6.16699 45.501 18.5s25.834 28.333 36.501 48
s20.167 40.334 28.5 62.001l22.5 60.5c-2 3.33301 -4 7 -6 11s-3 9 -3 15c0 18 5.33301 34.333 16 49s21.334 22 32.001 22c6 0 10.167 -2.33301 12.5 -7s3.5 -9.33398 3.5 -14.001c0 -6 -1.66699 -13.833 -5 -23.5s-5 -16.167 -5 -19.5c0 -8 5.33301 -15.667 16 -23l37 -26
c14 -10 26.333 -22.167 37 -36.5s16 -32.5 16 -54.5c0 -19.333 -4 -39 -12 -59s-16.167 -38.833 -24.5 -56.5s-12.5 -33.167 -12.5 -46.5c0 -9.33301 2.66699 -15.666 8 -18.999s11.666 -5 18.999 -5c16 0 32.333 5 49 15s33 22.667 49 38s30.333 31.5 43 48.5
s22 32.833 28 47.5l17 -11c-12.667 -28.667 -30 -57.167 -52 -85.5s-46.667 -51.833 -74 -70.5s-56 -28 -86 -28c-24 0 -43.333 6.5 -58 19.5s-22 29.833 -22 50.5c0 19.333 4.66699 39.666 14 60.999l27 64c8.66699 21.333 13 40 13 56
c0 17.333 -5.33301 31.166 -16 41.499s-22.667 19.166 -36 26.499c-7.33301 -20.667 -15.833 -42.667 -25.5 -66s-21 -45.5 -34 -66.5s-28.333 -38 -46 -51s-38.167 -19.5 -61.5 -19.5c-20.667 0 -39.167 5.83301 -55.5 17.5s-27.5 26.167 -33.5 43.5
c-16.667 -31.333 -35.834 -61.333 -57.501 -90s-44.167 -52.334 -67.5 -71.001s-46 -28 -68 -28z" />
    <glyph glyph-name="w_r" unicode="wr" horiz-adv-x="986" 
d="M291 -39c-22 0 -37.3311 10.0029 -45.998 30.0029s-13 45.667 -13 77c0 12 0.5 23.167 1.5 33.5s1.83301 21.166 2.5 32.499c-14 -26.667 -29.167 -52.667 -45.5 -78s-33.666 -46 -51.999 -62s-37.833 -24 -58.5 -24c-22.667 0 -41.667 10.167 -57 30.5
s-23 44.833 -23 73.5c0 19.333 3.16699 41.666 9.5 66.999s14.333 50.166 24 74.499s19.5 44.5 29.5 60.5s19 24 27 24c3.33301 0 8.16602 -1 14.499 -3s12.5 -5 18.5 -9s9 -8.66699 9 -14c-7.33301 -12 -16.166 -29.5 -26.499 -52.5s-19.333 -47.167 -27 -72.5
s-11.5 -48 -11.5 -68c0 -5.33301 0.666992 -13 2 -23s4.33301 -19 9 -27s12 -12 22 -12c14 0 29.5 9.16699 46.5 27.5s34 41.666 51 69.999s33.167 56.833 48.5 85.5c5.33301 28 9.66602 48.167 12.999 60.5s7.16602 20 11.499 23s9.83301 4.5 16.5 4.5
c10.667 0 19.167 -1.5 25.5 -4.5s10.166 -9.16699 11.499 -18.5c-6 -23.333 -12.167 -54 -18.5 -92s-9.5 -76.333 -9.5 -115c0 -16 1.33301 -28.5 4 -37.5s7.66699 -13.5 15 -13.5c10 0 21.667 6.83301 35 20.5s27.5 31.334 42.5 53.001s29.667 45.167 44 70.5
s26.833 49.333 37.5 72c0 35.333 1.83301 60.5 5.5 75.5s8.83398 24.167 15.501 27.5s15 5 25 5c14 0 24.333 -5 31 -15s10.334 -19 11.001 -27c-4.66699 -8.66699 -10.5 -22.5 -17.5 -41.5s-10.5 -39.5 -10.5 -61.5c0 -16.667 3.5 -30 10.5 -40s18.5 -15 34.5 -15
s30.667 5.83301 44 17.5s25.166 26.667 35.499 45s19.833 37.833 28.5 58.5s16 40 22 58c-2.66699 3.33301 -4.83398 7.16602 -6.50098 11.499s-2.5 9.5 -2.5 15.5c0 18 5.83301 34.167 17.5 48.5s21.834 21.5 30.501 21.5s13.667 -4 15 -12s2 -13.333 2 -16
c0 -5.33301 -1.83301 -11.833 -5.5 -19.5s-5.5 -13.5 -5.5 -17.5c0 -7.33301 5.33301 -14.666 16 -21.999l37 -25.5c14 -9.66699 26.333 -21.5 37 -35.5s16 -31.667 16 -53c0 -20 -4 -40 -12 -60s-16 -39 -24 -57s-12 -33.667 -12 -47c0 -10 2.5 -16.667 7.5 -20
s11.167 -5 18.5 -5c16 0 32.5 5 49.5 15s33.5 22.667 49.5 38s30.167 31.5 42.5 48.5s21.5 32.5 27.5 46.5l19 -13c-12.667 -28 -30.167 -56 -52.5 -84s-47.333 -51.167 -75 -69.5s-56.5 -27.5 -86.5 -27.5c-24 0 -43.167 6.33301 -57.5 19s-21.5 29.667 -21.5 51
c0 19.333 4.33301 39.666 13 60.999l26.5 63.5c9 21 13.5 39.5 13.5 55.5c0 18.667 -5.66699 33.167 -17 43.5s-23 18.833 -35 25.5c-6.66699 -20 -15 -41.167 -25 -63.5s-21.667 -43.5 -35 -63.5s-28.5 -36.333 -45.5 -49s-36.167 -19 -57.5 -19
c-19.333 0 -36.5 5.33301 -51.5 16s-26.5 25.667 -34.5 45c-12.667 -22.667 -26.834 -45.667 -42.501 -69s-32 -44.666 -49 -63.999s-34.167 -34.833 -51.5 -46.5s-34.333 -17.5 -51 -17.5z" />
    <glyph glyph-name=".notdef" horiz-adv-x="428" 
d="M0 0v720h428v-720h-428zM80 70h268v580h-268v-580z" />
    <glyph glyph-name="NULL" 
 />
    <glyph glyph-name="NULL" 
 />
    <glyph glyph-name="CR" unicode="&#xd;" horiz-adv-x="260" 
 />
    <glyph glyph-name="space" unicode=" " horiz-adv-x="260" 
 />
    <glyph glyph-name="exclam" unicode="!" horiz-adv-x="283" 
d="M108 295l42.998 110.496l47 114c16 37 31.833 70.667 47.5 101s30.834 54.5 45.501 72.5s28.334 27 41.001 27c6.66699 0 12.5 -2.66699 17.5 -8s7.5 -12 7.5 -20c0 -9.33301 -5.16699 -27.166 -15.5 -53.499s-24.333 -58.166 -42 -95.499l-58.5 -119l-65 -125
c-22 -41.333 -43 -79 -63 -113s-37 -61.667 -51 -83c-1.33301 0.666992 -2.83301 1.33398 -4.5 2.00098s-3.16699 1.33398 -4.5 2.00098c2.66699 21.333 7 43.5 13 66.5s13 45.167 21 66.5zM29.998 -10.0039c-10 0 -18.665 2.50098 -25.998 7.50098s-11 13.167 -11 24.5
c0 12 6.66699 22.5 20 31.5s27.666 13.5 42.999 13.5c9.33301 0 16.833 -2.16699 22.5 -6.5s8.5 -11.833 8.5 -22.5s-5.83301 -21.334 -17.5 -32.001s-24.834 -16 -39.501 -16z" />
    <glyph glyph-name="quotedbl" unicode="&#x22;" horiz-adv-x="262" 
d="M285 576c-8.66699 4.66699 -15.001 10.666 -19.001 17.999s-6 15.333 -6 24c0 13.333 3 28 9 44s13.833 29.833 23.5 41.5s19.834 17.5 30.501 17.5c7.33301 0 14 -3.16699 20 -9.5s9.33301 -14.5 10 -24.5c-16 -16 -29.667 -34.167 -41 -54.5
s-20.333 -39.166 -27 -56.499zM168.999 575.999c-8.66699 4.66699 -15.001 10.666 -19.001 17.999s-6 15.333 -6 24c0 13.333 3 28 9 44s13.833 29.833 23.5 41.5s19.834 17.5 30.501 17.5c7.33301 0 14 -3.16699 20 -9.5s9.33301 -14.5 10 -24.5
c-16 -16 -29.667 -34.167 -41 -54.5s-20.333 -39.166 -27 -56.499z" />
    <glyph glyph-name="numbersign" unicode="#" horiz-adv-x="703" 
d="M110 -162c13.333 16 26.5049 40.3369 39.5049 73.0039s25.833 71 38.5 115s24.667 91 36 141c-22.667 -0.666992 -45.334 -2 -68.001 -4s-48.667 -4 -78 -6l-62 -5c1.33301 19.333 11.666 34.5 30.999 45.5s45.833 19 79.5 24s70.834 7.83301 111.501 8.5
c1.33301 7.33301 3.16602 16.333 5.49902 27s4.16602 19.667 5.49902 27c-20 -0.666992 -40.833 -1.83398 -62.5 -3.50098s-45.5 -3.83398 -71.5 -6.50098l-63 -5c1.33301 19.333 11.5 34.333 30.5 45s44.333 18.667 76 24s66.834 8.33301 105.501 9
c14 68.667 26.167 131.167 36.5 187.5s19.166 102.166 26.499 137.499c2 10 6 19.5 12 28.5s20.667 15.833 44 20.5c-2.66699 -12.667 -7.33398 -37.334 -14.001 -74.001l-24.5 -133l-30.5 -165c22.667 -0.666992 43.834 -1.16699 63.501 -1.5
s39.834 -1.16602 60.501 -2.49902c14.667 68.667 27.167 131.334 37.5 188.001s19.166 103 26.499 139c2 10 6.16699 19.5 12.5 28.5s20.833 15.833 43.5 20.5c-2 -10 -5.16699 -27 -9.5 -51l-16 -87l-21 -113l-24.5 -128c36 -1.33301 73.333 -3.33301 112 -6
s73.667 -4 105 -4c-24 -20.667 -45.5 -32.834 -64.5 -36.501s-36.5 -5.5 -52.5 -5.5c-21.333 0 -41 -0.166992 -59 -0.5s-34.667 -0.5 -50 -0.5c-2.66699 -11.333 -5.16699 -22.833 -7.5 -34.5s-4.16602 -22.167 -5.49902 -31.5c32 -1.33301 66.167 -3.16602 102.5 -5.49902
s69.166 -3.5 98.499 -3.5c-24 -20 -45.167 -31.833 -63.5 -35.5s-35.5 -5.5 -51.5 -5.5h-51c-15.333 0 -30.333 -0.333008 -45 -1c-14.667 -73.333 -28.834 -134.833 -42.501 -184.5s-30.334 -87 -50.001 -112s-45.5 -37.5 -77.5 -37.5c13.333 16 26.666 40.667 39.999 74
s26.333 72.166 39 116.499s24.667 91.166 36 140.499h-122c-14.667 -72.667 -28.667 -133.667 -42 -183s-29.666 -86.333 -48.999 -111s-45 -37 -77 -37zM413.005 227.004l13 60.999h-67c-19.333 0 -38.333 -0.666992 -57 -2l-11 -56c21.333 0 42 -0.166992 62 -0.5
s40 -1.16602 60 -2.49902z" />
    <glyph glyph-name="dollar" unicode="$" horiz-adv-x="554" 
d="M145 -162c9.33301 12 18.501 27 27.501 45s17.167 38 24.5 60c-32.667 3.33301 -63.334 10.833 -92.001 22.5s-51.834 28.5 -69.501 50.5s-26.5 49 -26.5 81c0 30.667 7.66699 56 23 76s34.333 34.667 57 44s44.334 14 65.001 14c-20.667 -21.333 -36 -43.833 -46 -67.5
s-15 -46.5 -15 -68.5c0 -32 10.333 -57.333 31 -76s49.667 -30 87 -34c12 39.333 23.667 82.5 35 129.5s22.333 95.833 33 146.5c-23.333 12.667 -45.833 26.334 -67.5 41.001s-39.667 32.334 -54 53.001s-21.5 46.334 -21.5 77.001c0 36.667 10 70.5 30 101.5
s46.833 57 80.5 78s70.834 34.833 111.501 41.5c0.666992 8.66699 3.16699 17.667 7.5 27s10.833 17.833 19.5 25.5s20 12.5 34 14.5c-2 -7.33301 -4 -16 -6 -26s-4.66699 -22.667 -8 -38c45.333 -0.666992 76.333 -11 93 -31s25 -45.667 25 -77
c0 -26 -4.33301 -53.333 -13 -82s-21 -56 -37 -82c-14 3.33301 -24.667 9.5 -32 18.5s-11 18.5 -11 28.5c0 11.333 3 25.666 9 42.999l18 54c6 18.667 9 35 9 49s-4.83301 25 -14.5 33s-27.167 12 -52.5 12l-27.5 -149.5l-28.5 -150.5c24.667 -12 48.167 -25.5 70.5 -40.5
s40.833 -33.333 55.5 -55s22 -48.834 22 -81.501c0 -40 -10.833 -74.333 -32.5 -103s-50 -51.334 -85 -68.001s-73.167 -27 -114.5 -31c-12.667 -34 -28.334 -60 -47.001 -78s-41 -27 -67 -27zM272.001 -15c44 5.33301 78.166 19.832 102.499 43.499s36.5 52.5 36.5 86.5
c0 28.667 -8.16699 52.334 -24.5 71.001s-36.166 35 -59.499 49l-31.5 -155c-9 -44 -16.833 -75.667 -23.5 -95zM298 345.999l29.5 148.501c9.66699 48.333 17.5 89.166 23.5 122.499c-29.333 -6.66699 -54.5 -18.667 -75.5 -36s-37.333 -37 -49 -59s-17.5 -44 -17.5 -66
c0 -26.667 8.66699 -48.5 26 -65.5s38.333 -31.833 63 -44.5z" />
    <glyph glyph-name="percent" unicode="%" horiz-adv-x="726" 
d="M85 -87c16 16 36.3311 41.332 60.998 75.999s51.5 75.5 80.5 122.5l88.5 149l86.5 156c27.667 51.667 52.334 99.667 74.001 144s38.167 81.5 49.5 111.5c2.66699 7.33301 9 14.5 19 21.5s21.333 13.167 34 18.5s25 8 37 8c-3.33301 -10 -11.5 -29.167 -24.5 -57.5
s-29.333 -62.166 -49 -101.499l-64.5 -125l-70 -131l-66 -119.5c-20.667 -36.333 -38.334 -65.833 -53.001 -88.5c-35.333 -54.667 -69.166 -99 -101.499 -133s-66.166 -51 -101.499 -51zM194.998 341.999c-30 0 -52.502 11.167 -67.502 33.5s-22.5 48.5 -22.5 78.5
c0 22 3.5 45.5 10.5 70.5s17.167 48.5 30.5 70.5s29.333 40 48 54s39.334 21 62.001 21c27.333 0 49.5 -9.83301 66.5 -29.5s25.5 -45.834 25.5 -78.501c0 -21.333 -3.66699 -44.666 -11 -69.999s-17.666 -49.5 -30.999 -72.5s-29.333 -41.667 -48 -56
s-39.667 -21.5 -63 -21.5zM200.996 388.999c12 0 23.001 5.83398 33.001 17.501s19 26.5 27 44.5s14.167 37.5 18.5 58.5s6.5 40.5 6.5 58.5c0 16.667 -2.16699 30.167 -6.5 40.5s-11.833 15.5 -22.5 15.5c-14 0 -26.333 -6 -37 -18s-19.667 -27.333 -27 -46
s-12.833 -37.834 -16.5 -57.501s-5.5 -37.167 -5.5 -52.5c0 -18 2.66699 -32.667 8 -44s12.666 -17 21.999 -17zM532.997 -1c-30.667 0 -53.334 11.168 -68.001 33.501s-22 48.5 -22 78.5c0 22 3.5 45.5 10.5 70.5s17 48.5 30 70.5s28.833 40 47.5 54s39.334 21 62.001 21
c28 0 50.333 -9.83301 67 -29.5s25 -45.834 25 -78.501c0 -20.667 -3.66699 -43.667 -11 -69s-17.5 -49.5 -30.5 -72.5s-28.833 -41.833 -47.5 -56.5s-39.667 -22 -63 -22zM537.997 47.001c12 0 23.1689 5.66699 33.502 17s19.5 26.166 27.5 44.499s14.167 37.833 18.5 58.5
s6.5 40 6.5 58c0 16.667 -2.33301 30.334 -7 41.001s-12.334 16 -23.001 16c-14 0 -26.333 -6.16699 -37 -18.5s-19.667 -28 -27 -47s-12.833 -38.333 -16.5 -58s-5.5 -37.167 -5.5 -52.5c0 -18 2.66699 -32.333 8 -43s12.666 -16 21.999 -16z" />
    <glyph glyph-name="ampersand" unicode="&#x26;" horiz-adv-x="655" 
d="M218 -87c-42 0 -78.667 8.50488 -110 25.5049s-55.5 39.333 -72.5 67s-25.5 58.5 -25.5 92.5c0 30 6.5 59.5 19.5 88.5s31 55.5 54 79.5s50.167 44 81.5 60s65.333 26.333 102 31c-24.667 21.333 -43.167 45.333 -55.5 72s-18.5 53.667 -18.5 81c0 36 9 69.833 27 101.5
s43.167 57.5 75.5 77.5s69.833 30 112.5 30c38.667 0 68 -9.33301 88 -28s30 -45.667 30 -81c0 -25.333 -4.16699 -50 -12.5 -74s-18.666 -43.833 -30.999 -59.5s-24.833 -23.5 -37.5 -23.5c-8.66699 0 -16.834 3.83301 -24.501 11.5s-14.167 16.5 -19.5 26.5
c24 20.667 44.167 42 60.5 64s24.5 45 24.5 69c0 19.333 -5.5 35.166 -16.5 47.499s-28.167 18.5 -51.5 18.5c-30 0 -55.5 -9 -76.5 -27s-36.833 -41.333 -47.5 -70s-16 -60 -16 -94c0 -15.333 1.5 -32.333 4.5 -51s9.33301 -37.167 19 -55.5s24.5 -35.5 44.5 -51.5
c-47.333 -7.33301 -88.166 -24 -122.499 -50s-61 -56.333 -80 -91s-28.5 -69 -28.5 -103c0 -20.667 4.16699 -41.834 12.5 -63.501s22 -40 41 -55s44.167 -22.5 75.5 -22.5c36 0 70.333 8.66699 103 26s62.5 40.333 89.5 69s49.167 61.167 66.5 97.5s28.333 73.5 33 111.5
c-13.333 -0.666992 -25.833 -1.66699 -37.5 -3s-24.834 -3.33301 -39.501 -6s-33.667 -6.33398 -57 -11.001c0.666992 32 11.667 53.333 33 64s47 16 77 16c20.667 0 39.834 -1.33301 57.501 -4l52.5 -8c17.333 -2.66699 35.666 -4.33398 54.999 -5.00098
c-10 -19.333 -18.833 -31 -26.5 -35s-15.5 -6 -23.5 -6c-11.333 0 -21.5 -0.166992 -30.5 -0.5s-17.5 -0.5 -25.5 -0.5c-4.66699 -45.333 -17.5 -88.833 -38.5 -130.5s-47.667 -78.834 -80 -111.501s-68.5 -58.5 -108.5 -77.5s-82 -28.5 -126 -28.5z" />
    <glyph glyph-name="quotesingle" unicode="'" horiz-adv-x="146" 
d="M169 576c-8.66699 4.66699 -15.001 10.668 -19.001 18.001s-6 15.333 -6 24c0 13.333 3 28 9 44s13.833 29.833 23.5 41.5s19.834 17.5 30.501 17.5c7.33301 0 14 -3.16699 20 -9.5s9.33301 -14.5 10 -24.5c-16 -16 -30 -34.333 -42 -55s-20.667 -39.334 -26 -56.001z
" />
    <glyph glyph-name="parenleft" unicode="(" horiz-adv-x="283" 
d="M166 -87c-18 10 -34.166 28.6689 -48.499 56.002s-25.833 60.333 -34.5 99s-13 79.667 -13 123c0 63.333 7.66699 122.166 23 176.499s35.166 103.333 59.499 147s50.666 80.667 78.999 111s55.833 53.666 82.5 69.999s49.667 24.5 69 24.5
c-42.667 -32 -79.5 -69.333 -110.5 -112s-56.333 -88.167 -76 -136.5s-34.167 -97.833 -43.5 -148.5s-14 -100 -14 -148c0 -52 4.66699 -98 14 -138s22 -72.667 38 -98c-3.33301 -6.66699 -7.16602 -12 -11.499 -16s-8.83301 -7.33301 -13.5 -10z" />
    <glyph glyph-name="parenright" unicode=")" horiz-adv-x="299" 
d="M-13 -87c-5.33301 0.666992 -10.834 4.5 -16.501 11.5s-10.167 13.5 -13.5 19.5c48 32 91.5 73.167 130.5 123.5s70.333 108.5 94 174.5s35.5 139 35.5 219c0 42.667 -5 85.667 -15 129s-32.667 87.666 -68 132.999c20.667 -4.66699 42.334 -19.167 65.001 -43.5
s41.667 -57.166 57 -98.499s23 -90.333 23 -147c0 -60 -7.5 -116.5 -22.5 -169.5s-34.333 -101 -58 -144s-48.834 -80 -75.501 -111s-52.167 -54.833 -76.5 -71.5s-44.166 -25 -59.499 -25z" />
    <glyph glyph-name="asterisk" unicode="*" horiz-adv-x="408" 
d="M378 404c-12.667 13.333 -27.5039 31.832 -44.5039 55.499l-50.5 71.5c-16.667 -31.333 -34 -58.666 -52 -81.999s-39 -35.333 -63 -36c11.333 15.333 20.833 29.833 28.5 43.5s14.834 27.667 21.501 42l21 43.5c-27.333 0 -52.166 2.16699 -74.499 6.5
s-36.166 15.833 -41.499 34.5c16 1.33301 34.167 2.33301 54.5 3l61.5 2c-13.333 21.333 -24.333 41.333 -33 60s-13 34.334 -13 47.001c0 9.33301 2.83301 16.166 8.5 20.499s9.16699 8.5 10.5 12.5l36.5 -70.5c9.66699 -19 20.5 -37.167 32.5 -54.5
c11.333 30.667 24.833 57.5 40.5 80.5s36.167 37.5 61.5 43.5c-7.33301 -22 -17.166 -44.5 -29.499 -67.5s-24.166 -46.5 -35.499 -70.5c16 0 32.333 -0.333008 49 -1s33.167 -3.5 49.5 -8.5s31.166 -13.5 44.499 -25.5l-133 -12l23.5 -34.5
c7.66699 -11.667 14 -25.5 19 -41.5s7.5 -36.667 7.5 -62z" />
    <glyph glyph-name="plus" unicode="+" horiz-adv-x="430" 
d="M164 -8c3.33301 20 5.5 38.001 6.5 54.001s1.66699 32.333 2 49s0.5 35 0.5 55c-20 0 -38.167 -0.166992 -54.5 -0.5s-33 -1.33301 -50 -3s-36.5 -4.16699 -58.5 -7.5c7.33301 21.333 25.833 36.166 55.5 44.499s65.167 12.833 106.5 13.5v44
c0 16 2.16699 33.167 6.5 51.5s14.166 38.5 29.499 60.5c1.33301 -15.333 3.5 -37.333 6.5 -66s4.83301 -58.667 5.5 -90c34 -0.666992 67 -2.16699 99 -4.5s56.333 -4.16602 73 -5.49902c-21.333 -14.667 -42.666 -24.5 -63.999 -29.5s-39.333 -7.5 -54 -7.5h-53
c-0.666992 -27.333 -2.5 -52.5 -5.5 -75.5s-8.5 -41.833 -16.5 -56.5s-19.667 -23.334 -35 -26.001z" />
    <glyph glyph-name="comma" unicode="," horiz-adv-x="209" 
d="M24 -88c-8 4.66699 -14 10.6689 -18 18.002s-6 15.333 -6 24c0 13.333 3 28.166 9 44.499s13.833 30.333 23.5 42s19.5 17.5 29.5 17.5c8 0 15 -3.16699 21 -9.5s9 -13.5 9 -21.5c-16.667 -18.667 -29.5 -36.834 -38.5 -54.501z" />
    <glyph glyph-name="hyphen" unicode="-" horiz-adv-x="499" 
d="M49 143c4 12.667 12.501 22.998 25.501 30.998s28.167 14 45.5 18s34.666 6.5 51.999 7.5s32.666 1.5 45.999 1.5c11.333 0 26.5 -0.333008 45.5 -1l59.5 -2c20.667 -0.666992 39.5 -1.5 56.5 -2.5s29.833 -1.83301 38.5 -2.5
c-13.333 -15.333 -31.666 -26.666 -54.999 -33.999s-48 -11 -74 -11c-15.333 0 -33.333 0.666992 -54 2s-41.667 2 -63 2c-15.333 0 -31 -0.5 -47 -1.5s-30.667 -2.16699 -44 -3.5s-24 -2.66602 -32 -3.99902z" />
    <glyph glyph-name="period" unicode="." horiz-adv-x="233" 
d="M61 -10c-13.333 0 -23.333 3.50098 -30 10.501s-10 14.833 -10 23.5c0 7.33301 3.33301 14.833 10 22.5s14.834 14 24.501 19s18.834 7.5 27.501 7.5c7.33301 0 14.166 -2 20.499 -6s9.5 -11.333 9.5 -22c0 -6 -2.16699 -13.333 -6.5 -22s-10.333 -16.334 -18 -23.001
s-16.834 -10 -27.501 -10z" />
    <glyph glyph-name="slash" unicode="/" horiz-adv-x="347" 
d="M-65 -162c14.667 14 31.498 36.5 50.498 67.5s39 67.5 60 109.5s42.333 87.333 64 136l64 148.5l60 146l51.5 129l38 97.5c2.66699 7.33301 9.16699 14.5 19.5 21.5s22.5 13 36.5 18s28.333 7.5 43 7.5c-2.66699 -8 -9.16699 -24.167 -19.5 -48.5l-38 -90l-48.5 -116
l-54 -128l-53.5 -126l-46.5 -109c-14 -32.333 -25 -58.5 -33 -78.5c-25.333 -58.667 -55.666 -104.167 -90.999 -136.5s-69.666 -48.5 -102.999 -48.5z" />
    <glyph glyph-name="zero" unicode="0" horiz-adv-x="650" 
d="M263 -87c-46 0 -84 12.167 -114 36.5s-52.333 56.833 -67 97.5s-22 85.334 -22 134.001c0 44 5.5 90.833 16.5 140.5s27 98 48 145s46.667 89.667 77 128s64.5 68.833 102.5 91.5s79.667 34 125 34c42.667 0 79.667 -10.5 111 -31.5s55.833 -51.333 73.5 -91
s26.5 -87.834 26.5 -144.501c0 -50.667 -6.16699 -101.667 -18.5 -153s-29.833 -100 -52.5 -146s-49.5 -87.167 -80.5 -123.5s-65.5 -65 -103.5 -86s-78.667 -31.5 -122 -31.5zM277 -44c30 0 58.8311 11.335 86.498 34.002s53 52.834 76 90.501s43 79.667 60 126
s30.333 93.666 40 141.999s14.5 94.166 14.5 137.499c0 38 -4.16699 71.833 -12.5 101.5s-21.5 53.167 -39.5 70.5s-42.333 26 -73 26c-30 0 -57.5 -8.66699 -82.5 -26s-47.833 -40.5 -68.5 -69.5s-38.667 -61.667 -54 -98s-28.166 -74 -38.499 -113
s-18.166 -77 -23.499 -114s-8 -70.5 -8 -100.5c0 -62.667 11 -112.834 33 -150.501s52 -56.5 90 -56.5z" />
    <glyph glyph-name="one" unicode="1" horiz-adv-x="383" 
d="M58 -87c-19.333 0 -37.002 4.33203 -53.002 12.999s-30.333 21.334 -43 38.001c9.33301 -0.666992 17.166 -1.33398 23.499 -2.00098s13.5 -1 21.5 -1c16 0 33.333 1.16699 52 3.5s36.667 4.83301 54 7.5c11.333 26.667 22.333 60 33 100s20.834 82.833 30.501 128.5
s18.667 91.667 27 138l24 129.5c7.66699 40 14.834 74.333 21.501 103c-36.667 -24.667 -62.667 -40.834 -78 -48.501s-27 -11.5 -35 -11.5c-8.66699 0 -15.5 2.5 -20.5 7.5s-7.5 14.833 -7.5 29.5c13.333 6.66699 32.166 18.5 56.499 35.5s51.166 37.333 80.499 61
s57.333 48.5 84 74.5c4 -3.33301 6.83301 -8.33301 8.5 -15s2.5 -13.667 2.5 -21c0 -16 -2.83301 -32.667 -8.5 -50s-10.167 -37 -13.5 -59c-6.66699 -44.667 -14.5 -92.5 -23.5 -143.5s-19.333 -102.833 -31 -155.5s-25 -104.167 -40 -154.5
s-32.167 -97.166 -51.5 -140.499c6.66699 0.666992 12.834 1.16699 18.501 1.5s11.834 0.5 18.501 0.5c25.333 0 47.333 -4.16699 66 -12.5s31 -26.166 37 -53.499c-15.333 2 -30.333 3.5 -45 4.5s-28.667 1.5 -42 1.5c-20 0 -40.333 -0.666992 -61 -2
s-40.167 -2.83301 -58.5 -4.5s-34.166 -2.5 -47.499 -2.5z" />
    <glyph glyph-name="two" unicode="2" horiz-adv-x="586" 
d="M425 -87c-21.333 0 -45.5029 4.00098 -72.5029 12.001s-55 17.667 -84 29l-86.5 34c-21.333 -13.333 -41.666 -23.666 -60.999 -30.999s-38 -11 -56 -11c-22 0 -40 5.33301 -54 16s-21 25 -21 43c0 15.333 6.33301 27.666 19 36.999s33.334 14 62.001 14
c14.667 0 31.167 -1.16699 49.5 -3.5s37.5 -5.5 57.5 -9.5c30.667 26 61.667 58.667 93 98s60 82.166 86 128.499s47 93.166 63 140.499s24 92 24 134c0 48.667 -10 84.167 -30 106.5s-45.667 33.5 -77 33.5c-30 0 -55 -9 -75 -27s-35 -41.167 -45 -69.5
s-15 -58.166 -15 -89.499c0 -15.333 1.33301 -29 4 -41s7 -25.333 13 -40c-2 0 -4.33301 0.166992 -7 0.5s-5.33398 0.5 -8.00098 0.5c-20 3.33301 -37.333 11.833 -52 25.5s-22 36.5 -22 68.5c0 36 9.33301 69.833 28 101.5s44.5 57.334 77.5 77.001
s71.167 29.5 114.5 29.5c37.333 0 69 -8.5 95 -25.5s45.667 -40 59 -69s20 -61.5 20 -97.5c0 -28.667 -3.66699 -58.334 -11 -89.001s-17.666 -61 -30.999 -91c-16.667 -39.333 -38 -78.5 -64 -117.5s-54.167 -75.667 -84.5 -110s-61.833 -64.5 -94.5 -90.5
c45.333 -10 85.833 -18.333 121.5 -25s64.834 -10 87.501 -10c15.333 0 29 2.16699 41 6.5s27.333 11.833 46 22.5c-10 -38 -23.833 -66 -41.5 -84s-40.5 -27 -68.5 -27zM62.9971 -17.999c10 0 20.499 2.16699 31.499 6.5s22.5 10.5 34.5 18.5
c-13.333 4 -25.833 7.33301 -37.5 10s-21.5 4 -29.5 4c-12.667 0 -21.167 -2.16699 -25.5 -6.5s-6.5 -8.5 -6.5 -12.5c0.666992 -5.33301 4.33398 -10 11.001 -14s14 -6 22 -6z" />
    <glyph glyph-name="three" unicode="3" horiz-adv-x="531" 
d="M191 -87c-43.333 0 -77.834 7.66406 -103.501 22.9971s-44.167 34.333 -55.5 57s-17 45 -17 67c0 17.333 3.16699 34.333 9.5 51s15.833 30.667 28.5 42s28.667 17 48 17c3.33301 0 7 -0.166992 11 -0.5s10 -1.16602 18 -2.49902
c-11.333 -9.33301 -20.5 -23.333 -27.5 -42s-10.5 -36.667 -10.5 -54c0 -19.333 4.33301 -38 13 -56s21.167 -32.667 37.5 -44s35.166 -17 56.499 -17c26 0 51.167 9 75.5 27s44.333 42.833 60 74.5s23.5 68.167 23.5 109.5c0 26 -3.83301 51.5 -11.5 76.5
s-20.667 47.167 -39 66.5s-43.833 33.333 -76.5 42c36 15.333 67 36.666 93 63.999s46 57 60 89s21 62 21 90c0 33.333 -9.16699 56.833 -27.5 70.5s-39.166 20.5 -62.499 20.5c-18 0 -35.5 -3.83301 -52.5 -11.5s-31.167 -19 -42.5 -34s-17 -33.167 -17 -54.5
c0 -10 1.66699 -20.833 5 -32.5s8 -23.5 14 -35.5c-4 -7.33301 -10.5 -14.666 -19.5 -21.999s-17.833 -11 -26.5 -11s-16.5 4.5 -23.5 13.5s-12.167 20 -15.5 33s-5 25.833 -5 38.5c0 32.667 9.66699 60.167 29 82.5s44 39.5 74 51.5s60.667 18 92 18
c28 0 54.5 -5.16699 79.5 -15.5s45.5 -25.666 61.5 -45.999s24 -45.5 24 -75.5c0 -20.667 -4 -42.334 -12 -65.001s-19.5 -44.334 -34.5 -65.001s-32.5 -39 -52.5 -55s-42 -28.333 -66 -37c36.667 -11.333 65.5 -27.666 86.5 -48.999s36 -44.666 45 -69.999
s13.5 -49.666 13.5 -72.999c0 -31.333 -6.83301 -62.166 -20.5 -92.499s-33.167 -57.833 -58.5 -82.5s-55.166 -44.334 -89.499 -59.001s-71.833 -22 -112.5 -22z" />
    <glyph glyph-name="four" unicode="4" horiz-adv-x="498" 
d="M326 -87c-28 2 -49.668 7.5 -65.001 16.5s-23 20.833 -23 35.5c0 2.66699 0.5 9 1.5 19s3.5 26.333 7.5 49l16 94c2.66699 10.667 5.83398 25.5 9.50098 44.5l11.5 60.5l-42 2c-14 0.666992 -24.667 1 -32 1c-10.667 0 -23.667 -0.333008 -39 -1
s-31.666 -1.5 -48.999 -2.5s-34.333 -2.16699 -51 -3.5s-31.334 -2.83301 -44.001 -4.5s-22 -3.5 -28 -5.5c0 14.667 3.83301 27.167 11.5 37.5s17.167 20.5 28.5 30.5l90.5 88l112.5 109.5c39.333 39 76.833 78.833 112.5 119.5s66.167 79.667 91.5 117
c4.66699 -2 9.16699 -5.33301 13.5 -10s6.5 -12 6.5 -22c0 -16 -6.33301 -34.333 -19 -55l-15.5 -72c-7 -32.667 -15 -72 -24 -118l-28.5 -150h12h12c20.667 0 37.167 0.666992 49.5 2s24.833 4 37.5 8c-14.667 -20.667 -32 -37.667 -52 -51s-39.667 -20.333 -59 -21h-5.5
h-6.5c-0.666992 -4.66699 -1.83398 -11.5 -3.50098 -20.5s-3.5 -19.5 -5.5 -31.5l-9.5 -62c-3.66699 -24 -7.16699 -49 -10.5 -75s-6.16602 -50.5 -8.49902 -73.5s-3.5 -41.5 -3.5 -55.5zM105.999 295c14 1.33301 28.667 2.16797 44 2.50098s32 0.5 50 0.5
s35.167 -0.166992 51.5 -0.5s31.833 -0.833008 46.5 -1.5c8.66699 41.333 17.667 82 27 122s19 76.667 29 110l-68.5 -64.5l-72.5 -66c-24 -21.667 -46.333 -42.834 -67 -63.501l-21 -20z" />
    <glyph glyph-name="five" unicode="5" horiz-adv-x="503" 
d="M185 -87c-45.333 0 -81.165 7.66309 -107.498 22.9961s-45 34.166 -56 56.499s-16.5 44.5 -16.5 66.5c0 17.333 3.16699 34.5 9.5 51.5s15.833 31.167 28.5 42.5s28.667 17 48 17c3.33301 0 7.16602 -0.166992 11.499 -0.5s10.5 -1.16602 18.5 -2.49902
c-12 -9.33301 -21.5 -23.166 -28.5 -41.499s-10.5 -37.5 -10.5 -57.5c0 -18.667 3.5 -36.667 10.5 -54s18 -31.666 33 -42.999s34.833 -17 59.5 -17c26 0 49.167 6.5 69.5 19.5s37.666 30.167 51.999 51.5s25.333 44.833 33 70.5s11.5 51.167 11.5 76.5
c0 26.667 -4.66699 51.667 -14 75s-23.833 42.166 -43.5 56.499s-45.834 21.5 -78.501 21.5c-12 0 -26.667 -1 -44 -3s-36 -5 -56 -9c2.66699 20.667 7.33398 45.5 14.001 74.5s14.334 59.5 23.001 91.5l26.5 94l24.5 83c7.33301 24.667 12.666 44 15.999 58
c22 -4.66699 42.333 -8 61 -10s35.667 -3 51 -3c28.667 0 56 2 82 6s53 8.66699 81 14c1.33301 -7.33301 2.66602 -13.666 3.99902 -18.999s2 -10.666 2 -15.999c0 -19.333 -6.66699 -34.5 -20 -45.5s-30 -18.833 -50 -23.5s-40.333 -7 -61 -7c-24.667 0 -46.167 2 -64.5 6
s-34.166 6 -47.499 6c-4 0 -7.16699 -1 -9.5 -3s-4.83301 -5.66699 -7.5 -11c-6 -10 -12 -24.167 -18 -42.5s-12 -38.333 -18 -60l-17 -64l-13.5 -55c-3.66699 -15.667 -6.5 -26.5 -8.5 -32.5c13.333 2.66699 27 4.83398 41 6.50098s28 2.5 42 2.5
c47.333 0 86.5 -8.5 117.5 -25.5s54.167 -40 69.5 -69s23 -62.167 23 -99.5c0 -47.333 -11.333 -90.333 -34 -129s-54.667 -69.5 -96 -92.5s-89 -34.5 -143 -34.5z" />
    <glyph glyph-name="six" unicode="6" horiz-adv-x="582" 
d="M272 -87c-51.333 0 -93.002 11.166 -125.002 33.499s-55.333 52.666 -70 90.999s-22 80.833 -22 127.5c0 44 5.83301 91.333 17.5 142s28.5 100.334 50.5 149.001s49.167 92.834 81.5 132.501s68.833 71.5 109.5 95.5s85 36 133 36c30 0 54.667 -5 74 -15
s29 -25.667 29 -47c0 -10 -3.5 -19.833 -10.5 -29.5s-21.833 -17.5 -44.5 -23.5c0 5.33301 0.333008 10.5 1 15.5s1 10.167 1 15.5c0 14 -3.5 26.167 -10.5 36.5s-21.167 15.5 -42.5 15.5c-32 0 -61.667 -10.833 -89 -32.5s-52.333 -50.334 -75 -86.001
s-42.5 -75.167 -59.5 -118.5s-30.833 -86.666 -41.5 -129.999c22 18.667 47.667 33 77 43s59.333 15 90 15c34.667 0 66.667 -7 96 -21s53 -35.5 71 -64.5s27 -66.5 27 -112.5c0 -50.667 -11.167 -96.167 -33.5 -136.5s-53.666 -72.333 -93.999 -96
s-87.166 -35.5 -140.499 -35.5zM276.998 -46.001c25.333 0 48.1689 6.83496 68.502 20.502s37.666 31.5 51.999 53.5s25.333 46.833 33 74.5s11.5 55.167 11.5 82.5c0 35.333 -5.83301 64 -17.5 86s-27.334 38.167 -47.001 48.5s-41.834 15.5 -66.501 15.5
c-38 0 -68.333 -9.16699 -91 -27.5s-39.167 -42 -49.5 -71s-15.5 -60.167 -15.5 -93.5c0 -18 1.83301 -37.833 5.5 -59.5s9.83398 -42.334 18.501 -62.001s21 -35.834 37 -48.501s36.333 -19 61 -19z" />
    <glyph glyph-name="seven" unicode="7" horiz-adv-x="427" 
d="M115 -87c-10 0 -19.165 4.16602 -27.498 12.499s-12.5 20.833 -12.5 37.5c0 18 5.66699 43.333 17 76s26.833 70.834 46.5 114.501s41.834 90.5 66.501 140.5c-12.667 0 -27.334 -0.5 -44.001 -1.5s-33.5 -2.16699 -50.5 -3.5s-32.167 -3 -45.5 -5
c0.666992 20.667 8 36.167 22 46.5s32.167 17.5 54.5 21.5s46.166 6.33301 71.499 7h13.5h12.5l72.5 121.5l88.5 145.5c-14.667 0 -31.167 -0.5 -49.5 -1.5l-54.5 -3c-18 -1 -35 -1.5 -51 -1.5c-42.667 0 -72.167 5 -88.5 15s-24.5 22.333 -24.5 37
c0 13.333 5.33301 29 16 47l59 -10c19.333 -3.33301 39.666 -5.83301 60.999 -7.5s44.666 -2.5 69.999 -2.5c32 0 64.5 2 97.5 6s62.167 10 87.5 18l-28.5 -39.5l-29.5 -40.5c-28.667 -41.333 -56.167 -85.166 -82.5 -131.499s-53.166 -98.5 -80.499 -156.5
c15.333 -1.33301 29.666 -2.33301 42.999 -3s27.333 -1 42 -1c10 0 19.333 0.333008 28 1s17.334 2 26.001 4c-14 -19.333 -28.5 -34.5 -43.5 -45.5s-31.167 -16.5 -48.5 -16.5h-34.5h-40.5l-38 -90.5c-13.333 -33 -24.833 -65.5 -34.5 -97.5s-14.5 -60.667 -14.5 -86
c0 -8.66699 1 -16.667 3 -24s6 -13 12 -17c-12 -24.667 -27 -41.834 -45 -51.501s-32 -14.5 -42 -14.5z" />
    <glyph glyph-name="eight" unicode="8" horiz-adv-x="550" 
d="M225 -87c-35.333 0 -65.001 5.33398 -89.001 16.001s-43.167 24.5 -57.5 41.5s-24.666 35.333 -30.999 55s-9.5 38.5 -9.5 56.5c0 28.667 6.66699 54.667 20 78s30.5 44.833 51.5 64.5s44.167 38.667 69.5 57l75 55.5c-18.667 20 -37 40.833 -55 62.5s-32.5 45 -43.5 70
s-16.5 52.833 -16.5 83.5c0 40 9.5 72 28.5 96s43.5 41.667 73.5 53s60 17 90 17c48 0 87 -12.333 117 -37s45 -61.667 45 -111c0 -32 -6.33301 -61 -19 -87s-29.667 -50 -51 -72s-45.333 -43.333 -72 -64c22.667 -22 44 -44.5 64 -67.5s36.167 -47.167 48.5 -72.5
s18.5 -53.333 18.5 -84c0 -42.667 -12.333 -79.834 -37 -111.501s-56.5 -56.167 -95.5 -73.5s-80.5 -26 -124.5 -26zM234.999 -38.999c24 0 47.665 6.50098 70.998 19.501s43 31.5 59 55.5s24 51.667 24 83c0 36 -10 68.333 -30 97s-43.667 57.334 -71 86.001
c-29.333 -20.667 -57.666 -42.167 -84.999 -64.5s-49.666 -46 -66.999 -71s-26 -52.833 -26 -83.5c0 -24.667 6.16699 -46.334 18.5 -65.001s28 -32.834 47 -42.501s38.833 -14.5 59.5 -14.5zM317.997 384.002c30.667 26 56.165 54 76.498 84s30.5 64.333 30.5 103
c0 37.333 -9 65.333 -27 84s-39.667 28 -65 28c-14.667 0 -30.167 -3.83301 -46.5 -11.5s-30.166 -20.167 -41.499 -37.5s-17 -40.333 -17 -69c0 -35.333 8.83301 -67.5 26.5 -96.5s38.834 -57.167 63.501 -84.5z" />
    <glyph glyph-name="nine" unicode="9" horiz-adv-x="587" 
d="M204 -87c-29.333 0 -54.1621 5.16309 -74.4951 15.4961s-30.5 26.5 -30.5 48.5c0 10 3.5 19.833 10.5 29.5s21.167 17.5 42.5 23.5c0 -4.66699 0.166992 -9.33398 0.5 -14.001s0.5 -9.66699 0.5 -15c1.33301 -14.667 5.66602 -27.667 12.999 -39s21 -17 41 -17
c31.333 0 60.333 10.833 87 32.5s50.667 50.334 72 86.001s39.666 75.167 54.999 118.5s27.333 86.666 36 129.999c-21.333 -18 -46.5 -32 -75.5 -42s-58.5 -15 -88.5 -15c-36.667 0 -70.167 7.5 -100.5 22.5s-54.5 37.833 -72.5 68.5s-27 69 -27 115
c0 50 10.667 94.5 32 133.5s51.333 69.667 90 92s83.667 33.5 135 33.5c55.333 0 99.666 -12.5 132.999 -37.5s57.166 -58.167 71.499 -99.5s21.5 -86.666 21.5 -135.999c0 -45.333 -5.5 -92.666 -16.5 -141.999s-26.833 -97.166 -47.5 -143.499
s-46.167 -88.166 -76.5 -125.499s-64.833 -67.166 -103.5 -89.499s-81.334 -33.5 -128.001 -33.5zM329.004 297.996c50 0 86.668 15.832 110.001 47.499s35 73.167 35 124.5c0 22 -1.83301 45.167 -5.5 69.5s-10.334 47 -20.001 68s-22.834 38.167 -39.501 51.5
s-37.667 20 -63 20c-24 0 -45.833 -6.5 -65.5 -19.5s-36 -30.167 -49 -51.5s-23.167 -45.166 -30.5 -71.499s-11 -52.833 -11 -79.5c0 -36 6.16699 -65.833 18.5 -89.5s28.833 -41.167 49.5 -52.5s44.334 -17 71.001 -17z" />
    <glyph glyph-name="colon" unicode=":" horiz-adv-x="239" 
d="M120 232c-9.33301 0 -17.999 2.49902 -25.999 7.49902s-12 12.833 -12 23.5c0 12.667 7 23.334 21 32.001s28 13 42 13c9.33301 0 16.666 -2.16699 21.999 -6.5s8 -11.833 8 -22.5c0 -10 -5.66699 -20.333 -17 -31s-24 -16 -38 -16zM62.001 -10.001
c-9.33301 0 -17.835 2.49902 -25.502 7.49902s-11.5 12.833 -11.5 23.5c0 12.667 6.83301 23.334 20.5 32.001s27.834 13 42.501 13c8.66699 0 15.834 -2.16699 21.501 -6.5s8.5 -11.833 8.5 -22.5c0 -10 -5.66699 -20.333 -17 -31s-24.333 -16 -39 -16z" />
    <glyph glyph-name="semicolon" unicode=";" horiz-adv-x="238" 
d="M40 -88c-8 4.66699 -14 10.833 -18 18.5s-6 15.5 -6 23.5c0 14 3 29.5 9 46.5s14 31.667 24 44s20.667 18.5 32 18.5c8 0 15.167 -3.16699 21.5 -9.5s9.5 -13.833 9.5 -22.5c-17.333 -18.667 -30.833 -37.167 -40.5 -55.5s-20.167 -39.5 -31.5 -63.5zM119 232.999
c-10 0 -18.666 2.5 -25.999 7.5s-11 12.833 -11 23.5c0 12.667 6.66699 23.334 20 32.001s27.333 13 42 13c9.33301 0 17 -2 23 -6s9 -11.333 9 -22s-5.83301 -21.334 -17.5 -32.001s-24.834 -16 -39.501 -16z" />
    <glyph glyph-name="less" unicode="&#x3c;" horiz-adv-x="322" 
d="M195 44c-12.667 0 -27.832 4.16602 -45.499 12.499s-35.334 18.833 -53.001 31.5s-32.834 25.667 -45.501 39s-20.667 25.333 -24 36c24 8.66699 48 21.5 72 38.5s46.5 36 67.5 57s38.833 41.833 53.5 62.5c2.66699 -2.66699 5.16699 -7 7.5 -13s3.5 -12.333 3.5 -19
c0 -13.333 -5.16699 -26.5 -15.5 -39.5s-23.666 -25.667 -39.999 -38s-33.833 -24 -52.5 -35s-36.667 -20.833 -54 -29.5l40.5 -26c13 -8 29 -16.167 48 -24.5s43.833 -18.166 74.5 -29.499c-4 -5.33301 -9.33301 -10.5 -16 -15.5s-13.667 -7.5 -21 -7.5z" />
    <glyph glyph-name="equal" unicode="=" horiz-adv-x="512" 
d="M57 198c4 16.667 15.001 28.9961 33.001 36.9961s40.667 13.333 68 16s56.666 4 87.999 4c23.333 0 46.5 -0.666992 69.5 -2s44.333 -2.66602 64 -3.99902s35.167 -2.66602 46.5 -3.99902c-22 -15.333 -43.333 -25.333 -64 -30s-38 -7 -52 -7h-98
c-20 0 -37.833 -0.166992 -53.5 -0.5s-31.5 -1.16602 -47.5 -2.49902s-34 -3.66602 -54 -6.99902zM59.001 105.996c2.66699 16.667 13.002 28.9961 31.002 36.9961s40.833 13.333 68.5 16s57.5 4 89.5 4c22.667 0 45.667 -0.666992 69 -2s44.666 -2.66602 63.999 -3.99902
s34.666 -2.66602 45.999 -3.99902c-21.333 -15.333 -42.5 -25.333 -63.5 -30s-38.5 -7 -52.5 -7h-97c-20 0 -37.833 -0.166992 -53.5 -0.5s-31.5 -1.16602 -47.5 -2.49902s-34 -3.66602 -54 -6.99902z" />
    <glyph glyph-name="greater" unicode="&#x3e;" horiz-adv-x="333" 
d="M110 44c-8.66699 0 -16.499 2.5 -23.499 7.5s-12.167 10.167 -15.5 15.5c30.667 11.333 55.334 21.166 74.001 29.499s34.334 16.5 47.001 24.5s25.667 16.667 39 26l-54.5 29.5c-19.667 11 -37.834 22.667 -54.501 35s-30.5 25 -41.5 38s-16.5 26.167 -16.5 39.5
c0 4.66699 1 9.83398 3 15.501s4 10.5 6 14.5c14.667 -18.667 33.167 -38.167 55.5 -58.5s46.166 -39.166 71.499 -56.499s49.666 -31 72.999 -41c-2.66699 -10 -10.167 -21.833 -22.5 -35.5s-27 -26.834 -44 -39.501s-34.333 -23.167 -52 -31.5s-32.5 -12.5 -44.5 -12.5z
" />
    <glyph glyph-name="question" unicode="?" horiz-adv-x="454" 
d="M254 121c-15.333 8 -25.499 15.334 -30.499 22.001s-7.5 17 -7.5 31c0 31.333 6.33301 59.833 19 85.5s28.5 50.167 47.5 73.5l57 70.5c19 23.667 34.833 49.167 47.5 76.5s19 58 19 92c0 36.667 -7.33301 64.5 -22 83.5s-33 28.5 -55 28.5
c-23.333 0 -46.333 -9.16699 -69 -27.5s-41.667 -42.833 -57 -73.5s-23 -64.667 -23 -102c0 -11.333 0.833008 -22 2.5 -32s4.16699 -21 7.5 -33c-30 5.33301 -50 15.166 -60 29.499s-15 31.833 -15 52.5c0 38 8.83301 73.833 26.5 107.5s43 61.167 76 82.5
s71.167 32 114.5 32c44 0 79.167 -11.667 105.5 -35s39.5 -57 39.5 -101c0 -29.333 -5.33301 -55.5 -16 -78.5s-24.167 -44.333 -40.5 -64s-33.666 -39.5 -51.999 -59.5s-35.333 -41.5 -51 -64.5s-27.834 -49.833 -36.501 -80.5
c-6.66699 -22.667 -10.834 -42.667 -12.501 -60s-6.5 -36 -14.5 -56zM212.001 -9.99902c-10 0 -18.666 2.66602 -25.999 7.99902s-11 13 -11 23c0 12.667 6.83301 23.5 20.5 32.5s27.5 13.5 41.5 13.5c9.33301 0 17 -2.16699 23 -6.5s9 -11.166 9 -20.499
c0 -12 -5.83301 -23.333 -17.5 -34s-24.834 -16 -39.501 -16z" />
    <glyph glyph-name="at" unicode="@" horiz-adv-x="603" 
d="M233 -121c-51.333 0 -93.4922 10.0059 -126.492 30.0059s-57.333 46.167 -73 78.5s-23.5 66.833 -23.5 103.5c0 37.333 7.66699 74.166 23 110.499s37.166 69 65.499 98s62.666 52.167 102.999 69.5s85.166 26 134.499 26c50.667 0 92.5 -8.83301 125.5 -26.5
s57.5 -40.5 73.5 -68.5s24 -57.667 24 -89c0 -24.667 -4.66699 -49 -14 -73s-22 -46 -38 -66s-34.833 -36 -56.5 -48s-45.167 -18 -70.5 -18c-20.667 0 -36.5 4.5 -47.5 13.5s-17.833 20.833 -20.5 35.5c-1.33301 4.66699 -2.16602 9.16699 -2.49902 13.5
s-0.166016 8.83301 0.500977 13.5c-22.667 -27.333 -44.667 -49 -66 -65s-42.333 -24 -63 -24c-17.333 0 -32.5 5.83301 -45.5 17.5s-19.5 29.167 -19.5 52.5s6.66699 49.166 20 77.499s31.166 55.333 53.499 81s46.833 46.667 73.5 63s53.667 24.5 81 24.5
c22 0 40.667 -5.66699 56 -17s23 -25 23 -41c0 -12 -3 -20.667 -9 -26s-12.667 -8.83301 -20 -10.5s-13.666 -2.16699 -18.999 -1.5c1.33301 3.33301 2.16602 7 2.49902 11s0.5 7.66699 0.5 11c0 12 -2 22.667 -6 32s-13.333 14 -28 14
c-18.667 0 -37.834 -7.83301 -57.501 -23.5s-37.5 -35.5 -53.5 -59.5s-29 -48.333 -39 -73s-15 -46 -15 -64c0 -10.667 1.66699 -18 5 -22s7.33301 -6 12 -6c9.33301 0 22 5.83301 38 17.5s32.833 26.667 50.5 45s34 37.333 49 57s26.5 37.167 34.5 52.5
c7.33301 -0.666992 15.666 -3.33398 24.999 -8.00098s14 -10 14 -16c0 -7.33301 -3.83301 -17.333 -11.5 -30s-15.334 -26.167 -23.001 -40.5s-11.5 -27.833 -11.5 -40.5c0 -5.33301 1.83301 -11.166 5.5 -17.499s12.167 -9.5 25.5 -9.5c20.667 0 40.5 7.83301 59.5 23.5
s34.833 36 47.5 61s19 50.833 19 77.5c0 24 -6.16699 47.667 -18.5 71s-31.833 42.666 -58.5 57.999s-61.334 23 -104.001 23s-81.334 -7.83301 -116.001 -23.5s-64.5 -36.667 -89.5 -63s-44 -55.333 -57 -87s-19.5 -63.834 -19.5 -96.501c0 -28.667 6 -56.334 18 -83.001
s31.667 -48.834 59 -66.501s64 -26.5 110 -26.5c34.667 0 70.5 6.5 107.5 19.5s73.5 35.5 109.5 67.5l11 -14c-26.667 -30 -59.834 -55 -99.501 -75s-85.5 -30 -137.5 -30z" />
    <glyph glyph-name="A" unicode="A" horiz-adv-x="618" 
d="M36 -87c-18 10 -29.499 20.335 -34.499 31.002s-7.5 20 -7.5 28c0 18 6.66699 42.5 20 73.5s31.166 66.333 53.499 106s47.5 81.167 75.5 124.5c-22 1.33301 -42.167 2.33301 -60.5 3s-39.166 1 -62.499 1h-23c8.66699 22.667 22.834 38.5 42.501 47.5
s42.834 13.5 69.501 13.5c11.333 0 23.166 -0.666992 35.499 -2l38.5 -4l100 140c33.333 44.667 64.833 84.667 94.5 120s55.5 63.666 77.5 84.999c28 27.333 49 41 63 41c8.66699 0 18.334 -3.33301 29.001 -10s22 -15.334 34 -26.001
c-6.66699 -5.33301 -15.167 -19.166 -25.5 -41.499s-21.333 -50.5 -33 -84.5s-23.334 -71.333 -35.001 -112s-22.167 -81.834 -31.5 -123.501s-16.833 -81.5 -22.5 -119.5s-8.5 -71.667 -8.5 -101c0 -26 2.66699 -45.667 8 -59s14.666 -20 27.999 -20
c16 0 35.167 11.833 57.5 35.5s47.166 61.5 74.499 113.5l15 -16c-20 -54.667 -46.167 -99.334 -78.5 -134.001s-66.5 -52 -102.5 -52c-30.667 0 -52.5 13.167 -65.5 39.5s-19.5 62.5 -19.5 108.5c0 17.333 1.16699 36.666 3.5 57.999s5.83301 46 10.5 74
c-29.333 4.66699 -55.5 8.33398 -78.5 11.001s-44.833 5.33398 -65.5 8.00098c-32 -56.667 -63 -115.5 -93 -176.5s-57.667 -121.167 -83 -180.5zM365.001 295.002c9.33301 41.333 20.166 82.834 32.499 124.501s25.333 81.667 39 120s26.834 72.5 39.501 102.5
c-20 -15.333 -42.833 -38.333 -68.5 -69s-52.5 -67.334 -80.5 -110.001s-56.333 -89 -85 -139l62 -14.5z" />
    <glyph glyph-name="B" unicode="B" horiz-adv-x="636" 
d="M153 -87c-39.333 0 -69 6.49512 -89 19.4951s-30 34.5 -30 64.5c0 5.33301 3 8 9 8c5.33301 0 14.166 -1.66699 26.499 -5s35.5 -5 69.5 -5c58.667 0 112.5 6.33301 161.5 19s91.5 29.834 127.5 51.501s64 46 84 73s30 54.833 30 83.5c0 26.667 -7.83301 48 -23.5 64
s-36.167 28.167 -61.5 36.5s-53 14 -83 17s-59.667 4.5 -89 4.5c-12.667 0 -25.334 -0.166992 -38.001 -0.5s-24.667 -0.5 -36 -0.5l-43.5 -159.5c-14.333 -54.333 -29.166 -107.166 -44.499 -158.499c-18.667 0 -34.834 5 -48.501 15s-20.5 22.333 -20.5 37
c0 6.66699 1.33301 15 4 25s6 21 10 33l20.5 64l35 106c13.667 40.667 28.834 83.5 45.501 128.5s34 89 52 132s35.667 81.5 53 115.5c-27.333 -5.33301 -49.833 -12.166 -67.5 -20.499s-31.667 -15.666 -42 -21.999s-18.166 -9.5 -23.499 -9.5
c-3.33301 0 -8 2.16699 -14 6.5s-11.333 9.16602 -16 14.499s-7 10 -7 14c35.333 14.667 71.833 27.667 109.5 39s83.5 17 137.5 17c23.333 0 49 -1.83301 77 -5.5s54.667 -11 80 -22s46.166 -27.167 62.499 -48.5s24.5 -50 24.5 -86c0 -30 -6.33301 -55.833 -19 -77.5
s-29.667 -40 -51 -55s-44.666 -27.167 -69.999 -36.5s-50.333 -16.666 -75 -21.999c44 -4 80.167 -11.833 108.5 -23.5s50.666 -25.167 66.999 -40.5s27.666 -31.333 33.999 -48s9.5 -33 9.5 -49c0 -38.667 -10.167 -73.667 -30.5 -105s-47.166 -58.666 -80.499 -81.999
s-70 -42.833 -110 -58.5s-79.667 -27.5 -119 -35.5s-74.666 -12 -105.999 -12zM220 375.995c36.667 1.33301 73.167 5.49707 109.5 12.4971s69.166 17.833 98.499 32.5s52.833 33.834 70.5 57.501s26.5 52.834 26.5 87.501c0 33.333 -8.5 58.833 -25.5 76.5
s-39.167 30 -66.5 37s-56.333 10.5 -87 10.5h-5c-1.33301 0 -2.66602 -0.333008 -3.99902 -1c-23.333 -45.333 -44.5 -94.666 -63.5 -147.999s-36.833 -108.333 -53.5 -165z" />
    <glyph glyph-name="C" unicode="C" horiz-adv-x="558" 
d="M240 -87c-50 0 -90.4961 12 -121.496 36s-53.667 54.833 -68 92.5s-21.5 76.834 -21.5 117.501c0 52.667 8 105.5 24 158.5s38 103.667 66 152s59.833 91.166 95.5 128.499s73.667 66.833 114 88.5s80.5 32.5 120.5 32.5c28.667 0 52.5 -6.83301 71.5 -20.5
s28.5 -36.5 28.5 -68.5c0 -20 -3.33301 -42.333 -10 -67s-15.834 -48.334 -27.501 -71.001s-24.834 -41.334 -39.501 -56.001s-29.334 -22 -44.001 -22c-6 0 -12.333 2.16699 -19 6.5s-12.667 11.5 -18 21.5c10 11.333 21.167 25.333 33.5 42s24.166 34.334 35.499 53.001
s20.666 36.834 27.999 54.501s11 33.5 11 47.5c0 12 -3.5 21.833 -10.5 29.5s-18.833 11.5 -35.5 11.5c-29.333 0 -59.5 -11.333 -90.5 -34s-60.833 -52.834 -89.5 -90.501s-54.667 -79.667 -78 -126s-41.666 -94 -54.999 -143s-20 -95.5 -20 -139.5
c0 -32 4.83301 -62.667 14.5 -92s25.167 -53.166 46.5 -71.499s48.666 -27.5 81.999 -27.5c36 0 71.833 10 107.5 30s68.167 46.333 97.5 79s53 68 71 106l22 -15c-22.667 -44 -50.167 -84.5 -82.5 -121.5s-68.666 -66.5 -108.999 -88.5s-83.5 -33 -129.5 -33z" />
    <glyph glyph-name="D" unicode="D" horiz-adv-x="676" 
d="M182 -87c-22.667 0 -44.1592 2.99902 -64.4922 8.99902s-37.833 19 -52.5 39c4 21.333 10.167 48.5 18.5 81.5s18.166 69 29.499 108l35.5 118.5l36 114l31.5 94.5l21 59.5c2 5.33301 5.33301 13.333 10 24s10.5 21.5 17.5 32.5s15.167 20.333 24.5 28
s19.666 11.5 30.999 11.5c10.667 0 22 -4 34 -12c-20.667 -47.333 -41.5 -99.666 -62.5 -156.999s-41 -116.333 -60 -177s-36.333 -119.834 -52 -177.501s-28.834 -110.167 -39.501 -157.5c6.66699 -2 14.334 -3.5 23.001 -4.5s17 -1.5 25 -1.5
c43.333 0 84.666 10.333 123.999 31s75.666 48.334 108.999 83.001s62.666 74 87.999 118s44.833 89.667 58.5 137s20.5 93 20.5 137c0 54 -9 98.167 -27 132.5s-42.833 59.5 -74.5 75.5s-68.167 24 -109.5 24c-43.333 0 -82.333 -8.16699 -117 -24.5
s-61.834 -38.333 -81.501 -66s-29.5 -59.167 -29.5 -94.5c0 -8 0.666992 -15.667 2 -23s3.33301 -14.666 6 -21.999c-26.667 0 -45.667 6 -57 18s-17 26.667 -17 44c0 23.333 8.5 46.833 25.5 70.5s40.333 45.667 70 66s64.167 36.666 103.5 48.999
s81.666 18.5 126.999 18.5c64 0 115.167 -12.333 153.5 -37s66.166 -58 83.499 -100s26 -89 26 -141c0 -57.333 -9.16699 -112.333 -27.5 -165s-43.5 -101 -75.5 -145s-69 -82.5 -111 -115.5s-86.5 -58.5 -133.5 -76.5s-94.5 -27 -142.5 -27z" />
    <glyph glyph-name="E" unicode="E" horiz-adv-x="521" 
d="M199 -87c-41.333 0 -77.666 8.5 -108.999 25.5s-55.5 39.5 -72.5 67.5s-25.5 59 -25.5 93c0 30 6.5 59.333 19.5 88s31.167 55 54.5 79s50.5 44 81.5 60s64.833 26.333 101.5 31c-24.667 21.333 -43.167 45.333 -55.5 72s-18.5 54 -18.5 82c0 35.333 9 68.833 27 100.5
s43.167 57.5 75.5 77.5s69.5 30 111.5 30c39.333 0 69.5 -9.66699 90.5 -29s31.5 -47.333 31.5 -84c0 -25.333 -4.5 -49.833 -13.5 -73.5s-19.833 -42.834 -32.5 -57.501s-25.334 -22 -38.001 -22c-8.66699 0 -16.834 3.83301 -24.501 11.5s-14.167 16.5 -19.5 26.5
c24 20.667 44.5 42.334 61.5 65.001s25.5 46.334 25.5 71.001c0 20 -6.5 35.333 -19.5 46s-30.5 16 -52.5 16c-30 0 -55.333 -9.16699 -76 -27.5s-36.334 -42 -47.001 -71s-16 -59.5 -16 -91.5c0 -27.333 4.83301 -55.333 14.5 -84s27.834 -53.334 54.501 -74.001
c-47.333 -7.33301 -88.166 -24 -122.499 -50s-61 -56.333 -80 -91s-28.5 -69 -28.5 -103c0 -20.667 4.16699 -42.167 12.5 -64.5s21.833 -41 40.5 -56s44 -22.5 76 -22.5c36 0 71.667 10.167 107 30.5s67.833 47 97.5 80s53.167 68.5 70.5 106.5l23 -15
c-24 -46 -52.333 -87.333 -85 -124s-69 -65.667 -109 -87s-83.667 -32 -131 -32z" />
    <glyph glyph-name="F" unicode="F" horiz-adv-x="509" 
d="M176 -87c-34 2.66699 -55.8301 11.167 -65.4971 25.5s-14.5 32.5 -14.5 54.5c0 24.667 4.5 54.334 13.5 89.001s20.667 72 35 112s29.833 80 46.5 120c-8 -0.666992 -18.667 -1.66699 -32 -3l-43 -4.5c-15.333 -1.66699 -30 -3.83398 -44 -6.50098
c2 20 9.5 35.5 22.5 46.5s30 19 51 24s43.833 7.83301 68.5 8.5l55 144c18.667 46.667 37.334 89.334 56.001 128.001c-4.66699 0.666992 -9.83398 1.16699 -15.501 1.5s-12.834 0.5 -21.501 0.5c-41.333 0 -73.333 -4.33301 -96 -13s-38.167 -21.334 -46.5 -38.001
s-12.5 -37.334 -12.5 -62.001c0 -16 1.5 -30.667 4.5 -44s7.5 -27.333 13.5 -42c-28.667 4.66699 -49.167 14.334 -61.5 29.001s-18.5 33 -18.5 55c0 34.667 12.667 65.167 38 91.5s59.5 47.166 102.5 62.499s91.167 23 144.5 23c35.333 0 70.166 -2.33301 104.499 -7
s67.166 -7 98.499 -7c15.333 0 30.166 1 44.499 3s30.166 5.33301 47.499 10c-30 -32.667 -54.5 -54.667 -73.5 -66s-37.833 -17 -56.5 -17c-16 0 -36.5 2.16699 -61.5 6.5s-52.167 7.83301 -81.5 10.5c-8.66699 -22 -18.167 -47.5 -28.5 -76.5l-31.5 -93l-32 -100.5
c34 -2.66699 65.333 -5.66699 94 -9s58.334 -5.66602 89.001 -6.99902c-7.33301 -10 -15 -17.833 -23 -23.5s-18.667 -9.66699 -32 -12s-31.5 -4.16602 -54.5 -5.49902s-53.5 -2.33301 -91.5 -3c-4.66699 -18 -10 -37 -16 -57l-16 -53.5l-9 -30.5
c-17.333 -60 -30.166 -110.833 -38.499 -152.5s-12.5 -78.834 -12.5 -111.501z" />
    <glyph glyph-name="G" unicode="G" horiz-adv-x="575" 
d="M228 -87c-36 0 -69.1611 9.83203 -99.4941 29.499s-54.5 48.167 -72.5 85.5s-27 82.333 -27 135c0 51.333 8 103.333 24 156s37.833 102.834 65.5 150.501s59.5 90.334 95.5 128.001s73.833 67.334 113.5 89.001s79.5 32.5 119.5 32.5c28 0 50.333 -5.5 67 -16.5
s28.667 -25.333 36 -43s11 -36.5 11 -56.5c0 -23.333 -4.16699 -46.5 -12.5 -69.5s-19.5 -42.167 -33.5 -57.5s-29.333 -23 -46 -23c-7.33301 0 -14.166 2.16699 -20.499 6.5s-12.166 12.166 -17.499 23.499c9.33301 6.66699 20.166 18.5 32.499 35.5
s23.166 35.833 32.499 56.5s14 39.334 14 56.001c0 14 -4.33301 25.667 -13 35s-23 14 -43 14c-29.333 0 -59.833 -11.333 -91.5 -34s-61.834 -52.834 -90.501 -90.501s-54.5 -79.834 -77.5 -126.501s-41.333 -94.167 -55 -142.5s-20.5 -94.166 -20.5 -137.499
c0 -60.667 13 -108 39 -142s57.667 -51 95 -51c27.333 0 52.5 9 75.5 27s43.333 41.5 61 70.5s32 60.5 43 94.5s17.833 67 20.5 99c-19.333 4 -37.5 6.83301 -54.5 8.5s-34.167 2.5 -51.5 2.5c-10 0 -20.167 -0.166992 -30.5 -0.5s-21.5 -0.5 -33.5 -0.5
c5.33301 22 14.333 37.833 27 47.5s29 14.5 49 14.5c19.333 0 39.166 -3.16699 59.499 -9.5s40.666 -13.166 60.999 -20.499s39.833 -13 58.5 -17l-9 -32c-12.667 -35.333 -22.834 -65.333 -30.501 -90s-13.5 -45.834 -17.5 -63.501s-6.83301 -33.5 -8.5 -47.5
s-2.5 -27.667 -2.5 -41s0.5 -27 1.5 -41s1.83301 -30 2.5 -48c-17.333 3.33301 -30.5 9 -39.5 17s-15.333 17.667 -19 29s-5.5 22.666 -5.5 33.999c0 4.66699 0.166992 9.33398 0.5 14.001s1.16602 9.66699 2.49902 15c-23.333 -30.667 -50.333 -55.834 -81 -75.501
s-65.334 -29.5 -104.001 -29.5z" />
    <glyph glyph-name="H" unicode="H" horiz-adv-x="648" 
d="M66 -87c4 24 8.66211 48.1641 13.9951 72.4971s11.833 51.666 19.5 81.999s17.5 65 29.5 104l43 137.5c-10 -0.666992 -20.667 -1.66699 -32 -3l-33 -4c0 20 7.83301 35.333 23.5 46s36.5 18.667 62.5 24c3.33301 10.667 6.5 20.334 9.5 29.001
s6.16699 18.334 9.5 29.001s7.83301 23.667 13.5 39s12.5 35 20.5 59l30 89c2 4.66699 4.66699 12.167 8 22.5s5 20.166 5 29.499c0 5.33301 -0.833008 9 -2.5 11s-5.16699 3 -10.5 3c-14.667 0 -29 -6.16699 -43 -18.5s-26.667 -28 -38 -47s-20.333 -38.667 -27 -59
s-10 -38.166 -10 -53.499c0 -6 0.5 -12.167 1.5 -18.5s3.16699 -14.166 6.5 -23.499c-26 0 -44.667 6 -56 18s-17 27 -17 45c0 22.667 6.83301 45.334 20.5 68.001s31.167 43.5 52.5 62.5s44 34.333 68 46s46 17.5 66 17.5s33.833 -5.5 41.5 -16.5s11.5 -23.167 11.5 -36.5
c0 -7.33301 -0.833008 -14.666 -2.5 -21.999s-3.5 -14.333 -5.5 -21l-75 -244c8.66699 0.666992 17.334 1 26.001 1h27c32 0 62.333 -0.666992 91 -2s56 -3.33301 82 -6c15.333 51.333 29.166 95.833 41.499 133.5s23.333 69.667 33 96s17.834 47.5 24.501 63.5
c2.66699 5.33301 6.5 12.333 11.5 21s12 16.5 21 23.5s20.167 10.5 33.5 10.5c-8.66699 -24 -19.167 -55.167 -31.5 -93.5s-24.666 -80 -36.999 -125l-36.5 -134.5c10.667 0 23.834 -0.5 39.501 -1.5s30.167 -1.5 43.5 -1.5c-18.667 -19.333 -35.667 -31.166 -51 -35.499
s-29.666 -6.5 -42.999 -6.5l-18.5 -82.5c-5.66699 -26.333 -10.5 -50.833 -14.5 -73.5c-9.33301 -47.333 -16.166 -88.166 -20.499 -122.499s-6.5 -62.5 -6.5 -84.5c0 -9.33301 0.5 -17.833 1.5 -25.5s1.83301 -14.834 2.5 -21.501
c-31.333 3.33301 -52.666 11.333 -63.999 24s-17 34 -17 64c0 16 1.33301 34.667 4 56s7.33398 45.333 14.001 72c5.33301 23.333 12.666 51.166 21.999 83.499l33 109.5c-40.667 0 -74.334 -0.333008 -101.001 -1s-50 -1.33398 -70 -2.00098s-40 -2 -60 -4l-15.5 -49.5
l-20.5 -65.5l-28.5 -91.5l-40.5 -128.5c-6.66699 -24 -18.5 -41.167 -35.5 -51.5s-31.5 -15.5 -43.5 -15.5z" />
    <glyph glyph-name="I" unicode="I" horiz-adv-x="488" 
d="M-25 -88c2.66699 27.333 11.8311 47.1699 27.498 59.5029s36 20.333 61 24s51.833 5.5 80.5 5.5c12 26 23.667 57.167 35 93.5s22.333 75.166 33 116.499s21 83.666 31 126.999l28.5 125.5l25.5 109.5c8 32.667 15.667 59.334 23 80.001
c-34.667 -0.666992 -64.834 -1.83398 -90.501 -3.50098s-49.667 -4.16699 -72 -7.5s-45.833 -7.33301 -70.5 -12c6 30.667 26 53.167 60 67.5s86 21.5 156 21.5c34.667 0 70.334 -1.33301 107.001 -4s70.5 -5.66699 101.5 -9s54.833 -6.33301 71.5 -9
c-20 -19.333 -39.667 -31.333 -59 -36s-36 -7 -50 -7h-59c-17.333 0 -34 -0.333008 -50 -1c-4 -20 -8.66699 -45.833 -14 -77.5s-11.666 -66.334 -18.999 -104.001l-21.5 -114c-7 -38.333 -14 -74.5 -21 -108.5s-13.5 -62.667 -19.5 -86
c-9.33301 -37.333 -20.166 -70.333 -32.499 -99s-26.833 -50 -43.5 -64c35.333 -2.66699 71.5 -6.16699 108.5 -10.5s75.167 -7.16602 114.5 -8.49902c-24 -22.667 -47.5 -36.834 -70.5 -42.501s-41.833 -8.5 -56.5 -8.5c-38.667 0 -72.167 -0.166992 -100.5 -0.5
s-54 -1 -77 -2s-45.333 -2.83301 -67 -5.5s-45.167 -6 -70.5 -10z" />
    <glyph glyph-name="J" unicode="J" horiz-adv-x="430" 
d="M95 -86c-16.667 0 -34.1719 3.16699 -52.5049 9.5s-33.666 19 -45.999 38s-18.5 47.5 -18.5 85.5c0 26.667 3 53 9 79s15 47.833 27 65.5s26.667 26.5 44 26.5c8.66699 0 20.334 -3.33301 35.001 -10c-12.667 -31.333 -22 -60.5 -28 -87.5s-9 -51.5 -9 -73.5
c0 -27.333 5.5 -49 16.5 -65s26.167 -24 45.5 -24c16.667 0 31.834 7.33301 45.501 22s27.167 41 40.5 79c10.667 28.667 21.667 63.334 33 104.001s22.666 84.167 33.999 130.5l32.5 138l28 127.5c8.33301 39.333 14.833 72.333 19.5 99
c-32.667 0 -60.834 -0.833008 -84.501 -2.5s-45.167 -4 -64.5 -7s-39.666 -7.16699 -60.999 -12.5c4 28.667 19.833 49.5 47.5 62.5s69.834 19.5 126.501 19.5c27.333 0 55.666 -1.33301 84.999 -4s56.333 -5.66699 81 -9s43.667 -6.33301 57 -9
c-9.33301 -16 -23.166 -26.167 -41.499 -30.5s-33.166 -6.5 -44.499 -6.5c-12 0 -23.667 -0.166992 -35 -0.5s-20.666 -0.5 -27.999 -0.5c6 -5.33301 10.167 -12 12.5 -20s3.5 -15 3.5 -21c0 -8.66699 -2.33301 -27.667 -7 -57s-11.167 -64.833 -19.5 -106.5
s-18.333 -86 -30 -133s-24.334 -93 -38.001 -138s-28.5 -85.167 -44.5 -120.5c-18 -38.667 -36.167 -68.834 -54.5 -90.501s-37.166 -36.667 -56.499 -45s-39.333 -12.5 -60 -12.5z" />
    <glyph glyph-name="K" unicode="K" horiz-adv-x="621" 
d="M526 -87c-15.333 0 -32.999 8.33594 -52.999 25.0029s-41.333 38.667 -64 66s-44.834 57.333 -66.501 90s-42 65.334 -61 98.001s-35.167 62 -48.5 88l-93 -300c-4.66699 -16 -12.667 -27.333 -24 -34s-23.833 -10.834 -37.5 -12.501s-26.834 -2.5 -39.501 -2.5l27 65.5
c9.33301 23.667 19.833 52.334 31.5 86.001l42 122l59.5 173l84 239.5c1.33301 4.66699 3.66602 11.5 6.99902 20.5s5 17.167 5 24.5c0 6.66699 -1.5 11.834 -4.5 15.501s-8.5 5.5 -16.5 5.5c-16 0 -31.167 -6.33301 -45.5 -19s-27.166 -28.5 -38.499 -47.5
s-20.333 -38.5 -27 -58.5s-10 -37.667 -10 -53c0 -14 3 -28 9 -42c-26.667 0 -45.667 6 -57 18s-17 27 -17 45c0 22.667 7 45.334 21 68.001s31.667 43.5 53 62.5s44 34.333 68 46s46 17.5 66 17.5c20.667 0 34.5 -5.83301 41.5 -17.5s10.5 -24.167 10.5 -37.5
c0 -7.33301 -0.833008 -14.333 -2.5 -21s-3.5 -13.334 -5.5 -20.001l-77 -250c8 7.33301 17.667 15.333 29 24l46 35c34.667 27.333 69.334 57 104.001 89s67 65.167 97 99.5s55.333 67.833 76 100.5c6.66699 -6 11.167 -14.333 13.5 -25s3.5 -19.334 3.5 -26.001
c0 -20.667 -8.5 -43.167 -25.5 -67.5s-39.333 -49.5 -67 -75.5s-57.834 -51.833 -90.501 -77.5s-65.167 -49.5 -97.5 -71.5l-87.5 -58l61 -94.5c19.333 -29.667 40.666 -58.834 63.999 -87.501s50.833 -58.334 82.5 -89.001s69.834 -63.334 114.501 -98.001
c-6 -10.667 -14.667 -19.834 -26 -27.501s-22.666 -11.5 -33.999 -11.5z" />
    <glyph glyph-name="L" unicode="L" horiz-adv-x="597" 
d="M424 -87c-24.667 0 -52.001 5.00195 -82.001 15.002s-61 22 -93 36l-93 41c-16.667 -18.667 -34.5 -33 -53.5 -43s-39.5 -15 -61.5 -15c-22.667 0 -42.167 5.16699 -58.5 15.5s-28.666 22.666 -36.999 36.999s-12.5 27.166 -12.5 38.499
c0 12.667 5.83301 23.834 17.5 33.501s32.167 14.5 61.5 14.5c17.333 0 36.833 -1.83301 58.5 -5.5s43.834 -8.5 66.501 -14.5c15.333 26.667 29.666 58.334 42.999 95.001s26.333 75.167 39 115.5l39 119.5c-32.667 10.667 -58 26 -76 46s-27 40.667 -27 62
c0 13.333 3.16699 26.333 9.5 39s15.166 23.334 26.499 32.001s25 13 41 13c-7.33301 -9.33301 -12.166 -20.5 -14.499 -33.5s-3.5 -23.833 -3.5 -32.5c0 -23.333 5.16699 -42.833 15.5 -58.5s23.166 -28.167 38.499 -37.5c12.667 38.667 26.167 75.667 40.5 111
s30.333 66.666 48 93.999s37.167 49 58.5 65s45.333 24 72 24c14.667 0 30.167 -3.16699 46.5 -9.5s30.333 -17 42 -32s17.5 -36.5 17.5 -64.5c0 -22.667 -4.66699 -47 -14 -73s-24.166 -50.833 -44.499 -74.5s-46.333 -43.334 -78 -59.001s-69.5 -23.834 -113.5 -24.501
h-4.5h-7.5l-41.5 -119.5c-14.333 -40.333 -29.5 -78.833 -45.5 -115.5s-33.667 -69 -53 -97l89 -26.5c31.333 -9.66699 62.5 -17.667 93.5 -24s58.5 -9.5 82.5 -9.5c15.333 0 29.5 1.66699 42.5 5s26.5 8.33301 40.5 15c-12.667 -34.667 -28.5 -59.667 -47.5 -75
s-41.5 -23 -67.5 -23zM32.999 -18.998c16.667 0 30.667 4 42 12s22.333 18 33 30c-20.667 8 -40.167 14.667 -58.5 20s-34.833 8 -49.5 8c-12.667 0 -21.667 -2.16699 -27 -6.5s-8 -9.83301 -8 -16.5c0 -10.667 6.66699 -21.167 20 -31.5s29.333 -15.5 48 -15.5z
M339.999 411.002c29.333 1.33301 55.6699 10.333 79.0029 27s43.166 37.167 59.499 61.5s28.833 49 37.5 74s13 46.833 13 65.5c0 18 -3.5 30.333 -10.5 37s-14.833 10 -23.5 10c-20 0 -38.833 -12.667 -56.5 -38s-34.334 -58.833 -50.001 -100.5
s-31.834 -87.167 -48.501 -136.5z" />
    <glyph glyph-name="M" unicode="M" horiz-adv-x="792" 
d="M-9 -87c3.33301 10 13.498 33.499 30.498 70.499l67.5 147l98.5 214l123.5 270.5c2 4.66699 4 10.334 6 17.001s3 12.667 3 18c0 7.33301 -2 13.166 -6 17.499s-12.333 6.5 -25 6.5c-28 0 -50.833 -8.83301 -68.5 -26.5s-30.834 -39.5 -39.501 -65.5s-13 -51.333 -13 -76
c0 -6.66699 0.333008 -13.334 1 -20.001s1.33398 -14.334 2.00098 -23.001c-14.667 0 -26.667 4.83301 -36 14.5s-16.5 21.334 -21.5 35.001s-7.5 26.5 -7.5 38.5c0 22 6.16699 43 18.5 63s28.333 38 48 54s41.5 28.667 65.5 38s47.667 14 71 14s43.333 -6.66699 60 -20
s29.334 -37.166 38.001 -71.499s13 -83.833 13 -148.5c0 -42.667 -1.5 -86.5 -4.5 -131.5s-6.16699 -88 -9.5 -129s-5 -76.833 -5 -107.5c12 40 27.833 82.333 47.5 127s41 89.167 64 133.5s45.833 86.166 68.5 125.499l61 102.5l40 64.5
c9.33301 14 17.666 24.667 24.999 32s17 11 29 11c9.33301 0 22.666 -3.33301 39.999 -10c-6 -12.667 -13 -32.167 -21 -58.5s-16.667 -57.166 -26 -92.499c-10 -40.667 -20.167 -85.5 -30.5 -134.5s-19.666 -98.5 -27.999 -148.5s-15 -97.5 -20 -142.5
s-7.5 -83.833 -7.5 -116.5c0 -16.667 0.833008 -29.667 2.5 -39s3.83398 -17.5 6.50098 -24.5s5.66699 -16.5 9 -28.5c-26.667 0 -47 4.16699 -61 12.5s-23.333 21.5 -28 39.5s-7 42 -7 72c0 76 9.16699 156.333 27.5 241s39.166 172.334 62.499 263.001
c-18.667 -26 -38.167 -57.5 -58.5 -94.5s-40.5 -76.333 -60.5 -118s-38.833 -83 -56.5 -124l-47.5 -114c-14 -35 -24.667 -64.167 -32 -87.5c-5.33301 -2 -9 -3.33301 -11 -4s-4.66699 -1 -8 -1c-21.333 0 -35.166 13 -41.499 39s-9.5 62 -9.5 108
c0 26.667 0.5 56.167 1.5 88.5s2.33301 65.5 4 99.5s3 67.333 4 100s1.5 62.667 1.5 90c0 11.333 -0.166992 21.833 -0.5 31.5s-0.5 18.5 -0.5 26.5l-131 -307.5c-35.333 -85 -65.166 -154 -89.499 -207s-46.5 -91.833 -66.5 -116.5s-40.667 -37 -62 -37z" />
    <glyph glyph-name="N" unicode="N" horiz-adv-x="663" 
d="M53 -87l32.501 108.499l43.5 140.5l58.5 192l77.5 263l4 16c2 8 3 16 3 24c0 5.33301 -1 9.5 -3 12.5s-5.66699 4.5 -11 4.5c-14.667 0 -28.667 -5.83301 -42 -17.5s-25.166 -26.334 -35.499 -44.001s-18.5 -36 -24.5 -55s-9 -36.167 -9 -51.5c0 -14.667 3 -29 9 -43
c-27.333 0 -46.5 6 -57.5 18s-16.5 27 -16.5 45c0 22.667 7 45.334 21 68.001s31.667 43.5 53 62.5s43.666 34.333 66.999 46s44.666 17.5 63.999 17.5c22 0 40.167 -8.5 54.5 -25.5s26.166 -40.167 35.499 -69.5s17 -62.666 23 -99.999s12 -76.666 18 -117.999l16.5 -118
c4.33301 -32 8.16602 -59.167 11.499 -81.5l9 -58.5l8 -49c6.66699 32 14.334 66.5 23.001 103.5l27 113.5l28.5 113.5c9.66699 37 19.167 71.5 28.5 103.5s18 59.667 26 83s15 40.666 21 51.999c5.33301 10 14.333 21.167 27 33.5s28.667 18.5 48 18.5
c-11.333 -30.667 -24.166 -68.167 -38.499 -112.5s-28.833 -92.333 -43.5 -144s-28.834 -104.334 -42.501 -158.001s-25.834 -105.5 -36.501 -155.5s-19.167 -95.667 -25.5 -137s-9.83301 -75 -10.5 -101c-23.333 0 -42.333 5.83301 -57 17.5s-25.667 33.834 -33 66.501
l-12 62c-5.33301 28 -11.166 60.333 -17.499 97l-19.5 115l-19.5 118l-17.5 104.5c-5.33301 31 -9.66602 55.167 -12.999 72.5l-78.5 -282.5c-21.667 -77 -40.5 -139.667 -56.5 -188s-30.167 -85.833 -42.5 -112.5s-24.5 -45 -36.5 -55s-25 -15 -39 -15z" />
    <glyph glyph-name="O" unicode="O" horiz-adv-x="644" 
d="M232 -87c-38 0 -72.4961 10.1602 -103.496 30.4932s-55.5 49.166 -73.5 86.499s-27 81.666 -27 132.999s8.16699 103.166 24.5 155.499s38.5 102.5 66.5 150.5s60.333 90.833 97 128.5s75.667 67.334 117 89.001s83 32.5 125 32.5c8.66699 0 19 -1.16699 31 -3.5
s23.667 -8.83301 35 -19.5c-4.66699 0.666992 -8.83398 1.16699 -12.501 1.5s-7.5 0.5 -11.5 0.5c-34.667 0 -69.667 -11.167 -105 -33.5s-69 -52.166 -101 -89.499s-60.5 -79.5 -85.5 -126.5s-44.833 -95.833 -59.5 -146.5s-22 -100 -22 -148
c0 -34.667 4.66699 -67.167 14 -97.5s24.166 -54.666 44.499 -72.999s47.166 -27.5 80.499 -27.5c36.667 0 71.167 11.167 103.5 33.5s61.5 52.5 87.5 90.5s48.333 80.167 67 126.5s33.167 94.333 43.5 144s15.5 96.834 15.5 141.501c0 19.333 -1.33301 40 -4 62
s-7.33398 40.833 -14.001 56.5s-15.667 23.5 -27 23.5c-12 0 -24.667 -7.16699 -38 -21.5s-26.5 -32.666 -39.5 -54.999s-24.333 -45.666 -34 -69.999s-16.5 -46.166 -20.5 -65.499c-20.667 4.66699 -35.5 11.834 -44.5 21.501s-13.5 20.834 -13.5 33.501
c0 18 6.33301 38 19 60s28.834 43.167 48.501 63.5s40.5 37.166 62.5 50.499s42 20 60 20c19.333 0 35 -7 47 -21s21.167 -31.833 27.5 -53.5s10.833 -44.667 13.5 -69s4 -47.166 4 -68.499c0 -69.333 -8.33301 -132.833 -25 -190.5s-39 -108.5 -67 -152.5
s-59.333 -81.167 -94 -111.5s-70.334 -53.166 -107.001 -68.499s-71.667 -23 -105 -23z" />
    <glyph glyph-name="P" unicode="P" horiz-adv-x="548" 
d="M107 -87c-18.667 0 -36.335 5.16895 -53.002 15.502s-25 23.5 -25 39.5c0 8 1.5 17 4.5 27l8.5 28l58.5 179.5l55 161c18.333 51.667 37.833 103.5 58.5 155.5s43.667 106.333 69 163c-25.333 -4.66699 -47.166 -11.334 -65.499 -20.001s-33.333 -16.334 -45 -23.001
s-19.834 -10 -24.501 -10c-3.33301 0 -8 2.16699 -14 6.5s-11.167 9.16602 -15.5 14.499s-6.5 10 -6.5 14c18 8 39.333 16.333 64 25s51.334 16 80.001 22s57.334 9 86.001 9c30.667 0 62 -4.16699 94 -12.5s61.5 -20.666 88.5 -36.999s48.667 -36.5 65 -60.5
s24.5 -52.333 24.5 -85c0 -35.333 -7.83301 -65.5 -23.5 -90.5s-36.5 -46.167 -62.5 -63.5s-54.167 -31.333 -84.5 -42s-60.5 -18.667 -90.5 -24s-56.667 -9 -80 -11s-41 -3 -53 -3h-7l-56 -199zM219.999 317.002c37.333 2.66699 74.667 8.99805 112 18.998
s71.333 24 102 42s55.334 40.667 74.001 68s28 59 28 95c0 34.667 -8.66699 62.667 -26 84s-39.833 37.333 -67.5 48s-56.834 16.334 -87.501 17.001c-24.667 -47.333 -48.167 -103.666 -70.5 -168.999s-43.833 -133.333 -64.5 -204z" />
    <glyph glyph-name="Q" unicode="Q" horiz-adv-x="716" 
d="M545 -119c-32 0 -61.502 8.33008 -88.502 24.9971s-52.833 35.334 -77.5 56.001c-16.667 -8 -33.667 -14.333 -51 -19s-35.333 -7 -54 -7c-24.667 0 -44.667 3.5 -60 10.5s-27 15.5 -35 25.5s-13.5 20 -16.5 30s-4.5 18 -4.5 24c0 12.667 5.83301 25.5 17.5 38.5
s32.167 19.5 61.5 19.5c28 0 55.167 -6.16699 81.5 -18.5s53.5 -26.833 81.5 -43.5c29.333 26 55.166 58.833 77.499 98.5s41.333 82.167 57 127.5s27.5 90 35.5 134s12 83.333 12 118c0 54.667 -10.5 99 -31.5 133s-55.5 51 -103.5 51
c-38.667 0 -74.667 -11.167 -108 -33.5s-63.333 -52 -90 -89s-49.5 -78.5 -68.5 -124.5s-33.667 -93.667 -44 -143s-15.5 -96.333 -15.5 -141c0 -14 0.833008 -29 2.5 -45s4.5 -32.667 8.5 -50c-24 0 -42.5 6.83301 -55.5 20.5s-22.167 31.334 -27.5 53.001s-8 44.5 -8 68.5
c0 50 6.66699 99.833 20 149.5s32.166 96.667 56.499 141s53.333 83.833 87 118.5s71 61.834 112 81.501s84.167 29.5 129.5 29.5c67.333 0 120.333 -22 159 -66s58 -104 58 -180c0 -41.333 -5.66699 -84.333 -17 -129s-27 -88.5 -47 -131.5s-43.5 -82.833 -70.5 -119.5
s-56.833 -68 -89.5 -94c22.667 -11.333 46 -21 70 -29s49 -12 75 -12c16.667 0 28.834 1.5 36.501 4.5s17.834 6.16699 30.501 9.5c-8 -26.667 -18.167 -46.667 -30.5 -60s-25.166 -22 -38.499 -26s-25.666 -6 -36.999 -6zM261.998 -35.0029
c16.667 0 32.332 2.50195 46.999 7.50195s27.334 10.167 38.001 15.5c-19.333 16.667 -39 31.167 -59 43.5s-40.667 18.5 -62 18.5c-14 0 -24 -2.83301 -30 -8.5s-9 -12.5 -9 -20.5c0 -6.66699 2.16699 -14.334 6.5 -23.001s12 -16.334 23 -23.001s26.167 -10 45.5 -10z" />
    <glyph glyph-name="R" unicode="R" horiz-adv-x="603" 
d="M491 -121c-15.333 0 -33.1621 8.83008 -53.4951 26.4971s-41.5 40.834 -63.5 69.501s-43.667 60 -65 94s-41.5 68.333 -60.5 103s-34.833 65.667 -47.5 93l-52 -185l-48 -168c-18 0 -35 5.16699 -51 15.5s-24 23.833 -24 40.5c0 7.33301 1.66699 16 5 26
s6.33301 19.667 9 29l51 153l44.5 129l44 119c15 39.333 31.333 80 49 122l59.5 138c-26.667 -4.66699 -50 -11.5 -70 -20.5s-36.333 -17 -49 -24s-21.334 -10.5 -26.001 -10.5c-2.66699 0 -7.16699 2 -13.5 6s-11.833 8.83301 -16.5 14.5s-7 10.5 -7 14.5
c18.667 7.33301 40.167 15.333 64.5 24s51.166 16.167 80.499 22.5s59.666 9.5 90.999 9.5c29.333 0 59.666 -3.5 90.999 -10.5s60.333 -18.167 87 -33.5s48 -35.166 64 -59.499s24 -53.5 24 -87.5c0 -32 -7.16699 -59.5 -21.5 -82.5s-33.333 -42.5 -57 -58.5
s-49.5 -29 -77.5 -39s-56.333 -17.667 -85 -23s-54.834 -9 -78.501 -11s-42.834 -3.33301 -57.501 -4l62 -100c20 -32.667 41.5 -65 64.5 -97s50 -64.167 81 -96.5s67.833 -65.166 110.5 -98.499c-3.33301 -11.333 -11.166 -20.833 -23.499 -28.5s-23.833 -11.5 -34.5 -11.5
zM222.004 336.997c36.667 2 73.332 7.83301 109.999 17.5s70 23 100 40s54 38.333 72 64s27 55.834 27 90.501c0 35.333 -8.66699 63.166 -26 83.499s-39.666 34.833 -66.999 43.5s-56 13.334 -86 14.001c-22.667 -45.333 -45 -98.833 -67 -160.5s-43 -125.834 -63 -192.501
z" />
    <glyph glyph-name="S" unicode="S" horiz-adv-x="557" 
d="M223 -87c-38 0 -73.999 6.66504 -107.999 19.998s-61.5 33.5 -82.5 60.5s-31.5 60.833 -31.5 101.5c0 35.333 7.5 63 22.5 83s33.833 34 56.5 42s44.667 12 66 12c-20 -21.333 -35.333 -44 -46 -68s-16 -47 -16 -69c0 -23.333 5.83301 -45.166 17.5 -65.499
s29 -36.833 52 -49.5s51.833 -19 86.5 -19c30 0 59.167 5.33301 87.5 16s51.666 26.167 69.999 46.5s27.5 45.833 27.5 76.5c0 28 -7.66699 52 -23 72s-35 37.833 -59 53.5s-49.5 30.667 -76.5 45s-52.5 29.833 -76.5 46.5s-43.667 35.834 -59 57.501s-23 47.834 -23 78.501
c0 27.333 6.83301 56.5 20.5 87.5s33 60.167 58 87.5s55.333 49.5 91 66.5s75.5 25.5 119.5 25.5s74.667 -9.66699 92 -29s26 -44 26 -74c0 -24.667 -4.16699 -51 -12.5 -79s-18.666 -54.5 -30.999 -79.5s-24.166 -46.5 -35.499 -64.5c-13.333 3.33301 -23.333 9 -30 17
s-10 18.333 -10 31c0 14 3 29.833 9 47.5s12.667 36 20 55s14 37.333 20 55s9 33.5 9 47.5c0 12.667 -3.66699 22.5 -11 29.5s-22 10.5 -44 10.5c-31.333 0 -60.333 -7.16699 -87 -21.5s-49.834 -32.5 -69.501 -54.5s-35 -45 -46 -69s-16.5 -46 -16.5 -66
c0 -24 7.5 -44.667 22.5 -62s34.5 -33 58.5 -47l75.5 -42.5c26.333 -14.333 51.5 -30.166 75.5 -47.499s43.5 -37.833 58.5 -61.5s22.5 -52.834 22.5 -87.501s-7.83301 -65.334 -23.5 -92.001s-36.667 -49 -63 -67s-55.333 -31.833 -87 -41.5s-63.834 -14.5 -96.501 -14.5z
" />
    <glyph glyph-name="T" unicode="T" horiz-adv-x="523" 
d="M218 -87c-34.667 0 -58.5049 7.00098 -71.5049 21.001s-19.833 32 -20.5 54c0 19.333 3.83301 42.5 11.5 69.5s15.834 52.833 24.501 77.5c14 42 29.5 85.667 46.5 131l52.5 135l52.5 129l48.5 113c-45.333 -0.666992 -84.166 -1.83398 -116.499 -3.50098
s-61.666 -3.83398 -87.999 -6.50098s-54.166 -6.66699 -83.499 -12c2.66699 26 15.167 46.167 37.5 60.5s52.5 24.333 90.5 30s81.333 8.5 130 8.5c32.667 0 62.667 -1 90 -3s53.333 -4.16699 78 -6.5s49 -4.16602 73 -5.49902c20.667 -10 34.334 -16.333 41.001 -19
s8.33398 -4 5.00098 -4c-16 -12 -35.5 -20.833 -58.5 -26.5s-46.833 -9.16699 -71.5 -10.5s-48.334 -2 -71.001 -2c-28.667 -70 -56.5 -146.833 -83.5 -230.5s-52.833 -169.834 -77.5 -258.501l-22.5 -86.5c-6.33301 -24.333 -11.166 -46.5 -14.499 -66.5s-5 -40.333 -5 -61
c0 -3.33301 0.166992 -7.16602 0.5 -11.499s1.16602 -9.5 2.49902 -15.5z" />
    <glyph glyph-name="U" unicode="U" horiz-adv-x="735" 
d="M572 -99c-24.667 0 -45.3291 10.8369 -61.9961 32.5039s-25 47.5 -25 77.5c0 6.66699 0.5 15.667 1.5 27l3.5 38c-24.667 -48 -54.334 -87.333 -89.001 -118s-76.334 -46 -125.001 -46c-44 0 -78 13.333 -102 40s-36 62.334 -36 107.001c0 28 4 59.5 12 94.5
s18.167 71.5 30.5 109.5l36.5 115c12 38.667 22 76.334 30 113.001s12 70.667 12 102c0 60 -18 90 -54 90c-18 0 -33.5 -5.83301 -46.5 -17.5s-23.667 -26.167 -32 -43.5s-14.666 -35 -18.999 -53s-6.5 -33.667 -6.5 -47c0 -10 1.16699 -20.333 3.5 -31
s5.16602 -20 8.49902 -28c-30 0 -51.333 7.16699 -64 21.5s-19 31.833 -19 52.5s5 41.667 15 63s24.167 41 42.5 59s39.5 32.5 63.5 43.5s50 16.5 78 16.5c39.333 0 67.666 -11.333 84.999 -34s26 -53.334 26 -92.001c0 -24.667 -3 -52 -9 -82s-13.667 -61 -23 -93l-28 -94
c-16.667 -52.667 -30.667 -99.834 -42 -141.501s-17 -78.5 -17 -110.5c0 -30.667 6.5 -56.667 19.5 -78s34.5 -32 64.5 -32c27.333 0 52.333 8.5 75 25.5s42.5 39.167 59.5 66.5s31.5 56.333 43.5 87s21 59 27 85l31 126.5c11.333 45 23.166 89.167 35.499 132.5
s24.833 82.666 37.5 117.999s25.167 63.5 37.5 84.5s24.166 31.5 35.499 31.5c6 0 14.5 -3.16699 25.5 -9.5s22.167 -15.166 33.5 -26.499c-5.33301 -4.66699 -13.666 -18.834 -24.999 -42.501s-24 -54 -38 -91s-28.167 -77.833 -42.5 -122.5s-27.333 -90.334 -39 -137.001
s-21.167 -91.334 -28.5 -134.001s-11 -80.334 -11 -113.001c0 -42.667 6.66699 -71.167 20 -85.5s36.333 -21.5 69 -21.5c-9.33301 -11.333 -21.5 -20 -36.5 -26s-29.167 -9 -42.5 -9z" />
    <glyph glyph-name="V" unicode="V" horiz-adv-x="657" 
d="M233 -87c-10 0 -22.333 2.1709 -37 6.50391s-27.5 12.666 -38.5 24.999s-16.5 30.5 -16.5 54.5c0 20 4 45 12 75s18.167 63.5 30.5 100.5s24.5 76.667 36.5 119s22.167 85.666 30.5 129.999s12.5 88.833 12.5 133.5c0 23.333 -1.5 44.666 -4.5 63.999
s-8.66699 34.5 -17 45.5s-21.5 16.5 -39.5 16.5s-33.167 -5.16699 -45.5 -15.5s-22.333 -23.833 -30 -40.5s-13.334 -34 -17.001 -52s-5.5 -34.667 -5.5 -50c0 -11.333 1 -22 3 -32s5.33301 -20 10 -30c-30.667 0 -52.667 7.5 -66 22.5s-20 33.5 -20 55.5
c0 20 5 40.5 15 61.5s23.667 40.333 41 58s37.5 32 60.5 43s47.5 16.5 73.5 16.5c44 0 77.167 -16.333 99.5 -49s33.5 -77.334 33.5 -134.001c0 -37.333 -4.16699 -76.333 -12.5 -117s-18.666 -81.5 -30.999 -122.5l-37 -118.5c-12.333 -38 -22.833 -73.333 -31.5 -106
s-13 -60.667 -13 -84c0 -10.667 1.66699 -19.334 5 -26.001s10.333 -10 21 -10c18.667 0 40.334 9.16699 65.001 27.5s50 43.333 76 75s51.333 67.5 76 107.5s47 81.833 67 125.5s36 86.667 48 129s18 81.5 18 117.5c0 34.667 -6 60.834 -18 78.501s-27 29.5 -45 35.5
c9.33301 18.667 20.166 32.167 32.499 40.5s23.5 12.5 33.5 12.5c16.667 0 32.667 -10.5 48 -31.5s23 -51.833 23 -92.5c0 -36 -6.83301 -77.167 -20.5 -123.5s-32.5 -94.5 -56.5 -144.5s-51 -98.5 -81 -145.5s-61.667 -89.5 -95 -127.5s-66.5 -68.167 -99.5 -90.5
s-64.167 -33.5 -93.5 -33.5z" />
    <glyph glyph-name="W" unicode="W" horiz-adv-x="937" 
d="M234 -87c-6.66699 0 -15.1621 1 -25.4951 3s-20.833 5.83301 -31.5 11.5s-19.334 14.334 -26.001 26.001s-10 26.834 -10 45.501s4 43.5 12 74.5s20 71.5 36 121.5l34 115c11.333 38.667 20.833 78.167 28.5 118.5s11.5 81.833 11.5 124.5
c0 26.667 -1.5 49.834 -4.5 69.501s-8.83301 34.834 -17.5 45.501s-21.667 16 -39 16c-16.667 0 -31.167 -4.66699 -43.5 -14s-22.666 -21.666 -30.999 -36.999s-14.333 -32 -18 -50s-5.5 -35.667 -5.5 -53c0 -26.667 4.33301 -49 13 -67c-30.667 0 -52.667 7.5 -66 22.5
s-20 33.5 -20 55.5c0 20 5 40.5 15 61.5s23.667 40.333 41 58s37.5 32 60.5 43s47.5 16.5 73.5 16.5c44 0 77.167 -16.5 99.5 -49.5s33.5 -78.833 33.5 -137.5c0 -47.333 -6.33301 -96.5 -19 -147.5s-28 -104.833 -46 -161.5l-26 -78.5
c-9.33301 -27 -17.333 -53.833 -24 -80.5s-10 -52 -10 -76c0 -12.667 1.66699 -21.834 5 -27.501s10 -8.5 20 -8.5c17.333 0 36.166 7.83301 56.499 23.5s41 36.5 62 62.5s41 55.167 60 87.5s36.667 65.333 53 99s29.833 65.667 40.5 96s17.667 56.833 21 79.5
c24 0 42.167 -6.5 54.5 -19.5s18.5 -25.5 18.5 -37.5c0 -8 -3.33301 -21 -10 -39s-16.334 -42 -29.001 -72l-32.5 -79c-11 -28 -20.167 -55.833 -27.5 -83.5s-11 -53.5 -11 -77.5c0 -13.333 1.66699 -23.333 5 -30s10.333 -10 21 -10c18.667 0 40.334 9.33301 65.001 28
s50 44 76 76s51.333 68.167 76 108.5s47 82.166 67 125.499s36 86 48 128s18 80.667 18 116s-6 60.666 -18 75.999s-27.333 26 -46 32c11.333 18.667 23.166 32.167 35.499 40.5s23.5 12.5 33.5 12.5c15.333 0 30.666 -9.5 45.999 -28.5s23 -48.833 23 -89.5
c0 -36 -6.83301 -77.167 -20.5 -123.5s-32.334 -94.333 -56.001 -144s-50.667 -98.167 -81 -145.5s-62.333 -90 -96 -128s-67.334 -68.167 -101.001 -90.5s-65.5 -33.5 -95.5 -33.5c-16 0 -30.833 3.16699 -44.5 9.5s-24.5 15.666 -32.5 27.999s-12 27.166 -12 44.499
c0 8.66699 1.33301 18.5 4 29.5s5.66699 22.5 9 34.5c-32.667 -43.333 -66 -78.5 -100 -105.5s-67.333 -40.5 -100 -40.5z" />
    <glyph glyph-name="X" unicode="X" horiz-adv-x="691" 
d="M38 -112c2 18 5.16309 32.667 9.49609 44s9.83301 21.333 16.5 30s15 18.334 25 29.001l60.5 65l53.5 59.5l54 63l61 74.5l-5.5 63c-1.66699 19.333 -3.16699 37.666 -4.5 54.999s-2.16602 34.833 -2.49902 52.5s-0.833008 36.167 -1.5 55.5c-2 48 -4 87.333 -6 118
s-6.83301 53.334 -14.5 68.001s-20.5 22 -38.5 22c-16.667 0 -31.167 -5.16699 -43.5 -15.5s-22.666 -23.666 -30.999 -39.999s-14.666 -33.666 -18.999 -51.999s-6.5 -35.5 -6.5 -51.5c0 -22.667 4 -42.334 12 -59.001c-30.667 0 -52.167 7.16699 -64.5 21.5
s-18.5 31.5 -18.5 51.5c0 21.333 5.33301 42.5 16 63.5s24.834 40.333 42.501 58s38.167 31.834 61.5 42.501s47.666 16 72.999 16c30 0 53.833 -7.66699 71.5 -23s30.834 -36 39.501 -62s14.334 -54.667 17.001 -86s4.16699 -63.5 4.5 -96.5s1.16602 -64.167 2.49902 -93.5
c52 71.333 96.333 137.666 133 198.999s66.334 116.666 89.001 165.999c5.33301 -3.33301 11 -10.333 17 -21s9 -20.667 9 -30c0 -13.333 -6.5 -33 -19.5 -59s-30.833 -56.167 -53.5 -90.5s-48.834 -71.5 -78.501 -111.5s-61.5 -80.667 -95.5 -122
c2 -42 5.16699 -82.667 9.5 -122s10.166 -74.5 17.499 -105.5s16.833 -55.5 28.5 -73.5s25.167 -27 40.5 -27c20.667 0 45.334 18.833 74.001 56.5s62 89.167 100 154.5l18 -15c-26.667 -53.333 -51.167 -97.833 -73.5 -133.5s-45 -62.667 -68 -81s-48.5 -27.5 -76.5 -27.5
c-28.667 0 -52 8.5 -70 25.5s-32.5 39.333 -43.5 67s-19 57.5 -24 89.5s-9.16699 63 -12.5 93l-114.5 -132l-101.5 -108c-30 -30.667 -53 -52.334 -69 -65.001z" />
    <glyph glyph-name="Y" unicode="Y" horiz-adv-x="693" 
d="M276 -187c-40 0 -73.6699 8.33398 -101.003 25.001s-41 40.667 -41 72c0 20 5.83301 37.667 17.5 53s29.167 26 52.5 32c-3.33301 -15.333 -5.83301 -27.666 -7.5 -36.999s-2.5 -18.333 -2.5 -27c0 -26.667 7.33301 -47.667 22 -63s37.334 -23 68.001 -23
c24 0 45.333 4.66699 64 14s35.167 22.166 49.5 38.499s26.666 34.833 36.999 55.5s19.333 42 27 64s13.834 43.667 18.501 65c9.33301 36 17.166 73.667 23.499 113s13.5 74.333 21.5 105c-26 -44.667 -56.167 -81.334 -90.5 -110.001s-74.833 -43 -121.5 -43
c-42.667 0 -73 12 -91 36s-27 53.667 -27 89c0 25.333 3.33301 52.666 10 81.999s14.334 59.333 23.001 90s16.167 60.167 22.5 88.5s9.5 53.833 9.5 76.5c0 20 -3.83301 37.333 -11.5 52s-22.167 22 -43.5 22c-18 0 -33.5 -5.5 -46.5 -16.5s-23.833 -25 -32.5 -42
s-15 -35 -19 -54s-6 -37.167 -6 -54.5c0 -10 0.666992 -18.833 2 -26.5s4 -16.5 8 -26.5c-30 0 -51.167 7.16699 -63.5 21.5s-18.5 31.833 -18.5 52.5c0 20 5 40.833 15 62.5s24 41.5 42 59.5s39.167 32.667 63.5 44s50.166 17 77.499 17c26.667 0 48.334 -5 65.001 -15
s28.834 -23.167 36.501 -39.5s11.5 -33.833 11.5 -52.5c0 -16 -2.66699 -35.5 -8 -58.5s-12.666 -50.833 -21.999 -83.5s-17.5 -64.167 -24.5 -94.5s-10.5 -58.833 -10.5 -85.5c0 -28 5.33301 -50.833 16 -68.5s29 -26.5 55 -26.5c22.667 0 44.167 6.83301 64.5 20.5
s39.5 32 57.5 55s34.333 49 49 78s27.667 58.833 39 89.5l26.5 92.5c9 32.333 18.667 62.833 29 91.5s21.166 52 32.499 70s23.333 27 36 27c6.66699 0 16.167 -3.16699 28.5 -9.5s24.166 -15.166 35.499 -26.499c-14.667 -22 -27.167 -43 -37.5 -63s-20 -41.667 -29 -65
s-18.167 -50.833 -27.5 -82.5s-19.666 -70.167 -30.999 -115.5l-40 -165c-8.66699 -34 -18.334 -69 -29.001 -105s-23.667 -70.333 -39 -103s-33.666 -62 -54.999 -88s-46.666 -46.5 -75.999 -61.5s-64 -22.5 -104 -22.5z" />
    <glyph glyph-name="Z" unicode="Z" horiz-adv-x="664" 
d="M476 -87c-26.667 0 -54.9971 4.83105 -84.9971 14.498s-59.833 21.334 -89.5 35.001l-83.5 38.5c-23.333 -17.333 -45.833 -30.833 -67.5 -40.5s-43.167 -14.5 -64.5 -14.5c-20.667 0 -38.5 4.33301 -53.5 13s-26.5 19.667 -34.5 33s-12 26.333 -12 39
c0 14 6.16699 26.667 18.5 38s33.833 17 64.5 17c19.333 0 40.833 -2.33301 64.5 -7s48.5 -10.667 74.5 -18c31.333 32 63.5 70.5 96.5 115.5s64.167 91.5 93.5 139.5c-20.667 -0.666992 -40.834 -1.83398 -60.501 -3.50098s-43.834 -4.5 -72.501 -8.5l-31 -4
c1.33301 21.333 9 37.666 23 48.999s32.667 19.333 56 24s48.666 7 75.999 7c8.66699 0 16.5 -0.166992 23.5 -0.5s14.167 -0.833008 21.5 -1.5c26 43.333 48.833 84.666 68.5 123.999s34.834 73 45.501 101c-12.667 4 -25.167 8.16699 -37.5 12.5l-41.5 14.5
c-46.667 17.333 -86.167 30.5 -118.5 39.5s-60.166 13.5 -83.499 13.5c-20.667 0 -39.334 -4.33301 -56.001 -13s-30 -23.5 -40 -44.5s-15 -50.833 -15 -89.5c0 1.33301 0.333008 0 1 -4s1.66699 -8.66699 3 -14s2.66602 -9.66602 3.99902 -12.999
c-24 4 -41.333 12.5 -52 25.5s-16 30.167 -16 51.5c0 44.667 17.5 78.834 52.5 102.501s84.5 35.5 148.5 35.5c36.667 0 70.834 -3.16699 102.501 -9.5s61.834 -13.666 90.501 -21.999s56.5 -15.666 83.5 -21.999s53.833 -9.5 80.5 -9.5c6.66699 0 14.167 0.166992 22.5 0.5
s15.5 1.16602 21.5 2.49902c-12.667 -12.667 -23.834 -22.334 -33.501 -29.001s-18.167 -11.667 -25.5 -15c-14 -33.333 -31.667 -71.166 -53 -113.499s-45.666 -86.166 -72.999 -131.499c24 -2 44.167 -3.83301 60.5 -5.5s33.5 -2.5 51.5 -2.5
c-10 -13.333 -20.167 -23 -30.5 -29s-24 -10 -41 -12s-40.833 -3.33301 -71.5 -4c-32 -51.333 -66.5 -101 -103.5 -149s-73.5 -89.667 -109.5 -125l129 -36c42.667 -11.333 80 -17 112 -17c15.333 0 29.666 1.66699 42.999 5s26.666 8.33301 39.999 15
c-13.333 -36 -29.333 -61.333 -48 -76s-41.667 -22 -69 -22zM79.0029 -23.002c12.667 0 26.002 4.16797 40.002 12.501s29.333 19.166 46 32.499c-20.667 8.66699 -40.334 16 -59.001 22s-35.334 9 -50.001 9c-14 0 -24 -2.5 -30 -7.5s-9 -11.167 -9 -18.5
c0 -10.667 5.83301 -21.667 17.5 -33s26.5 -17 44.5 -17z" />
    <glyph glyph-name="bracketleft" unicode="[" horiz-adv-x="423" 
d="M221 -87c-22 0 -44.832 1.33008 -68.499 3.99707s-45.334 5.66699 -65.001 9s-34.834 6 -45.501 8l5 12c2 4.66699 4.5 12.834 7.5 24.501s6.83301 29.167 11.5 52.5s10.667 55 18 95l28 153l40 226c10.667 56.667 23.667 99.834 39 129.501s31.5 50 48.5 61
s32.833 16.5 47.5 16.5c9.33301 0 20.5 -0.5 33.5 -1.5s26.833 -1.5 41.5 -1.5c17.333 0 35.333 1.33301 54 4s36.334 8.66699 53.001 18c-0.666992 -27.333 -6.33398 -47.5 -17.001 -60.5s-24.334 -21.5 -41.001 -25.5s-34.667 -6 -54 -6c-16.667 0 -34.167 2 -52.5 6
s-36.5 7.66699 -54.5 11c-9.33301 -28 -18.666 -61.333 -27.999 -100s-18.166 -80 -26.499 -124l-24.5 -133.5l-22.5 -129c-7 -41 -13.5 -77.5 -19.5 -109.5s-11.667 -57 -17 -75c36 0 66 0.333008 90 1s44.5 1.66699 61.5 3s32.5 3.33301 46.5 6s29 6.33398 45 11.001
c-0.666992 -28.667 -11.667 -50 -33 -64s-55 -21 -101 -21z" />
    <glyph glyph-name="backslash" unicode="\" horiz-adv-x="589" 
d="M470 -165c-31.333 5.33301 -57.3291 23.002 -77.9961 53.002s-40.334 76 -59.001 138c-6.66699 23.333 -13.834 51 -21.501 83l-25 106l-27 121.5l-28 130l-30 131.5c-10.333 43.333 -20.833 85 -31.5 125c17.333 0 33.166 -5.5 47.499 -16.5s23.5 -22.5 27.5 -34.5
c10 -26 20.667 -59.5 32 -100.5s23 -86.5 35 -136.5l36 -154l35.5 -153.5l33 -137c10.333 -41.667 20.166 -76.334 29.499 -104.001s17.333 -44.834 24 -51.501z" />
    <glyph glyph-name="bracketright" unicode="]" horiz-adv-x="441" 
d="M5 -88c1.33301 22 7.66895 38.8369 19.002 50.5039s25.333 19.667 42 24s34 6.5 52 6.5c17.333 0 37.166 -1 59.499 -3s43.833 -3.66699 64.5 -5c11.333 31.333 22.333 70.666 33 117.999s21.334 97.833 32.001 151.5l30.5 159.5l27 145.5
c8.33301 44.333 15.5 80.166 21.5 107.499h-65c-39.333 -0.666992 -75.166 -2.5 -107.499 -5.5s-64.166 -8.83301 -95.499 -17.5c0 32.667 11.833 53.667 35.5 63s55.5 14 95.5 14c28.667 0 58.167 -1.83301 88.5 -5.5s60.833 -8.83398 91.5 -15.501
c-0.666992 -10.667 -2.83398 -28.5 -6.50098 -53.5l-13 -88.5l-16.5 -108.5l-18 -115c-6 -38.333 -12 -74.666 -18 -108.999s-11.667 -64.5 -17 -90.5c-2.66699 -16 -6.83398 -35.333 -12.501 -58s-13.334 -45.334 -23.001 -68.001s-22.334 -41.5 -38.001 -56.5
s-35.5 -22.5 -59.5 -22.5c-37.333 0 -73.5 -0.833008 -108.5 -2.5s-66.167 -6.83398 -93.5 -15.501z" />
    <glyph glyph-name="asciicircum" unicode="^" horiz-adv-x="208" 
d="M186 406c-10.667 18.667 -21.6641 34.1709 -32.9971 46.5039s-24.333 25.166 -39 38.499c-19.333 -6 -36.833 -13 -52.5 -21s-31.834 -18 -48.501 -30c-4.66699 3.33301 -7.83398 7.16602 -9.50098 11.499s-2.5 8.16602 -2.5 11.499c0 10 4.5 20 13.5 30
s20 19.167 33 27.5s25.667 15.166 38 20.499s22.166 8 29.499 8c8 0 17.167 -3.5 27.5 -10.5s20.5 -16.167 30.5 -27.5s18.333 -23.166 25 -35.499s10 -23.5 10 -33.5c0 -6.66699 -1.66699 -13.334 -5 -20.001s-9 -12 -17 -16z" />
    <glyph glyph-name="underscore" unicode="_" horiz-adv-x="873" 
d="M-8 -71c3.33301 25.333 19.1709 44.502 47.5039 57.502s66.666 21.667 114.999 26s103.833 6.5 166.5 6.5c47.333 0 89.833 -0.833008 127.5 -2.5s72.667 -3.66699 105 -6l94 -6.5c30.333 -2 62.166 -3 95.499 -3c-32.667 -21.333 -63.667 -36.166 -93 -44.499
s-54.333 -12.5 -75 -12.5c-52.667 0 -101.334 0.5 -146.001 1.5s-84.167 2.16699 -118.5 3.5s-62.5 1.66602 -84.5 0.999023c-28 0 -52 -0.333008 -72 -1s-38.5 -1.83398 -55.5 -3.50098s-33.833 -3.83398 -50.5 -6.50098s-35.334 -6 -56.001 -10z" />
    <glyph glyph-name="grave" unicode="`" horiz-adv-x="134" 
d="M113 403c-14.667 18.667 -30.999 36.8301 -48.999 54.4971s-40 36.834 -66 57.501c1.33301 12.667 4.83301 21.834 10.5 27.501s11.834 8.5 18.501 8.5c10 0 21.167 -4.66699 33.5 -14s24.166 -20.833 35.499 -34.5s20.666 -26.667 27.999 -39s11 -21.5 11 -27.5
c0 -4 -1.83301 -9.66699 -5.5 -17s-9.16699 -12.666 -16.5 -15.999z" />
    <glyph glyph-name="a" unicode="a" horiz-adv-x="441" 
d="M53 -47c-21.333 0 -39.8311 7.16895 -55.498 21.502s-23.5 35.833 -23.5 64.5c0 24 5.33301 49.667 16 77s25.334 54.333 44.001 81s40 51 64 73s49.5 39.667 76.5 53s53.833 20 80.5 20c28 0 51.5 -7.16699 70.5 -21.5s28.5 -33.166 28.5 -56.499
c0 -18 -5.66699 -30.667 -17 -38s-25.333 -9.66602 -42 -6.99902c1.33301 5.33301 2.5 11.166 3.5 17.499s1.5 12.5 1.5 18.5c0 14 -3 26.333 -9 37s-17.667 16 -35 16c-18.667 0 -37.667 -6.33301 -57 -19s-38 -29.334 -56 -50.001s-34 -43.334 -48 -68.001
s-25 -49 -33 -73s-12 -45.333 -12 -64c0 -22.667 8.33301 -34 25 -34c15.333 0 32.166 7.33301 50.499 22s37 33.334 56 56.001s37.167 45.834 54.5 69.501l45 62.5c2.66699 3.33301 5 5 7 5c3.33301 -0.666992 8.66602 -2.16699 15.999 -4.5s14 -5.5 20 -9.5
s9 -9.33301 9 -16s-3 -15.167 -9 -25.5l-20 -34.5c-7.33301 -12.667 -14 -25.334 -20 -38.001s-9 -25 -9 -37c0 -8.66699 2.5 -17.167 7.5 -25.5s13.167 -12.5 24.5 -12.5c16.667 0 39.5 12.167 68.5 36.5s58.5 64.166 88.5 119.499l16 -16
c-15.333 -36 -34.166 -67.667 -56.499 -95s-45.833 -48.833 -70.5 -64.5s-49.334 -23.5 -74.001 -23.5c-26.667 0 -46.334 8.16699 -59.001 24.5s-19.667 34.166 -21 53.499c0 2 0.166992 4.16699 0.5 6.5s0.5 4.5 0.5 6.5c-27.333 -34 -52.333 -60.5 -75 -79.5
s-46.667 -28.5 -72 -28.5z" />
    <glyph glyph-name="b" unicode="b" horiz-adv-x="404" 
d="M101 -73c-36.667 0 -64.4961 11.666 -83.4961 34.999s-28.5 55.333 -28.5 96c0 32.667 5.66699 71.5 17 116.5s26.333 92 45 141s39.5 97.167 62.5 144.5s46.5 90.166 70.5 128.499s46.5 68.833 67.5 91.5s38.833 34 53.5 34c12.667 0 22 -7.5 28 -22.5
s9.33301 -29.833 10 -44.5c0 -18.667 -4 -41.334 -12 -68.001s-19.333 -55 -34 -85s-31.667 -59.667 -51 -89s-40.333 -56.166 -63 -80.499s-46.334 -43.5 -71.001 -57.5c-4 -8 -9.66699 -23 -17 -45s-14 -47 -20 -75s-9 -55.667 -9 -83s4 -50.166 12 -68.499
s21.667 -27.5 41 -27.5c18 0 37.167 7.83301 57.5 23.5s36.833 35.167 49.5 58.5c-24.667 13.333 -43.167 32 -55.5 56s-18.5 49 -18.5 75c0 32.667 8.66699 58.834 26 78.501s38 29.5 62 29.5c20.667 0 37.667 -8 51 -24s20 -40.333 20 -73
c0 -20 -2.66699 -41.167 -8 -63.5s-13.333 -44.166 -24 -65.499c3.33301 -0.666992 6.5 -1.16699 9.5 -1.5s6.83301 -0.5 11.5 -0.5c23.333 0 43.166 6.16699 59.499 18.5s30.166 27.166 41.499 44.499s20.333 33 27 47l14 -18c-17.333 -41.333 -38.333 -71.5 -63 -90.5
s-54.334 -28.5 -89.001 -28.5c-4 0 -8.16699 0.166992 -12.5 0.5s-8.5 0.833008 -12.5 1.5c-18 -30 -40.667 -55.667 -68 -77s-59.333 -32 -96 -32zM241.004 78.999c6 14 10.6689 28.332 14.002 42.999s5 30.334 5 47.001c0 24 -2.83301 42 -8.5 54s-12.834 18 -21.501 18
c-9.33301 0 -17.333 -6.33301 -24 -19s-10 -28 -10 -46c0 -15.333 3.16699 -32.5 9.5 -51.5s18.166 -34.167 35.499 -45.5zM129.006 321.998c17.333 15.333 34.166 33.499 50.499 54.499s31.5 43.333 45.5 67s26.5 46.834 37.5 69.501s19.833 43.167 26.5 61.5
s10.334 32.833 11.001 43.5v4.5c0 1 -0.333008 1.5 -1 1.5c-6 -1.33301 -16 -10.833 -30 -28.5s-29.667 -41 -47 -70s-34.333 -61.167 -51 -96.5s-30.667 -71 -42 -107z" />
    <glyph glyph-name="c" unicode="c" horiz-adv-x="330" 
d="M111 -56c-34 0 -62 10.8311 -84 32.498s-33 54.5 -33 98.5c0 32.667 6.5 64.667 19.5 96s30.167 59.666 51.5 84.999s45 45.333 71 60s52.333 22 79 22c28 0 47.833 -7.33301 59.5 -22s17.5 -31 17.5 -49c0 -19.333 -4.5 -37.333 -13.5 -54s-21.167 -25 -36.5 -25
c-12.667 0 -23 6 -31 18c8 4.66699 15.667 14 23 28s11 30 11 48c0 6.66699 -1.33301 11.667 -4 15s-8 5 -16 5c-17.333 0 -35.166 -7.66699 -53.499 -23s-35.5 -35.166 -51.5 -59.499s-29 -49.833 -39 -76.5s-15 -51.667 -15 -75c0 -19.333 5 -37 15 -53s29 -24 57 -24
c26 0 52.5 7.33301 79.5 22s52.5 35.334 76.5 62.001s43 58.334 57 95.001l18 -16c-16 -40 -37.833 -75.833 -65.5 -107.5s-58.334 -56.667 -92.001 -75s-67.167 -27.5 -100.5 -27.5z" />
    <glyph glyph-name="d" unicode="d" horiz-adv-x="485" 
d="M66 -30c-12.667 0 -25.1699 2.99902 -37.5029 8.99902s-22.833 15.667 -31.5 29s-13 30 -13 50c0 22 5.33301 46.667 16 74s25.167 54.666 43.5 81.999s39.5 52.333 63.5 75s49.333 41 76 55s53.334 21 80.001 21c14.667 0 26.167 -2.5 34.5 -7.5
s12.5 -13.167 12.5 -24.5c0 -3.33301 -0.5 -6.66602 -1.5 -9.99902s-3.16699 -6.66602 -6.5 -9.99902c-3.33301 4.66699 -8.16602 7.83398 -14.499 9.50098s-13.5 2.5 -21.5 2.5c-22 0 -43 -6.16699 -63 -18.5s-38.5 -28.5 -55.5 -48.5s-31.667 -41.5 -44 -64.5
s-21.833 -45.333 -28.5 -67s-10 -40.167 -10 -55.5c0 -13.333 2.83301 -24 8.5 -32s13.834 -12 24.501 -12c18 0 39.667 10.833 65 32.5s51.166 52.667 77.499 93s50.166 88.166 71.499 143.499l46 116.5l48 115c16 37 31.667 69.833 47 98.5s30 51.5 44 68.5
s27 25.5 39 25.5c6.66699 0 12.5 -2.66699 17.5 -8s7.5 -12 7.5 -20c0 -10.667 -5.5 -28.667 -16.5 -54s-25.167 -55.5 -42.5 -90.5l-55 -114c-19.333 -41 -37.666 -82.833 -54.999 -125.5s-31.5 -84.334 -42.5 -125.001s-16.5 -78.667 -16.5 -114
c0 -16.667 1.33301 -28.5 4 -35.5s8.33398 -10.5 17.001 -10.5c14.667 0 31 5.83301 49 17.5s36.333 28.667 55 51s35.667 48.833 51 79.5l16 -13c-14 -36 -32.167 -67.833 -54.5 -95.5s-46.333 -49.334 -72 -65.001s-50.834 -23.5 -75.501 -23.5
c-26 0 -44.167 8.5 -54.5 25.5s-15.5 36.167 -15.5 57.5c0 10.667 1 22.834 3 36.501s4.66699 27.834 8 42.501c-20.667 -32 -42.667 -60.5 -66 -85.5s-46.166 -44.667 -68.499 -59s-43.5 -21.5 -63.5 -21.5z" />
    <glyph glyph-name="e" unicode="e" horiz-adv-x="338" 
d="M113 -44c-42 0 -74 11.332 -96 33.999s-33 51 -33 85c0 30 7.5 61.5 22.5 94.5s35.167 64 60.5 93s53.166 52.667 83.499 71s60.5 27.5 90.5 27.5c16.667 0 32.5 -4.33301 47.5 -13s22.5 -26 22.5 -52c0 -25.333 -7.5 -49.166 -22.5 -71.499s-34.667 -42.166 -59 -59.499
s-51.333 -31.5 -81 -42.5s-59.167 -17.833 -88.5 -20.5l-2 -12c-0.666992 -4 -1 -9.33301 -1 -16c0 -5.33301 0.833008 -12.5 2.5 -21.5s5 -18 10 -27s12.833 -16.5 23.5 -22.5s24.667 -9 42 -9c28 0 56.167 8 84.5 24s54.833 37.167 79.5 63.5s45.334 55.5 62.001 87.5
l17 -14c-18 -40 -41 -74.833 -69 -104.5s-58.833 -52.834 -92.5 -69.501s-68.167 -25 -103.5 -25zM69 132.999c17.333 3.33301 37.001 10.165 59.001 20.498s43 23.333 63 39s36.5 32.834 49.5 51.501s19.5 37.667 19.5 57c0 7.33301 -1.33301 12.666 -4 15.999
s-7.33398 5 -14.001 5c-16 0 -32.5 -5.83301 -49.5 -17.5s-33.667 -26.667 -50 -45s-30.833 -38.666 -43.5 -60.999s-22.667 -44.166 -30 -65.499z" />
    <glyph glyph-name="f" unicode="f" horiz-adv-x="324" 
d="M-5 -280c-7.33301 0 -15.832 2.33496 -25.499 7.00195s-18.167 13.667 -25.5 27s-11 33 -11 59c0 29.333 5 67.166 15 113.499s23.5 97.833 40.5 154.5s37 114.667 60 174s47.667 116.666 74 171.999s53.5 105 81.5 149s55.833 79 83.5 105s54.167 39 79.5 39
c16 0 26.5 -4.83301 31.5 -14.5s7.5 -21.167 7.5 -34.5c0 -28.667 -7.83301 -60 -23.5 -94s-36.5 -68.167 -62.5 -102.5s-55 -66.833 -87 -97.5s-64.667 -57 -98 -79c-2.66699 -7.33301 -5.5 -14.5 -8.5 -21.5s-5.83301 -14.167 -8.5 -21.5
c7.33301 -2.66699 13.166 -7.16699 17.499 -13.5s6.83301 -13.166 7.5 -20.499c5.33301 -29.333 10.666 -55.333 15.999 -78s13.5 -40.5 24.5 -53.5s26.833 -19.5 47.5 -19.5c23.333 0 43.666 8.66699 60.999 26s35.333 41.666 54 72.999l19 -14
c-19.333 -42 -42.166 -72.5 -68.499 -91.5s-49.833 -28.5 -70.5 -28.5c-12 0 -24.167 2.5 -36.5 7.5s-24.166 12.167 -35.499 21.5c-0.666992 -42 -5.5 -83.333 -14.5 -124s-21 -77.5 -36 -110.5s-31.833 -59.5 -50.5 -79.5s-38 -30 -58 -30zM22.001 -222.998
c7.33301 0 15.333 6.5 24 19.5s17.167 30 25.5 51s16 44.167 23 69.5s12.667 50.5 17 75.5s6.5 47.5 6.5 67.5s-2.33301 37.833 -7 53.5s-12.667 33.5 -24 53.5c-16 -47.333 -30.167 -93 -42.5 -137s-22 -83.833 -29 -119.5s-10.5 -65.167 -10.5 -88.5
c0 -30 5.66699 -45 17 -45zM160.001 358.002c41.333 38.667 76.832 76.833 106.499 114.5s52.334 71 68.001 100s23.5 49.5 23.5 61.5c0 6.66699 -3.33301 10 -10 10c-16 0 -34.667 -12.833 -56 -38.5s-43.333 -60.167 -66 -103.5s-44.667 -91.333 -66 -144z" />
    <glyph glyph-name="g" unicode="g" horiz-adv-x="398" 
d="M46 -280c-16 0 -30.8369 4.83398 -44.5039 14.501s-20.5 25.5 -20.5 47.5c0 20.667 6.16699 39.5 18.5 56.5s28.5 32.667 48.5 47s41.667 27.5 65 39.5l67 34c8 20 15.667 41.333 23 64s14.333 47.667 21 75c-24 -32 -49.167 -58.5 -75.5 -79.5
s-53.166 -31.5 -80.499 -31.5c-25.333 0 -45.5 9.16699 -60.5 27.5s-22.5 42.5 -22.5 72.5c0 35.333 8.83301 68.5 26.5 99.5s40.334 58.667 68.001 83s57.334 43.333 89.001 57s61.5 20.5 89.5 20.5c20.667 0 36 -3.66699 46 -11s15 -15.666 15 -24.999
c0 -7.33301 -2.16699 -13.166 -6.5 -17.499s-7.16602 -6.83301 -8.49902 -7.5c-5.33301 6.66699 -11.5 11.167 -18.5 13.5s-15.167 3.5 -24.5 3.5c-26 0 -51 -7.33301 -75 -22s-45.333 -33.667 -64 -57s-33.334 -47.5 -44.001 -72.5s-16 -47.833 -16 -68.5
c0 -14 3 -24.833 9 -32.5s13.667 -11.5 23 -11.5c19.333 0 42.333 12.5 69 37.5s52.334 55.167 77.001 90.5c2 6.66699 3.5 12.667 4.5 18s2.16699 11 3.5 17c5.33301 21.333 12.333 38.166 21 50.499s21.334 18.5 38.001 18.5c3.33301 0 7.33301 -0.166992 12 -0.5
s9.66699 -1.16602 15 -2.49902c0 -12 -3.33301 -31.833 -10 -59.5s-15.667 -59.834 -27 -96.501s-24.333 -74.334 -39 -113.001c21.333 9.33301 42.5 22 63.5 38s40.5 35 58.5 57s31.667 46.333 41 73l16 -15c-10 -30.667 -26.167 -58.5 -48.5 -83.5
s-46.333 -46.667 -72 -65s-49.167 -32.5 -70.5 -42.5c-18.667 -44 -38.334 -84.333 -59.001 -121s-42.667 -65.834 -66 -87.501s-48.333 -32.5 -75 -32.5zM41.9961 -238.999c12.667 0 29.8311 12.001 51.498 36.001s45.167 64.667 70.5 122
c-25.333 -12.667 -48.666 -25.5 -69.999 -38.5s-38.666 -26.833 -51.999 -41.5s-20 -30.334 -20 -47.001c0 -9.33301 2 -16.833 6 -22.5s8.66699 -8.5 14 -8.5z" />
    <glyph glyph-name="h" unicode="h" horiz-adv-x="488" 
d="M46 -38c-14 0 -24.3281 11.167 -30.9951 33.5s-10 47.833 -10 76.5c0 31.333 5.33301 68.666 16 111.999s24.667 89.166 42 137.499s36.833 95.666 58.5 141.999s44 88.333 67 126s44.833 67.834 65.5 90.501s38.667 34 54 34c13.333 0 23.333 -7.5 30 -22.5
s10 -30.167 10 -45.5c0 -18.667 -4.16699 -41.167 -12.5 -67.5s-19.833 -54.5 -34.5 -84.5s-31.834 -59.667 -51.501 -89s-40.834 -56 -63.501 -80s-46.334 -43.333 -71.001 -58c-8 -21.333 -14.667 -42.5 -20 -63.5s-9.16602 -41.167 -11.499 -60.5
s-3.5 -37.666 -3.5 -54.999c0 -4.66699 0.166992 -9 0.5 -13s0.833008 -8 1.5 -12l18.5 47.5c7.66699 19.667 17 40.5 28 62.5s24 43 39 63s32.167 36.167 51.5 48.5s40.666 18.5 63.999 18.5c21.333 0 38.166 -4.83301 50.499 -14.5s21 -21.834 26 -36.501
s7.5 -29.667 7.5 -45c0 -20.667 -3.5 -40.5 -10.5 -59.5s-14 -37 -21 -54s-10.5 -33.167 -10.5 -48.5c0 -12 2.66699 -20.667 8 -26s12 -8 20 -8c14.667 0 31.834 7.33301 51.501 22s39.167 34.167 58.5 58.5s35.666 51.166 48.999 80.499l15 -15
c-14.667 -33.333 -32.167 -63.666 -52.5 -90.999s-42.833 -49.166 -67.5 -65.499s-50.667 -24.5 -78 -24.5c-24.667 0 -43.334 6.5 -56.001 19.5s-19 29.167 -19 48.5c0 14 2.5 29.5 7.5 46.5s9.83301 34.333 14.5 52s7 33.834 7 48.501c0 16 -3.5 27.333 -10.5 34
s-15.5 10 -25.5 10c-16.667 0 -31.667 -6.66699 -45 -20s-25.5 -30.333 -36.5 -51s-21.167 -42.5 -30.5 -65.5l-27.5 -66c-9 -21 -18.5 -38 -28.5 -51s-21 -19.5 -33 -19.5zM134.005 323c17.333 15.333 34.333 33.833 51 55.5s32.167 44.5 46.5 68.5s26.833 47.333 37.5 70
s19.167 43 25.5 61s9.83301 32 10.5 42c0 1.33301 -0.166992 2.33301 -0.5 3s-0.833008 1 -1.5 1c-4 0 -12.667 -8.5 -26 -25.5s-28.833 -39.833 -46.5 -68.5s-35.167 -61 -52.5 -97s-32 -72.667 -44 -110z" />
    <glyph glyph-name="i" unicode="i" horiz-adv-x="243" 
d="M77 -29c-28 0 -49.001 8.50293 -63.001 25.5029s-21 37.833 -21 62.5c0 15.333 2.66699 34.666 8 57.999s12.833 47.833 22.5 73.5s20.834 49.834 33.501 72.501s26.167 41.167 40.5 55.5s28.5 21.5 42.5 21.5c8 0 14.667 -2.33301 20 -7s8 -11.334 8 -20.001
s-5.16699 -21.834 -15.5 -39.501l-36.5 -60.5c-14 -22.667 -26.167 -46.334 -36.5 -71.001s-15.5 -48.334 -15.5 -71.001c0 -22 4 -36.667 12 -44s19.667 -11 35 -11c22.667 0 47.167 11.333 73.5 34s53.833 62.334 82.5 119.001l13 -14
c-22 -58.667 -51.167 -104 -87.5 -136s-74.833 -48 -115.5 -48zM195.999 425.003c-12 0 -22.832 2.83203 -32.499 8.49902s-14.5 14.834 -14.5 27.501c0 16 8.5 29.5 25.5 40.5s34.5 16.5 52.5 16.5c11.333 0 20.666 -2.66699 27.999 -8s11 -14.333 11 -27
c0 -14 -7.33301 -27.167 -22 -39.5s-30.667 -18.5 -48 -18.5z" />
    <glyph glyph-name="j" unicode="j" horiz-adv-x="224" 
d="M-136 -280c-18.667 0 -33.1689 5.33594 -43.502 16.0029s-15.5 24 -15.5 40c0 26 11.833 53 35.5 81s54.167 53 91.5 75l32.5 16l34.5 16c12 29.333 23.167 62.166 33.5 98.499s19.5 76.166 27.5 119.499c-7.33301 -12.667 -14.5 -24.334 -21.5 -35.001
s-12.833 -20.667 -17.5 -30l-15 23c12 22 22.667 45.167 32 69.5l26.5 68c8.33301 21 17.166 38.167 26.499 51.5s19.666 20 30.999 20c8.66699 0 15.667 -3.33301 21 -10s8 -15 8 -25c0 -7.33301 -1.66699 -21 -5 -41s-8.16602 -44.667 -14.499 -74
s-14.166 -61 -23.499 -95s-20 -68.333 -32 -103c19.333 11.333 38.333 23.166 57 35.499s37.5 28.333 56.5 48s37.833 45.834 56.5 78.501l16 -10c-19.333 -42 -40.666 -74.5 -63.999 -97.5s-46.666 -41.167 -69.999 -54.5l-66 -39c-14.667 -40.667 -32 -79.5 -52 -116.5
s-42.333 -67.167 -67 -90.5s-51 -35 -79 -35zM-146.002 -236.997c12 0 29.832 13.167 53.499 39.5s47.834 65.166 72.501 116.499c-46.667 -23.333 -81.667 -47.166 -105 -71.499s-35 -45.833 -35 -64.5c0 -7.33301 1.33301 -12.5 4 -15.5s6 -4.5 10 -4.5zM137.997 428.003
c-12 0 -22.8311 2.99902 -32.498 8.99902s-14.5 15 -14.5 27c0 11.333 4.16699 21.333 12.5 30s18.666 15.5 30.999 20.5s24.166 7.5 35.499 7.5c10.667 0 19.667 -2.66699 27 -8s11 -13.666 11 -24.999c0 -16 -7.16699 -30.167 -21.5 -42.5s-30.5 -18.5 -48.5 -18.5z" />
    <glyph glyph-name="k" unicode="k" horiz-adv-x="457" 
d="M310 -38c-20 0 -37.333 6.49512 -52 19.4951s-26.334 29.5 -35.001 49.5s-15.167 40.333 -19.5 61s-6.5 38.667 -6.5 54c8.66699 1.33301 20 4 34 8s28.333 9.5 43 16.5s27 16 37 27s15 24.167 15 39.5c0 12.667 -4.33301 22.834 -13 30.501s-19.667 11.5 -33 11.5
c-19.333 0 -37.666 -6.5 -54.999 -19.5s-33.166 -30 -47.499 -51s-27.166 -43.667 -38.499 -68s-21.333 -47.666 -30 -69.999l-22 -57.5c-6 -17.333 -12.5 -29 -19.5 -35s-16.167 -9 -27.5 -9c-6.66699 0 -13 2.5 -19 7.5s-10.5 13.333 -13.5 25s-4.5 27.834 -4.5 48.501
c0 38.667 5.66699 81.834 17 129.501s26.5 96.5 45.5 146.5s39.833 98 62.5 144s45.5 87.333 68.5 124s44.5 65.834 64.5 87.501s36.333 32.5 49 32.5c10.667 0 19.5 -6.66699 26.5 -20s10.5 -30 10.5 -50c0 -22.667 -5 -48 -15 -76s-24.167 -56.167 -42.5 -84.5
s-40 -55.166 -65 -80.499s-52.833 -47 -83.5 -65c-19.333 -47.333 -34.166 -93.5 -44.499 -138.5s-16.5 -84.167 -18.5 -117.5c11.333 26.667 24.666 55 39.999 85s32.5 58.167 51.5 84.5s39.5 47.666 61.5 63.999s45.333 24.5 70 24.5c26 0 48.5 -9 67.5 -27
s28.5 -40.667 28.5 -68c0 -20 -5.33301 -37.5 -16 -52.5s-23.834 -27.167 -39.501 -36.5s-31.5 -16.333 -47.5 -21s-29.333 -7 -40 -7c1.33301 -8 3.83301 -18.667 7.5 -32s8.5 -26.833 14.5 -40.5s13.667 -25.167 23 -34.5s20.333 -14 33 -14c18 0 35.667 7.5 53 22.5
s34.333 35 51 60s31.667 52.833 45 83.5l13 -15c-10.667 -32.667 -25.834 -64.167 -45.501 -94.5s-41.5 -54.833 -65.5 -73.5s-48.333 -28 -73 -28zM166 395.995c22.667 19.333 44.499 42 65.499 68s38.333 52.833 52 80.5s20.834 52.5 21.501 74.5
c0 2 -0.166992 3.33301 -0.5 4l-0.5 1c-6.66699 -1.33301 -17.5 -12.666 -32.5 -33.999s-31.833 -48.833 -50.5 -82.5s-37 -70.834 -55 -111.501z" />
    <glyph glyph-name="l" unicode="l" horiz-adv-x="242" 
d="M85 -30c-30.667 0 -52.1689 10.335 -64.502 31.002s-18.5 45.334 -18.5 74.001c0 32.667 6 71 18 115s27.833 90.167 47.5 138.5s41.334 95.666 65.001 141.999s47.334 88.333 71.001 126s45.667 67.667 66 90s36.5 33.5 48.5 33.5c8 0 14.833 -4.33301 20.5 -13
s10.167 -19.167 13.5 -31.5s5 -23.5 5 -33.5c0 -18 -4.5 -41.5 -13.5 -70.5s-21.667 -61 -38 -96s-35.666 -70.667 -57.999 -107s-46.833 -71 -73.5 -104s-55.334 -61.5 -86.001 -85.5c-2.66699 -16.667 -5.16699 -33.334 -7.5 -50.001s-3.5 -32 -3.5 -46
c0 -24.667 3.83301 -42.834 11.5 -54.501s18.167 -17.5 31.5 -17.5c17.333 0 34.833 8 52.5 24s34.5 36.167 50.5 60.5s30 49.5 42 75.5l21 -12c-28 -58 -59 -104 -93 -138s-70 -51 -108 -51zM102.998 232.002c23.333 24 45.3301 50.834 65.9971 80.501
s39.834 59.834 57.501 90.501s33.167 60.5 46.5 89.5s23.666 55 30.999 78s11.333 41.167 12 54.5c0 2.66699 -0.333008 4.5 -1 5.5l-1 1.5c-5.33301 0 -14.166 -7.83301 -26.499 -23.5s-26.666 -36.834 -42.999 -63.501s-33.166 -57.334 -50.499 -92.001s-34 -71 -50 -109
s-29.667 -75.333 -41 -112z" />
    <glyph glyph-name="m" unicode="m" horiz-adv-x="655" 
d="M517 -31c-25.333 0 -44.001 7.50391 -56.001 22.5039s-18 32.833 -18 53.5c0 16 2.33301 31.833 7 47.5l14.5 46.5c5 15.333 7.5 29.333 7.5 42c0 12 -2.5 20.333 -7.5 25s-10.833 7 -17.5 7c-16 0 -34 -12.167 -54 -36.5s-45.333 -59.166 -76 -104.499
c-10.667 -16 -20.334 -32.667 -29.001 -50s-16.667 -32.333 -24 -45c-5.33301 0 -12.666 1 -21.999 3s-17.5 4.66699 -24.5 8s-10.5 7.66602 -10.5 12.999c0 6 3.33301 17.667 10 35l23 61c8.66699 23.333 16.167 46.5 22.5 69.5s9.5 42.5 9.5 58.5
c0 10 -1.66699 17.833 -5 23.5s-9 8.5 -17 8.5c-14 0 -31 -8.5 -51 -25.5s-41 -39.167 -63 -66.5s-42.5 -57.833 -61.5 -91.5s-34.5 -67.167 -46.5 -100.5c-7.33301 0 -16 1.33301 -26 4s-18.667 6 -26 10s-11 7.66699 -11 11c0 2 2.66699 12.333 8 31l19.5 69
c7.66699 27.333 15 55.333 22 84s12.5 54 16.5 76c2.66699 6 9.66699 11.667 21 17s21.666 8 30.999 8s16.833 -2.66699 22.5 -8s8.5 -12.666 8.5 -21.999c0 -7.33301 -1.66699 -18.833 -5 -34.5s-7.66602 -32.834 -12.999 -51.501c14 19.333 29 38.833 45 58.5
s32.833 37.5 50.5 53.5s35.334 28.833 53.001 38.5s35.167 14.5 52.5 14.5c23.333 0 39.166 -8.33301 47.499 -25s12.5 -35.334 12.5 -56.001c0 -11.333 -1.16699 -22.833 -3.5 -34.5s-5 -23 -8 -34s-6.5 -21.833 -10.5 -32.5c13.333 21.333 27.833 41.166 43.5 59.499
s32.5 33 50.5 44s37.333 16.5 58 16.5c24.667 0 41.667 -7.33301 51 -22s14 -31 14 -49c0 -17.333 -2.83301 -35.833 -8.5 -55.5s-11.5 -38.334 -17.5 -56.001s-9 -32.834 -9 -45.501c0 -7.33301 1.83301 -14 5.5 -20s10.834 -9 21.501 -9c18 0 35.333 8.33301 52 25
s32 37.167 46 61.5s26 47.5 36 69.5l16 -18c-10.667 -28 -24.5 -56 -41.5 -84s-36.833 -51.333 -59.5 -70s-48 -28 -76 -28z" />
    <glyph glyph-name="n" unicode="n" horiz-adv-x="471" 
d="M332 -20c-24.667 0 -43.501 6.33105 -56.501 18.998s-19.5 28.667 -19.5 48c0 14 2.33301 28.5 7 43.5l14 46c4.66699 15.667 7 30.834 7 45.501c0 16 -3.66699 27 -11 33s-16 9 -26 9c-20 0 -40.5 -8.33301 -61.5 -25s-41.5 -37.5 -61.5 -62.5
s-38.667 -51.167 -56 -78.5l-45 -73c-12 0 -23.333 2 -34 6s-19.667 11 -27 21c0.666992 3.33301 4.5 13.5 11.5 30.5s14.833 37.667 23.5 62s16.5 49.5 23.5 75.5s10.5 50 10.5 72c4.66699 4.66699 11.667 9.66699 21 15s19 8 29 8c21.333 0 32 -9.66699 32 -29
c0 -8.66699 -2 -22.5 -6 -41.5s-9.33301 -39.5 -16 -61.5c18 24.667 37.5 48.334 58.5 71.001s43.167 41.334 66.5 56.001s47 22 71 22c27.333 0 47.5 -9.5 60.5 -28.5s19.5 -40.167 19.5 -63.5c0 -20 -3.33301 -38.833 -10 -56.5l-19.5 -50
c-6.33301 -15.667 -9.5 -31.167 -9.5 -46.5c0 -11.333 2.5 -19.5 7.5 -24.5s11.167 -7.5 18.5 -7.5c16 0 32.5 7.83301 49.5 23.5s33.333 35.334 49 59.001s29.5 47.5 41.5 71.5l15 -13c-14 -32.667 -29.667 -62.334 -47 -89.001s-36.666 -47.834 -57.999 -63.501
s-45.333 -23.5 -72 -23.5z" />
    <glyph glyph-name="o" unicode="o" horiz-adv-x="370" 
d="M67 -32c-29.333 0 -49.6641 9.49902 -60.9971 28.499s-17 40.5 -17 64.5c0 21.333 3.33301 43 10 65s15.667 42.667 27 62s24 35 38 47s28.333 18 43 18c4 0 8.83301 -0.833008 14.5 -2.5s9.83398 -3.83398 12.501 -6.50098c-7.33301 -8 -15.166 -19.333 -23.499 -34
s-16 -30.5 -23 -47.5s-12.667 -34 -17 -51s-6.5 -32.5 -6.5 -46.5c0 -15.333 2.66699 -27.333 8 -36s14 -13 26 -13c13.333 0 29.166 7.16699 47.499 21.5s35.833 31.833 52.5 52.5c-20.667 18 -35.834 38.833 -45.501 62.5s-14.5 50.5 -14.5 80.5
c0 16.667 3.66699 34.334 11 53.001s18.666 34.334 33.999 47.001s35.333 19 60 19c28 0 47.5 -7.83301 58.5 -23.5s16.5 -34.5 16.5 -56.5c0 -24.667 -6.5 -52.5 -19.5 -83.5s-28.5 -60.5 -46.5 -88.5c9.33301 -5.33301 19.666 -8 30.999 -8c10 0 22 2.33301 36 7
s27.5 12.5 40.5 23.5s23.5 25.5 31.5 43.5l16 -12c-14 -32.667 -33.167 -56.5 -57.5 -71.5s-47.833 -22.5 -70.5 -22.5c-8.66699 0 -17.334 0.833008 -26.001 2.5s-16.667 4.16699 -24 7.5c-22.667 -28 -48.167 -52 -76.5 -72s-56.833 -30 -85.5 -30zM221.002 119.999
c16.667 23.333 30.499 48.499 41.499 75.499s16.5 51.833 16.5 74.5c0 16.667 -2.5 28.834 -7.5 36.501s-11.833 11.5 -20.5 11.5c-13.333 0 -26.666 -9.16699 -39.999 -27.5s-20 -41.5 -20 -69.5c0 -16 2.5 -33.833 7.5 -53.5s12.5 -35.5 22.5 -47.5z" />
    <glyph glyph-name="p" unicode="p" horiz-adv-x="406" 
d="M-58 -280c-5.33301 0 -10.8311 2.00293 -16.498 6.00293s-10.5 8.33301 -14.5 13s-6 8 -6 10l37 113.5c10.667 32.333 20.167 63.666 28.5 93.999s16.166 63 23.499 98s14.666 76.167 21.999 123.5s15 105.333 23 174c1.33301 7.33301 3 12.666 5 15.999s8 5 18 5
c19.333 0 33.333 -5.33301 42 -16s13 -22.334 13 -35.001c0 -7.33301 -1.5 -20.5 -4.5 -39.5s-7.16699 -41.5 -12.5 -67.5c12 20 26.333 39.5 43 58.5s35.334 34.833 56.001 47.5s43 19 67 19c32 0 58.167 -10.833 78.5 -32.5s30.5 -50.167 30.5 -85.5
c0 -26 -5.83301 -53.5 -17.5 -82.5s-28 -56.333 -49 -82s-46.333 -46.667 -76 -63s-62.167 -24.5 -97.5 -24.5c-20 0 -36 2.5 -48 7.5s-18 10.167 -18 15.5c0 4 2.5 6.5 7.5 7.5s10.5 1.5 16.5 1.5c30 0 57.5 6.5 82.5 19.5s47 29.833 66 50.5s33.667 43 44 67
s15.5 48 15.5 72c0 20 -4.5 37.5 -13.5 52.5s-23.167 22.5 -42.5 22.5c-17.333 0 -34.5 -5.5 -51.5 -16.5s-32.833 -24.667 -47.5 -41s-27.667 -33.5 -39 -51.5s-20 -34 -26 -48c-12.667 -46 -24.5 -91.167 -35.5 -135.5l-31 -123
c-9.66699 -37.667 -19.334 -69.167 -29.001 -94.5s-19.167 -42 -28.5 -50c-4.66699 -4 -9.66699 -6 -15 -6z" />
    <glyph glyph-name="q" unicode="q" horiz-adv-x="412" 
d="M209 -280c-10.667 0 -20.1641 5.33496 -28.4971 16.002s-12.5 31 -12.5 61c0 21.333 2.16699 48.333 6.5 81s10.166 67.167 17.499 103.5s16 70.5 26 102.5c-26.667 -34.667 -52.667 -63 -78 -85s-50 -33 -74 -33c-11.333 0 -23.333 3 -36 9s-23.167 15.667 -31.5 29
s-12.5 30.666 -12.5 51.999c0 23.333 5.33301 48.666 16 75.999s25.5 54.333 44.5 81s40.667 50.834 65 72.501s50.333 39 78 52s55.5 19.5 83.5 19.5c24.667 0 45.167 -5 61.5 -15s24.5 -23 24.5 -39c0 -5.33301 -1.16699 -11.333 -3.5 -18s-6.5 -11.667 -12.5 -15
c-5.33301 -3.33301 -12.666 -3.66602 -21.999 -0.999023c0 14 -4.83301 25.833 -14.5 35.5s-23.5 14.5 -41.5 14.5c-22 0 -43.167 -6.33301 -63.5 -19s-38.833 -28.834 -55.5 -48.501s-31.167 -40.834 -43.5 -63.501s-21.833 -44.667 -28.5 -66s-10 -39.333 -10 -54
c0 -12.667 3 -23.334 9 -32.001s14.333 -13 25 -13c12.667 0 26.667 6.33301 42 19s31 29.167 47 49.5s32.167 42.666 48.5 66.999l48.5 71.5c5.33301 8 10 14.333 14 19s8.33301 9 13 13c4.66699 3.33301 11.667 4 21 2s15.666 -4.66699 18.999 -8
c4.66699 -4.66699 7 -10.334 7 -17.001c0 -12.667 -5.5 -27.667 -16.5 -45s-23.333 -39.166 -37 -65.499s-25.167 -59.5 -34.5 -99.5c28 3.33301 56.167 15.333 84.5 36s55.166 54.334 80.499 101.001l16 -14c-24 -50 -52.167 -86.5 -84.5 -109.5s-64.5 -36.833 -96.5 -41.5
c5.33301 -16.667 9.5 -34 12.5 -52s4.5 -36.667 4.5 -56c0 -32 -3.33301 -61.167 -10 -87.5s-15.834 -47.166 -27.501 -62.499s-25.167 -23 -40.5 -23zM232.003 -217.998c4 0 7.5 5.99902 10.5 17.999s5.16699 27.167 6.5 45.5s2 36.5 2 54.5c0 12 -0.333008 22.333 -1 31
s-2 17.334 -4 26.001c-6 -30 -10.833 -57.833 -14.5 -83.5s-5.5 -48.5 -5.5 -68.5c0 -8.66699 0.5 -14.667 1.5 -18s2.5 -5 4.5 -5z" />
    <glyph glyph-name="r" unicode="r" horiz-adv-x="358" 
d="M181 -26c-24 0 -43.3311 6.33496 -57.998 19.002s-22 29.667 -22 51c0 18.667 4.66699 38.834 14 60.501l28.5 64c9.66699 21 14.5 39.833 14.5 56.5c0 17.333 -5.5 31.166 -16.5 41.499s-22.833 19.166 -35.5 26.499c-15.333 -38 -31.833 -74.333 -49.5 -109
s-32.167 -61.334 -43.5 -80.001l-13 25c9.33301 17.333 21.666 42.166 36.999 74.499s30 68.833 44 109.5c-6.66699 6.66699 -10 15.334 -10 26.001c0 18 5.5 34.333 16.5 49s20.833 22 29.5 22c7.33301 0 12.5 -4.16699 15.5 -12.5s4.5 -14.166 4.5 -17.499
s-1.66699 -9.5 -5 -18.5s-5.33301 -15.167 -6 -18.5c0 -8 5.5 -15.5 16.5 -22.5s23.333 -15.333 37 -25s25.834 -21.334 36.501 -35.001s16 -31.167 16 -52.5c0 -20 -4.33301 -40 -13 -60s-17.334 -39 -26.001 -57s-13 -33.333 -13 -46c0 -10.667 2.66699 -17.667 8 -21
s11.666 -5 18.999 -5c16 0 32.667 5 50 15s34.166 22.667 50.499 38s30.833 31.5 43.5 48.5s22.334 32.5 29.001 46.5l20 -15c-12.667 -28.667 -30.667 -56.667 -54 -84s-49.333 -49.833 -78 -67.5s-57.667 -26.5 -87 -26.5z" />
    <glyph glyph-name="s" unicode="s" horiz-adv-x="349" 
d="M113 -51c-32.667 0 -58.832 6.83594 -78.499 20.5029s-33.667 30.834 -42 51.501s-12.5 41.667 -12.5 63c0 19.333 2.66699 34.333 8 45s12 18.667 20 24s15.5 9.33301 22.5 12s11.833 5.33398 14.5 8.00098c18 19.333 35.667 40.666 53 63.999s32.333 48.666 45 75.999
v11c0 26 4.33301 44.333 13 55s18.667 16 30 16c7.33301 0 12.666 -1.83301 15.999 -5.5s5 -7.83398 5 -12.501c0 -3.33301 -0.833008 -8 -2.5 -14s-2.5 -14 -2.5 -24c0 -20.667 4.66699 -43.834 14 -69.501s18.666 -52.834 27.999 -81.501s14 -58 14 -88
c0 -8.66699 -0.333008 -16.5 -1 -23.5s-2 -13.833 -4 -20.5c22 4.66699 43 15.834 63 33.501s39.333 44.167 58 79.5l11 -9c-12.667 -38 -31.167 -67.833 -55.5 -89.5s-52.166 -34.834 -83.499 -39.501c-10.667 -28 -28 -48.667 -52 -62s-51 -20 -81 -20zM109.002 -9.99707
c11.333 0 23 3.16797 35 9.50098s21.667 17.166 29 32.499c-28 6 -52.833 16.833 -74.5 32.5s-38.5 31.834 -50.5 48.501c-10.667 -2 -16 -12 -16 -30c0 -22.667 6.5 -43.834 19.5 -63.501s32.167 -29.5 57.5 -29.5zM180.002 58.0039
c1.33301 5.33301 2.16602 11.335 2.49902 18.002s0.5 12.667 0.5 18c-0.666992 30.667 -4.66699 60.834 -12 90.501s-14.333 59.5 -21 89.5c-13.333 -22.667 -28.166 -45.834 -44.499 -69.501s-31.5 -42.834 -45.5 -57.501c10 -19.333 25.5 -37.333 46.5 -54
s45.5 -28.334 73.5 -35.001z" />
    <glyph glyph-name="t" unicode="t" horiz-adv-x="287" 
d="M89 -46c-29.333 0 -52.5029 8.50293 -69.5029 25.5029s-25.5 42.833 -25.5 77.5c0 28 5.33301 62.667 16 104s24 84 40 128c-5.33301 1.33301 -11.166 2.5 -17.499 3.5s-12.166 2.83301 -17.499 5.5v27c8.66699 -1.33301 16.5 -2.33301 23.5 -3
s14.5 -1.33398 22.5 -2.00098c14 35.333 29.167 69.666 45.5 102.999s32.5 63 48.5 89s31.333 46.667 46 62s27.334 23 38.001 23c6.66699 0 12.667 -2.33301 18 -7s8 -11.334 8 -20.001c0 -12.667 -6.83301 -31.5 -20.5 -56.5s-30.667 -54.333 -51 -88
s-39.833 -69.834 -58.5 -108.501h16.5h16.5c26.667 0 52 0.5 76 1.5s48.333 2.83301 73 5.5v-28c-36.667 -4 -70.167 -7 -100.5 -9s-58.5 -3 -84.5 -3h-6.5h-6.5c-14.667 -34 -27.167 -68.667 -37.5 -104s-15.5 -69.666 -15.5 -102.999c0 -28 4.33301 -47.833 13 -59.5
s22.667 -17.5 42 -17.5c33.333 -0 67.333 15.333 102 46s64.667 72 90 124l14 -10c-16.667 -38.667 -37.667 -73.667 -63 -105s-52.833 -56 -82.5 -74s-60.5 -27 -92.5 -27z" />
    <glyph glyph-name="u" unicode="u" horiz-adv-x="440" 
d="M76 -30c-22.667 0 -41.168 10.3379 -55.501 31.0049s-21.5 44.667 -21.5 72c0 18.667 3.16699 40.667 9.5 66s14.166 50.166 23.499 74.499s19.166 44.5 29.499 60.5s19.5 24 27.5 24c4.66699 0 11.5 -2.33301 20.5 -7s16.833 -10.334 23.5 -17.001
c-7.33301 -10.667 -16.166 -27.334 -26.499 -50.001s-19.5 -46.834 -27.5 -72.501s-12 -49.167 -12 -70.5c0 -3.33301 0.5 -10.166 1.5 -20.499s3.66699 -19.833 8 -28.5s11.833 -13 22.5 -13c11.333 0 23.666 6.16699 36.999 18.5s26.833 28.5 40.5 48.5
s26.834 41.667 39.501 65l35 67c10.667 21.333 19.334 39.333 26.001 54c5.33301 -0.666992 12.5 -2.16699 21.5 -4.5s17 -5.5 24 -9.5s10.5 -9.66699 10.5 -17c0 -2 -3.16699 -10.333 -9.5 -25l-22.5 -53c-8.66699 -20.667 -16.167 -41.667 -22.5 -63s-9.5 -40 -9.5 -56
c0 -10 2 -18.667 6 -26s11.667 -11 23 -11c14 0 30.833 6.33301 50.5 19s39.834 31.167 60.501 55.5s39 53.166 55 86.499l14 -11c-14.667 -36 -33.5 -68.167 -56.5 -96.5s-47.667 -50.5 -74 -66.5s-51.833 -24 -76.5 -24c-18.667 0 -33 4.16699 -43 12.5
s-16.833 19.166 -20.5 32.499s-5.5 27 -5.5 41c0 4.66699 0.166992 9.66699 0.5 15s0.833008 10.333 1.5 15c-11.333 -19.333 -23.833 -37.833 -37.5 -55.5s-28 -32.167 -43 -43.5s-30.833 -17 -47.5 -17z" />
    <glyph glyph-name="v" unicode="v" horiz-adv-x="409" 
d="M71 -39c-23.333 0 -39.501 10.8359 -48.501 32.5029s-13.5 49.834 -13.5 84.501c0 5.33301 0.333008 17.5 1 36.5l3 86.5c1.33301 19.333 3.66602 32.5 6.99902 39.5s13 10.5 29 10.5c14.667 0 23.5 -2.83301 26.5 -8.5s4.5 -17.167 4.5 -34.5
c0 -20.667 -1 -43.5 -3 -68.5s-3 -48.833 -3 -71.5c0 -20 1.16699 -34.833 3.5 -44.5s7.5 -14.5 15.5 -14.5c12 0 25.167 6.66699 39.5 20s28.833 30.5 43.5 51.5s28.667 43.667 42 68s25 47.5 35 69.5c1.33301 45.333 6.5 75.666 15.5 90.999s20.5 23 34.5 23
c15.333 0 26 -5 32 -15s9 -19 9 -27c0 -9.33301 -2.83301 -18.333 -8.5 -27s-11.167 -20.334 -16.5 -35.001s-8 -36.334 -8 -65.001c0 -10 0.833008 -20.667 2.5 -32s5.66699 -20.833 12 -28.5s16.166 -11.5 29.499 -11.5s26.333 5.5 39 16.5s25.667 30.167 39 57.5l12 -10
c-15.333 -35.333 -32.166 -59.833 -50.499 -73.5s-36.166 -20.5 -53.499 -20.5c-22 0 -40 8.66699 -54 26s-24 40.333 -30 69c-16 -31.333 -34.5 -61.833 -55.5 -91.5s-42.667 -54.334 -65 -74.001s-44.166 -29.5 -65.499 -29.5z" />
    <glyph glyph-name="w" unicode="w" horiz-adv-x="626" 
d="M288 -38c-22 0 -36.8281 9.66895 -44.4951 29.002s-11.834 42.666 -12.501 69.999c0 9.33301 0.333008 21.333 1 36s1.66699 27.667 3 39c-14 -26.667 -29.5 -52.834 -46.5 -78.501s-34.833 -46.667 -53.5 -63s-38.334 -24.5 -59.001 -24.5
c-22 0 -40.333 10.167 -55 30.5s-22 44.5 -22 72.5c0 19.333 3.16699 41.666 9.5 66.999s14.333 50.166 24 74.499s19.667 44.5 30 60.5s19.166 24 26.499 24c4.66699 0 12.667 -2.5 24 -7.5s17.666 -11.167 18.999 -18.5c-7.33301 -11.333 -16.166 -28.166 -26.499 -50.499
s-19.333 -46.333 -27 -72s-11.5 -49.167 -11.5 -70.5c0 -4 0.5 -11.167 1.5 -21.5s3.83301 -19.5 8.5 -27.5s12 -12 22 -12c14.667 0 30.334 9.16699 47.001 27.5s33.5 41.5 50.5 69.5s32.833 56.667 47.5 86c6 28 11 48.333 15 61s8 20.667 12 24s9 5 15 5
c11.333 0 20.333 -2.16699 27 -6.5s10 -10.833 10 -19.5c0 -1.33301 -0.5 -4 -1.5 -8s-1.83301 -6.66699 -2.5 -8c-4.66699 -14.667 -8.83398 -32.667 -12.501 -54s-6.5 -43.666 -8.5 -66.999s-3 -46.333 -3 -69c0 -16 1.16699 -28.5 3.5 -37.5s7.5 -13.5 15.5 -13.5
c9.33301 0 20.333 5.83301 33 17.5s26 27.167 40 46.5s27.667 40.5 41 63.5s25.333 45.833 36 68.5c0 34.667 2.5 61 7.5 79s11.5 30.5 19.5 37.5s16.667 10.5 26 10.5c15.333 0 26 -5 32 -15s9 -18.667 9 -26c0 -6 -1.33301 -11.833 -4 -17.5
s-5.33398 -10.834 -8.00098 -15.501c-4.66699 -10 -9.33398 -22.333 -14.001 -37s-7 -33.667 -7 -57c0 -11.333 1 -22.833 3 -34.5s6.33301 -21.334 13 -29.001s16.334 -11.5 29.001 -11.5s25.167 5.5 37.5 16.5s25.5 30.833 39.5 59.5l17 -14
c-14.667 -34 -31.167 -57.167 -49.5 -69.5s-35.833 -18.5 -52.5 -18.5c-21.333 0 -39.5 7.66699 -54.5 23s-26.5 35.333 -34.5 60c-16.667 -29.333 -35.334 -58.166 -56.001 -86.499s-42 -51.666 -64 -69.999s-43.667 -27.5 -65 -27.5z" />
    <glyph glyph-name="x" unicode="x" horiz-adv-x="426" 
d="M51 -59c-4.66699 0 -8.3291 2.00098 -10.9961 6.00098s-4 8 -4 12c0 9.33301 7 24.166 21 44.499s32.333 44 55 71s47 54.5 73 82.5c-4.66699 32.667 -9.66699 58.5 -15 77.5s-15.333 28.5 -30 28.5c-15.333 0 -29.333 -7.16699 -42 -21.5s-25 -32.5 -37 -54.5l-38 -67
l-14 24c9.33301 17.333 18.166 35.5 26.499 54.5s17.5 37.167 27.5 54.5s22.5 31.333 37.5 42s33.833 16 56.5 16c26.667 0 46.667 -8.16699 60 -24.5s23 -37.5 29 -63.5c30.667 30.667 58.5 56.5 83.5 77.5s41.833 31.5 50.5 31.5c4 0 9.5 -1.66699 16.5 -5
s11.833 -8.66602 14.5 -15.999c-8.66699 0 -21 -6 -37 -18s-34.5 -28.333 -55.5 -49s-42.5 -43.334 -64.5 -68.001c2 -13.333 3.66699 -28.833 5 -46.5s3.66602 -35 6.99902 -52s8.5 -31.167 15.5 -42.5s16.5 -17 28.5 -17c11.333 0 23.666 5 36.999 15
s26.5 22.833 39.5 38.5s25 32 36 49s19.833 32.833 26.5 47.5l14 -14c-10.667 -29.333 -25.667 -57.833 -45 -85.5s-40.833 -50.5 -64.5 -68.5s-47.834 -27 -72.501 -27c-20.667 0 -36.834 6.33301 -48.501 19s-20.5 28.667 -26.5 48s-10.667 39.666 -14 60.999l-74.5 -88
c-22.333 -27.333 -39.166 -48.666 -50.499 -63.999c-4.66699 -5.33301 -10 -8 -16 -8z" />
    <glyph glyph-name="y" unicode="y" horiz-adv-x="396" 
d="M46 -280c-16.667 0 -31.8301 5 -45.4971 15s-20.5 25.333 -20.5 46c0 21.333 6 40.5 18 57.5s27.667 32.5 47 46.5s40.5 27 63.5 39l68.5 35c8 20.667 16.667 46 26 76s17.666 59.667 24.999 89c-20.667 -30.667 -42.834 -57.5 -66.501 -80.5
s-49.834 -34.5 -78.501 -34.5c-12 0 -24.5 2.5 -37.5 7.5s-23.833 13.667 -32.5 26s-13 28.5 -13 48.5c0 18 3.16699 39.333 9.5 64s14.333 48.667 24 72s19.667 42.833 30 58.5s19.5 23.5 27.5 23.5c3.33301 0 8.66602 -1.33301 15.999 -4s14.5 -6.33398 21.5 -11.001
s11.167 -9.66699 12.5 -15c-6 -8 -12.667 -19.667 -20 -35s-14.333 -32.333 -21 -51s-12.167 -37 -16.5 -55s-6.5 -33.333 -6.5 -46c0 -10.667 2.16699 -19.667 6.5 -27s12.5 -11 24.5 -11c14 0 28.833 6 44.5 18s31.167 27.5 46.5 46.5s29 38.5 41 58.5
c2 6 3.66699 13.5 5 22.5s3.33301 18.5 6 28.5c2.66699 10.667 8.16699 21.167 16.5 31.5s20.166 15.5 35.499 15.5c4.66699 0 9.16699 -0.333008 13.5 -1s9.5 -1.66699 15.5 -3c0 -10 -3.5 -29.5 -10.5 -58.5s-16.167 -62.667 -27.5 -101s-24.333 -76.833 -39 -115.5
c29.333 11.333 59 30.5 89 57.5s54.333 64.167 73 111.5l16 -12c-10 -33.333 -25.167 -62.166 -45.5 -86.499s-43.166 -45 -68.499 -62s-50.666 -31.167 -75.999 -42.5c-18 -43.333 -37.333 -83.5 -58 -120.5s-42.5 -66.5 -65.5 -88.5s-47.5 -33 -73.5 -33zM38.0039 -245
c12 0 29.5 13.333 52.5 40s46.5 68.667 70.5 126c-23.333 -12 -46 -25.167 -68 -39.5s-40.333 -29.5 -55 -45.5s-22 -33.333 -22 -52c0 -6 1.66699 -12.333 5 -19s9 -10 17 -10z" />
    <glyph glyph-name="z" unicode="z" horiz-adv-x="326" 
d="M4 -280c-22.667 0 -40.4971 4.33008 -53.4971 12.9971s-19.5 23 -19.5 43c0 22 7.16699 42 21.5 60s33.666 35.167 57.999 51.5s51.166 32.833 80.499 49.5s58.666 35 87.999 55c0 22 -5.83301 42.833 -17.5 62.5s-32.167 40.167 -61.5 61.5
c25.333 7.33301 46.666 19 63.999 35s30.5 33.667 39.5 53s13.5 37.666 13.5 54.999c0 12.667 -3 24 -9 34s-16.333 15 -31 15c-20.667 0 -39.667 -8.66699 -57 -26s-33.666 -39.666 -48.999 -66.999s-30.333 -56.666 -45 -87.999l-17 14c14.667 39.333 30 75 46 107
s35 57.5 57 76.5s48.667 28.5 80 28.5c25.333 0 47.166 -7.5 65.499 -22.5s27.5 -36.5 27.5 -64.5c0 -22 -5.33301 -43 -16 -63s-24.667 -38 -42 -54s-36 -29.333 -56 -40c15.333 -12 28.666 -25.333 39.999 -40s20 -29.667 26 -45c24.667 19.333 46.667 40.333 66 63
s34.333 48.667 45 78l13 -15c-10 -29.333 -25 -56.666 -45 -81.999s-43.333 -47.666 -70 -66.999c1.33301 -4.66699 2.33301 -9.66699 3 -15s1 -11.333 1 -18c0 -30 -6.66699 -59.5 -20 -88.5s-31.666 -55.5 -54.999 -79.5s-49.666 -43.333 -78.999 -58s-60 -22 -92 -22z
M-7.99707 -245.003c12 0 27.5 4.66797 46.5 14.001s38.5 22.666 58.5 39.999s37.333 38.5 52 63.5s24.334 53.5 29.001 85.5c-25.333 -16.667 -50.833 -32.167 -76.5 -46.5s-48.834 -28.333 -69.501 -42s-37.167 -27.5 -49.5 -41.5s-18.5 -28.667 -18.5 -44
c0 -10 2.66699 -17.333 8 -22s12 -7 20 -7z" />
    <glyph glyph-name="braceleft" unicode="{" horiz-adv-x="289" 
d="M127 -87c-27.333 0 -46.3359 7.16992 -57.0029 21.5029s-16 30.5 -16 48.5s3.66699 37.167 11 57.5s15.833 41.666 25.5 63.999s18.167 44.5 25.5 66.5s11 43.667 11 65c0 16.667 -3 33.667 -9 51s-18.667 33.333 -38 48c26.667 2.66699 46.5 13 59.5 31
s21.833 40.833 26.5 68.5s8.33398 56.5 11.001 86.5c2 24.667 4.33301 48.667 7 72s7.16699 44.666 13.5 63.999s16 34.666 29 45.999s30.5 17 52.5 17c8 0 16.833 -1.66699 26.5 -5s17.667 -9.5 24 -18.5s7.5 -22.167 3.5 -39.5
c-9.33301 5.33301 -16.833 9.16602 -22.5 11.499s-10.5 3.5 -14.5 3.5c-13.333 0 -23.666 -8.16699 -30.999 -24.5s-12.833 -37 -16.5 -62l-11.5 -79.5c-3.33301 -29.333 -7.16602 -57.166 -11.499 -83.499s-10.666 -48.5 -18.999 -66.5s-20.5 -29.333 -36.5 -34
c8 -8.66699 13.667 -18.167 17 -28.5s5 -23.5 5 -39.5c0 -28.667 -3.66699 -55.834 -11 -81.501s-15.833 -50 -25.5 -73s-18.334 -44.667 -26.001 -65s-11.5 -40.166 -11.5 -59.499c0 -8.66699 2.83301 -15.5 8.5 -20.5s13.167 -7.5 22.5 -7.5c11.333 0 21.333 3 30 9
c-1.33301 -18 -7.33301 -29.667 -18 -35s-22 -8 -34 -8z" />
    <glyph glyph-name="bar" unicode="|" horiz-adv-x="282" 
d="M70 -132c8.66699 22.667 16.334 52.8301 23.001 90.4971s12.667 79.834 18 126.501s10.166 95.167 14.499 145.5s8.33301 100 12 149l10.5 138c3.33301 43 6.83301 80.167 10.5 111.5s7.5 54.333 11.5 69c11.333 -4.66699 19.5 -11.667 24.5 -21
s8.16699 -19.166 9.5 -29.499s2 -19.5 2 -27.5c0 -25.333 -0.5 -57.166 -1.5 -95.499s-2.5 -79.666 -4.5 -123.999l-6 -133c-2 -44.333 -4.33301 -85 -7 -122s-5 -67.5 -7 -91.5c-5.33301 -56.667 -16.5 -101.834 -33.5 -135.501s-42.5 -50.5 -76.5 -50.5z" />
    <glyph glyph-name="braceright" unicode="}" horiz-adv-x="286" 
d="M59 -87c-8.66699 0 -17.833 1.99902 -27.5 5.99902s-18 10.833 -25 20.5s-10.167 22.834 -9.5 39.501c16 -10.667 29.333 -16 40 -16c13.333 0 23.666 8.33301 30.999 25s13.333 38 18 64s8.33398 52.667 11.001 80c3.33301 29.333 7.5 58.666 12.5 87.999
s12.333 55.333 22 78s23.167 39.334 40.5 50.001c-8.66699 10.667 -14.834 21.834 -18.501 33.501s-5.5 23.834 -5.5 36.501c0 21.333 3.5 43.833 10.5 67.5s15.167 46.834 24.5 69.501s17.5 43.5 24.5 62.5s10.5 34.167 10.5 45.5c0 7.33301 -1.83301 12.333 -5.5 15
s-8.16699 4 -13.5 4c-4 0 -8.83301 -1 -14.5 -3s-11.5 -5.33301 -17.5 -10c-1.33301 14 3.66699 27 15 39s28.333 18 51 18c17.333 0 30.833 -3.66699 40.5 -11s14.5 -18 14.5 -32c0 -12.667 -3.66699 -28.334 -11 -47.001s-15.833 -39.167 -25.5 -61.5
s-18.167 -45.5 -25.5 -69.5s-11 -48 -11 -72c0 -16.667 2.83301 -33.834 8.5 -51.501s17.834 -32.5 36.501 -44.5c-26 -6.66699 -45.833 -20 -59.5 -40s-23.167 -44.333 -28.5 -73s-9.33301 -58.667 -12 -90c-2 -26.667 -4.16699 -53.334 -6.5 -80.001
s-6.5 -50.5 -12.5 -71.5s-15.5 -37.833 -28.5 -50.5s-30.833 -19 -53.5 -19z" />
    <glyph glyph-name="asciitilde" unicode="~" horiz-adv-x="463" 
d="M290 125c-16 0 -35.166 3.5 -57.499 10.5l-67.5 21c-22.667 7 -43 10.5 -61 10.5c-6 0 -13.667 -0.5 -23 -1.5s-18.666 -3.16699 -27.999 -6.5c11.333 14 24.166 25.5 38.499 34.5s29.833 13.5 46.5 13.5c12 0 26 -2 42 -6s32.667 -8.66699 50 -14s34.666 -10 51.999 -14
s33 -6 47 -6c5.33301 0 11.5 0.5 18.5 1.5l30.5 4.5c-17.333 -18 -33 -30.5 -47 -37.5s-27.667 -10.5 -41 -10.5z" />
    <glyph glyph-name="uni00A0" unicode="&#xa0;" horiz-adv-x="260" 
 />
    <glyph glyph-name="exclamdown" unicode="&#xa1;" horiz-adv-x="286" 
d="M-41 -250c-6 0 -11.6641 2.66895 -16.9971 8.00195s-8 12 -8 20c0 9.33301 5.16699 27.333 15.5 54s24.333 58.5 42 95.5l58.5 118.5l65 125l63 113.5c20 34.333 37 61.833 51 82.5c1.33301 -0.666992 2.83301 -1.33398 4.5 -2.00098s3.16699 -1.33398 4.5 -2.00098
c-2 -20.667 -6.16699 -42.667 -12.5 -66s-13.333 -45.5 -21 -66.5s-14.834 -39.5 -21.501 -55.5l-43 -110.5l-47 -114c-16 -37 -31.833 -70.667 -47.5 -101s-30.834 -54.5 -45.501 -72.5s-28.334 -27 -41.001 -27zM235.003 404.002
c-9.33301 0 -16.834 2.16797 -22.501 6.50098s-8.5 11.5 -8.5 21.5c0 11.333 6 22.166 18 32.499s25 15.5 39 15.5c10 0 18.667 -2.5 26 -7.5s11 -12.833 11 -23.5c0 -12 -6.66699 -22.5 -20 -31.5s-27.666 -13.5 -42.999 -13.5z" />
    <glyph glyph-name="cent" unicode="&#xa2;" horiz-adv-x="418" 
d="M73 -162c9.33301 10.667 19.667 29.333 31 56s22.833 58.667 34.5 96s22.834 77.666 33.501 120.999c-32.667 1.33301 -60 13 -82 35s-33 53.667 -33 95c0 30 5.83301 59.167 17.5 87.5s27.334 54.5 47.001 78.5s41.667 44.333 66 61s48.833 28.667 73.5 36
c6.66699 32.667 12.667 63.667 18 93s9.33301 54.333 12 75c1.33301 9.33301 5.16602 18.666 11.499 27.999s20.833 16.333 43.5 21l-38 -210c26.667 0 46.5 -7.5 59.5 -22.5s19.5 -34.167 19.5 -57.5c0 -18 -3.83301 -34.5 -11.5 -49.5s-19.167 -22.5 -34.5 -22.5
c-12 0 -22.667 6 -32 18c7.33301 4 13.833 12.5 19.5 25.5s8.5 26.167 8.5 39.5c0 9.33301 -3.33301 17 -10 23s-15.667 8.66699 -27 8l-29 -159.5c-10 -53.667 -20 -104.167 -30 -151.5c20.667 4 41 10.833 61 20.5s39.333 22.5 58 38.5l20 -22
c-22 -20 -45.5 -37 -70.5 -51s-50.5 -24 -76.5 -30c-12.667 -57.333 -25.5 -107.166 -38.5 -149.499s-28.833 -74.666 -47.5 -96.999s-43.334 -33.5 -74.001 -33.5zM184.001 158.999c13.333 50 25.332 99.8311 35.999 149.498l32 145.5
c-23.333 -14 -44.166 -33.5 -62.499 -58.5s-32.833 -51.667 -43.5 -80s-16 -54.833 -16 -79.5c0 -17.333 4 -33.666 12 -48.999s22 -24.666 42 -27.999z" />
    <glyph glyph-name="sterling" unicode="&#xa3;" horiz-adv-x="677" 
d="M477 -87c-24 0 -51.167 4.99902 -81.5 14.999s-61.333 22 -93 36l-93.5 41c-16.667 -18.667 -34.334 -33 -53.001 -43s-39 -15 -61 -15c-22.667 0 -42.167 5.16699 -58.5 15.5s-28.833 22.666 -37.5 36.999s-13 27.166 -13 38.499c0 12.667 5.83301 23.834 17.5 33.501
s32.167 14.5 61.5 14.5c18 0 37.667 -1.83301 59 -5.5s43.333 -8.5 66 -14.5c22.667 43.333 43.5 93 62.5 149l58.5 181c-31.333 10.667 -56.166 25.667 -74.499 45s-27.5 40.333 -27.5 63c0 12.667 3 25.5 9 38.5s14.667 23.833 26 32.5s25 13 41 13
c-6.66699 -8.66699 -11.167 -19.167 -13.5 -31.5s-3.5 -23.166 -3.5 -32.499c0 -23.333 4.83301 -43.166 14.5 -59.499s22.834 -29.166 39.501 -38.499c17.333 52.667 36.166 101.167 56.499 145.5s43.833 80.166 70.5 107.499s57.334 41 92.001 41c14 0 29.167 -3 45.5 -9
s30.333 -16.667 42 -32s17.5 -37 17.5 -65c0 -22.667 -4.83301 -47.334 -14.5 -74.001s-24.834 -52 -45.501 -76s-47.667 -43.667 -81 -59s-73.666 -22.666 -120.999 -21.999c-16.667 -50.667 -32.334 -96 -47.001 -136s-29.167 -76 -43.5 -108s-30.5 -61.333 -48.5 -88
l92 -27.5c31.333 -9 62 -16.667 92 -23s56.667 -9.5 80 -9.5c16 0 30.5 1.66699 43.5 5s26.167 8.33301 39.5 15c-12 -34.667 -27.5 -59.667 -46.5 -75s-41.833 -23 -68.5 -23zM84 -20.001c14.667 0 28.835 4.16699 42.502 12.5s25.5 18.5 35.5 30.5
c-20.667 8 -40.334 14.667 -59.001 20s-35.334 8 -50.001 8c-11.333 0 -20.333 -1.66699 -27 -5s-10 -8 -10 -14s3 -13.167 9 -21.5s14.333 -15.5 25 -21.5s22 -9 34 -9zM123.001 214.999c4.66699 14.667 16.332 27 34.999 37s42.167 17.5 70.5 22.5s58.833 7.5 91.5 7.5
c36.667 0 72.334 -2.16699 107.001 -6.5s65.334 -7.5 92.001 -9.5c-10 -13.333 -23 -23 -39 -29s-38.5 -9.5 -67.5 -10.5s-68.5 -1.5 -118.5 -1.5c-38.667 0 -72.334 -0.833008 -101.001 -2.5s-52 -4.16699 -70 -7.5zM393.999 410.999
c29.333 1.33301 55.6689 10.333 79.002 27s43.166 37.167 59.499 61.5s28.666 49 36.999 74s12.5 46.833 12.5 65.5c0 18 -3.33301 30.333 -10 37s-14.667 10 -24 10c-19.333 0 -37.833 -12.667 -55.5 -38s-34.5 -58.833 -50.5 -100.5s-32 -87.167 -48 -136.5z" />
    <glyph glyph-name="currency" unicode="&#xa4;" horiz-adv-x="722" 
d="M631 21c-14 22.667 -33.8271 44.833 -59.4941 66.5s-54.834 48.5 -87.501 80.5c-16.667 -21.333 -35.834 -38.5 -57.501 -51.5s-44.5 -19.5 -68.5 -19.5c-18.667 0 -35.167 3.5 -49.5 10.5s-26.5 16.167 -36.5 27.5c-31.333 -32.667 -62.666 -55.667 -93.999 -69
s-61.333 -20 -90 -20c16.667 16 33.167 29.333 49.5 40s33.166 23.334 50.499 38.001s35.666 35.334 54.999 62.001c-2.66699 10 -5 20.5 -7 31.5s-3 22.167 -3 33.5c0 27.333 3.66699 56.166 11 86.499s18.333 59.5 33 87.5c-22.667 24 -44.5 45.667 -65.5 65l-54.5 49
c-6 5.33301 -10.833 14.166 -14.5 26.499s-5.83398 24.833 -6.50098 37.5c0 6 0.666992 12.5 2 19.5s3.66602 13.833 6.99902 20.5c9.33301 -8.66699 29.166 -28.167 59.499 -58.5l104.5 -108.5c17.333 22 37.166 39.833 59.499 53.5s46.166 20.5 71.499 20.5
c24.667 0 46.334 -5.66699 65.001 -17s33.334 -27 44.001 -47c16.667 20.667 31.167 40 43.5 58s26.5 32.5 42.5 43.5s38 16.5 66 16.5c3.33301 0 7.33301 -0.166992 12 -0.5s9.33398 -1.16602 14.001 -2.49902c-8.66699 -13.333 -26.667 -35.5 -54 -66.5l-105 -118.5
c0.666992 -4 1.16699 -7.83301 1.5 -11.5s0.5 -7.16699 0.5 -10.5c0 -28 -4.66699 -57.333 -14 -88s-22 -60.334 -38 -89.001c33.333 -29.333 61.166 -58.5 83.499 -87.5s33.833 -55.833 34.5 -80.5c0 -2.66699 -0.166992 -6 -0.5 -10s-1.83301 -10 -4.5 -18z
M365.006 159.999c16.667 0 33.332 8.00098 49.999 24.001s31.834 37 45.501 63s24.667 53.5 33 82.5s12.5 56.167 12.5 81.5c0 23.333 -6.66699 42.5 -20 57.5s-27.666 22.5 -42.999 22.5c-20 0 -38.833 -8.83301 -56.5 -26.5s-32.834 -39.834 -45.501 -66.501
s-22.667 -54 -30 -82s-11 -52.667 -11 -74c0 -24.667 7.33301 -44.5 22 -59.5s29 -22.5 43 -22.5z" />
    <glyph glyph-name="yen" unicode="&#xa5;" horiz-adv-x="849" 
d="M369 -187c-26.667 0 -51.3369 3.84277 -74.0039 11.5098s-40.667 18.667 -54 33s-20 32.166 -20 53.499c0 18.667 5.83301 35 17.5 49s29.5 25 53.5 33c-2.66699 -10 -4.83398 -21 -6.50098 -33s-2.5 -22.333 -2.5 -31c0 -24 7.5 -43.667 22.5 -59s36.5 -23 64.5 -23
c26.667 0 49.834 6.16699 69.501 18.5s36.834 28.333 51.501 48s27.334 40.167 38.001 61.5c-24 0 -48.667 -0.833008 -74 -2.5s-52.333 -4.83398 -81 -9.50098c8.66699 22.667 28.834 38 60.501 46s69.5 12.333 113.5 13c2.66699 9.33301 5.5 18.166 8.5 26.499
s5.83301 16.833 8.5 25.5c-30 -0.666992 -60.667 -1.5 -92 -2.5s-65 -4.16699 -101 -9.5c6.66699 16.667 19.5 29.167 38.5 37.5s42.833 14.166 71.5 17.499s60.334 5 95.001 5c5.33301 20.667 10.666 48 15.999 82s11.666 68.333 18.999 103
c-16.667 -30 -35.5 -57 -56.5 -81s-44.167 -43.167 -69.5 -57.5s-53.666 -21.5 -84.999 -21.5c-41.333 0 -71.333 11.5 -90 34.5s-28 52.833 -28 89.5c0 26 3.16699 53.833 9.5 83.5s13.833 59.834 22.5 90.501s16.334 60 23.001 88s10 53 10 75c0 20 -4 37.833 -12 53.5
s-22.667 23.5 -44 23.5c-18 0 -33.5 -5.5 -46.5 -16.5s-23.833 -25.167 -32.5 -42.5s-15 -35.333 -19 -54s-6 -36 -6 -52c0 -21.333 3.66699 -40.333 11 -57c-30 0 -51.333 7.16699 -64 21.5s-19 31.833 -19 52.5s5.16699 41.667 15.5 63s24.5 41 42.5 59s39 32.667 63 44
s49.667 17 77 17s49.333 -5.33301 66 -16s28.834 -24 36.501 -40s11.5 -32.667 11.5 -50c0 -18 -3.33301 -39.833 -10 -65.5s-14.334 -53.334 -23.001 -83.001s-16.167 -59.5 -22.5 -89.5s-9.5 -58 -9.5 -84c0 -28.667 5.33301 -51.834 16 -69.501
s28.334 -26.5 53.001 -26.5c23.333 0 45.5 7.33301 66.5 22s40.333 34 58 58s33.834 50.333 48.501 79s27.334 56.667 38.001 84c12 48.667 24.5 94.334 37.5 137.001s26.833 77.334 41.5 104.001s29.667 40 45 40c8 0 18 -3.33301 30 -10s23.333 -15.334 34 -26.001
c-16.667 -26.667 -31.334 -53.334 -44.001 -80.001s-23.834 -54.334 -33.501 -83.001s-18.834 -59 -27.501 -91s-17.334 -66.5 -26.001 -103.5s-18.667 -77.5 -30 -121.5c-3.33301 -14 -7 -28.167 -11 -42.5l-12 -43.5c22.667 -0.666992 44.5 -1.83398 65.5 -3.50098
s36.833 -3.16699 47.5 -4.5c-22 -14.667 -44 -24.5 -66 -29.5s-41.667 -7.5 -59 -7.5c-3.33301 -8.66699 -6.5 -17.334 -9.5 -26.001l-9.5 -27c26.667 -0.666992 51.834 -1.83398 75.501 -3.50098s46.834 -3.16699 69.501 -4.5c-22 -16 -43.5 -26.333 -64.5 -31
s-39.167 -7 -54.5 -7h-46c-14.667 -30.667 -32.334 -58.334 -53.001 -83.001s-45.167 -44 -73.5 -58s-61.833 -21 -100.5 -21z" />
    <glyph glyph-name="brokenbar" unicode="&#xa6;" horiz-adv-x="283" 
d="M71 -132c8.66699 22 16.001 49.999 22.001 83.999s11.5 72.167 16.5 114.5s9.5 86.166 13.5 131.499c6 6.66699 13.5 12.334 22.5 17.001s18.833 7 29.5 7c6.66699 0 11 -3.16699 13 -9.5s3 -12.166 3 -17.499c-1.33301 -68 -5.33301 -126.333 -12 -175
s-18.334 -86.167 -35.001 -112.5s-41 -39.5 -73 -39.5zM130.001 286.999c5.33301 60.667 10 118.833 14 174.5s8.16699 104.334 12.5 146.001s9.16602 71.834 14.499 90.501c11.333 -4 19.333 -10.333 24 -19s7.83398 -17.334 9.50098 -26.001s2.5 -16 2.5 -22
c0 -25.333 -1.16699 -60.833 -3.5 -106.5s-3.5 -93.5 -3.5 -143.5c0 -6.66699 -2 -17.334 -6 -32.001s-13.333 -27 -28 -37z" />
    <glyph glyph-name="section" unicode="&#xa7;" horiz-adv-x="434" 
d="M159 -87c-24 0 -47.0049 4.33594 -69.0049 13.0029s-39.833 21.834 -53.5 39.501s-20.5 39.5 -20.5 65.5c0 23.333 5.16699 41.5 15.5 54.5s23 22 38 27s29.833 7.5 44.5 7.5c-13.333 -13.333 -23.666 -28 -30.999 -44s-11 -31 -11 -45c0 -22 8.33301 -41.5 25 -58.5
s41.334 -25.5 74.001 -25.5c19.333 0 37.833 3.33301 55.5 10s32.167 16.5 43.5 29.5s17 28.833 17 47.5c0 20.667 -7 38.5 -21 53.5s-31.333 29 -52 42l-62 41c-20.667 14.333 -38 31.166 -52 50.499s-21 42.666 -21 69.999c0 26 6.66699 50 20 72s32.833 39.5 58.5 52.5
s57.167 18.833 94.5 17.5c-15.333 9.33301 -30.166 19 -44.499 29s-26 21.833 -35 35.5s-13.5 29.834 -13.5 48.501c0 18 4.33301 37 13 57s21.167 38.833 37.5 56.5s36 32 59 43s48.5 16.5 76.5 16.5c28.667 0 48.667 -6.16699 60 -18.5s17 -28.833 17 -49.5
c0 -16 -2.66699 -32.833 -8 -50.5s-11.833 -34.667 -19.5 -51s-15.5 -30.166 -23.5 -41.499c-11.333 1.33301 -18.833 5.16602 -22.5 11.499s-5.5 13.166 -5.5 20.499c0 12.667 3 27 9 43l18 48c6 16 9 29.667 9 41c0 7.33301 -2.16699 13 -6.5 17s-12.5 6 -24.5 6
c-26.667 0 -50.667 -7.66699 -72 -23s-38 -33.333 -50 -54s-18 -39.667 -18 -57c0 -18.667 6.33301 -34 19 -46s28.334 -23.167 47.001 -33.5s37.334 -21.833 56.001 -34.5s34.334 -29 47.001 -49s19 -46 19 -78c0 -29.333 -6.5 -53.833 -19.5 -73.5
s-30.333 -34.334 -52 -44.001s-45.834 -14.5 -72.501 -14.5c-6 0 -11 0.166992 -15 0.5s-8 1.16602 -12 2.49902l34.5 -20.5c13 -7.66699 25.667 -17 38 -28s22.5 -23.667 30.5 -38s12 -31.5 12 -51.5c0 -28.667 -9.16699 -53.5 -27.5 -74.5s-41.5 -37.167 -69.5 -48.5
s-56 -17 -84 -17zM233.995 232.003c31.333 0 55.002 7.33301 71.002 22s24 35 24 61c0 22.667 -6.83301 42.167 -20.5 58.5s-35.834 24.5 -66.501 24.5c-26 0 -49.333 -7 -70 -21s-31 -35.333 -31 -64c0 -8 2 -18.5 6 -31.5s12.667 -24.5 26 -34.5s33.666 -15 60.999 -15z
" />
    <glyph glyph-name="dieresis" unicode="&#xa8;" horiz-adv-x="233" 
d="M183 410c-10.667 0 -20.001 2.66797 -28.001 8.00098s-12 13.666 -12 24.999c0 12.667 7.33301 23.667 22 33s29.334 14 44.001 14c10 0 18.333 -2.16699 25 -6.5s10 -12.5 10 -24.5c0 -11.333 -6.33301 -22.333 -19 -33s-26.667 -16 -42 -16zM38.999 430.001
c-10.667 0 -20.168 2.66699 -28.501 8s-12.5 13.666 -12.5 24.999c0 12.667 7.33301 23.834 22 33.501s29.667 14.5 45 14.5c10 0 18.167 -2.16699 24.5 -6.5s9.5 -12.5 9.5 -24.5c0 -11.333 -6.16699 -22.5 -18.5 -33.5s-26.166 -16.5 -41.499 -16.5z" />
    <glyph glyph-name="copyright" unicode="&#xa9;" horiz-adv-x="611" 
d="M337 100c-29.333 0 -58.668 5.33301 -88.001 16s-56.333 26.667 -81 48s-44.5 48.166 -59.5 80.499s-22.833 70.166 -23.5 113.499c0 44.667 7.66699 83.5 23 116.5s35.5 60.167 60.5 81.5s52.5 37.333 82.5 48s59.667 16 89 16s59 -5.33301 89 -16
s57.667 -26.667 83 -48s45.833 -48.166 61.5 -80.499s23.5 -70.166 23.5 -113.499c0 -44.667 -7.83301 -83.5 -23.5 -116.5s-36.5 -60.167 -62.5 -81.5s-54.167 -37.333 -84.5 -48s-60.166 -16 -89.499 -16zM336.998 137c43.333 0 81.6689 9.5 115.002 28.5
s59.666 45.5 78.999 79.5s29 73 29 117c0 42.667 -9.33301 80.5 -28 113.5s-44.5 59.167 -77.5 78.5s-71.167 29 -114.5 29c-42 0 -79.5 -9.5 -112.5 -28.5s-58.833 -45 -77.5 -78s-28 -71.5 -28 -115.5c0 -42.667 8.83301 -81 26.5 -115s42.667 -60.667 75 -80
s70.166 -29 113.499 -29zM344.001 207c-24.667 0 -45.835 6.99805 -63.502 20.998s-26.5 38 -26.5 72v130c0 34 8.16699 58 24.5 72s36.833 21 61.5 21c22 0 39.5 -4.5 52.5 -13.5s22.333 -19.167 28 -30.5s8.5 -21.333 8.5 -30c0 -9.33301 -2.16699 -15.333 -6.5 -18
s-8.5 -4 -12.5 -4c-6.66699 0 -11.334 1.66699 -14.001 5s-4.66699 7 -6 11c-1.33301 6 -3.16602 12.333 -5.49902 19s-6.66602 12.5 -12.999 17.5s-16.166 7.5 -29.499 7.5c-16 0 -28 -4.66699 -36 -14s-12 -23.666 -12 -42.999v-130c0 -20 3.83301 -34.667 11.5 -44
s21.167 -14 40.5 -14c12.667 0 22.167 2.66699 28.5 8s10.666 11.5 12.999 18.5s4.16602 13.167 5.49902 18.5c0.666992 4.66699 2.33398 8.33398 5.00098 11.001s6.33398 4 11.001 4c14.667 0 22 -6.33301 22 -19c-0.666992 -20.667 -8.5 -38.5 -23.5 -53.5
s-36.167 -22.5 -63.5 -22.5z" />
    <glyph glyph-name="ordfeminine" unicode="&#xaa;" horiz-adv-x="401" 
d="M174 447c-14.667 0 -27.667 5.16797 -39 15.501s-17 25.833 -17 46.5s5.66699 43 17 67s26.5 47 45.5 69s40 40 63 54s46.5 21 70.5 21c19.333 0 35.666 -4.83301 48.999 -14.5s20 -22.5 20 -38.5c0 -10.667 -4.5 -18.834 -13.5 -24.501s-19.167 -8.16699 -30.5 -7.5
c1.33301 4.66699 2.5 9.16699 3.5 13.5s1.5 8.16602 1.5 11.499c0 8.66699 -2.5 16.334 -7.5 23.001s-13.167 10 -24.5 10c-15.333 0 -31 -6.5 -47 -19.5s-30.833 -29.333 -44.5 -49s-24.5 -40 -32.5 -61s-12 -39.5 -12 -55.5c0 -15.333 5 -23 15 -23s21.5 5.5 34.5 16.5
s26.333 24.5 40 40.5s26.334 32.167 38.001 48.5l29.5 41.5c10 -2.66699 18.5 -5.66699 25.5 -9s10.5 -7.66602 10.5 -12.999c0 -6 -3.33301 -14.333 -10 -25l-20 -33.5c-6.66699 -11.667 -10 -22.834 -10 -33.501c0 -5.33301 1.5 -11 4.5 -17s8.16699 -9 15.5 -9
c12 0 27.833 9 47.5 27s40.167 45 61.5 81l9 -13c-14.667 -38.667 -35 -69.667 -61 -93s-51.333 -35 -76 -35c-16 0 -27.5 4.5 -34.5 13.5s-11.167 19.167 -12.5 30.5c-0.666992 3.33301 -1 6.83301 -1 10.5v10.5c-19.333 -24 -37.833 -42.833 -55.5 -56.5
s-35.167 -20.5 -52.5 -20.5z" />
    <glyph glyph-name="guillemotleft" unicode="&#xab;" horiz-adv-x="465" 
d="M340 44c-12 0 -27.002 4.16406 -45.002 12.4971s-35.833 18.833 -53.5 31.5s-32.834 25.667 -45.501 39s-20.667 25.333 -24 36c24 10 48 23.333 72 40s46.833 35 68.5 55s39.834 40 54.501 60c1.33301 -1.33301 3.33301 -5.66602 6 -12.999s4 -12.666 4 -15.999
c0 -13.333 -5.16699 -26.5 -15.5 -39.5s-23.666 -25.667 -39.999 -38s-34 -24 -53 -35s-37.167 -20.833 -54.5 -29.5c14 -9.33301 27.667 -18 41 -26s29.333 -16.167 48 -24.5s43.334 -18.166 74.001 -29.499c-4 -5.33301 -9.33301 -10.5 -16 -15.5s-13.667 -7.5 -21 -7.5z
M187.998 43.9971c-12 0 -27.002 4.16406 -45.002 12.4971s-35.833 18.833 -53.5 31.5s-32.834 25.667 -45.501 39s-20.667 25.333 -24 36c24 10 48 23.333 72 40s46.833 35 68.5 55s39.834 40 54.501 60c1.33301 -1.33301 3.33301 -5.66602 6 -12.999s4 -12.666 4 -15.999
c0 -13.333 -5.16699 -26.5 -15.5 -39.5s-23.666 -25.667 -39.999 -38s-34 -24 -53 -35s-37.167 -20.833 -54.5 -29.5c14 -9.33301 27.667 -18 41 -26s29.333 -16.167 48 -24.5s43.334 -18.166 74.001 -29.499c-4 -5.33301 -9.33301 -10.5 -16 -15.5s-13.667 -7.5 -21 -7.5z
" />
    <glyph glyph-name="logicalnot" unicode="&#xac;" horiz-adv-x="673" 
d="M493 28c4 17.333 6.83105 33.8311 8.49805 49.498s2.83398 32.5 3.50098 50.5s1 38.667 1 62c-8 -0.666992 -16 -1.16699 -24 -1.5s-15 -0.5 -21 -0.5c-45.333 -0.666992 -84 -1 -116 -1s-60.333 -0.166992 -85 -0.5s-47.5 -0.833008 -68.5 -1.5
s-43.167 -1.83398 -66.5 -3.50098s-50.333 -3.83398 -81 -6.50098c10 16.667 29.5 29.334 58.5 38.001s65.333 14.5 109 17.5s91.167 4.5 142.5 4.5c27.333 0 54.166 -0.166992 80.499 -0.5s50.833 -1.16602 73.5 -2.49902c2 8.66699 5.66699 17.5 11 26.5s13 18.5 23 28.5
c0.666992 -8 1.66699 -16.333 3 -25l5 -32c16 -0.666992 30.833 -1.16699 44.5 -1.5s24.834 -1.16602 33.501 -2.49902c-12 -10 -24.333 -17.167 -37 -21.5s-25.667 -7.83301 -39 -10.5c0 -15.333 -0.166992 -31.666 -0.5 -48.999s-2.16602 -34 -5.49902 -50s-9 -30 -17 -42
s-20 -20.333 -36 -25z" />
    <glyph glyph-name="uni00AD" unicode="&#xad;" horiz-adv-x="485" 
d="M40 143c4.66699 12.667 13.5029 23 26.5029 31s28 14 45 18s34.167 6.5 51.5 7.5s32.666 1.5 45.999 1.5c12 0 27.5 -0.333008 46.5 -1l59 -2c20.333 -0.666992 39.166 -1.5 56.499 -2.5s30 -1.83301 38 -2.5c-8 -12.667 -22.333 -23.167 -43 -31.5
s-45 -12.833 -73 -13.5c-15.333 0 -35.333 0.666992 -60 2s-49.334 1.66602 -74.001 0.999023c-14.667 0 -29.667 -0.333008 -45 -1s-29.5 -1.66699 -42.5 -3s-23.5 -2.66602 -31.5 -3.99902z" />
    <glyph glyph-name="registered" unicode="&#xae;" horiz-adv-x="610" 
d="M336 100c-29.333 0 -58.834 5.33301 -88.501 16s-56.667 26.667 -81 48s-44 48.166 -59 80.499s-22.5 70.166 -22.5 113.499c0 44.667 7.83301 83.5 23.5 116.5s36.167 60.167 61.5 81.5s53 37.333 83 48s59.667 16 89 16s59 -5.33301 89 -16s57.667 -26.667 83 -48
s45.5 -48.166 60.5 -80.499s22.5 -70.166 22.5 -113.499c0 -44.667 -8 -83.5 -24 -116.5s-37 -60.167 -63 -81.5s-54.167 -37.333 -84.5 -48s-60.166 -16 -89.499 -16zM335.999 137c42.667 0 80.8311 9.49902 114.498 28.499s60.334 45.5 80.001 79.5s29.5 73.333 29.5 118
c0 42 -9 79.5 -27 112.5s-43.167 59.167 -75.5 78.5s-70.166 29 -113.499 29c-42 0 -79.833 -9.33301 -113.5 -28s-60.167 -44.667 -79.5 -78s-29 -72.666 -29 -117.999c0 -42 8.66699 -79.833 26 -113.5s42 -60.167 74 -79.5s70 -29 114 -29zM281.996 207.999
c-4.66699 0 -9.16895 1.66797 -13.502 5.00098s-6.5 8 -6.5 14l-3 278c0 4.66699 1.66699 8.66699 5 12s8 5 14 5h64c16 0 31.333 -2.5 46 -7.5s26.5 -13.833 35.5 -26.5s13.5 -30.334 13.5 -53.001c0 -24 -5.5 -42.833 -16.5 -56.5s-25.167 -22.5 -42.5 -26.5l23.5 -47
l21.5 -41.5c6.66699 -12.333 11.334 -21.5 14.001 -27.5c0.666992 -0.666992 1.33398 -2 2.00098 -4s1 -4 1 -6c0 -4.66699 -2.16699 -8.83398 -6.5 -12.501s-8.83301 -5.5 -13.5 -5.5c-6.66699 0 -12.5 3.83301 -17.5 11.5s-8.83301 13.834 -11.5 18.501l-54 110h-35v-121
c0 -6 -2.16699 -10.667 -6.5 -14s-8.83301 -5 -13.5 -5zM300.994 384h43c16 0 28.833 4 38.5 12s14.5 21 14.5 39c0 18.667 -5.16699 32 -15.5 40s-22.833 12 -37.5 12h-43v-103z" />
    <glyph glyph-name="macron" unicode="&#xaf;" horiz-adv-x="411" 
d="M311 420c-15.333 0 -33.999 1.83301 -55.999 5.5s-45.167 8.16699 -69.5 13.5l-69.5 15c-22 4.66699 -40.667 8 -56 10c7.33301 19.333 23.666 29 48.999 29c24 0 50.167 -2.5 78.5 -7.5s56.833 -11.167 85.5 -18.5s54.667 -15 78 -23c-8.66699 -16 -22 -24 -40 -24z" />
    <glyph glyph-name="degree" unicode="&#xb0;" horiz-adv-x="284" 
d="M182 396c-26.667 0 -46.167 5.49902 -58.5 16.499s-18.5 24.167 -18.5 39.5c0 16 5.5 32.5 16.5 49.5s25.833 31.333 44.5 43s39.667 17.5 63 17.5c28.667 0 49.167 -5.5 61.5 -16.5s18.5 -24.167 18.5 -39.5s-5.83301 -31.666 -17.5 -48.999s-27 -31.833 -46 -43.5
s-40.167 -17.5 -63.5 -17.5zM186 422.999c13.333 0 26.334 4.66602 39.001 13.999s23.167 20.333 31.5 33s12.5 24.667 12.5 36c0 8.66699 -3.16699 15.5 -9.5 20.5s-16.5 7.5 -30.5 7.5s-27.333 -4.5 -40 -13.5s-22.834 -19.667 -30.501 -32s-11.5 -24.166 -11.5 -35.499
c0 -8 3 -15 9 -21s16 -9 30 -9z" />
    <glyph glyph-name="plusminus" unicode="&#xb1;" horiz-adv-x="473" 
d="M194 109c4 23.333 6.66602 45.832 7.99902 67.499s2 44.167 2 67.5c-18 0 -34.167 -0.166992 -48.5 -0.5s-29.333 -1 -45 -2s-33.5 -3.16699 -53.5 -6.5c6.66699 17.333 23.667 29.5 51 36.5s59.333 11.167 96 12.5v34c0 12 2 25.667 6 41s12.667 31.333 26 48
c2 -12 4.16699 -29.5 6.5 -52.5s4.16602 -46.5 5.49902 -70.5c20.667 0 41.334 -0.666992 62.001 -2s39.5 -2.5 56.5 -3.5s29.833 -1.83301 38.5 -2.5c-21.333 -13.333 -41.666 -22 -60.999 -26s-35.666 -6 -48.999 -6h-47
c-0.666992 -33.333 -4.33398 -62.166 -11.001 -86.499s-21 -40.5 -43 -48.5zM54.999 26.999c3.33301 14.667 13.9971 25.5 31.9971 32.5s40.333 11.833 67 14.5s54.334 4 83.001 4c33.333 0 66 -1 98 -3s56.333 -4 73 -6c-16 -8 -31 -14.167 -45 -18.5
s-30.667 -7.16602 -50 -8.49902s-44.666 -2.33301 -75.999 -3c-19.333 -0.666992 -36.166 -1.16699 -50.499 -1.5s-28 -0.833008 -41 -1.5s-26.667 -1.83398 -41 -3.50098z" />
    <glyph glyph-name="uni00B2" unicode="&#xb2;" horiz-adv-x="384" 
d="M307 302c-10 0 -21.832 1.67676 -35.499 5.00977s-27.834 7.83301 -42.501 13.5s-28.667 11.5 -42 17.5c-22 -13.333 -41.333 -20 -58 -20c-12 0 -22.333 3.16699 -31 9.5s-13 14.5 -13 24.5c0 20 15.333 30 46 30c8 0 16.167 -0.666992 24.5 -2s17.5 -3 27.5 -5
c20 18 39.667 40.667 59 68s35.5 56.666 48.5 87.999s19.5 61 19.5 89c0 22.667 -4.5 39 -13.5 49s-20.167 15 -33.5 15c-18.667 0 -33.334 -8.5 -44.001 -25.5s-16 -38.5 -16 -64.5c0 -6.66699 0.666992 -12.834 2 -18.501s4 -13.5 8 -23.5h-15
c-14 3.33301 -24.833 8.66602 -32.5 15.999s-11.5 18.666 -11.5 33.999c0 19.333 4.83301 37.166 14.5 53.499s23.334 29.666 41.001 39.999s38.167 15.5 61.5 15.5c27.333 0 49.5 -9.33301 66.5 -28s25.5 -41.334 25.5 -68.001c0 -28.667 -6.16699 -58.334 -18.5 -89.001
s-29 -59.834 -50 -87.501s-43.5 -51.5 -67.5 -71.5l51.5 -11c15.667 -3.33301 29.167 -5 40.5 -5c5.33301 0 11.833 1.66699 19.5 5s18.5 9.33301 32.5 18c-6 -24.667 -14 -42.834 -24 -54.501s-23.333 -17.5 -40 -17.5zM128.001 345.01c3.33301 0 6.33301 0.666992 9 2
l10 5c-4 1.33301 -7.66699 2.16602 -11 2.49902s-6 0.5 -8 0.5c-4 0 -6.66699 -0.5 -8 -1.5s-2 -1.83301 -2 -2.5c0 -1.33301 1 -2.66602 3 -3.99902s4.33301 -2 7 -2z" />
    <glyph glyph-name="uni00B3" unicode="&#xb3;" horiz-adv-x="322" 
d="M188 314c-33.333 0 -57 8.49805 -71 25.498s-21 33.833 -21 50.5c0 13.333 4.16699 26.5 12.5 39.5s20.5 19.5 36.5 19.5c2 0 4.66699 -0.333008 8 -1s9 -2.33398 17 -5.00098c-7.33301 -5.33301 -12.833 -12.333 -16.5 -21s-5.5 -17 -5.5 -25
c0 -13.333 3.66699 -26.166 11 -38.499s18.333 -18.5 33 -18.5c18 0 34.667 9.5 50 28.5s23 42.833 23 71.5c0 18.667 -5 36.834 -15 54.501s-29 29.834 -57 36.501c20 8.66699 37 19.834 51 33.501s24.833 28.334 32.5 44.001s11.5 29.834 11.5 42.501
c0 14.667 -3.83301 25.834 -11.5 33.501s-16.5 11.5 -26.5 11.5c-12.667 0 -24 -4.83301 -34 -14.5s-15 -22.167 -15 -37.5c0 -4.66699 0.833008 -9.5 2.5 -14.5s3.83398 -10.5 6.50098 -16.5c-2.66699 -5.33301 -7 -10 -13 -14s-11.333 -6 -16 -6
c-8 0 -14.333 5.16699 -19 15.5s-7 20.166 -7 29.499c0 25.333 10.5 45 31.5 59s44.167 21 69.5 21c22 0 42 -5.83301 60 -17.5s27 -28.834 27 -51.501c0 -13.333 -3.16699 -27.333 -9.5 -42s-15 -28.334 -26 -41.001s-23.833 -22.334 -38.5 -29.001
c23.333 -10 39.833 -24.167 49.5 -42.5s14.5 -35.5 14.5 -51.5c0 -20.667 -6.16699 -41 -18.5 -61s-29.333 -36.333 -51 -49s-46.834 -19 -75.501 -19z" />
    <glyph glyph-name="acute" unicode="&#xb4;" horiz-adv-x="136" 
d="M112 404c-7.33301 3.33301 -12.667 8.5 -16 15.5s-5 12.167 -5 15.5c0 5.33301 3.33301 14.333 10 27s15.334 25.834 26.001 39.501s22 25.5 34 35.5s23 15 33 15c6.66699 0 12.667 -2.5 18 -7.5s8.66602 -13.833 9.99902 -26.5c-24 -22 -44.833 -41.833 -62.5 -59.5
s-33.5 -35.834 -47.5 -54.501z" />
    <glyph glyph-name="uni00B5" unicode="&#xb5;" horiz-adv-x="606" 
d="M4 -280c-6.66699 0 -12.833 3.33008 -18.5 9.99707s-10 13.5 -13 20.5s-4.83301 11.167 -5.5 12.5c9.33301 32.667 18.833 61.667 28.5 87l29.5 78c10 26.667 19.667 57.834 29 93.501s18.666 80 27.999 133s18.333 118.833 27 197.5c1.33301 7.33301 3 12.666 5 15.999
s8.33301 5 19 5c18.667 0 32.167 -5.16699 40.5 -15.5s12.833 -21.833 13.5 -34.5c-14.667 -64.667 -26 -118.667 -34 -162s-12 -77 -12 -101c0 -30 8.66699 -45 26 -45c12.667 0 25.667 6.5 39 19.5s26.666 29.833 39.999 50.5s26.333 42.834 39 66.501l35.5 68l27.5 53.5
c4.66699 -0.666992 11.334 -2.16699 20.001 -4.5s16.834 -5.5 24.501 -9.5s11.5 -9.66699 11.5 -17c0 -0.666992 -3.33301 -8.16699 -10 -22.5s-14.334 -32.166 -23.001 -53.499s-16.167 -43.166 -22.5 -65.499s-9.5 -42.166 -9.5 -59.499
c0 -10.667 2.16699 -19.334 6.5 -26.001s11.833 -10 22.5 -10c14 0 31 6.33301 51 19s40.333 31.167 61 55.5s39.334 53.5 56.001 87.5l20 -14c-14.667 -36.667 -33.667 -69.167 -57 -97.5s-48.166 -50.333 -74.499 -66s-52.166 -23.5 -77.499 -23.5s-44.5 7.33301 -57.5 22
s-19.5 33.334 -19.5 56.001c0 4.66699 0.166992 9.16699 0.5 13.5s1.16602 8.83301 2.49902 13.5c-18 -28.667 -37.167 -53.334 -57.5 -74.001s-42.833 -31 -67.5 -31c-7.33301 0 -15 1.66699 -23 5s-14.333 7.66602 -19 12.999c-24 -85.333 -44.333 -150.666 -61 -195.999
s-30.334 -68 -41.001 -68z" />
    <glyph glyph-name="paragraph" unicode="&#xb6;" horiz-adv-x="672" 
d="M348 -87l9 114.498l10 125.5c-17.333 1.33301 -38.5 3.66602 -63.5 6.99902s-51.167 8.83301 -78.5 16.5s-53 18.334 -77 32.001s-43.333 30.834 -58 51.501s-22 46 -22 76c0 37.333 9.5 70.333 28.5 99s44.167 53.334 75.5 74.001s65.5 37 102.5 49
s73.5 19.333 109.5 22c-2 46 -5.66699 88.333 -11 127c7.33301 3.33301 13.833 5.66602 19.5 6.99902s10.5 2 14.5 2c11.333 0 20 -4.66699 26 -14s10.167 -21 12.5 -35s3.66602 -28.667 3.99902 -44s0.833008 -29.333 1.5 -42l21.5 -2.5
c8.33301 -1 15.166 -2.16699 20.499 -3.5c-0.666992 26.667 -1.83398 51.334 -3.50098 74.001s-3.16699 41.667 -4.5 57c6 4 11.5 6.66699 16.5 8s9.83301 2 14.5 2c8.66699 0 16 -7.33301 22 -22s10.667 -33.834 14 -57.501s5.66602 -49.5 6.99902 -77.5
c17.333 -5.33301 33.333 -11 48 -17l40 -17c-2 -4 -6.16699 -8.66699 -12.5 -14s-13 -10 -20 -14s-12.167 -6 -15.5 -6s-7.83301 1.83301 -13.5 5.5s-13.834 7.83398 -24.501 12.501c1.33301 -18.667 2.33301 -36.667 3 -54s1 -34.666 1 -51.999
c0 -134 -1.33301 -238 -4 -312s-5.66699 -116 -9 -126c-4.66699 -16 -14.667 -28.667 -30 -38s-31.666 -14 -48.999 -14c0.666992 2 1.83398 13 3.50098 33s3.5 46.5 5.5 79.5s4 70.333 6 112s3.5 85.5 4.5 131.5s1.66699 92.167 2 138.5s-0.166992 89.833 -1.5 130.5
c-5.33301 2 -11.666 3.66699 -18.999 5s-14 2.33301 -20 3c1.33301 -28.667 2.33301 -55.834 3 -81.501l2 -74c0.666992 -23.667 1 -47.5 1 -71.5c0 -45.333 -0.5 -88.5 -1.5 -129.5s-2.16699 -77.667 -3.5 -110s-2.66602 -58.5 -3.99902 -78.5
s-2.66602 -31.667 -3.99902 -35c-3.33301 -10 -10.5 -19 -21.5 -27s-23.5 -14.333 -37.5 -19s-27.333 -7 -40 -7z" />
    <glyph glyph-name="periodcentered" unicode="&#xb7;" horiz-adv-x="230" 
d="M89 118c-13.333 0 -23.002 3.33301 -29.002 10s-9 14.667 -9 24c0 7.33301 3.33301 14.5 10 21.5s14.834 12.833 24.501 17.5s18.834 7 27.501 7c8 0 15.167 -1.83301 21.5 -5.5s9.5 -10.834 9.5 -21.501c0 -6 -2.33301 -13.167 -7 -21.5s-11.167 -15.666 -19.5 -21.999
s-17.833 -9.5 -28.5 -9.5z" />
    <glyph glyph-name="cedilla" unicode="&#xb8;" horiz-adv-x="227" 
d="M79 -226c-19.333 0 -34.8311 4.33398 -46.498 13.001s-17.5 17.667 -17.5 27c0 5.33301 2.33301 11.5 7 18.5s12 13.833 22 20.5c4.66699 -16 10.667 -27.5 18 -34.5s14.666 -10.5 21.999 -10.5c12 0 24.167 4.83301 36.5 14.5s23 21.167 32 34.5s13.5 25.333 13.5 36
c0 5.33301 -1.33301 9.83301 -4 13.5s-6.66699 5.5 -12 5.5c-8.66699 0 -18.334 -3.16699 -29.001 -9.5s-20.667 -12.833 -30 -19.5s-16.666 -10 -21.999 -10c-6 0 -10.667 2.83301 -14 8.5s-5 10.5 -5 14.5c0 1.33301 3 6.16602 9 14.499l22 30.5
c8.66699 12 17.5 23.5 26.5 34.5s16.833 19.167 23.5 24.5h15l-49 -77c6 3.33301 14.167 6.83301 24.5 10.5s21.5 5.5 33.5 5.5c15.333 0 27.666 -4 36.999 -12s14 -19.667 14 -35c0 -18.667 -5.83301 -37 -17.5 -55s-27.167 -33 -46.5 -45s-40.333 -18 -63 -18z" />
    <glyph glyph-name="uni00B9" unicode="&#xb9;" horiz-adv-x="292" 
d="M134 314c-7.33301 0 -16.166 2.83008 -26.499 8.49707s-19.5 13.834 -27.5 24.501c18.667 0 33.167 0.166992 43.5 0.5s21.833 1.5 34.5 3.5c7.33301 16 14 36.833 20 62.5s11.333 52.334 16 80.001l13.5 77.5c4.33301 24 8.5 42.667 12.5 56
c-14 -8 -24.167 -13.5 -30.5 -16.5s-11.166 -4.5 -14.499 -4.5c-6 0 -10.833 1.83301 -14.5 5.5s-5.5 10.5 -5.5 20.5c6 3.33301 15.333 9.33301 28 18s26.834 19 42.501 31l45.5 36h4c2 -1.33301 3.16699 -2.83301 3.5 -4.5s0.833008 -3.16699 1.5 -4.5
c0.666992 -4 0.833984 -8.16699 0.500977 -12.5s-0.833008 -7.83301 -1.5 -10.5c-0.666992 -6.66699 -3 -19.667 -7 -39l-14 -70l-18 -89l-12 -60c-3.33301 -16 -6.83301 -29.833 -10.5 -41.5s-7.83398 -21.5 -12.501 -29.5c16 0.666992 29.667 -1.5 41 -6.5
s18.666 -16.5 21.999 -34.5c-6.66699 0.666992 -14.834 1.33398 -24.501 2.00098s-17.834 1 -24.501 1c-18 0 -33.167 -0.666992 -45.5 -2s-25.5 -2 -39.5 -2z" />
    <glyph glyph-name="ordmasculine" unicode="&#xba;" horiz-adv-x="300" 
d="M182 452c-18.667 0 -33.666 5.83203 -44.999 17.499s-17 26.834 -17 45.501s4.83301 39.5 14.5 62.5s22.667 45.333 39 67s34.833 39.5 55.5 53.5s42 21 64 21c8.66699 0 15.5 -1.16699 20.5 -3.5s9.16699 -5.5 12.5 -9.5c10.667 -0.666992 18.5 -4.5 23.5 -11.5
s7.5 -13.167 7.5 -18.5c0 -6.66699 -2.16699 -14.667 -6.5 -24l-13.5 -29c-4.66699 -10 -7 -20 -7 -30c0 -5.33301 1.66699 -8.83301 5 -10.5s7.33301 -2.5 12 -2.5c6 0 10.833 0.333008 14.5 1l10.5 2c-0.666992 -9.33301 -5 -16.666 -13 -21.999s-16.667 -8 -26 -8
c-10.667 0 -19.334 3.33301 -26.001 10c-14.667 -32.667 -33 -59.334 -55 -80.001s-45.333 -31 -70 -31zM198.001 488.999c10.667 0 21.667 4.66309 33 13.9961s22.5 21.666 33.5 36.999s20.167 31.666 27.5 48.999c-1.33301 6 -2.33301 11.667 -3 17s-1 12.333 -1 21
c0 14.667 0.666992 26.334 2 35.001s3.33301 15.334 6 20.001c-18 -1.33301 -34.5 -8.16602 -49.5 -20.499s-28 -27.166 -39 -44.499s-19.5 -34.666 -25.5 -51.999s-9 -31.666 -9 -42.999c0 -10 2.33301 -18 7 -24s10.667 -9 18 -9z" />
    <glyph glyph-name="guillemotright" unicode="&#xbb;" horiz-adv-x="480" 
d="M253 44c-7.33301 0 -14.1641 2.50293 -20.4971 7.50293s-11.833 10.167 -16.5 15.5c31.333 11.333 56.333 21.166 75 29.499s34.667 16.5 48 24.5s26.666 16.667 39.999 26c-16.667 8.66699 -34.5 18.5 -53.5 29.5s-36.833 22.667 -53.5 35s-30.167 25 -40.5 38
s-15.5 26.167 -15.5 39.5c0 3.33301 1.33301 8.66602 4 15.999s4.66699 11.666 6 12.999c14.667 -20 32.834 -40 54.501 -60s44.667 -38.333 69 -55s48.166 -30 71.499 -40c-2.66699 -10.667 -10.5 -22.667 -23.5 -36s-28.333 -26.333 -46 -39
s-35.334 -23.167 -53.001 -31.5s-32.834 -12.5 -45.501 -12.5zM101.002 44.0029c-7.33301 0 -14.1641 2.50293 -20.4971 7.50293s-11.833 10.167 -16.5 15.5c31.333 11.333 56.333 21.166 75 29.499s34.667 16.5 48 24.5s26.666 16.667 39.999 26
c-16.667 8.66699 -34.5 18.5 -53.5 29.5s-36.833 22.667 -53.5 35s-30.167 25 -40.5 38s-15.5 26.167 -15.5 39.5c0 3.33301 1.33301 8.66602 4 15.999s4.66699 11.666 6 12.999c14.667 -20 32.834 -40 54.501 -60s44.667 -38.333 69 -55s48.166 -30 71.499 -40
c-2.66699 -10.667 -10.5 -22.667 -23.5 -36s-28.333 -26.333 -46 -39s-35.334 -23.167 -53.001 -31.5s-32.834 -12.5 -45.501 -12.5z" />
    <glyph glyph-name="onequarter" unicode="&#xbc;" horiz-adv-x="671" 
d="M50 -87c16 16 36.334 41.332 61.001 75.999s51.5 75.5 80.5 122.5l88.5 149l86.5 156c27.667 51.667 52.167 99.667 73.5 144s38 81.5 50 111.5c2.66699 7.33301 9.16699 14.333 19.5 21s22.333 12 36 16s26.5 5.33301 38.5 4
c-3.33301 -9.33301 -11.833 -27.666 -25.5 -54.999l-50.5 -99l-65.5 -124l-71 -130.5l-66 -119c-20.333 -36.333 -37.833 -65.833 -52.5 -88.5c-35.333 -54.667 -69.333 -99 -102 -133s-66.334 -51 -101.001 -51zM543.001 -27.001c-18.667 1.33301 -33 4.66699 -43 10
s-15 12.666 -15 21.999c0 4 1.5 15 4.5 33s9.16699 49.333 18.5 94c-4.66699 0.666992 -9.66699 1 -15 1h-19c-20 0 -39.167 -0.833008 -57.5 -2.5s-34.5 -4.16699 -48.5 -7.5c0 8.66699 1.16699 15.667 3.5 21s4.83301 9.33301 7.5 12l73 64c27.333 24.667 54 51 80 79
s46.667 55.333 62 82c12 -1.33301 18.333 -7.66602 19 -18.999c0 -5.33301 -4.33301 -22 -13 -50s-19 -75 -31 -141h12c5.33301 0 11.833 0.666992 19.5 2l27.5 5c-10 -14 -21 -25.333 -33 -34s-23 -13 -33 -13c-0.666992 -6 -2.16699 -15.667 -4.5 -29s-4.5 -28 -6.5 -44
s-3.83301 -31.667 -5.5 -47s-2.5 -28 -2.5 -38zM441.001 173c8.66699 0.666992 19.5 0.832031 32.5 0.499023s27.833 -0.5 44.5 -0.5l8 40.5c2 10.333 4 19.333 6 27s4.33301 15.834 7 24.501l-34 -31l-25.5 -23.5l-19.5 -18c-6 -5.66699 -12.333 -12.167 -19 -19.5z
M130.001 313.998c-7.33301 0 -16.168 2.83008 -26.501 8.49707s-19.5 13.834 -27.5 24.501c18.667 0 33.167 0.166992 43.5 0.5s21.833 1.5 34.5 3.5c7.33301 16 14 36.833 20 62.5s11.333 52.334 16 80.001l13.5 77.5c4.33301 24 8.5 42.667 12.5 56
c-14 -8 -24.167 -13.5 -30.5 -16.5s-11.166 -4.5 -14.499 -4.5c-6 0 -10.833 1.83301 -14.5 5.5s-5.5 10.5 -5.5 20.5c6 3.33301 15.333 9.33301 28 18s26.834 19 42.501 31l45.5 36h4c2 -1.33301 3.16699 -2.83301 3.5 -4.5s0.833008 -3.16699 1.5 -4.5
c0.666992 -4 0.833984 -8.16699 0.500977 -12.5s-0.833008 -7.83301 -1.5 -10.5c-1.33301 -10 -6.16602 -36.167 -14.499 -78.5l-36.5 -179.5c-3.33301 -16 -6.83301 -29.833 -10.5 -41.5s-7.83398 -21.5 -12.501 -29.5c15.333 0.666992 28.833 -1.5 40.5 -6.5
s19.167 -16.5 22.5 -34.5c-6.66699 0.666992 -14.834 1.33398 -24.501 2.00098s-17.834 1 -24.501 1c-18 0 -33.167 -0.666992 -45.5 -2s-25.5 -2 -39.5 -2z" />
    <glyph glyph-name="onehalf" unicode="&#xbd;" horiz-adv-x="728" 
d="M57 -87c16 16 36.3311 41.333 60.998 76s51.5 75.5 80.5 122.5l89 149l86.5 156l73.5 144c21.667 44.333 38.5 81.5 50.5 111.5c2.66699 7.33301 8.83398 14.5 18.501 21.5s21 13.167 34 18.5s25.167 8 36.5 8c-2.66699 -10 -10.667 -29.167 -24 -57.5l-49.5 -101.5
l-64 -125l-70 -131l-66.5 -119.5c-20.667 -36.333 -38.334 -65.833 -53.001 -88.5c-35.333 -54.667 -69.166 -99 -101.499 -133s-66.166 -51 -101.499 -51zM407.998 17c3.33301 0 6.5 0.500977 9.5 1.50098s6.5 2.83301 10.5 5.5c-4 1.33301 -7.83301 2.16602 -11.5 2.49902
s-6.5 0.5 -8.5 0.5c-4 0 -6.66699 -0.5 -8 -1.5s-2 -2.16699 -2 -3.5s1 -2.5 3 -3.5s4.33301 -1.5 7 -1.5zM586.998 -26.999c-10 0 -21.832 1.83496 -35.499 5.50195s-27.834 8.33398 -42.501 14.001s-28.334 11.5 -41.001 17.5c-22 -14 -41.333 -21 -58 -21
c-12 0 -22.333 3.16699 -31 9.5s-13 14.5 -13 24.5c0 20 15 30 45 30c8 0 16.167 -0.5 24.5 -1.5s17.5 -2.5 27.5 -4.5c20 17.333 39.833 39.833 59.5 67.5s35.834 57 48.501 88s19 60.5 19 88.5c0 23.333 -4.33301 40 -13 50s-20 15 -34 15
c-18.667 0 -33.334 -8.66699 -44.001 -26s-16 -38.666 -16 -63.999c0 -6.66699 0.833008 -12.834 2.5 -18.501s4.5 -13.5 8.5 -23.5h-16c-14 3.33301 -24.833 8.66602 -32.5 15.999s-11.5 18.666 -11.5 33.999c0 18.667 5 36.167 15 52.5s23.833 29.666 41.5 39.999
s37.834 15.5 60.501 15.5c27.333 0 49.5 -9.16699 66.5 -27.5s25.5 -40.833 25.5 -67.5c0 -29.333 -6.16699 -59.166 -18.5 -89.499s-28.833 -59.333 -49.5 -87s-43 -51.834 -67 -72.501c18 -4 34.833 -7.5 50.5 -10.5s29.167 -4.5 40.5 -4.5
c5.33301 0 11.833 1.66699 19.5 5s18.5 9 32.5 17c-6 -24 -14 -42 -24 -54s-23.333 -18 -40 -18zM131.999 314.003c-7.33301 0 -16.168 2.83008 -26.501 8.49707s-19.5 13.834 -27.5 24.501c18.667 0 33.167 0.166992 43.5 0.5s21.833 1.5 34.5 3.5
c7.33301 16 14 36.833 20 62.5s11.333 52.334 16 80.001l13.5 77.5c4.33301 24 8.5 42.667 12.5 56c-14 -8 -24.167 -13.5 -30.5 -16.5s-11.166 -4.5 -14.499 -4.5c-6 0 -10.833 1.83301 -14.5 5.5s-5.5 10.5 -5.5 20.5c6 3.33301 15.333 9.33301 28 18s26.834 19 42.501 31
l45.5 36h4c2 -1.33301 3.16699 -2.83301 3.5 -4.5s0.833008 -3.16699 1.5 -4.5c0.666992 -4 0.833984 -8.16699 0.500977 -12.5s-0.833008 -7.83301 -1.5 -10.5c-1.33301 -10 -6.16602 -36.167 -14.499 -78.5l-36.5 -179.5c-3.33301 -16 -6.83301 -29.833 -10.5 -41.5
s-7.83398 -21.5 -12.501 -29.5c15.333 0.666992 28.833 -1.5 40.5 -6.5s19.167 -16.5 22.5 -34.5c-6.66699 0.666992 -14.834 1.33398 -24.501 2.00098s-17.834 1 -24.501 1c-18 0 -33.167 -0.666992 -45.5 -2s-25.5 -2 -39.5 -2z" />
    <glyph glyph-name="threequarters" unicode="&#xbe;" horiz-adv-x="717" 
d="M96 -87c30.667 36 60.834 75.332 90.501 117.999s58.5 87.334 86.5 134.001s54.833 93.667 80.5 141l72.5 138l62 125.5l48 102.5c3.33301 8 10 15.5 20 22.5s21.333 13 34 18s24.667 7.5 36 7.5c-2.66699 -10.667 -10.334 -29.5 -23.001 -56.5l-47.5 -97l-62.5 -121
l-69.5 -129.5l-68 -121.5l-57.5 -96.5c-34.667 -55.333 -68 -100 -100 -134s-66 -51 -102 -51zM185 308.999c-22.667 0 -40.832 4.16699 -54.499 12.5s-23.5 18.5 -29.5 30.5s-9 23.333 -9 34c0 14 4 27.333 12 40s20.333 19 37 19
c3.33301 0 6.66602 -0.166992 9.99902 -0.5s8.66602 -1.5 15.999 -3.5c-8 -6 -14 -13.5 -18 -22.5s-6 -17.833 -6 -26.5c0 -13.333 4.33301 -25.833 13 -37.5s20 -17.5 34 -17.5c17.333 0 33.833 9.66699 49.5 29s23.5 43 23.5 71c0 19.333 -5 38 -15 56s-29.333 30 -58 36
c20 8.66699 37.167 20 51.5 34s25.333 28.833 33 44.5s11.5 29.834 11.5 42.501c0 15.333 -4 26.666 -12 33.999s-17 11 -27 11c-12 0 -23.167 -4.66699 -33.5 -14s-15.5 -21 -15.5 -35c0 -4.66699 0.833008 -9.83398 2.5 -15.501s3.83398 -11.5 6.50098 -17.5
c-2.66699 -5.33301 -7 -10.166 -13 -14.499s-11.333 -6.5 -16 -6.5c-8 0 -14.333 5.16699 -19 15.5s-7.33398 20.166 -8.00098 29.499c0 17.333 5 32 15 44s22.833 21.167 38.5 27.5s31.834 9.5 48.501 9.5c22 0 42.167 -5.66699 60.5 -17s27.5 -29.333 27.5 -54
c0 -12.667 -3.16699 -26.5 -9.5 -41.5s-15 -28.833 -26 -41.5s-23.833 -22.334 -38.5 -29.001c22.667 -9.33301 39 -23.166 49 -41.499s15 -36.166 15 -53.499c0 -20.667 -6.16699 -41 -18.5 -61s-29.5 -36.667 -51.5 -50s-47.333 -20 -76 -20zM590.002 -27.001
c-18.667 1.33301 -33.0029 4.66699 -43.0029 10s-15 12.666 -15 21.999c0 4 1.33301 15 4 33s8.66699 49.333 18 94c-4.66699 0.666992 -9.66699 1 -15 1h-19c-20 0 -39.167 -0.833008 -57.5 -2.5s-34.5 -4.16699 -48.5 -7.5c0 8.66699 1.33301 15.667 4 21
s5.33398 9.33301 8.00098 12l72.5 64c27.667 24.667 54.334 51 80.001 79s46.5 55.333 62.5 82c11.333 -1.33301 17.333 -7.66602 18 -18.999c0 -5.33301 -4.16699 -22 -12.5 -50s-18.833 -75 -31.5 -141h12c5.33301 0 11.833 0.666992 19.5 2l28.5 5
c-10 -14 -21 -25.333 -33 -34s-23.333 -13 -34 -13c-0.666992 -6 -2 -15.667 -4 -29l-6.5 -44c-2.33301 -16 -4.16602 -31.667 -5.49902 -47s-2 -28 -2 -38zM486.999 173c8.66699 0.666992 19.5 0.832031 32.5 0.499023s27.833 -0.5 44.5 -0.5l8 40.5
c2 10.333 4 19.333 6 27s4.33301 15.834 7 24.501l-33 -31l-26 -23.5c-7.33301 -6.33301 -13.833 -12.333 -19.5 -18z" />
    <glyph glyph-name="questiondown" unicode="&#xbf;" horiz-adv-x="430" 
d="M101 -280c-43.333 0 -78.3311 11.332 -104.998 33.999s-40 55.334 -40 98.001c0 25.333 5.33301 48 16 68s24.167 38.5 40.5 55.5s33.666 34 51.999 51s35.333 35.667 51 56s27.834 43.833 36.501 70.5c7.33301 22.667 11.666 42.334 12.999 59.001s6 34.667 14 54
c15.333 -8 25.5 -15 30.5 -21s7.5 -16 7.5 -30c0 -28 -6.33301 -53.333 -19 -76s-28.5 -44.167 -47.5 -64.5l-57 -62c-19 -21 -34.833 -43.667 -47.5 -68s-19 -51.5 -19 -81.5c0 -35.333 7.33301 -62.166 22 -80.499s33 -27.5 55 -27.5c23.333 0 46.333 8.83301 69 26.5
s41.667 41.5 57 71.5s23 62.667 23 98c0 11.333 -0.833008 21.833 -2.5 31.5s-4.16699 20.167 -7.5 31.5c30 -4.66699 50 -14 60 -28s15 -31 15 -51c0 -36.667 -8.83301 -71.334 -26.5 -104.001s-42.834 -59.334 -75.501 -80.001s-71 -31 -115 -31zM195.002 319.999
c-9.33301 0 -17.001 2.16797 -23.001 6.50098s-9 11.166 -9 20.499c0 12.667 5.83301 24.167 17.5 34.5s24.834 15.5 39.501 15.5c10 0 18.667 -2.5 26 -7.5s11 -12.833 11 -23.5c0 -12.667 -6.83301 -23.5 -20.5 -32.5s-27.5 -13.5 -41.5 -13.5z" />
    <glyph glyph-name="Agrave" unicode="&#xc0;" horiz-adv-x="618" 
d="M36 -87c-18 10 -29.499 20.335 -34.499 31.002s-7.5 20 -7.5 28c0 18 6.66699 42.5 20 73.5s31.166 66.333 53.499 106s47.5 81.167 75.5 124.5c-22 1.33301 -42.167 2.33301 -60.5 3s-39.166 1 -62.499 1h-23c8.66699 22.667 22.834 38.5 42.501 47.5
s42.834 13.5 69.501 13.5c11.333 0 23.166 -0.666992 35.499 -2l38.5 -4l100 140c33.333 44.667 64.833 84.667 94.5 120s55.5 63.666 77.5 84.999c28 27.333 49 41 63 41c8.66699 0 18.334 -3.33301 29.001 -10s22 -15.334 34 -26.001
c-6.66699 -5.33301 -15.167 -19.166 -25.5 -41.499s-21.333 -50.5 -33 -84.5s-23.334 -71.333 -35.001 -112s-22.167 -81.834 -31.5 -123.501s-16.833 -81.5 -22.5 -119.5s-8.5 -71.667 -8.5 -101c0 -26 2.66699 -45.667 8 -59s14.666 -20 27.999 -20
c16 0 35.167 11.833 57.5 35.5s47.166 61.5 74.499 113.5l15 -16c-20 -54.667 -46.167 -99.334 -78.5 -134.001s-66.5 -52 -102.5 -52c-30.667 0 -52.5 13.167 -65.5 39.5s-19.5 62.5 -19.5 108.5c0 17.333 1.16699 36.666 3.5 57.999s5.83301 46 10.5 74
c-29.333 4.66699 -55.5 8.33398 -78.5 11.001s-44.833 5.33398 -65.5 8.00098c-32 -56.667 -63 -115.5 -93 -176.5s-57.667 -121.167 -83 -180.5zM365.001 295.002c9.33301 41.333 20.166 82.834 32.499 124.501s25.333 81.667 39 120s26.834 72.5 39.501 102.5
c-20 -15.333 -42.833 -38.333 -68.5 -69s-52.5 -67.334 -80.5 -110.001s-56.333 -89 -85 -139l62 -14.5zM569.001 748.003c-14.667 18.667 -30.999 36.8301 -48.999 54.4971s-40 36.834 -66 57.501c1.33301 12.667 4.83301 21.834 10.5 27.501s11.834 8.5 18.501 8.5
c10 0 21.167 -4.66699 33.5 -14s24.166 -20.833 35.499 -34.5s20.666 -26.667 27.999 -39s11 -21.5 11 -27.5c0 -4 -1.83301 -9.66699 -5.5 -17s-9.16699 -12.666 -16.5 -15.999z" />
    <glyph glyph-name="Aacute" unicode="&#xc1;" horiz-adv-x="618" 
d="M36 -87c-18 10 -29.499 20.335 -34.499 31.002s-7.5 20 -7.5 28c0 18 6.66699 42.5 20 73.5s31.166 66.333 53.499 106s47.5 81.167 75.5 124.5c-22 1.33301 -42.167 2.33301 -60.5 3s-39.166 1 -62.499 1h-23c8.66699 22.667 22.834 38.5 42.501 47.5
s42.834 13.5 69.501 13.5c11.333 0 23.166 -0.666992 35.499 -2l38.5 -4l100 140c33.333 44.667 64.833 84.667 94.5 120s55.5 63.666 77.5 84.999c28 27.333 49 41 63 41c8.66699 0 18.334 -3.33301 29.001 -10s22 -15.334 34 -26.001
c-6.66699 -5.33301 -15.167 -19.166 -25.5 -41.499s-21.333 -50.5 -33 -84.5s-23.334 -71.333 -35.001 -112s-22.167 -81.834 -31.5 -123.501s-16.833 -81.5 -22.5 -119.5s-8.5 -71.667 -8.5 -101c0 -26 2.66699 -45.667 8 -59s14.666 -20 27.999 -20
c16 0 35.167 11.833 57.5 35.5s47.166 61.5 74.499 113.5l15 -16c-20 -54.667 -46.167 -99.334 -78.5 -134.001s-66.5 -52 -102.5 -52c-30.667 0 -52.5 13.167 -65.5 39.5s-19.5 62.5 -19.5 108.5c0 17.333 1.16699 36.666 3.5 57.999s5.83301 46 10.5 74
c-29.333 4.66699 -55.5 8.33398 -78.5 11.001s-44.833 5.33398 -65.5 8.00098c-32 -56.667 -63 -115.5 -93 -176.5s-57.667 -121.167 -83 -180.5zM365.001 295.002c9.33301 41.333 20.166 82.834 32.499 124.501s25.333 81.667 39 120s26.834 72.5 39.501 102.5
c-20 -15.333 -42.833 -38.333 -68.5 -69s-52.5 -67.334 -80.5 -110.001s-56.333 -89 -85 -139l62 -14.5zM575.001 748.003c-7.33301 3.33301 -12.667 8.5 -16 15.5s-5 12.167 -5 15.5c0 5.33301 3.33301 14.333 10 27s15.334 25.834 26.001 39.501s22 25.5 34 35.5
s23 15 33 15c6.66699 0 12.667 -2.5 18 -7.5s8.66602 -13.833 9.99902 -26.5c-24 -22 -44.833 -41.833 -62.5 -59.5s-33.5 -35.834 -47.5 -54.501z" />
    <glyph glyph-name="Acircumflex" unicode="&#xc2;" horiz-adv-x="618" 
d="M36 -87c-18 10 -29.499 20.335 -34.499 31.002s-7.5 20 -7.5 28c0 18 6.66699 42.5 20 73.5s31.166 66.333 53.499 106s47.5 81.167 75.5 124.5c-22 1.33301 -42.167 2.33301 -60.5 3s-39.166 1 -62.499 1h-23c8.66699 22.667 22.834 38.5 42.501 47.5
s42.834 13.5 69.501 13.5c11.333 0 23.166 -0.666992 35.499 -2l38.5 -4l100 140c33.333 44.667 64.833 84.667 94.5 120s55.5 63.666 77.5 84.999c28 27.333 49 41 63 41c8.66699 0 18.334 -3.33301 29.001 -10s22 -15.334 34 -26.001
c-6.66699 -5.33301 -15.167 -19.166 -25.5 -41.499s-21.333 -50.5 -33 -84.5s-23.334 -71.333 -35.001 -112s-22.167 -81.834 -31.5 -123.501s-16.833 -81.5 -22.5 -119.5s-8.5 -71.667 -8.5 -101c0 -26 2.66699 -45.667 8 -59s14.666 -20 27.999 -20
c16 0 35.167 11.833 57.5 35.5s47.166 61.5 74.499 113.5l15 -16c-20 -54.667 -46.167 -99.334 -78.5 -134.001s-66.5 -52 -102.5 -52c-30.667 0 -52.5 13.167 -65.5 39.5s-19.5 62.5 -19.5 108.5c0 17.333 1.16699 36.666 3.5 57.999s5.83301 46 10.5 74
c-29.333 4.66699 -55.5 8.33398 -78.5 11.001s-44.833 5.33398 -65.5 8.00098c-32 -56.667 -63 -115.5 -93 -176.5s-57.667 -121.167 -83 -180.5zM365.001 295.002c9.33301 41.333 20.166 82.834 32.499 124.501s25.333 81.667 39 120s26.834 72.5 39.501 102.5
c-20 -15.333 -42.833 -38.333 -68.5 -69s-52.5 -67.334 -80.5 -110.001s-56.333 -89 -85 -139l62 -14.5zM665.001 744.003c-10 18.667 -20.833 34.335 -32.5 47.002s-24.834 25.667 -39.501 39c-19.333 -6.66699 -37.166 -14.334 -53.499 -23.001s-32.833 -19 -49.5 -31
c-4 3.33301 -7 7.66602 -9 12.999s-3 9.33301 -3 12c0 10 4.5 20 13.5 30s20.167 19.333 33.5 28s26.333 15.667 39 21s22.667 8 30 8c8 0 17.333 -3.5 28 -10.5s21 -16.167 31 -27.5s18.333 -23.166 25 -35.499s10 -23.833 10 -34.5
c0 -6.66699 -1.66699 -13.334 -5 -20.001s-9.33301 -12 -18 -16z" />
    <glyph glyph-name="Atilde" unicode="&#xc3;" horiz-adv-x="618" 
d="M36 -87c-18 10 -29.499 20.335 -34.499 31.002s-7.5 20 -7.5 28c0 18 6.66699 42.5 20 73.5s31.166 66.333 53.499 106s47.5 81.167 75.5 124.5c-22 1.33301 -42.167 2.33301 -60.5 3s-39.166 1 -62.499 1h-23c8.66699 22.667 22.834 38.5 42.501 47.5
s42.834 13.5 69.501 13.5c11.333 0 23.166 -0.666992 35.499 -2l38.5 -4l100 140c33.333 44.667 64.833 84.667 94.5 120s55.5 63.666 77.5 84.999c28 27.333 49 41 63 41c8.66699 0 18.334 -3.33301 29.001 -10s22 -15.334 34 -26.001
c-6.66699 -5.33301 -15.167 -19.166 -25.5 -41.499s-21.333 -50.5 -33 -84.5s-23.334 -71.333 -35.001 -112s-22.167 -81.834 -31.5 -123.501s-16.833 -81.5 -22.5 -119.5s-8.5 -71.667 -8.5 -101c0 -26 2.66699 -45.667 8 -59s14.666 -20 27.999 -20
c16 0 35.167 11.833 57.5 35.5s47.166 61.5 74.499 113.5l15 -16c-20 -54.667 -46.167 -99.334 -78.5 -134.001s-66.5 -52 -102.5 -52c-30.667 0 -52.5 13.167 -65.5 39.5s-19.5 62.5 -19.5 108.5c0 17.333 1.16699 36.666 3.5 57.999s5.83301 46 10.5 74
c-29.333 4.66699 -55.5 8.33398 -78.5 11.001s-44.833 5.33398 -65.5 8.00098c-32 -56.667 -63 -115.5 -93 -176.5s-57.667 -121.167 -83 -180.5zM365.001 295.002c9.33301 41.333 20.166 82.834 32.499 124.501s25.333 81.667 39 120s26.834 72.5 39.501 102.5
c-20 -15.333 -42.833 -38.333 -68.5 -69s-52.5 -67.334 -80.5 -110.001s-56.333 -89 -85 -139l62 -14.5zM652.001 757.003c-18.667 0 -37.834 3.99902 -57.501 11.999l-59 23.5c-19.667 7.66699 -38.834 11.5 -57.501 11.5c-10 0 -20 -0.833008 -30 -2.5
s-20.333 -5.16699 -31 -10.5c10 19.333 22.5 33.5 37.5 42.5s32.167 13.5 51.5 13.5c18.667 0 37.834 -4 57.501 -12l60 -24c20.333 -8 40.833 -12 61.5 -12c16.667 0 33.334 3 50.001 9c-10 -17.333 -21.667 -30.166 -35 -38.499s-29.333 -12.5 -48 -12.5z" />
    <glyph glyph-name="Adieresis" unicode="&#xc4;" horiz-adv-x="618" 
d="M36 -87c-18 10 -29.499 20.335 -34.499 31.002s-7.5 20 -7.5 28c0 18 6.66699 42.5 20 73.5s31.166 66.333 53.499 106s47.5 81.167 75.5 124.5c-22 1.33301 -42.167 2.33301 -60.5 3s-39.166 1 -62.499 1h-23c8.66699 22.667 22.834 38.5 42.501 47.5
s42.834 13.5 69.501 13.5c11.333 0 23.166 -0.666992 35.499 -2l38.5 -4l100 140c33.333 44.667 64.833 84.667 94.5 120s55.5 63.666 77.5 84.999c28 27.333 49 41 63 41c8.66699 0 18.334 -3.33301 29.001 -10s22 -15.334 34 -26.001
c-6.66699 -5.33301 -15.167 -19.166 -25.5 -41.499s-21.333 -50.5 -33 -84.5s-23.334 -71.333 -35.001 -112s-22.167 -81.834 -31.5 -123.501s-16.833 -81.5 -22.5 -119.5s-8.5 -71.667 -8.5 -101c0 -26 2.66699 -45.667 8 -59s14.666 -20 27.999 -20
c16 0 35.167 11.833 57.5 35.5s47.166 61.5 74.499 113.5l15 -16c-20 -54.667 -46.167 -99.334 -78.5 -134.001s-66.5 -52 -102.5 -52c-30.667 0 -52.5 13.167 -65.5 39.5s-19.5 62.5 -19.5 108.5c0 17.333 1.16699 36.666 3.5 57.999s5.83301 46 10.5 74
c-29.333 4.66699 -55.5 8.33398 -78.5 11.001s-44.833 5.33398 -65.5 8.00098c-32 -56.667 -63 -115.5 -93 -176.5s-57.667 -121.167 -83 -180.5zM365.001 295.002c9.33301 41.333 20.166 82.834 32.499 124.501s25.333 81.667 39 120s26.834 72.5 39.501 102.5
c-20 -15.333 -42.833 -38.333 -68.5 -69s-52.5 -67.334 -80.5 -110.001s-56.333 -89 -85 -139l62 -14.5zM648.001 753.003c-10.667 0 -20.001 2.66797 -28.001 8.00098s-12 13.666 -12 24.999c0 12.667 7.33301 23.667 22 33s29.334 14 44.001 14
c10 0 18.333 -2.16699 25 -6.5s10 -12.5 10 -24.5c0 -11.333 -6.33301 -22.333 -19 -33s-26.667 -16 -42 -16zM504 773.004c-10.667 0 -20.168 2.66699 -28.501 8s-12.5 13.666 -12.5 24.999c0 12.667 7.33301 23.834 22 33.501s29.667 14.5 45 14.5
c10 0 18.167 -2.16699 24.5 -6.5s9.5 -12.5 9.5 -24.5c0 -11.333 -6.16699 -22.5 -18.5 -33.5s-26.166 -16.5 -41.499 -16.5z" />
    <glyph glyph-name="Aring" unicode="&#xc5;" horiz-adv-x="618" 
d="M36 -87c-18 10 -29.499 20.335 -34.499 31.002s-7.5 20 -7.5 28c0 18 6.66699 42.5 20 73.5s31.166 66.333 53.499 106s47.5 81.167 75.5 124.5c-22 1.33301 -42.167 2.33301 -60.5 3s-39.166 1 -62.499 1h-23c8.66699 22.667 22.834 38.5 42.501 47.5
s42.834 13.5 69.501 13.5c11.333 0 23.166 -0.666992 35.499 -2l38.5 -4l100 140c33.333 44.667 64.833 84.667 94.5 120s55.5 63.666 77.5 84.999c28 27.333 49 41 63 41c8.66699 0 18.334 -3.33301 29.001 -10s22 -15.334 34 -26.001
c-6.66699 -5.33301 -15.167 -19.166 -25.5 -41.499s-21.333 -50.5 -33 -84.5s-23.334 -71.333 -35.001 -112s-22.167 -81.834 -31.5 -123.501s-16.833 -81.5 -22.5 -119.5s-8.5 -71.667 -8.5 -101c0 -26 2.66699 -45.667 8 -59s14.666 -20 27.999 -20
c16 0 35.167 11.833 57.5 35.5s47.166 61.5 74.499 113.5l15 -16c-20 -54.667 -46.167 -99.334 -78.5 -134.001s-66.5 -52 -102.5 -52c-30.667 0 -52.5 13.167 -65.5 39.5s-19.5 62.5 -19.5 108.5c0 17.333 1.16699 36.666 3.5 57.999s5.83301 46 10.5 74
c-29.333 4.66699 -55.5 8.33398 -78.5 11.001s-44.833 5.33398 -65.5 8.00098c-32 -56.667 -63 -115.5 -93 -176.5s-57.667 -121.167 -83 -180.5zM365.001 295.002c9.33301 41.333 20.166 82.834 32.499 124.501s25.333 81.667 39 120s26.834 72.5 39.501 102.5
c-20 -15.333 -42.833 -38.333 -68.5 -69s-52.5 -67.334 -80.5 -110.001s-56.333 -89 -85 -139l62 -14.5zM568.001 754.003c-26 0 -45.167 5.49902 -57.5 16.499s-18.5 24.167 -18.5 39.5c0 16 5.5 32.5 16.5 49.5s25.667 31.333 44 43s39.5 17.5 63.5 17.5
c28.667 0 49.167 -5.5 61.5 -16.5s18.5 -24.167 18.5 -39.5s-5.83301 -31.666 -17.5 -48.999s-27 -31.833 -46 -43.5s-40.5 -17.5 -64.5 -17.5zM577.001 784.002c12 0 23.498 4 34.498 12s20 17.667 27 29s10.5 22 10.5 32c0 8 -2.83301 15 -8.5 21s-15.5 9 -29.5 9
c-12 0 -23.5 -3.66699 -34.5 -11s-19.833 -16.5 -26.5 -27.5s-10 -21.833 -10 -32.5c0.666992 -6.66699 3.83398 -13.667 9.50098 -21s14.834 -11 27.501 -11z" />
    <glyph glyph-name="AE" unicode="&#xc6;" horiz-adv-x="776" 
d="M36 -87c-18.667 10 -30.3281 20.3281 -34.9951 30.9951s-7 19.667 -7 27c0 18 6.5 42.667 19.5 74s30.667 66.833 53 106.5s47.5 81.167 75.5 124.5c-23.333 1.33301 -43.333 2.33301 -60 3s-30.667 1 -42 1h-43c8.66699 22.667 22.834 38.5 42.501 47.5
s42.834 13.5 69.501 13.5c11.333 0 23 -0.666992 35 -2s24.667 -2.66602 38 -3.99902l104.5 145.5c35 46.333 67.833 87.666 98.5 123.999s57.667 64.833 81 85.5s40.666 31 51.999 31c27.333 0 56.666 -0.833008 87.999 -2.5s62.333 -3.66699 93 -6
s58.667 -4.83301 84 -7.5s45.333 -5 60 -7c-4 -12 -15.167 -21.333 -33.5 -28s-40.333 -11 -66 -13s-52.834 -3 -81.501 -3c-18 0 -35.667 0.166992 -53 0.5s-34 0.833008 -50 1.5c-11.333 -22.667 -24.333 -55 -39 -97s-28.334 -88.333 -41.001 -139
c47.333 -0.666992 88.666 -4 123.999 -10s65.333 -10.333 90 -13c-4.66699 -12.667 -15.834 -22.167 -33.501 -28.5s-39.334 -10.666 -65.001 -12.999s-52.834 -3.5 -81.501 -3.5h-29.5c-7.66699 0 -15.167 0.333008 -22.5 1c-10.667 -47.333 -19.5 -93.5 -26.5 -138.5
s-10.5 -83.833 -10.5 -116.5c0 -7.33301 0.333008 -13.833 1 -19.5l2 -16.5c22 -3.33301 46.333 -6.16602 73 -8.49902s53.5 -4.5 80.5 -6.5s52 -4.16699 75 -6.5s41.167 -5.16602 54.5 -8.49902c-4 -12.667 -15 -22.167 -33 -28.5s-39.833 -10.5 -65.5 -12.5
s-52.834 -3 -81.501 -3c-28 0 -55.667 0.166992 -83 0.5s-51.333 1.5 -72 3.5c-12 11.333 -20.667 28.5 -26 51.5s-8 48.167 -8 75.5c0 20 1.33301 41 4 63s6.33398 45 11.001 69c-29.333 4.66699 -55.666 8.33398 -78.999 11.001s-45.333 5.33398 -66 8.00098
c-32 -56.667 -62.833 -115.5 -92.5 -176.5s-57.167 -121.167 -82.5 -180.5zM365.006 294.995c8.66699 41.333 19.166 82.834 31.499 124.501s25.333 81.667 39 120s26.834 72.5 39.501 102.5c-20 -15.333 -42.667 -38.333 -68 -69s-52 -67.334 -80 -110.001
s-56.667 -89 -86 -139c22 -4.66699 43.833 -9.66699 65.5 -15z" />
    <glyph glyph-name="Ccedilla" unicode="&#xc7;" horiz-adv-x="558" 
d="M240 -87c-50 0 -90.4961 12 -121.496 36s-53.667 54.833 -68 92.5s-21.5 76.834 -21.5 117.501c0 52.667 8 105.5 24 158.5s38 103.667 66 152s59.833 91.166 95.5 128.499s73.667 66.833 114 88.5s80.5 32.5 120.5 32.5c28.667 0 52.5 -6.83301 71.5 -20.5
s28.5 -36.5 28.5 -68.5c0 -20 -3.33301 -42.333 -10 -67s-15.834 -48.334 -27.501 -71.001s-24.834 -41.334 -39.501 -56.001s-29.334 -22 -44.001 -22c-6 0 -12.333 2.16699 -19 6.5s-12.667 11.5 -18 21.5c10 11.333 21.167 25.333 33.5 42s24.166 34.334 35.499 53.001
s20.666 36.834 27.999 54.501s11 33.5 11 47.5c0 12 -3.5 21.833 -10.5 29.5s-18.833 11.5 -35.5 11.5c-29.333 0 -59.5 -11.333 -90.5 -34s-60.833 -52.834 -89.5 -90.501s-54.667 -79.667 -78 -126s-41.666 -94 -54.999 -143s-20 -95.5 -20 -139.5
c0 -32 4.83301 -62.667 14.5 -92s25.167 -53.166 46.5 -71.499s48.666 -27.5 81.999 -27.5c36 0 71.833 10 107.5 30s68.167 46.333 97.5 79s53 68 71 106l22 -15c-22.667 -44 -50.167 -84.5 -82.5 -121.5s-68.666 -66.5 -108.999 -88.5s-83.5 -33 -129.5 -33zM378.004 -226
c-19.333 0 -34.8311 4.33398 -46.498 13.001s-17.5 17.667 -17.5 27c0 5.33301 2.33301 11.5 7 18.5s12 13.833 22 20.5c4.66699 -16 10.667 -27.5 18 -34.5s14.666 -10.5 21.999 -10.5c12 0 24.167 4.83301 36.5 14.5s23 21.167 32 34.5s13.5 25.333 13.5 36
c0 5.33301 -1.33301 9.83301 -4 13.5s-6.66699 5.5 -12 5.5c-8.66699 0 -18.334 -3.16699 -29.001 -9.5s-20.667 -12.833 -30 -19.5s-16.666 -10 -21.999 -10c-6 0 -10.667 2.83301 -14 8.5s-5 10.5 -5 14.5c0 1.33301 3 6.16602 9 14.499l22 30.5
c8.66699 12 17.5 23.5 26.5 34.5s16.833 19.167 23.5 24.5h15l-49 -77c6 3.33301 14.167 6.83301 24.5 10.5s21.5 5.5 33.5 5.5c15.333 0 27.666 -4 36.999 -12s14 -19.667 14 -35c0 -18.667 -5.83301 -37 -17.5 -55s-27.167 -33 -46.5 -45s-40.333 -18 -63 -18z" />
    <glyph glyph-name="Egrave" unicode="&#xc8;" horiz-adv-x="521" 
d="M199 -87c-41.333 0 -77.666 8.5 -108.999 25.5s-55.5 39.5 -72.5 67.5s-25.5 59 -25.5 93c0 30 6.5 59.333 19.5 88s31.167 55 54.5 79s50.5 44 81.5 60s64.833 26.333 101.5 31c-24.667 21.333 -43.167 45.333 -55.5 72s-18.5 54 -18.5 82c0 35.333 9 68.833 27 100.5
s43.167 57.5 75.5 77.5s69.5 30 111.5 30c39.333 0 69.5 -9.66699 90.5 -29s31.5 -47.333 31.5 -84c0 -25.333 -4.5 -49.833 -13.5 -73.5s-19.833 -42.834 -32.5 -57.501s-25.334 -22 -38.001 -22c-8.66699 0 -16.834 3.83301 -24.501 11.5s-14.167 16.5 -19.5 26.5
c24 20.667 44.5 42.334 61.5 65.001s25.5 46.334 25.5 71.001c0 20 -6.5 35.333 -19.5 46s-30.5 16 -52.5 16c-30 0 -55.333 -9.16699 -76 -27.5s-36.334 -42 -47.001 -71s-16 -59.5 -16 -91.5c0 -27.333 4.83301 -55.333 14.5 -84s27.834 -53.334 54.501 -74.001
c-47.333 -7.33301 -88.166 -24 -122.499 -50s-61 -56.333 -80 -91s-28.5 -69 -28.5 -103c0 -20.667 4.16699 -42.167 12.5 -64.5s21.833 -41 40.5 -56s44 -22.5 76 -22.5c36 0 71.667 10.167 107 30.5s67.833 47 97.5 80s53.167 68.5 70.5 106.5l23 -15
c-24 -46 -52.333 -87.333 -85 -124s-69 -65.667 -109 -87s-83.667 -32 -131 -32zM440 748c-14.667 18.667 -30.999 36.8301 -48.999 54.4971s-40 36.834 -66 57.501c1.33301 12.667 4.83301 21.834 10.5 27.501s11.834 8.5 18.501 8.5c10 0 21.167 -4.66699 33.5 -14
s24.166 -20.833 35.499 -34.5s20.666 -26.667 27.999 -39s11 -21.5 11 -27.5c0 -4 -1.83301 -9.66699 -5.5 -17s-9.16699 -12.666 -16.5 -15.999z" />
    <glyph glyph-name="Eacute" unicode="&#xc9;" horiz-adv-x="521" 
d="M199 -87c-41.333 0 -77.666 8.5 -108.999 25.5s-55.5 39.5 -72.5 67.5s-25.5 59 -25.5 93c0 30 6.5 59.333 19.5 88s31.167 55 54.5 79s50.5 44 81.5 60s64.833 26.333 101.5 31c-24.667 21.333 -43.167 45.333 -55.5 72s-18.5 54 -18.5 82c0 35.333 9 68.833 27 100.5
s43.167 57.5 75.5 77.5s69.5 30 111.5 30c39.333 0 69.5 -9.66699 90.5 -29s31.5 -47.333 31.5 -84c0 -25.333 -4.5 -49.833 -13.5 -73.5s-19.833 -42.834 -32.5 -57.501s-25.334 -22 -38.001 -22c-8.66699 0 -16.834 3.83301 -24.501 11.5s-14.167 16.5 -19.5 26.5
c24 20.667 44.5 42.334 61.5 65.001s25.5 46.334 25.5 71.001c0 20 -6.5 35.333 -19.5 46s-30.5 16 -52.5 16c-30 0 -55.333 -9.16699 -76 -27.5s-36.334 -42 -47.001 -71s-16 -59.5 -16 -91.5c0 -27.333 4.83301 -55.333 14.5 -84s27.834 -53.334 54.501 -74.001
c-47.333 -7.33301 -88.166 -24 -122.499 -50s-61 -56.333 -80 -91s-28.5 -69 -28.5 -103c0 -20.667 4.16699 -42.167 12.5 -64.5s21.833 -41 40.5 -56s44 -22.5 76 -22.5c36 0 71.667 10.167 107 30.5s67.833 47 97.5 80s53.167 68.5 70.5 106.5l23 -15
c-24 -46 -52.333 -87.333 -85 -124s-69 -65.667 -109 -87s-83.667 -32 -131 -32zM446 748c-7.33301 3.33301 -12.667 8.5 -16 15.5s-5 12.167 -5 15.5c0 5.33301 3.33301 14.333 10 27s15.334 25.834 26.001 39.501s22 25.5 34 35.5s23 15 33 15
c6.66699 0 12.667 -2.5 18 -7.5s8.66602 -13.833 9.99902 -26.5c-24 -22 -44.833 -41.833 -62.5 -59.5s-33.5 -35.834 -47.5 -54.501z" />
    <glyph glyph-name="Ecircumflex" unicode="&#xca;" horiz-adv-x="521" 
d="M199 -87c-41.333 0 -77.666 8.5 -108.999 25.5s-55.5 39.5 -72.5 67.5s-25.5 59 -25.5 93c0 30 6.5 59.333 19.5 88s31.167 55 54.5 79s50.5 44 81.5 60s64.833 26.333 101.5 31c-24.667 21.333 -43.167 45.333 -55.5 72s-18.5 54 -18.5 82c0 35.333 9 68.833 27 100.5
s43.167 57.5 75.5 77.5s69.5 30 111.5 30c39.333 0 69.5 -9.66699 90.5 -29s31.5 -47.333 31.5 -84c0 -25.333 -4.5 -49.833 -13.5 -73.5s-19.833 -42.834 -32.5 -57.501s-25.334 -22 -38.001 -22c-8.66699 0 -16.834 3.83301 -24.501 11.5s-14.167 16.5 -19.5 26.5
c24 20.667 44.5 42.334 61.5 65.001s25.5 46.334 25.5 71.001c0 20 -6.5 35.333 -19.5 46s-30.5 16 -52.5 16c-30 0 -55.333 -9.16699 -76 -27.5s-36.334 -42 -47.001 -71s-16 -59.5 -16 -91.5c0 -27.333 4.83301 -55.333 14.5 -84s27.834 -53.334 54.501 -74.001
c-47.333 -7.33301 -88.166 -24 -122.499 -50s-61 -56.333 -80 -91s-28.5 -69 -28.5 -103c0 -20.667 4.16699 -42.167 12.5 -64.5s21.833 -41 40.5 -56s44 -22.5 76 -22.5c36 0 71.667 10.167 107 30.5s67.833 47 97.5 80s53.167 68.5 70.5 106.5l23 -15
c-24 -46 -52.333 -87.333 -85 -124s-69 -65.667 -109 -87s-83.667 -32 -131 -32zM536 744c-10 18.667 -20.833 34.335 -32.5 47.002s-24.834 25.667 -39.501 39c-19.333 -6.66699 -37.166 -14.334 -53.499 -23.001s-32.833 -19 -49.5 -31c-4 3.33301 -7 7.66602 -9 12.999
s-3 9.33301 -3 12c0 10 4.5 20 13.5 30s20.167 19.333 33.5 28s26.333 15.667 39 21s22.667 8 30 8c8 0 17.333 -3.5 28 -10.5s21 -16.167 31 -27.5s18.333 -23.166 25 -35.499s10 -23.833 10 -34.5c0 -6.66699 -1.66699 -13.334 -5 -20.001s-9.33301 -12 -18 -16z" />
    <glyph glyph-name="Edieresis" unicode="&#xcb;" horiz-adv-x="521" 
d="M199 -87c-41.333 0 -77.666 8.5 -108.999 25.5s-55.5 39.5 -72.5 67.5s-25.5 59 -25.5 93c0 30 6.5 59.333 19.5 88s31.167 55 54.5 79s50.5 44 81.5 60s64.833 26.333 101.5 31c-24.667 21.333 -43.167 45.333 -55.5 72s-18.5 54 -18.5 82c0 35.333 9 68.833 27 100.5
s43.167 57.5 75.5 77.5s69.5 30 111.5 30c39.333 0 69.5 -9.66699 90.5 -29s31.5 -47.333 31.5 -84c0 -25.333 -4.5 -49.833 -13.5 -73.5s-19.833 -42.834 -32.5 -57.501s-25.334 -22 -38.001 -22c-8.66699 0 -16.834 3.83301 -24.501 11.5s-14.167 16.5 -19.5 26.5
c24 20.667 44.5 42.334 61.5 65.001s25.5 46.334 25.5 71.001c0 20 -6.5 35.333 -19.5 46s-30.5 16 -52.5 16c-30 0 -55.333 -9.16699 -76 -27.5s-36.334 -42 -47.001 -71s-16 -59.5 -16 -91.5c0 -27.333 4.83301 -55.333 14.5 -84s27.834 -53.334 54.501 -74.001
c-47.333 -7.33301 -88.166 -24 -122.499 -50s-61 -56.333 -80 -91s-28.5 -69 -28.5 -103c0 -20.667 4.16699 -42.167 12.5 -64.5s21.833 -41 40.5 -56s44 -22.5 76 -22.5c36 0 71.667 10.167 107 30.5s67.833 47 97.5 80s53.167 68.5 70.5 106.5l23 -15
c-24 -46 -52.333 -87.333 -85 -124s-69 -65.667 -109 -87s-83.667 -32 -131 -32zM519 753c-10.667 0 -20.001 2.66797 -28.001 8.00098s-12 13.666 -12 24.999c0 12.667 7.33301 23.667 22 33s29.334 14 44.001 14c10 0 18.333 -2.16699 25 -6.5s10 -12.5 10 -24.5
c0 -11.333 -6.33301 -22.333 -19 -33s-26.667 -16 -42 -16zM374.999 773.001c-10.667 0 -20.168 2.66699 -28.501 8s-12.5 13.666 -12.5 24.999c0 12.667 7.33301 23.834 22 33.501s29.667 14.5 45 14.5c10 0 18.167 -2.16699 24.5 -6.5s9.5 -12.5 9.5 -24.5
c0 -11.333 -6.16699 -22.5 -18.5 -33.5s-26.166 -16.5 -41.499 -16.5z" />
    <glyph glyph-name="Igrave" unicode="&#xcc;" horiz-adv-x="488" 
d="M-25 -88c2.66699 27.333 11.8311 47.1699 27.498 59.5029s36 20.333 61 24s51.833 5.5 80.5 5.5c12 26 23.667 57.167 35 93.5s22.333 75.166 33 116.499s21 83.666 31 126.999l28.5 125.5l25.5 109.5c8 32.667 15.667 59.334 23 80.001
c-34.667 -0.666992 -64.834 -1.83398 -90.501 -3.50098s-49.667 -4.16699 -72 -7.5s-45.833 -7.33301 -70.5 -12c6 30.667 26 53.167 60 67.5s86 21.5 156 21.5c34.667 0 70.334 -1.33301 107.001 -4s70.5 -5.66699 101.5 -9s54.833 -6.33301 71.5 -9
c-20 -19.333 -39.667 -31.333 -59 -36s-36 -7 -50 -7h-59c-17.333 0 -34 -0.333008 -50 -1c-4 -20 -8.66699 -45.833 -14 -77.5s-11.666 -66.334 -18.999 -104.001l-21.5 -114c-7 -38.333 -14 -74.5 -21 -108.5s-13.5 -62.667 -19.5 -86
c-9.33301 -37.333 -20.166 -70.333 -32.499 -99s-26.833 -50 -43.5 -64c35.333 -2.66699 71.5 -6.16699 108.5 -10.5s75.167 -7.16602 114.5 -8.49902c-24 -22.667 -47.5 -36.834 -70.5 -42.501s-41.833 -8.5 -56.5 -8.5c-38.667 0 -72.167 -0.166992 -100.5 -0.5
s-54 -1 -77 -2s-45.333 -2.83301 -67 -5.5s-45.167 -6 -70.5 -10zM361.997 747.004c-14.667 18.667 -30.999 36.8301 -48.999 54.4971s-40 36.834 -66 57.501c1.33301 12.667 4.83301 21.834 10.5 27.501s11.834 8.5 18.501 8.5c10 0 21.167 -4.66699 33.5 -14
s24.166 -20.833 35.499 -34.5s20.666 -26.667 27.999 -39s11 -21.5 11 -27.5c0 -4 -1.83301 -9.66699 -5.5 -17s-9.16699 -12.666 -16.5 -15.999z" />
    <glyph glyph-name="Iacute" unicode="&#xcd;" horiz-adv-x="488" 
d="M-25 -88c2.66699 27.333 11.8311 47.1699 27.498 59.5029s36 20.333 61 24s51.833 5.5 80.5 5.5c12 26 23.667 57.167 35 93.5s22.333 75.166 33 116.499s21 83.666 31 126.999l28.5 125.5l25.5 109.5c8 32.667 15.667 59.334 23 80.001
c-34.667 -0.666992 -64.834 -1.83398 -90.501 -3.50098s-49.667 -4.16699 -72 -7.5s-45.833 -7.33301 -70.5 -12c6 30.667 26 53.167 60 67.5s86 21.5 156 21.5c34.667 0 70.334 -1.33301 107.001 -4s70.5 -5.66699 101.5 -9s54.833 -6.33301 71.5 -9
c-20 -19.333 -39.667 -31.333 -59 -36s-36 -7 -50 -7h-59c-17.333 0 -34 -0.333008 -50 -1c-4 -20 -8.66699 -45.833 -14 -77.5s-11.666 -66.334 -18.999 -104.001l-21.5 -114c-7 -38.333 -14 -74.5 -21 -108.5s-13.5 -62.667 -19.5 -86
c-9.33301 -37.333 -20.166 -70.333 -32.499 -99s-26.833 -50 -43.5 -64c35.333 -2.66699 71.5 -6.16699 108.5 -10.5s75.167 -7.16602 114.5 -8.49902c-24 -22.667 -47.5 -36.834 -70.5 -42.501s-41.833 -8.5 -56.5 -8.5c-38.667 0 -72.167 -0.166992 -100.5 -0.5
s-54 -1 -77 -2s-45.333 -2.83301 -67 -5.5s-45.167 -6 -70.5 -10zM368.997 747.004c-7.33301 3.33301 -12.667 8.5 -16 15.5s-5 12.167 -5 15.5c0 5.33301 3.33301 14.333 10 27s15.334 25.834 26.001 39.501s22 25.5 34 35.5s23 15 33 15c6.66699 0 12.667 -2.5 18 -7.5
s8.66602 -13.833 9.99902 -26.5c-24 -22 -44.833 -41.833 -62.5 -59.5s-33.5 -35.834 -47.5 -54.501z" />
    <glyph glyph-name="Icircumflex" unicode="&#xce;" horiz-adv-x="488" 
d="M-25 -88c2.66699 27.333 11.8311 47.1699 27.498 59.5029s36 20.333 61 24s51.833 5.5 80.5 5.5c12 26 23.667 57.167 35 93.5s22.333 75.166 33 116.499s21 83.666 31 126.999l28.5 125.5l25.5 109.5c8 32.667 15.667 59.334 23 80.001
c-34.667 -0.666992 -64.834 -1.83398 -90.501 -3.50098s-49.667 -4.16699 -72 -7.5s-45.833 -7.33301 -70.5 -12c6 30.667 26 53.167 60 67.5s86 21.5 156 21.5c34.667 0 70.334 -1.33301 107.001 -4s70.5 -5.66699 101.5 -9s54.833 -6.33301 71.5 -9
c-20 -19.333 -39.667 -31.333 -59 -36s-36 -7 -50 -7h-59c-17.333 0 -34 -0.333008 -50 -1c-4 -20 -8.66699 -45.833 -14 -77.5s-11.666 -66.334 -18.999 -104.001l-21.5 -114c-7 -38.333 -14 -74.5 -21 -108.5s-13.5 -62.667 -19.5 -86
c-9.33301 -37.333 -20.166 -70.333 -32.499 -99s-26.833 -50 -43.5 -64c35.333 -2.66699 71.5 -6.16699 108.5 -10.5s75.167 -7.16602 114.5 -8.49902c-24 -22.667 -47.5 -36.834 -70.5 -42.501s-41.833 -8.5 -56.5 -8.5c-38.667 0 -72.167 -0.166992 -100.5 -0.5
s-54 -1 -77 -2s-45.333 -2.83301 -67 -5.5s-45.167 -6 -70.5 -10zM457.997 743.004c-10 18.667 -20.833 34.335 -32.5 47.002s-24.834 25.667 -39.501 39c-19.333 -6.66699 -37.166 -14.334 -53.499 -23.001s-32.833 -19 -49.5 -31c-4 3.33301 -7 7.66602 -9 12.999
s-3 9.33301 -3 12c0 10 4.5 20 13.5 30s20.167 19.333 33.5 28s26.333 15.667 39 21s22.667 8 30 8c8 0 17.333 -3.5 28 -10.5s21 -16.167 31 -27.5s18.333 -23.166 25 -35.499s10 -23.833 10 -34.5c0 -6.66699 -1.66699 -13.334 -5 -20.001s-9.33301 -12 -18 -16z" />
    <glyph glyph-name="Idieresis" unicode="&#xcf;" horiz-adv-x="488" 
d="M-25 -88c2.66699 27.333 11.8311 47.1699 27.498 59.5029s36 20.333 61 24s51.833 5.5 80.5 5.5c12 26 23.667 57.167 35 93.5s22.333 75.166 33 116.499s21 83.666 31 126.999l28.5 125.5l25.5 109.5c8 32.667 15.667 59.334 23 80.001
c-34.667 -0.666992 -64.834 -1.83398 -90.501 -3.50098s-49.667 -4.16699 -72 -7.5s-45.833 -7.33301 -70.5 -12c6 30.667 26 53.167 60 67.5s86 21.5 156 21.5c34.667 0 70.334 -1.33301 107.001 -4s70.5 -5.66699 101.5 -9s54.833 -6.33301 71.5 -9
c-20 -19.333 -39.667 -31.333 -59 -36s-36 -7 -50 -7h-59c-17.333 0 -34 -0.333008 -50 -1c-4 -20 -8.66699 -45.833 -14 -77.5s-11.666 -66.334 -18.999 -104.001l-21.5 -114c-7 -38.333 -14 -74.5 -21 -108.5s-13.5 -62.667 -19.5 -86
c-9.33301 -37.333 -20.166 -70.333 -32.499 -99s-26.833 -50 -43.5 -64c35.333 -2.66699 71.5 -6.16699 108.5 -10.5s75.167 -7.16602 114.5 -8.49902c-24 -22.667 -47.5 -36.834 -70.5 -42.501s-41.833 -8.5 -56.5 -8.5c-38.667 0 -72.167 -0.166992 -100.5 -0.5
s-54 -1 -77 -2s-45.333 -2.83301 -67 -5.5s-45.167 -6 -70.5 -10zM440.997 752.004c-10.667 0 -20.001 2.66797 -28.001 8.00098s-12 13.666 -12 24.999c0 12.667 7.33301 23.667 22 33s29.334 14 44.001 14c10 0 18.333 -2.16699 25 -6.5s10 -12.5 10 -24.5
c0 -11.333 -6.33301 -22.333 -19 -33s-26.667 -16 -42 -16zM296.996 772.005c-10.667 0 -20.168 2.66699 -28.501 8s-12.5 13.666 -12.5 24.999c0 12.667 7.33301 23.834 22 33.501s29.667 14.5 45 14.5c10 0 18.167 -2.16699 24.5 -6.5s9.5 -12.5 9.5 -24.5
c0 -11.333 -6.16699 -22.5 -18.5 -33.5s-26.166 -16.5 -41.499 -16.5z" />
    <glyph glyph-name="Eth" unicode="&#xd0;" horiz-adv-x="677" 
d="M183 -87c-23.333 0 -44.999 2.99805 -64.999 8.99805s-37.333 19 -52 39c9.33301 46 21.666 97.333 36.999 154s31.333 111.667 48 165c-18 -0.666992 -37.167 -2 -57.5 -4s-41.833 -4.66699 -64.5 -8c9.33301 20 26.166 34.167 50.499 42.5s53.166 13.5 86.499 15.5
l42 128.5c13.333 39 23 66.5 29 82.5c2 5.33301 5.33301 13.333 10 24s10.667 21.5 18 32.5s15.666 20.333 24.999 28s19.333 11.5 30 11.5s22.334 -4 35.001 -12c-18.667 -42.667 -37.5 -89.167 -56.5 -139.5s-36.833 -101.5 -53.5 -153.5c35.333 0 69.333 -1.33301 102 -4
l75 -6c-22 -15.333 -43.667 -25.333 -65 -30s-39.333 -7 -54 -7h-73c-18.667 -59.333 -35.667 -117.166 -51 -173.499s-28 -108.166 -38 -155.499c8 -1.33301 14.833 -2.33301 20.5 -3s11.834 -1 18.501 -1c42.667 0 84 9.5 124 28.5s77.167 45.167 111.5 78.5
s64.5 71.333 90.5 114s46.167 88.167 60.5 136.5s21.5 96.5 21.5 144.5c0 80 -19.5 139 -58.5 177s-89.833 57 -152.5 57c-43.333 0 -82.166 -8.16699 -116.499 -24.5s-61.5 -38.5 -81.5 -66.5s-30 -59.333 -30 -94c0 -8 0.666992 -15.667 2 -23s3.33301 -14.666 6 -21.999
c-26.667 0 -45.5 6 -56.5 18s-16.5 26.667 -16.5 44c0 23.333 8.33301 46.833 25 70.5s40 45.667 70 66s64.5 36.666 103.5 48.999s80.833 18.5 125.5 18.5c64 0 115.333 -12.667 154 -38s66.667 -59.333 84 -102s26 -89.667 26 -141c0 -58 -9.16699 -113.167 -27.5 -165.5
s-43.5 -100.333 -75.5 -144s-68.833 -81.667 -110.5 -114s-86 -57.5 -133 -75.5s-94.5 -27 -142.5 -27z" />
    <glyph glyph-name="Ntilde" unicode="&#xd1;" horiz-adv-x="663" 
d="M53 -87l32.501 108.499l43.5 140.5l58.5 192l77.5 263l4 16c2 8 3 16 3 24c0 5.33301 -1 9.5 -3 12.5s-5.66699 4.5 -11 4.5c-14.667 0 -28.667 -5.83301 -42 -17.5s-25.166 -26.334 -35.499 -44.001s-18.5 -36 -24.5 -55s-9 -36.167 -9 -51.5c0 -14.667 3 -29 9 -43
c-27.333 0 -46.5 6 -57.5 18s-16.5 27 -16.5 45c0 22.667 7 45.334 21 68.001s31.667 43.5 53 62.5s43.666 34.333 66.999 46s44.666 17.5 63.999 17.5c22 0 40.167 -8.5 54.5 -25.5s26.166 -40.167 35.499 -69.5s17 -62.666 23 -99.999s12 -76.666 18 -117.999l16.5 -118
c4.33301 -32 8.16602 -59.167 11.499 -81.5l9 -58.5l8 -49c6.66699 32 14.334 66.5 23.001 103.5l27 113.5l28.5 113.5c9.66699 37 19.167 71.5 28.5 103.5s18 59.667 26 83s15 40.666 21 51.999c5.33301 10 14.333 21.167 27 33.5s28.667 18.5 48 18.5
c-11.333 -30.667 -24.166 -68.167 -38.499 -112.5s-28.833 -92.333 -43.5 -144s-28.834 -104.334 -42.501 -158.001s-25.834 -105.5 -36.501 -155.5s-19.167 -95.667 -25.5 -137s-9.83301 -75 -10.5 -101c-23.333 0 -42.333 5.83301 -57 17.5s-25.667 33.834 -33 66.501
l-12 62c-5.33301 28 -11.166 60.333 -17.499 97l-19.5 115l-19.5 118l-17.5 104.5c-5.33301 31 -9.66602 55.167 -12.999 72.5l-78.5 -282.5c-21.667 -77 -40.5 -139.667 -56.5 -188s-30.167 -85.833 -42.5 -112.5s-24.5 -45 -36.5 -55s-25 -15 -39 -15zM580.001 756.999
c-18.667 0 -37.834 3.99902 -57.501 11.999l-59 23.5c-19.667 7.66699 -38.834 11.5 -57.501 11.5c-10 0 -20 -0.833008 -30 -2.5s-20.333 -5.16699 -31 -10.5c10 19.333 22.5 33.5 37.5 42.5s32.167 13.5 51.5 13.5c18.667 0 37.834 -4 57.501 -12l60 -24
c20.333 -8 40.833 -12 61.5 -12c16.667 0 33.334 3 50.001 9c-10 -17.333 -21.667 -30.166 -35 -38.499s-29.333 -12.5 -48 -12.5z" />
    <glyph glyph-name="Ograve" unicode="&#xd2;" horiz-adv-x="644" 
d="M232 -87c-38 0 -72.4961 10.1602 -103.496 30.4932s-55.5 49.166 -73.5 86.499s-27 81.666 -27 132.999s8.16699 103.166 24.5 155.499s38.5 102.5 66.5 150.5s60.333 90.833 97 128.5s75.667 67.334 117 89.001s83 32.5 125 32.5c8.66699 0 19 -1.16699 31 -3.5
s23.667 -8.83301 35 -19.5c-4.66699 0.666992 -8.83398 1.16699 -12.501 1.5s-7.5 0.5 -11.5 0.5c-34.667 0 -69.667 -11.167 -105 -33.5s-69 -52.166 -101 -89.499s-60.5 -79.5 -85.5 -126.5s-44.833 -95.833 -59.5 -146.5s-22 -100 -22 -148
c0 -34.667 4.66699 -67.167 14 -97.5s24.166 -54.666 44.499 -72.999s47.166 -27.5 80.499 -27.5c36.667 0 71.167 11.167 103.5 33.5s61.5 52.5 87.5 90.5s48.333 80.167 67 126.5s33.167 94.333 43.5 144s15.5 96.834 15.5 141.501c0 19.333 -1.33301 40 -4 62
s-7.33398 40.833 -14.001 56.5s-15.667 23.5 -27 23.5c-12 0 -24.667 -7.16699 -38 -21.5s-26.5 -32.666 -39.5 -54.999s-24.333 -45.666 -34 -69.999s-16.5 -46.166 -20.5 -65.499c-20.667 4.66699 -35.5 11.834 -44.5 21.501s-13.5 20.834 -13.5 33.501
c0 18 6.33301 38 19 60s28.834 43.167 48.501 63.5s40.5 37.166 62.5 50.499s42 20 60 20c19.333 0 35 -7 47 -21s21.167 -31.833 27.5 -53.5s10.833 -44.667 13.5 -69s4 -47.166 4 -68.499c0 -69.333 -8.33301 -132.833 -25 -190.5s-39 -108.5 -67 -152.5
s-59.333 -81.167 -94 -111.5s-70.334 -53.166 -107.001 -68.499s-71.667 -23 -105 -23zM532.004 747.993c-14.667 18.667 -30.999 36.8301 -48.999 54.4971s-40 36.834 -66 57.501c1.33301 12.667 4.83301 21.834 10.5 27.501s11.834 8.5 18.501 8.5
c10 0 21.167 -4.66699 33.5 -14s24.166 -20.833 35.499 -34.5s20.666 -26.667 27.999 -39s11 -21.5 11 -27.5c0 -4 -1.83301 -9.66699 -5.5 -17s-9.16699 -12.666 -16.5 -15.999z" />
    <glyph glyph-name="Oacute" unicode="&#xd3;" horiz-adv-x="644" 
d="M232 -87c-38 0 -72.4961 10.1602 -103.496 30.4932s-55.5 49.166 -73.5 86.499s-27 81.666 -27 132.999s8.16699 103.166 24.5 155.499s38.5 102.5 66.5 150.5s60.333 90.833 97 128.5s75.667 67.334 117 89.001s83 32.5 125 32.5c8.66699 0 19 -1.16699 31 -3.5
s23.667 -8.83301 35 -19.5c-4.66699 0.666992 -8.83398 1.16699 -12.501 1.5s-7.5 0.5 -11.5 0.5c-34.667 0 -69.667 -11.167 -105 -33.5s-69 -52.166 -101 -89.499s-60.5 -79.5 -85.5 -126.5s-44.833 -95.833 -59.5 -146.5s-22 -100 -22 -148
c0 -34.667 4.66699 -67.167 14 -97.5s24.166 -54.666 44.499 -72.999s47.166 -27.5 80.499 -27.5c36.667 0 71.167 11.167 103.5 33.5s61.5 52.5 87.5 90.5s48.333 80.167 67 126.5s33.167 94.333 43.5 144s15.5 96.834 15.5 141.501c0 19.333 -1.33301 40 -4 62
s-7.33398 40.833 -14.001 56.5s-15.667 23.5 -27 23.5c-12 0 -24.667 -7.16699 -38 -21.5s-26.5 -32.666 -39.5 -54.999s-24.333 -45.666 -34 -69.999s-16.5 -46.166 -20.5 -65.499c-20.667 4.66699 -35.5 11.834 -44.5 21.501s-13.5 20.834 -13.5 33.501
c0 18 6.33301 38 19 60s28.834 43.167 48.501 63.5s40.5 37.166 62.5 50.499s42 20 60 20c19.333 0 35 -7 47 -21s21.167 -31.833 27.5 -53.5s10.833 -44.667 13.5 -69s4 -47.166 4 -68.499c0 -69.333 -8.33301 -132.833 -25 -190.5s-39 -108.5 -67 -152.5
s-59.333 -81.167 -94 -111.5s-70.334 -53.166 -107.001 -68.499s-71.667 -23 -105 -23zM539.004 747.993c-7.33301 3.33301 -12.667 8.5 -16 15.5s-5 12.167 -5 15.5c0 5.33301 3.33301 14.333 10 27s15.334 25.834 26.001 39.501s22 25.5 34 35.5s23 15 33 15
c6.66699 0 12.667 -2.5 18 -7.5s8.66602 -13.833 9.99902 -26.5c-24 -22 -44.833 -41.833 -62.5 -59.5s-33.5 -35.834 -47.5 -54.501z" />
    <glyph glyph-name="Ocircumflex" unicode="&#xd4;" horiz-adv-x="644" 
d="M232 -87c-38 0 -72.4961 10.1602 -103.496 30.4932s-55.5 49.166 -73.5 86.499s-27 81.666 -27 132.999s8.16699 103.166 24.5 155.499s38.5 102.5 66.5 150.5s60.333 90.833 97 128.5s75.667 67.334 117 89.001s83 32.5 125 32.5c8.66699 0 19 -1.16699 31 -3.5
s23.667 -8.83301 35 -19.5c-4.66699 0.666992 -8.83398 1.16699 -12.501 1.5s-7.5 0.5 -11.5 0.5c-34.667 0 -69.667 -11.167 -105 -33.5s-69 -52.166 -101 -89.499s-60.5 -79.5 -85.5 -126.5s-44.833 -95.833 -59.5 -146.5s-22 -100 -22 -148
c0 -34.667 4.66699 -67.167 14 -97.5s24.166 -54.666 44.499 -72.999s47.166 -27.5 80.499 -27.5c36.667 0 71.167 11.167 103.5 33.5s61.5 52.5 87.5 90.5s48.333 80.167 67 126.5s33.167 94.333 43.5 144s15.5 96.834 15.5 141.501c0 19.333 -1.33301 40 -4 62
s-7.33398 40.833 -14.001 56.5s-15.667 23.5 -27 23.5c-12 0 -24.667 -7.16699 -38 -21.5s-26.5 -32.666 -39.5 -54.999s-24.333 -45.666 -34 -69.999s-16.5 -46.166 -20.5 -65.499c-20.667 4.66699 -35.5 11.834 -44.5 21.501s-13.5 20.834 -13.5 33.501
c0 18 6.33301 38 19 60s28.834 43.167 48.501 63.5s40.5 37.166 62.5 50.499s42 20 60 20c19.333 0 35 -7 47 -21s21.167 -31.833 27.5 -53.5s10.833 -44.667 13.5 -69s4 -47.166 4 -68.499c0 -69.333 -8.33301 -132.833 -25 -190.5s-39 -108.5 -67 -152.5
s-59.333 -81.167 -94 -111.5s-70.334 -53.166 -107.001 -68.499s-71.667 -23 -105 -23zM628.004 743.993c-10 18.667 -20.833 34.335 -32.5 47.002s-24.834 25.667 -39.501 39c-19.333 -6.66699 -37.166 -14.334 -53.499 -23.001s-32.833 -19 -49.5 -31
c-4 3.33301 -7 7.66602 -9 12.999s-3 9.33301 -3 12c0 10 4.5 20 13.5 30s20.167 19.333 33.5 28s26.333 15.667 39 21s22.667 8 30 8c8 0 17.333 -3.5 28 -10.5s21 -16.167 31 -27.5s18.333 -23.166 25 -35.499s10 -23.833 10 -34.5
c0 -6.66699 -1.66699 -13.334 -5 -20.001s-9.33301 -12 -18 -16z" />
    </font>
</defs>
</svg>
