<?xml version="1.0" standalone="no"?>
<!DOCTYPE svg PUBLIC "-//W3C//DTD SVG 1.1//EN" "http://www.w3.org/Graphics/SVG/1.1/DTD/svg11.dtd" >
<svg>
<metadata>
Created by FontForge 20090914 at Mon Jul 26 09:37:18 2021
 By www-data
</metadata>
<defs>
<font id="themify" horiz-adv-x="512" >
  <font-face 
    font-family="themify"
    font-weight="400"
    font-stretch="normal"
    units-per-em="512"
    panose-1="0 0 0 0 0 0 0 0 0 0"
    ascent="480"
    descent="-32"
    bbox="-8.99609 -36 521.004 486"
    underline-thickness="0"
    underline-position="0"
    unicode-range="U+0001-U+FFFD"
  />
<missing-glyph horiz-adv-x="0" 
 />
    <glyph glyph-name=".notdef" unicode="&#xfffd;" horiz-adv-x="0" 
 />
    <glyph glyph-name="glyph1" horiz-adv-x="0" 
d="M0 0v0v0z" />
    <glyph glyph-name="glyph1" horiz-adv-x="0" 
d="M0 0v0v0z" />
    <glyph glyph-name="uni0001" horiz-adv-x="0" 
d="M0 0v0v0z" />
    <glyph glyph-name="space" unicode=" " horiz-adv-x="256" 
d="M0 0v0v0z" />
    <glyph glyph-name="uniE600" unicode="&#xe600;" 
d="M512 329h-99l70 -70l-21 -21l-70 70v-99h-31v99l-320 -321l-22 21l321 321h-99v31h99l-70 70l21 21l70 -70v99h31v-99l68 69l22 -22l-69 -68h99v-31v0z" />
    <glyph glyph-name="uniE601" unicode="&#xe601;" 
d="M108 301c-7.33301 0 -13.834 -0.832031 -19.501 -2.49902s-10.5 -4.16699 -14.5 -7.5s-7.16699 -7.5 -9.5 -12.5s-3.5 -10.5 -3.5 -16.5v-65c0 -3.33301 0.333008 -6.5 1 -9.5s1.66699 -5.83301 3 -8.5s2.83301 -5.33398 4.5 -8.00098s3.5 -5 5.5 -7s4.33301 -4 7 -6
s5.33398 -3.5 8.00098 -4.5s5.5 -1.83301 8.5 -2.5s6.16699 -1 9.5 -1h53l171 -171v495l-170 -173h-54v0zM301.999 400.001v-348l-129 128h-65c-2 0 -4 0.5 -6 1.5s-3.83301 2.16699 -5.5 3.5s-3 3 -4 5s-1.5 4.33301 -1.5 7v65c0 0.666992 0.166992 1.5 0.5 2.5s1 2 2 3
s2.66699 1.83301 5 2.5s5.5 1 9.5 1h67l127 129v0zM361.999 149.001v29.9932c4 0 7.83301 0.833008 11.5 2.5s6.83398 3.83398 9.50098 6.50098s4.83398 5.83398 6.50098 9.50098s2.5 7.83398 2.5 12.501c0 4 -0.833008 7.83301 -2.5 11.5
s-3.83398 6.83398 -6.50098 9.50098s-5.83398 4.83398 -9.50098 6.50098s-7.5 2.5 -11.5 2.5v30c8 0 15.667 -1.5 23 -4.5s13.833 -7.33301 19.5 -13s10 -12.167 13 -19.5s4.5 -15 4.5 -23c0 -8.66699 -1.5 -16.667 -4.5 -24s-7.33301 -13.666 -13 -18.999
s-12.167 -9.66602 -19.5 -12.999s-15 -5 -23 -5v0zM482.999 208.994c0 -16.667 -3.16699 -32.166 -9.5 -46.499s-15 -27 -26 -38s-23.833 -19.667 -38.5 -26s-30.334 -9.5 -47.001 -9.5v30c12.667 0 24.5 2.33301 35.5 7s20.5 11.167 28.5 19.5s14.5 18 19.5 29
s7.5 22.5 7.5 34.5c0 12.667 -2.5 24.5 -7.5 35.5s-11.5 20.5 -19.5 28.5s-17.5 14.5 -28.5 19.5s-22.833 7.5 -35.5 7.5v30c16.667 0 32.334 -3.16699 47.001 -9.5s27.5 -15 38.5 -26s19.667 -23.833 26 -38.5s9.5 -30.334 9.5 -47.001v0z" />
    <glyph glyph-name="uniE602" unicode="&#xe602;" 
d="M512 -17c-0.666992 20 -6.00488 39.333 -16.0049 58s-23.667 35.334 -41 50.001s-37.833 27.334 -61.5 38.001s-49.5 18 -77.5 22v43c3.33301 2.66699 6.66602 6.33398 9.99902 11.001s6.33301 9.33398 9 14.001s5 9.66699 7 15s4 10 6 14l7.5 5.5
c2.33301 1.66699 4.5 4 6.5 7l5.5 8.5c1.66699 2.66699 3.16699 6.33398 4.5 11.001s2.33301 9.66699 3 15s0.666992 9.83301 0 13.5s-1.66699 7.5 -3 11.5s-3.33301 6.66699 -6 8v6c0 1.33301 0.166992 3.16602 0.5 5.49902s0.333008 4.16602 0 5.49902
s-0.5 3.33301 -0.5 6c-0.666992 4 -0.833984 8.16699 -0.500977 12.5s0.833008 8 1.5 11l2 9c0.666992 3 1.66699 5.5 3 7.5c0.666992 2.66699 1.33398 5 2.00098 7s1.33398 4.33301 2.00098 7s0.833984 5.16699 0.500977 7.5s-0.833008 5.16602 -1.5 8.49902
c-3.33301 8.66699 -8.16602 16.834 -14.499 24.501s-14.166 13.834 -23.499 18.501s-20 8.5 -32 11.5s-25 4.16699 -39 3.5l-8 1c-10 -1.33301 -18.333 -2.83301 -25 -4.5s-12.167 -4.16699 -16.5 -7.5s-7.83301 -6.83301 -10.5 -10.5s-5 -7.83398 -7 -12.501
c-0.666992 0.666992 -1 0.5 -1 -0.5s-0.166992 -1.5 -0.5 -1.5s-0.666016 -0.333008 -0.999023 -1s-0.5 -0.666992 -0.5 0c-12.667 -2 -22.5 -5.5 -29.5 -10.5s-12 -11.667 -15 -20s-4.66699 -16.833 -5 -25.5s-0.5 -17.667 -0.5 -27v-10v-5v-5v-5
c0 -1.33301 0.333008 -3 1 -5c-3.33301 -2 -6 -5 -8 -9s-3.16699 -8 -3.5 -12s0 -8.83301 1 -14.5s2.5 -10.834 4.5 -15.501c1.33301 -4 2.83301 -7.16699 4.5 -9.5l5.5 -7.5c2 -2.66699 4 -4.83398 6 -6.50098s4.33301 -3.16699 7 -4.5l6.5 -15.5
c2.33301 -5.66699 4.83301 -11 7.5 -16s5.83398 -10 9.50098 -15s7.5 -9.16699 11.5 -12.5v-39c-28.667 -4 -55 -11.333 -79 -22s-44.833 -23.334 -62.5 -38.001s-31.5 -31.5 -41.5 -50.5s-15.333 -38.5 -16 -58.5v-16l512 1v14v1zM31.9951 -2
c2.66699 15.333 9.16602 30.166 19.499 44.499s23.666 26.833 39.999 37.5s35 20 56 28s43.833 13.333 68.5 16l13 2v80l-6 5c-3.33301 1.33301 -6.33301 4 -9 8l-8.5 12.5c-3 4.33301 -5.83301 9.66602 -8.5 15.999s-5 12.5 -7 18.5l-2 9l-9 1
c-0.666992 0.666992 -1.33398 1.16699 -2.00098 1.5s-1.5 1.16602 -2.5 2.49902l-3 4c-1 1.33301 -1.83301 3.33301 -2.5 6c-0.666992 0.666992 -1.16699 1.66699 -1.5 3s-0.666016 2.33301 -0.999023 3s-0.666016 1.66699 -0.999023 3l-0.5 2l16 -3l-3 21
c-0.666992 3.33301 -1 6.16602 -1 8.49902s-0.166992 4.83301 -0.5 7.5s-0.5 5 -0.5 7v7v11c0 10.667 0.166992 19 0.5 25s1.33301 11 3 15s4 6.66699 7 8s7.16699 2.66602 12.5 3.99902c4 -0.666992 7.5 0 10.5 2s5.5 3.83301 7.5 5.5s3.66699 3.83398 5 6.50098
s2.66602 4.33398 3.99902 5.00098c0.666992 3.33301 1.66699 5.83301 3 7.5s3.16602 3.33398 5.49902 5.00098s5.5 2.83398 9.5 3.50098s9 1.66699 15 3l7 -1c6 0.666992 13.167 0.333984 21.5 -0.999023s16.333 -3.16602 24 -5.49902s14.667 -6.16602 21 -11.499
s10.833 -12 13.5 -20v-1.5c0 -0.333008 -0.166992 -1 -0.5 -2s-0.666016 -1.83301 -0.999023 -2.5s-0.5 -1.66699 -0.5 -3c-1.33301 -2 -2.66602 -5 -3.99902 -9s-2.33301 -8.16699 -3 -12.5s-1.16699 -9.33301 -1.5 -15s-0.166016 -11.834 0.500977 -18.501v-5v-5
c0 -2 -0.166992 -3.66699 -0.5 -5s-0.5 -3.33301 -0.5 -6l-3 -23h14v-2c0 -1.33301 -0.166992 -2.5 -0.5 -3.5s-0.666016 -2.33301 -0.999023 -4s-0.833008 -2.83398 -1.5 -3.50098c-0.666992 -2.66699 -1.33398 -4.66699 -2.00098 -6s-1.5 -2.83301 -2.5 -4.5
s-1.66699 -2.66699 -2 -3s-0.5 -0.833008 -0.5 -1.5l-11 1l-3 -11c-2 -6 -4.33301 -12 -7 -18s-5.16699 -11 -7.5 -15s-4.83301 -7.83301 -7.5 -11.5s-5.66699 -6.16699 -9 -7.5l-6 -6v-81l14 -3c24 -2 46.333 -7 67 -15s39 -17.5 55 -28.5s29.167 -23.667 39.5 -38
s16.833 -28.833 19.5 -43.5l-448 -1v1z" />
    <glyph glyph-name="uniE603" unicode="&#xe603;" 
d="M286 150c0 -2.66699 -0.336914 -5.33301 -1.00391 -8s-1.66699 -5 -3 -7s-3 -4 -5 -6s-4 -3.33301 -6 -4v-66l-30 1v64c-2 2 -4 3.66699 -6 5s-3.66699 3.33301 -5 6s-2.33301 5 -3 7s-1 5 -1 9c0 3.33301 0.833008 7 2.5 11s3.83398 7.16699 6.50098 9.5
s5.83398 4.5 9.50098 6.5s7.5 2.66699 11.5 2c4 0.666992 7.83301 0 11.5 -2s6.83398 -4.16699 9.50098 -6.5s4.83398 -5.5 6.50098 -9.5s2.5 -7.66699 2.5 -11v-1zM451.996 225.001l0.00390625 -212.002c0 -6.66699 -1.33301 -12.667 -4 -18s-6 -10.166 -10 -14.499
s-8.66699 -7.5 -14 -9.5s-11.333 -3.33301 -18 -4l-300 1c-6.66699 -0.666992 -12.667 0.333008 -18 3s-10 5.83398 -14 9.50098s-7.33301 8.5 -10 14.5s-4 11.667 -4 17v214c0 6 1.33301 11.833 4 17.5s6 10.334 10 14.001s8.66699 6.83398 14 9.50098s11.333 3.66699 18 3
l270 1v59c0 17.333 -3 33.166 -9 47.499s-14.5 27.166 -25.5 38.499s-23.833 20 -38.5 26s-30.334 9.33301 -47.001 10c-16.667 -0.666992 -32.334 -4 -47.001 -10s-27.5 -14.667 -38.5 -26s-19.5 -24.166 -25.5 -38.499s-9 -30.166 -9 -47.499l-31 1c0 20 4 39.333 12 58
s18.833 34.667 32.5 48s29.667 24.166 48 32.499s37.833 12.166 58.5 11.499c20.667 0.666992 40.167 -3.16602 58.5 -11.499s34.333 -19.166 48 -32.499s24.5 -29.333 32.5 -48s12 -38 12 -58v-61c6 0.666992 11.667 -0.333008 17 -3s10.166 -5.83398 14.499 -9.50098
s7.66602 -8.33398 9.99902 -14.001s3.5 -11.5 3.5 -17.5v-1zM421 224.999c0 2.66699 -0.333008 4.82812 -1 6.49512s-1.66699 3.33398 -3 5.00098s-2.83301 2.66699 -4.5 3s-3.83398 0.833008 -6.50098 1.5l-300 -1c-2.66699 0.666992 -4.83398 0.5 -6.50098 -0.5
s-3.16699 -2 -4.5 -3s-2.33301 -2.66699 -3 -5s-1 -4.16602 -1 -5.49902v-214c0 -1.33301 0.333008 -3.16602 1 -5.49902s1.66699 -4 3 -5s2.83301 -2 4.5 -3s3.83398 -1.16699 6.50098 -0.5l300 -1c2.66699 0.666992 4.83398 1.16699 6.50098 1.5s3.16699 1.33301 4.5 3
s2.33301 3.33398 3 5.00098s1 3.83398 1 6.50098v212v0z" />
    <glyph glyph-name="uniE604" unicode="&#xe604;" 
d="M64 325l41.9951 77.9971c8.66699 12.667 18.834 22.834 30.501 30.501s24.167 12.834 37.5 15.501s26.833 2.83398 40.5 0.500977s26.5 -7.5 38.5 -15.5l-16 -25c-8.66699 6 -18 9.83301 -28 11.5s-19.667 1.5 -29 -0.5s-18.166 -5.66699 -26.499 -11
s-15.5 -12.333 -21.5 -21l-42 -78c-6 -9.33301 -9.83301 -19 -11.5 -29s-1.66699 -19.667 0 -29s5.33398 -18.166 11.001 -26.499s12.834 -15.5 21.501 -21.5c8.66699 -5.33301 17.334 -9 26.001 -11s17.334 -2.33301 26.001 -1s17 4.33301 25 9s15.667 11.334 23 20.001
l23 -20c-6 -6.66699 -12.167 -12.5 -18.5 -17.5s-12.833 -9.16699 -19.5 -12.5s-13.667 -5.83301 -21 -7.5s-14.666 -2.5 -21.999 -2.5c-4.66699 0 -9.5 0.333008 -14.5 1s-10 1.66699 -15 3s-10 3.16602 -15 5.49902s-9.83301 5.16602 -14.5 8.49902
c-12 8 -21.833 17.833 -29.5 29.5s-12.834 24.167 -15.501 37.5s-2.83398 26.833 -0.500977 40.5s7.5 26.5 15.5 38.5v0zM121.995 237.997l-4.00195 -3.99805l21 -21l4 4c7.33301 7.33301 15.666 12.833 24.999 16.5s18.833 5.5 28.5 5.5s19 -1.83301 28 -5.5
s17.167 -9.16699 24.5 -16.5s12.833 -15.666 16.5 -24.999s5.5 -18.833 5.5 -28.5s-1.83301 -19.167 -5.5 -28.5s-9.16699 -17.666 -16.5 -24.999l-91 -91c-7.33301 -7.33301 -15.5 -12.833 -24.5 -16.5s-18.333 -5.5 -28 -5.5s-19.167 1.83301 -28.5 5.5
s-17.666 9.16699 -24.999 16.5s-12.833 15.666 -16.5 24.999s-5.5 18.833 -5.5 28.5s1.83301 19.167 5.5 28.5s9.16699 17.666 16.5 24.999l32 32l-22 21l-31 -32c-10.667 -10.667 -18.5 -22.334 -23.5 -35.001s-7.5 -25.834 -7.5 -39.501s2.5 -27 7.5 -40
s12.833 -24.5 23.5 -34.5c4.66699 -5.33301 10 -9.83301 16 -13.5s12.167 -6.83398 18.5 -9.50098s12.833 -4.66699 19.5 -6s13.334 -2 20.001 -2s13.334 0.666992 20.001 2s13.167 3.33301 19.5 6s12.5 5.83398 18.5 9.50098s11.667 8.16699 17 13.5l91 91
c10 10 17.667 21.5 23 34.5s8 26.333 8 40s-2.66699 27 -8 40s-13 24.5 -23 34.5c-10.667 10 -22.5 17.667 -35.5 23s-26.167 8 -39.5 8s-26.5 -2.66699 -39.5 -8s-24.5 -13 -34.5 -23v0zM329.993 268.999h123v30h-123v-30v0zM315.993 228.999l59 -34l15 26l-59 34l-15 -26
v0zM323.993 444.999l-48 -82l26 -15l48 82l-26 15v0zM477.993 397.999l-15 26l-151 -87l16 -26l150 87v0z" />
    <glyph glyph-name="uniE605" unicode="&#xe605;" 
d="M329 419c-1.33301 6.66699 -3.83496 12.834 -7.50195 18.501s-8 10.5 -13 14.5s-10.667 7.16699 -17 9.5s-13.166 3.5 -20.499 3.5c-6.66699 0 -13.167 -1.16699 -19.5 -3.5s-12.166 -5.5 -17.499 -9.5s-9.83301 -8.83301 -13.5 -14.5s-6.16699 -11.834 -7.5 -18.501
h-108v-30h332v30h-108v0zM270.998 435c2.66699 0 5.33203 -0.500977 7.99902 -1.50098s5.16699 -2.16699 7.5 -3.5s4.33301 -2.83301 6 -4.5s3.16699 -3.83398 4.5 -6.50098h-52c1.33301 2.66699 3 4.83398 5 6.50098l6 5c2 1.66699 4.33301 2.83398 7 3.50098
s5.33398 1 8.00098 1v0zM391.996 359.999h29.9971v-317c0 -6.66699 -1.16699 -12.667 -3.5 -18s-5.66602 -10 -9.99902 -14s-9.16602 -7.16699 -14.499 -9.5s-11.333 -3.5 -18 -3.5h-210c-6.66699 0 -12.667 1.16699 -18 3.5s-10 5.5 -14 9.5s-7.33301 8.66699 -10 14
s-4 11.333 -4 18v317h31v-317c0 -2 0.333008 -4 1 -6s1.66699 -3.66699 3 -5s3 -2.33301 5 -3s4 -1 6 -1h210c2.66699 0 4.83398 0.333008 6.50098 1s3.16699 1.66699 4.5 3s2.5 3 3.5 5s1.5 4 1.5 6v317v0zM240.993 328.999v-241h-30v241h30v0zM330.993 328.999v-241h-30
v241h30v0z" />
    <glyph glyph-name="uniE606" unicode="&#xe606;" 
d="M346 175c22.667 0 44.165 3.99512 64.498 11.9951s37.833 19 52.5 33s26.5 30.167 35.5 48.5s13.167 38.166 12.5 59.499c0.666992 20.667 -3.5 40.334 -12.5 59.001s-20.833 34.834 -35.5 48.501s-32.167 24.5 -52.5 32.5s-41.833 12 -64.5 12
c-14.667 0 -28.667 -1.66699 -42 -5s-26.333 -8.16602 -39 -14.499s-24 -14 -34 -23s-19 -19.167 -27 -30.5c-4.66699 2.66699 -10 5.16699 -16 7.5s-11.667 4.33301 -17 6s-11.166 2.83398 -17.499 3.50098s-12.166 1 -17.499 1c-19.333 0 -37.166 -3.33301 -53.499 -10
s-30.833 -15.5 -43.5 -26.5s-22.334 -24.167 -29.001 -39.5s-10.334 -31.666 -11.001 -48.999c0.666992 -17.333 4.33398 -33.5 11.001 -48.5s16.334 -28.167 29.001 -39.5s27.167 -20.333 43.5 -27s34.166 -10 53.499 -10h3.5c1.66699 0 3 0.166992 4 0.5s2.5 0.5 4.5 0.5
h4l16 -11.5c5.33301 -3.66699 11.333 -6.66699 18 -9s13.167 -4 19.5 -5s13.166 -1.5 20.499 -1.5c6.66699 0 13.834 0.666992 21.501 2s14.667 3.33301 21 6s12.5 6 18.5 10s11.333 8.66699 16 14c4 -0.666992 7.66699 -1.5 11 -2.5s7 -1.66699 11 -2
s7.5 -0.666016 10.5 -0.999023s6.5 -0.5 10.5 -0.5v0zM291.998 214.995l-4.99512 -8.00098c-4 -4 -8.16699 -7.83301 -12.5 -11.5s-9.33301 -6.66699 -15 -9s-11.167 -4.16602 -16.5 -5.49902s-11.333 -2 -18 -2c-4.66699 0 -9.83398 0.5 -15.501 1.5
s-10.834 2.5 -15.501 4.5s-9.33398 4.5 -14.001 7.5s-8.33398 6.5 -11.001 10.5l-7 6l-7 -2c-2 0 -3.66699 -0.166992 -5 -0.5s-3 -0.5 -5 -0.5s-3.66699 -0.166992 -5 -0.5s-3 -0.5 -5 -0.5c-14 0 -27.667 2.5 -41 7.5s-24.5 11.833 -33.5 20.5s-16.5 18.834 -22.5 30.501
s-8.66699 23.834 -8 36.501c-0.666992 13.333 2 25.666 8 36.999s13.5 21.333 22.5 30s20.167 15.5 33.5 20.5s27 7.5 41 7.5c6 0 11.833 -0.5 17.5 -1.5s11.5 -2.33301 17.5 -4s11.333 -3.83398 16 -6.50098s9.66699 -6 15 -10l14 -10l9 16
c4.66699 10.667 11.5 20.334 20.5 29.001s18.667 16.167 29 22.5s21.833 11.166 34.5 14.499s25 5 37 5c19.333 0 37.166 -3.16699 53.499 -9.5s30.833 -15.166 43.5 -26.499s22.334 -24.333 29.001 -39s10.334 -30.334 11.001 -47.001
c-0.666992 -17.333 -4.33398 -33.333 -11.001 -48s-16.334 -27.5 -29.001 -38.5s-27.167 -19.833 -43.5 -26.5s-34.166 -10 -53.499 -10c-2.66699 0 -5.83398 0.166992 -9.50098 0.5s-7.16699 0.833008 -10.5 1.5s-7 1.5 -11 2.5s-7.66699 1.83301 -11 2.5l-11 3v0z
M346.003 163.994c-8.66699 0 -16.5 -1.66699 -23.5 -5s-13.333 -7.66602 -19 -12.999s-10 -11.666 -13 -18.999s-4.83301 -15 -5.5 -23c0.666992 -8.66699 2.5 -16.667 5.5 -24s7.33301 -13.666 13 -18.999s12 -9.66602 19 -12.999s14.833 -5 23.5 -5
c8 0 15.833 1.66699 23.5 5s14 7.66602 19 12.999s9.33301 11.666 13 18.999s5.16699 15.333 4.5 24c0.666992 8 -0.833008 15.667 -4.5 23s-8 13.666 -13 18.999s-11.333 9.66602 -19 12.999s-15.5 5 -23.5 5v0zM345.003 72.9941c-3.33301 0 -7 0.833008 -11 2.5
s-7.16699 3.83398 -9.5 6.50098s-4.5 5.83398 -6.5 9.50098s-2.66699 7.83398 -2 12.501c-0.666992 4 0 7.83301 2 11.5s4.16699 6.83398 6.5 9.50098s5.5 4.83398 9.5 6.50098s7.66699 2.5 11 2.5c5.33301 0 9.66602 -0.833008 12.999 -2.5s6.5 -3.83398 9.5 -6.50098
s5 -5.83398 6 -9.50098s1.83301 -7.5 2.5 -11.5c-0.666992 -4.66699 -1.5 -8.83398 -2.5 -12.501s-3 -6.83398 -6 -9.50098s-6.16699 -4.83398 -9.5 -6.50098s-7.66602 -2.5 -12.999 -2.5v0zM459.003 57.9941c-5.33301 0 -10.166 -1 -14.499 -3s-8.33301 -4.66699 -12 -8
s-6.33398 -7.33301 -8.00098 -12s-2.83398 -9.33398 -3.50098 -14.001c0.666992 -5.33301 1.83398 -10.333 3.50098 -15s4.33398 -8.66699 8.00098 -12s7.66699 -6 12 -8s9.16602 -3 14.499 -3c4.66699 0 9.5 1 14.5 3s9 4.66699 12 8s5.66699 7.33301 8 12
s3.16602 9.66699 2.49902 15c0.666992 4.66699 -0.166016 9.33398 -2.49902 14.001s-5 8.66699 -8 12s-7 6 -12 8s-9.83301 3 -14.5 3v0zM451.003 20.9941c0.666992 0.666992 1.00195 1.5 1.00195 2.5s0.5 1.83301 1.5 2.5s1.83301 1.16699 2.5 1.5s1.66699 0.5 3 0.5
c0.666992 0 1.66699 -0.166992 3 -0.5s2.16602 -0.833008 2.49902 -1.5s0.833008 -1.5 1.5 -2.5s0.666992 -1.83301 0 -2.5c0.666992 -2 0 -3.66699 -2 -5s-3.83301 -2 -5.5 -2s-3.33398 0.666992 -5.00098 2s-2.16699 3 -1.5 5h-1z" />
    <glyph glyph-name="uniE607" unicode="&#xe607;" 
d="M513 239h-62c-2 24 -8 46.5 -18 67.5s-23 39.667 -39 56s-34.667 29.333 -56 39s-44 15.5 -68 17.5v62h-30v-62c-24 -2 -46.5 -8 -67.5 -18s-39.333 -23 -55 -39s-28.5 -34.5 -38.5 -55.5s-16 -43.5 -18 -67.5h-62v-30h62c2 -24 8 -46.5 18 -67.5
s22.833 -39.5 38.5 -55.5s34 -29 55 -39s43.5 -16 67.5 -18v-61h30v61c24 2 46.667 7.83301 68 17.5s40 22.667 56 39s29 35 39 56s16 43.5 18 67.5h62v30v0zM270 59v60h-30v-60c-20 2 -38.5 7.16699 -55.5 15.5s-32.167 19.166 -45.5 32.499s-24.166 28.666 -32.499 45.999
s-13.5 36 -15.5 56h59v30h-59c2 20 7.16699 38.667 15.5 56s19.166 32.666 32.499 45.999s28.5 24.166 45.5 32.499s35.5 13.5 55.5 15.5v-58h30v58c20 -2 38.833 -7.16699 56.5 -15.5s33.167 -19.166 46.5 -32.499s24.166 -28.666 32.499 -45.999s13.5 -36 15.5 -56h-59
v-30h59c-2 -20 -7.16699 -38.667 -15.5 -56s-19.166 -32.666 -32.499 -45.999s-28.833 -24.166 -46.5 -32.499s-36.5 -13.5 -56.5 -15.5v0z" />
    <glyph glyph-name="uniE608" unicode="&#xe608;" 
d="M270 450l-119 -87l-1 -366l121 84l121 -84l1 366l-123 87v0zM363 55l-93 63l-89 -63l-1 293l91 65l91 -66l1 -292v0zM218 299c0.666992 -7.33301 2.33398 -14.166 5.00098 -20.499s6.5 -11.833 11.5 -16.5s10.5 -8.33398 16.5 -11.001s13 -4 21 -4
c6.66699 0 13.334 1.33301 20.001 4s12.334 6.33398 17.001 11.001s8.5 10.167 11.5 16.5s4.16699 13.166 3.5 20.499c0.666992 7.33301 -0.5 14.166 -3.5 20.499s-6.83301 12 -11.5 17s-10.334 8.83301 -17.001 11.5s-13.334 4 -20.001 4c-8 0 -15 -1.33301 -21 -4
s-11.5 -6.5 -16.5 -11.5s-8.83301 -10.667 -11.5 -17s-4.33398 -13.166 -5.00098 -20.499v0zM272 322c2.66699 0 5.5 -0.666992 8.5 -2s5.33301 -3 7 -5s3.33398 -4.33301 5.00098 -7s2.16699 -5.66699 1.5 -9c0.666992 -2.66699 0.166992 -5.5 -1.5 -8.5
s-3.33398 -5.5 -5.00098 -7.5s-4 -3.5 -7 -4.5s-5.83301 -1.5 -8.5 -1.5c-3.33301 0 -6.33301 0.5 -9 1.5s-5.16699 2.5 -7.5 4.5s-3.83301 4.5 -4.5 7.5s-1.33398 5.83301 -2.00098 8.5c0.666992 3.33301 1.33398 6.33301 2.00098 9s2.16699 5 4.5 7s4.83301 3.66699 7.5 5
s5.66699 2 9 2v0z" />
    <glyph glyph-name="uniE609" unicode="&#xe609;" 
d="M279 43c0 -3.33301 -0.666992 -6.33301 -2 -9s-3 -5.16699 -5 -7.5s-4.33301 -3.83301 -7 -4.5s-5.66699 -1.33398 -9 -2.00098c-3.33301 0.666992 -6.33301 1.33398 -9 2.00098s-5 2.16699 -7 4.5s-3.66699 4.83301 -5 7.5s-2 5.66699 -2 9
c0 2.66699 0.666992 5.5 2 8.5s3 5.33301 5 7s4.33301 3.33398 7 5.00098s5.66699 2.16699 9 1.5c3.33301 0.666992 6.33301 0.166992 9 -1.5s5 -3.33398 7 -5.00098s3.66699 -4 5 -7s2 -5.83301 2 -8.5v0zM482 434v-421.004c0 -6.66699 -1.16699 -12.667 -3.5 -18
s-5.33301 -10.166 -9 -14.499s-8 -7.5 -13 -9.5s-10.5 -3.33301 -16.5 -4l-368 1c-6 -0.666992 -11.5 0.333008 -16.5 3s-9.33301 5.83398 -13 9.50098s-6.66699 8.5 -9 14.5s-3.5 11.667 -3.5 17v423c0 5.33301 1.16699 11 3.5 17s5.33301 10.833 9 14.5
s8 6.83398 13 9.50098s10.5 3.66699 16.5 3l368 1c6 -0.666992 11.5 -2 16.5 -4s9.33301 -5.16699 13 -9.5s6.66699 -9.16602 9 -14.499s3.5 -11.333 3.5 -18v0zM452 434.996c0 1.33301 -0.333008 3.00586 -1 5.00586s-1.5 3.5 -2.5 4.5s-2.33301 2.16699 -4 3.5
s-3.16699 1.66602 -4.5 0.999023l-368 1c-1.33301 -0.666992 -2.83301 -1.33398 -4.5 -2.00098s-3 -1.83398 -4 -3.50098s-1.83301 -3.16699 -2.5 -4.5s-1 -3.33301 -1 -6v-421c0 -2.66699 0.333008 -4.66699 1 -6s1.5 -2.83301 2.5 -4.5s2.33301 -2.83398 4 -3.50098
s3.16699 -1.33398 4.5 -2.00098l368 1c1.33301 -0.666992 2.83301 -0.333984 4.5 0.999023s3 2.5 4 3.5s1.83301 2.5 2.5 4.5s1 3.66699 1 5v423v0zM90 419.002l332 1v-333l-332 1v331v0zM120 119.002l272 -1v272l-272 -1v-270v0z" />
    <glyph glyph-name="uniE60A" unicode="&#xe60a;" 
d="M501 269h-187l-58 178l-58 -178h-187l151 -111l-58 -178l152 110l152 -110l-58 178l151 111v0zM350 59l-94 69l-94 -69l36 111l-95 69h117l36 111l36 -111h117l-95 -69l36 -111v0z" />
    <glyph glyph-name="uniE60B" unicode="&#xe60b;" 
d="M196 390c-10.667 0 -21.166 -1.5 -31.499 -4.5s-20 -7.16699 -29 -12.5s-17.167 -11.666 -24.5 -18.999s-13.666 -15.666 -18.999 -24.999h-32v-316c0 -6 1.16699 -11.833 3.5 -17.5s5.66602 -10.5 9.99902 -14.5s9.16602 -7.16699 14.499 -9.5s11 -3.5 17 -3.5h181
c6 0 11.833 1.16699 17.5 3.5s10.5 5.5 14.5 9.5s7.16699 8.83301 9.5 14.5s3.5 11.5 3.5 17.5v316h-31c-5.33301 9.33301 -11.833 17.666 -19.5 24.999s-16 13.666 -25 18.999s-18.5 9.5 -28.5 12.5s-20.333 4.5 -31 4.5v0zM196.001 360c6 0 12.167 -0.833008 18.5 -2.5
s12.333 -3.66699 18 -6s11.167 -5.5 16.5 -9.5s10 -8.33301 14 -13h-134c4 4.66699 8.5 9 13.5 13s10.333 7.16699 16 9.5s11.667 4.33301 18 6s12.833 2.5 19.5 2.5v0zM301.001 13c0 -2 -0.333008 -3.83301 -1 -5.5s-1.66699 -3.33398 -3 -5.00098s-3 -2.83398 -5 -3.50098
s-4 -1 -6 -1h-181c-2 0 -3.83301 0.333008 -5.5 1s-3.16699 1.83398 -4.5 3.50098s-2.5 3.33398 -3.5 5.00098s-1.5 3.5 -1.5 5.5v286h211v-286v0zM241.001 480h-90v-90h90v90v0zM211.001 420h-30v30h30v-30v0zM360.001 434l94 -15l-5 -30l-180 30l2 15l-2 16l180 30l5 -30
l-94 -16v0z" />
    <glyph glyph-name="uniE60C" unicode="&#xe60c;" 
d="M346 360c0 12.667 -2.33496 24.3359 -7.00195 35.0029s-11 20.334 -19 29.001s-17.5 15.167 -28.5 19.5s-22.833 6.83301 -35.5 7.5c-12.667 -0.666992 -24.5 -3.16699 -35.5 -7.5s-20.5 -10.833 -28.5 -19.5s-14.333 -18.334 -19 -29.001s-7 -22.334 -7 -35.001
c0 -10.667 1.83301 -21.167 5.5 -31.5s8.83398 -19.333 15.501 -27s14.667 -14.334 24 -20.001s19.333 -8.83398 30 -9.50098v-244l-60 1v-31l150 1v29l-60 1v242c10.667 2 20.667 5.5 30 10.5s17.333 11.667 24 20s11.834 17.333 15.501 27s5.5 20.5 5.5 32.5v-1z
M195.998 360.002c0 8.66699 1.5 16.5 4.5 23.5s7.33301 13.333 13 19s12.167 10 19.5 13s15 4.83301 23 5.5c8 -0.666992 15.667 -2.5 23 -5.5s13.833 -7.33301 19.5 -13s10 -12 13 -19s4.5 -14.833 4.5 -23.5c0 -8 -1.5 -15.833 -4.5 -23.5s-7.33301 -14 -13 -19
s-12.167 -9.33301 -19.5 -13s-15 -5.16699 -23 -4.5c-8 -0.666992 -15.667 0.833008 -23 4.5s-13.833 8 -19.5 13s-10 11.333 -13 19s-4.5 15.5 -4.5 23.5v0zM135.998 415.002c-3.33301 -4 -6 -7.66699 -8 -11s-3.66699 -7.16602 -5 -11.499s-2.5 -8.5 -3.5 -12.5
s-1.5 -8.33301 -1.5 -13c0 -4 0.5 -8.16699 1.5 -12.5s2.16699 -8.33301 3.5 -12s3 -7.66699 5 -12s4.66699 -7.83301 8 -10.5l-24 -20c-4 5.33301 -7.5 10.5 -10.5 15.5s-5.5 10.5 -7.5 16.5s-3.5 11.667 -4.5 17s-1.5 11.666 -1.5 18.999c0 5.33301 0.5 11 1.5 17
s2.5 11.667 4.5 17s4.5 10.833 7.5 16.5s6.5 10.5 10.5 14.5l24 -18v0zM59.998 367.002c0 -8 0.833008 -15.999 2.5 -23.999s3.83398 -15.667 6.50098 -23s6.16699 -14.5 10.5 -21.5s9.16602 -13.5 14.499 -19.5l-23 -21c-6.66699 8.66699 -12.5 17 -17.5 25
s-9.16699 16.833 -12.5 26.5s-6 19.167 -8 28.5s-3 19.333 -3 30c0 8.66699 1 18 3 28s4.66699 19.5 8 28.5s7.5 17.833 12.5 26.5s10.833 16.667 17.5 24l23 -19c-5.33301 -6.66699 -10.166 -13.334 -14.499 -20.001s-7.83301 -14 -10.5 -22s-4.83398 -15.667 -6.50098 -23
s-2.5 -15.333 -2.5 -24v0zM423.998 368.003c0 -7.33301 -0.5 -13.667 -1.5 -19s-2.5 -11 -4.5 -17s-4.5 -11.5 -7.5 -16.5s-6.5 -10.167 -10.5 -15.5l-24 20c3.33301 2.66699 6 6.16699 8 10.5s3.66699 8.33301 5 12s2.5 7.66699 3.5 12s1.5 8.5 1.5 12.5
c0 4.66699 -0.5 9 -1.5 13s-2.16699 8 -3.5 12s-3 7.83301 -5 11.5s-4.66699 7.5 -8 11.5l24 18c4 -4 7.5 -8.83301 10.5 -14.5s5.5 -11.167 7.5 -16.5s3.5 -11 4.5 -17s1.5 -11.667 1.5 -17v0zM481.998 367.002c0 -9.33301 -1.00098 -18.9971 -3.00098 -28.9971
s-4.66699 -19.5 -8 -28.5s-7.5 -17.833 -12.5 -26.5s-10.833 -16.667 -17.5 -24l-23 19l14.5 20.5c4.33301 6.33301 7.83301 13.5 10.5 21.5s4.83398 15.667 6.50098 23s2.5 15.666 2.5 24.999c0 7.33301 -0.833008 15 -2.5 23s-3.83398 15.667 -6.50098 23
s-6.16699 14.666 -10.5 21.999s-9.16602 13.666 -14.499 18.999l23 21c6.66699 -8.66699 12.5 -17 17.5 -25s9.16699 -16.833 12.5 -26.5s6 -19.167 8 -28.5s3 -19 3 -29v0z" />
    <glyph glyph-name="uniE60D" unicode="&#xe60d;" 
d="M83 104c-7.33301 0 -14.166 -1.5 -20.499 -4.5s-12 -6.83301 -17 -11.5s-8.83301 -10.167 -11.5 -16.5s-4 -13.166 -4 -20.499s1.33301 -14.166 4 -20.499s6.5 -12 11.5 -17s10.667 -8.83301 17 -11.5s13.166 -4 20.499 -4s14.166 1.33301 20.499 4s11.833 6.5 16.5 11.5
s8.5 10.667 11.5 17s4.5 13.166 4.5 20.499s-1.5 14.166 -4.5 20.499s-6.83301 11.833 -11.5 16.5s-10.167 8.5 -16.5 11.5s-13.166 4.5 -20.499 4.5v0zM83 28c-3.33301 0 -6.33301 0.666992 -9 2s-5 3 -7 5s-3.66699 4.33301 -5 7s-2 5.66699 -2 9
c0 2.66699 0.666992 5.5 2 8.5s3 5.5 5 7.5s4.33301 3.5 7 4.5s5.66699 1.5 9 1.5c2.66699 0 5.5 -0.5 8.5 -1.5s5.5 -2.5 7.5 -4.5s3.5 -4.5 4.5 -7.5s1.5 -5.83301 1.5 -8.5c0 -3.33301 -0.5 -6.33301 -1.5 -9s-2.5 -5 -4.5 -7s-4.5 -3.66699 -7.5 -5s-5.83301 -2 -8.5 -2
v0zM339 104c-7.33301 0 -14.166 -1.5 -20.499 -4.5s-12 -6.83301 -17 -11.5s-8.83301 -10.167 -11.5 -16.5s-4 -13.166 -4 -20.499s1.33301 -14.166 4 -20.499s6.5 -12 11.5 -17s10.667 -8.83301 17 -11.5s13.166 -4 20.499 -4s14.166 1.33301 20.499 4
s11.833 6.5 16.5 11.5s8.5 10.667 11.5 17s4.5 13.166 4.5 20.499s-1.5 14.166 -4.5 20.499s-6.83301 11.833 -11.5 16.5s-10.167 8.5 -16.5 11.5s-13.166 4.5 -20.499 4.5v0zM339 28c-3.33301 0 -6.33301 0.666992 -9 2s-5 3 -7 5s-3.66699 4.33301 -5 7s-2 5.66699 -2 9
c0 2.66699 0.666992 5.5 2 8.5s3 5.5 5 7.5s4.33301 3.5 7 4.5s5.66699 1.5 9 1.5c2.66699 0 5.5 -0.5 8.5 -1.5s5.5 -2.5 7.5 -4.5s3.5 -4.5 4.5 -7.5s1.5 -5.83301 1.5 -8.5c0 -3.33301 -0.5 -6.33301 -1.5 -9s-2.5 -5 -4.5 -7s-4.5 -3.66699 -7.5 -5s-5.83301 -2 -8.5 -2
v0zM403 420l-9 -60h-396l33 -242h359l31 224l8 48h83v30h-109v0zM389 329l-4 -30h-348l-5 30h357v0zM58 148l-17 121h340l-17 -121h-306v0z" />
    <glyph glyph-name="uniE60E" unicode="&#xe60e;" 
d="M83 104c-7.33301 0 -14.166 -1.5 -20.499 -4.5s-12 -6.83301 -17 -11.5s-8.83301 -10.167 -11.5 -16.5s-4 -13.166 -4 -20.499s1.33301 -14.166 4 -20.499s6.5 -12 11.5 -17s10.667 -8.83301 17 -11.5s13.166 -4 20.499 -4s14.166 1.33301 20.499 4s11.833 6.5 16.5 11.5
s8.5 10.667 11.5 17s4.5 13.166 4.5 20.499s-1.5 14.166 -4.5 20.499s-6.83301 11.833 -11.5 16.5s-10.167 8.5 -16.5 11.5s-13.166 4.5 -20.499 4.5v0zM83 28c-3.33301 0 -6.33301 0.666992 -9 2s-5 3 -7 5s-3.66699 4.33301 -5 7s-2 5.66699 -2 9
c0 2.66699 0.666992 5.5 2 8.5s3 5.5 5 7.5s4.33301 3.5 7 4.5s5.66699 1.5 9 1.5c2.66699 0 5.5 -0.5 8.5 -1.5s5.5 -2.5 7.5 -4.5s3.5 -4.5 4.5 -7.5s1.5 -5.83301 1.5 -8.5c0 -3.33301 -0.5 -6.33301 -1.5 -9s-2.5 -5 -4.5 -7s-4.5 -3.66699 -7.5 -5s-5.83301 -2 -8.5 -2
v0zM339 104c-7.33301 0 -14.166 -1.5 -20.499 -4.5s-12 -6.83301 -17 -11.5s-8.83301 -10.167 -11.5 -16.5s-4 -13.166 -4 -20.499s1.33301 -14.166 4 -20.499s6.5 -12 11.5 -17s10.667 -8.83301 17 -11.5s13.166 -4 20.499 -4s14.166 1.33301 20.499 4
s11.833 6.5 16.5 11.5s8.5 10.667 11.5 17s4.5 13.166 4.5 20.499s-1.5 14.166 -4.5 20.499s-6.83301 11.833 -11.5 16.5s-10.167 8.5 -16.5 11.5s-13.166 4.5 -20.499 4.5v0zM339 28c-3.33301 0 -6.33301 0.666992 -9 2s-5 3 -7 5s-3.66699 4.33301 -5 7s-2 5.66699 -2 9
c0 2.66699 0.666992 5.5 2 8.5s3 5.5 5 7.5s4.33301 3.5 7 4.5s5.66699 1.5 9 1.5c2.66699 0 5.5 -0.5 8.5 -1.5s5.5 -2.5 7.5 -4.5s3.5 -4.5 4.5 -7.5s1.5 -5.83301 1.5 -8.5c0 -3.33301 -0.5 -6.33301 -1.5 -9s-2.5 -5 -4.5 -7s-4.5 -3.66699 -7.5 -5s-5.83301 -2 -8.5 -2
v0zM403 420l-9 -60h-396l33 -242h359l32 225l7 47h83v30h-109v0zM364 148h-306l-26 181h357l-25 -181v0zM331 179h-241v119h30v-89h181v89h30v-119v0zM120 391h-30v59h241v-58h-30v28h-181v-29v0z" />
    <glyph glyph-name="uniE60F" unicode="&#xe60f;" 
d="M256 300c-10.667 0 -20.5 -2 -29.5 -6s-16.833 -9.33301 -23.5 -16s-12 -14.667 -16 -24s-6 -19 -6 -29c0 -10.667 2 -20.5 6 -29.5s9.33301 -17 16 -24s14.5 -12.333 23.5 -16s18.833 -5.5 29.5 -5.5s20.5 1.83301 29.5 5.5s16.833 9 23.5 16s12 15 16 24
s6 18.833 6 29.5c0 10 -2 19.667 -6 29s-9.33301 17.333 -16 24s-14.5 12 -23.5 16s-18.833 6 -29.5 6v0zM256 180c-6 0 -11.833 1.16699 -17.5 3.5s-10.5 5.5 -14.5 9.5s-7.16699 8.83301 -9.5 14.5s-3.5 11.5 -3.5 17.5s1.16699 11.833 3.5 17.5s5.5 10.5 9.5 14.5
s8.83301 7.16699 14.5 9.5s11.5 3.5 17.5 3.5s11.833 -1.16699 17.5 -3.5s10.5 -5.5 14.5 -9.5s7.16699 -8.83301 9.5 -14.5s3.5 -11.5 3.5 -17.5s-1.16699 -11.833 -3.5 -17.5s-5.5 -10.5 -9.5 -14.5s-8.83301 -7.16699 -14.5 -9.5s-11.5 -3.5 -17.5 -3.5v0zM510 196
c0.666992 2 1.00098 4.16699 1.00098 6.5s0.166992 4.83301 0.5 7.5s0.5 5.16699 0.5 7.5v7.5v7.5c0 2.33301 -0.166992 4.66602 -0.5 6.99902s-0.5 4.83301 -0.5 7.5s-0.333008 5 -1 7l-78 24c-0.666992 2.66699 -1.5 5.5 -2.5 8.5s-2.16699 6 -3.5 9
s-2.66602 5.83301 -3.99902 8.5l-4 8l38 72c-2.66699 4 -5.66699 7.83301 -9 11.5l-10 10.5l-10.5 10c-3.66699 3.33301 -7.5 6.33301 -11.5 9l-72 -38l-8 4c-2.66699 1.33301 -5.5 2.66602 -8.5 3.99902s-6 2.5 -9 3.5s-5.83301 1.83301 -8.5 2.5l-24 78
c-2 0 -4.33301 0.166992 -7 0.5s-5.16699 0.666016 -7.5 0.999023s-4.66602 0.5 -6.99902 0.5h-7.5h-7.5c-2.33301 0 -4.66602 -0.166992 -6.99902 -0.5s-4.83301 -0.666016 -7.5 -0.999023s-5 -0.5 -7 -0.5l-24 -78c-2.66699 -0.666992 -5.5 -1.5 -8.5 -2.5
s-6 -2.16699 -9 -3.5s-5.83301 -2.66602 -8.5 -3.99902l-8 -4l-72 38c-4 -2.66699 -7.83301 -5.66699 -11.5 -9l-10.5 -10l-10 -10.5c-3.33301 -3.66699 -6.33301 -7.5 -9 -11.5l38 -72l-4 -8c-1.33301 -2.66699 -2.66602 -5.5 -3.99902 -8.5s-2.5 -6 -3.5 -9
s-1.83301 -5.83301 -2.5 -8.5l-78 -24c-0.666992 -2 -1 -4.33301 -1 -7s-0.166992 -5.16699 -0.5 -7.5s-0.5 -4.66602 -0.5 -6.99902v-7.5v-7.5c0 -2.33301 0.166992 -4.83301 0.5 -7.5s0.5 -5.16699 0.5 -7.5s0.333008 -4.5 1 -6.5l78 -24
c0.666992 -2.66699 1.5 -5.5 2.5 -8.5s2.16699 -6 3.5 -9s2.66602 -5.83301 3.99902 -8.5s2.66602 -5.66699 3.99902 -9l-38 -71c2.66699 -4 5.66699 -7.83301 9 -11.5l10 -10.5l10.5 -10l11.5 -10l72 39l8 -4c2.66699 -1.33301 5.5 -2.66602 8.5 -3.99902s6 -2.5 9 -3.5
s5.83301 -1.83301 8.5 -2.5l24 -78c2 -0.666992 4.33301 -1 7 -1s5.16699 -0.166992 7.5 -0.5s4.66602 -0.5 6.99902 -0.5h7.5h7.5c2.33301 0 4.66602 0.166992 6.99902 0.5s4.83301 0.5 7.5 0.5s5 0.333008 7 1l24 78c2.66699 0.666992 5.5 1.5 8.5 2.5s6 2.16699 9 3.5
s5.83301 2.66602 8.5 3.99902l8 4l72 -39l11.5 10l10.5 10l10 10.5c3.33301 3.66699 6.33301 7.5 9 11.5l-38 72l4 8c1.33301 2.66699 2.66602 5.5 3.99902 8.5s2.5 6 3.5 9s1.83301 5.83301 2.5 8.5l78 24v0zM408.001 196l-4.99902 -15l-2 -8
c-0.666992 -2.66699 -1.5 -5.16699 -2.5 -7.5s-2.16699 -4.66602 -3.5 -6.99902s-2.66602 -4.5 -3.99902 -6.5l-7 -14l7 -15l29 -53c-0.666992 -0.666992 -1.33398 -1.5 -2.00098 -2.5s-1.5 -1.83301 -2.5 -2.5s-1.83301 -1.33398 -2.5 -2.00098l-2 -2l-68 36l-14 -8
c-2 -0.666992 -4.16699 -1.66699 -6.5 -3s-4.83301 -2.5 -7.5 -3.5s-5.16699 -1.83301 -7.5 -2.5s-4.83301 -1.66699 -7.5 -3l-15 -4l-5 -16l-18 -58h-1h-2h-1.5h-1.5h-1.5h-1.5h-2h-1l-18 58l-5 16l-15 4c-2.66699 1.33301 -5.16699 2.33301 -7.5 3s-4.83301 1.5 -7.5 2.5
s-5.16699 2.16699 -7.5 3.5s-4.5 2.33301 -6.5 3l-14 8l-68 -36l-2 2c-0.666992 0.666992 -1.5 1.33398 -2.5 2.00098s-1.83301 1.5 -2.5 2.5s-1.33398 1.83301 -2.00098 2.5l36 68l-7 14c-1.33301 2 -2.66602 4.16699 -3.99902 6.5s-2.5 4.83301 -3.5 7.5
s-1.83301 5.16699 -2.5 7.5s-1.33398 4.83301 -2.00098 7.5l-5 15l-74 22v2v1.5v1.5v2v1.5v1.5v1.5v1.5l74 22l5 16c0.666992 2.66699 1.33398 5.16699 2.00098 7.5s1.5 4.66602 2.5 6.99902s2.16699 4.66602 3.5 6.99902s2.66602 4.83301 3.99902 7.5l7 14l-36 68l2 2
l2.5 2.5l2.5 2.5l2 2l68 -36l14 7c2 1.33301 4.16699 2.66602 6.5 3.99902s4.83301 2.33301 7.5 3s5.16699 1.5 7.5 2.5s4.83301 1.83301 7.5 2.5l15 5l5 15l18 59h1h2h1.5h1.5h1.5h1.5h2h1l18 -59l5 -15l15 -5c2.66699 -0.666992 5.16699 -1.5 7.5 -2.5s4.83301 -2 7.5 -3
s5.16699 -2 7.5 -3s4.5 -2.16699 6.5 -3.5l14 -7l68 36l2 -2l2.5 -2.5l2.5 -2.5l2 -2l-29 -54l-7 -14l7 -14c1.33301 -2.66699 2.66602 -5.16699 3.99902 -7.5s2.5 -4.66602 3.5 -6.99902s1.83301 -4.66602 2.5 -6.99902s1.33398 -4.83301 2.00098 -7.5l5 -16l16 -4l58 -18
v-1.5v-1.5v-1.5v-1.5v-2v-1.5v-1.5v-2l-74 -22v0z" />
    <glyph glyph-name="uniE610" unicode="&#xe610;" 
d="M500 2l-156.002 155.996c7.33301 8.66699 14 17.834 20 27.501s11 19.834 15 30.501s7.16699 21.834 9.5 33.501s3.5 23.5 3.5 35.5c0 27.333 -5.16699 52.833 -15.5 76.5s-24.333 44.334 -42 62.001s-38.5 31.667 -62.5 42s-49.333 15.5 -76 15.5
c-13.333 0 -26.333 -1.33301 -39 -4s-24.834 -6.33398 -36.501 -11.001s-22.834 -10.667 -33.501 -18s-20.667 -15.333 -30 -24c-9.33301 -9.33301 -17.5 -19.333 -24.5 -30s-13 -22 -18 -34s-8.66699 -24.167 -11 -36.5s-3.5 -25.166 -3.5 -38.499
c0 -26.667 5.16699 -52 15.5 -76s24.333 -44.833 42 -62.5s38.334 -31.667 62.001 -42s49.167 -15.5 76.5 -15.5c12 0 23.833 1.16699 35.5 3.5s22.834 5.5 33.501 9.5s20.834 9 30.501 15s18.834 12.667 27.501 20l156 -156l21 21v0zM195.998 118.996
c-22.667 0 -44.167 4.49902 -64.5 13.499s-38 20.833 -53 35.5s-26.833 32.167 -35.5 52.5s-13 41.833 -13 64.5c0 11.333 1 22.333 3 33s5.16699 20.834 9.5 30.501s9.5 19 15.5 28s13 17.5 21 25.5c7.33301 8 15.5 15 24.5 21s18.5 11 28.5 15s20.333 7.16699 31 9.5
s21.667 3.5 33 3.5c22.667 0 44 -4.33301 64 -13s37.5 -20.5 52.5 -35.5s26.833 -32.667 35.5 -53s13 -41.833 13 -64.5s-4.33301 -44 -13 -64s-20.5 -37.5 -35.5 -52.5s-32.5 -27 -52.5 -36s-41.333 -13.5 -64 -13.5v0z" />
    <glyph glyph-name="uniE611" unicode="&#xe611;" 
d="M500 1l-156.001 155.999c7.33301 8.66699 14 17.834 20 27.501s11 19.834 15 30.501s7.16699 21.834 9.5 33.501s3.5 23.5 3.5 35.5c0 27.333 -5.16699 52.833 -15.5 76.5s-24.333 44.334 -42 62.001s-38.5 31.667 -62.5 42s-49.333 15.5 -76 15.5
c-13.333 0 -26.333 -1.33301 -39 -4s-24.834 -6.33398 -36.501 -11.001s-22.834 -10.5 -33.501 -17.5s-20.667 -15.167 -30 -24.5s-17.5 -19.333 -24.5 -30s-12.833 -21.834 -17.5 -33.501s-8.33398 -23.834 -11.001 -36.501s-4 -25.667 -4 -39
c0 -26.667 5.16699 -52 15.5 -76s24.333 -44.833 42 -62.5s38.334 -31.667 62.001 -42s49.167 -15.5 76.5 -15.5c12 0 23.833 1.16699 35.5 3.5s22.834 5.5 33.501 9.5s20.834 9 30.501 15s18.834 12.667 27.501 20l156 -156l21 21v0zM195.999 118.999
c-22.667 0 -44.167 4.33301 -64.5 13s-38 20.5 -53 35.5s-26.833 32.5 -35.5 52.5s-13 41.333 -13 64c0 11.333 1 22.333 3 33s5.16699 21 9.5 31s9.5 19.5 15.5 28.5s13 17.167 21 24.5c7.33301 8 15.5 15 24.5 21s18.5 11.167 28.5 15.5s20.333 7.5 31 9.5s21.667 3 33 3
c22.667 0 44 -4.33301 64 -13s37.5 -20.5 52.5 -35.5s26.833 -32.667 35.5 -53s13 -41.833 13 -64.5s-4.33301 -44 -13 -64s-20.5 -37.5 -35.5 -52.5s-32.5 -26.833 -52.5 -35.5s-41.333 -13 -64 -13v0zM210.999 298.999h60v-30h-60v-60h-30v60h-61v30h61v61h30v-61v0z" />
    <glyph glyph-name="uniE612" unicode="&#xe612;" 
d="M500 2l-156.002 155.996c7.33301 8.66699 14 17.834 20 27.501s11 19.834 15 30.501s7.16699 21.834 9.5 33.501s3.5 23.5 3.5 35.5c0 27.333 -5.16699 52.833 -15.5 76.5s-24.333 44.334 -42 62.001s-38.5 31.667 -62.5 42s-49.333 15.5 -76 15.5
c-13.333 0 -26.333 -1.33301 -39 -4s-24.834 -6.33398 -36.501 -11.001s-22.834 -10.667 -33.501 -18s-20.667 -15.333 -30 -24c-9.33301 -9.33301 -17.5 -19.333 -24.5 -30s-13 -22 -18 -34s-8.66699 -24.167 -11 -36.5s-3.5 -25.166 -3.5 -38.499
c0 -26.667 5.16699 -52 15.5 -76s24.333 -44.833 42 -62.5s38.334 -31.667 62.001 -42s49.167 -15.5 76.5 -15.5c12 0 23.833 1.16699 35.5 3.5s22.834 5.5 33.501 9.5s20.834 9 30.501 15s18.834 12.667 27.501 20l156 -156l21 21v0zM195.998 118.996
c-22.667 0 -44.167 4.49902 -64.5 13.499s-38 20.833 -53 35.5s-26.833 32.167 -35.5 52.5s-13 41.833 -13 64.5c0 11.333 1 22.333 3 33s5.16699 20.834 9.5 30.501s9.5 19 15.5 28s13 17.5 21 25.5c7.33301 8 15.5 15 24.5 21s18.5 11 28.5 15s20.333 7.16699 31 9.5
s21.667 3.5 33 3.5c22.667 0 44 -4.33301 64 -13s37.5 -20.5 52.5 -35.5s26.833 -32.667 35.5 -53s13 -41.833 13 -64.5s-4.33301 -44 -13 -64s-20.5 -37.5 -35.5 -52.5s-32.5 -27 -52.5 -36s-41.333 -13.5 -64 -13.5v0zM119.998 299.995h151v-30h-151v30v0z" />
    <glyph glyph-name="uniE613" unicode="&#xe613;" 
d="M392 149c-4 0 -8.00195 -0.333008 -12.002 -1s-7.83301 -1.5 -11.5 -2.5s-7.33398 -2.33301 -11.001 -4s-6.83398 -3.5 -9.50098 -5.5l-71 74l189 199l-23 21l-186 -198l-188 198l-21 -21l187 -199l-69 -74c-4 2 -7.5 3.83301 -10.5 5.5s-6.66699 3 -11 4
s-8.16602 1.83301 -11.499 2.5s-7.66602 1 -12.999 1c-11.333 0 -22.666 -2.5 -33.999 -7.5s-21 -11.5 -29 -19.5s-14.5 -17.5 -19.5 -28.5s-7.16699 -22.833 -6.5 -35.5c-0.666992 -12 1.5 -23.5 6.5 -34.5s11.5 -20.667 19.5 -29s17.667 -14.833 29 -19.5
s22.666 -7 33.999 -7c13.333 0 25.333 2.33301 36 7s20.334 11.167 29.001 19.5s15.167 18 19.5 29s6.83301 22.5 7.5 34.5c-0.666992 6 -1.33398 11.667 -2.00098 17s-2.16699 10.5 -4.5 15.5s-4.66602 9.66699 -6.99902 14s-5.5 8.5 -9.5 12.5l68 71l66 -71l-8.5 -12.5
c-3 -4.33301 -5.33301 -9 -7 -14s-3.16699 -10.167 -4.5 -15.5s-1.66602 -11 -0.999023 -17c-0.666992 -12 1.5 -23.5 6.5 -34.5s11.5 -20.667 19.5 -29s17.667 -14.833 29 -19.5s23 -7 35 -7c12.667 0 24.334 2.33301 35.001 7s20.334 11.167 29.001 19.5
s15.167 18 19.5 29s6.83301 22.5 7.5 34.5c-0.666992 12.667 -3.16699 24.5 -7.5 35.5s-10.833 20.5 -19.5 28.5s-18.334 14.5 -29.001 19.5s-22.334 7.5 -35.001 7.5v0zM120.998 -2c-8.66699 0 -16.5 1.66699 -23.5 5s-13.333 7.66602 -19 12.999s-10 11.666 -13 18.999
s-4.83301 15 -5.5 23c0.666992 8.66699 2.5 16.667 5.5 24s7.33301 13.666 13 18.999s12 9.66602 19 12.999s14.833 5 23.5 5c8 0 15.833 -1.66699 23.5 -5s14 -7.66602 19 -12.999s9.33301 -11.666 13 -18.999s5.16699 -15.333 4.5 -24
c0.666992 -8 -0.833008 -15.667 -4.5 -23s-8 -13.666 -13 -18.999s-11.333 -9.66602 -19 -12.999s-15.5 -5 -23.5 -5v0zM391.998 -2c-8 0 -15.833 1.66699 -23.5 5s-14 7.66602 -19 12.999s-9.33301 11.666 -13 18.999s-5.16699 15 -4.5 23
c-0.666992 8.66699 0.833008 16.667 4.5 24s8 13.666 13 18.999s11.333 9.66602 19 12.999s15.5 5 23.5 5c8.66699 0 16.5 -1.66699 23.5 -5s13.333 -7.66602 19 -12.999s10 -11.666 13 -18.999s4.83301 -15.333 5.5 -24c-0.666992 -8 -2.5 -15.667 -5.5 -23
s-7.33301 -13.666 -13 -18.999s-12 -9.66602 -19 -12.999s-14.833 -5 -23.5 -5v0z" />
    <glyph glyph-name="uniE614" unicode="&#xe614;" 
d="M151 480v-512h210v512h-210v0zM331 -2h-150v30h60v30h-60v30h30v31h-30v30h60v30h-60v29h30v31h-30v30h60v30h-60v30h30v31h-30v30h60v30h-60v30h150v-452v0z" />
    <glyph glyph-name="uniE615" unicode="&#xe615;" 
d="M135 480h-60c-6 0 -11.833 -1.16699 -17.5 -3.5s-10.5 -5.5 -14.5 -9.5s-7.33301 -8.83301 -10 -14.5s-3.66699 -11.5 -3 -17.5l-1 -321l77 -149l73 149l1 321c-0.666992 6 -2 11.833 -4 17.5s-5.16699 10.5 -9.5 14.5s-9 7.16699 -14 9.5s-11.167 3.5 -18.5 3.5h1z
M76 450h57.9971c2.66699 0 4.83398 -0.333008 6.50098 -1s3.33398 -1.83398 5.00098 -3.50098s2.66699 -3.33398 3 -5.00098s0.833008 -3.5 1.5 -5.5l-1 -31h-89l-1 31c0.666992 2 1.33398 3.83301 2.00098 5.5s1.83398 3.33398 3.50098 5.00098
s3.16699 2.83398 4.5 3.50098s3.66602 1 6.99902 1v0zM58.9971 343l1 31h89l1 -31h-91v0zM118.997 58h-27l-32 63l-1 192h32l-1 -195h31l-1 195h30l-1 -192l-30 -63v0zM239.997 480l1 -512h210l1 512h-212v0zM421.997 -2h-152l1 30h59l1 30h-61l1 30h29l1 31h-31l1 30h59
l1 30h-61l1 29h29l1 31h-31l1 30h59l1 30h-61l1 30h29l1 31h-31l1 30h59l1 30h-61l1 30h150l1 -452v0z" />
    <glyph glyph-name="uniE616" unicode="&#xe616;" 
d="M362 480l-362 -362l150 -150l362 362l-150 150v0zM43 118l21 20l43 -42l21 21l-43 43l22 21l21 -21l22 21l-22 22l22 21l42 -43l21 22l-42 42l21 21l21 -21l21 21l-21 22l21 21l43 -43l21 22l-42 42l21 22l22 -22l21 22l-21 21l21 21l42 -42l22 21l-43 43l21 21l107 -107
l-319 -319l-107 107v0z" />
    <glyph glyph-name="uniE617" unicode="&#xe617;" 
d="M107 450v-466l141 99l144 -98v465h-285v0zM361 42l-113 77l-111 -77v378h224v-378v0z" />
    <glyph glyph-name="uniE618" unicode="&#xe618;" 
d="M302 177v303h-182v-303l91 61l91 -61v0zM150 233v217h122v-217l-61 42l-61 -42v0zM482 450v-452h-452v452h60v-30h-30v-392h392v392h-121v30h151v0z" />
    <glyph glyph-name="uniE619" unicode="&#xe619;" 
d="M181 239l-181 -0.00195312v181h30v-124c8 24 19.333 46.167 34 66.5s31.834 37.833 51.501 52.5s41.5 26 65.5 34s49 12 75 12c26.667 0 52.167 -4.16699 76.5 -12.5s46.5 -20.166 66.5 -35.499s37.333 -33.666 52 -54.999s25.667 -44.666 33 -69.999l-29 -8
c-6 22 -15.5 42.333 -28.5 61s-28.333 34.667 -46 48s-37 23.666 -58 30.999s-43.167 11 -66.5 11c-24 0 -47.167 -4 -69.5 -12s-42.333 -19.167 -60 -33.5s-32.834 -31.5 -45.501 -51.5s-21.667 -41.667 -27 -65h127v-30v0zM331 208.998v-30.002h127
c-5.33301 -23.333 -14.333 -45 -27 -65s-27.834 -37.167 -45.501 -51.5s-37.667 -25.5 -60 -33.5s-45.5 -12 -69.5 -12c-23.333 0 -45.5 3.66699 -66.5 11s-40.333 17.666 -58 30.999s-33 29.333 -46 48s-22.5 39 -28.5 61l-29 -8
c7.33301 -25.333 18.333 -48.666 33 -69.999s32 -39.666 52 -54.999s42.167 -27.166 66.5 -35.499s49.833 -12.5 76.5 -12.5c26 0 51 4 75 12s45.833 19.333 65.5 34s36.834 32.167 51.501 52.5s26 42.5 34 66.5v-124h30v181h-181v0z" />
    <glyph glyph-name="uniE61A" unicode="&#xe61a;" 
d="M482 209h-211v-211h-30v211h-211v30h211v211h30v-211h211v-30v0z" />
    <glyph glyph-name="uniE61B" unicode="&#xe61b;" 
d="M361 344c0 14.667 -2.66309 28.501 -7.99609 41.501s-12.833 24.167 -22.5 33.5s-20.834 16.833 -33.501 22.5s-26.334 8.5 -41.001 8.5s-28.334 -2.83301 -41.001 -8.5s-23.834 -13.167 -33.501 -22.5s-17.167 -20.5 -22.5 -33.5s-8 -26.833 -8 -41.5
c0 -12.667 2.16699 -24.834 6.5 -36.501s10.5 -22.167 18.5 -31.5s17.5 -17 28.5 -23s22.833 -10 35.5 -12v-243h30v242c12.667 2 24.667 6 36 12s21 13.667 29 23s14.333 19.833 19 31.5s7 24.167 7 37.5v0zM256.004 269.001c-10.667 0 -20.5 2 -29.5 6
s-16.833 9.33301 -23.5 16s-12 14.667 -16 24s-6 19 -6 29c0 10.667 2 20.5 6 29.5s9.33301 17 16 24s14.5 12.5 23.5 16.5s18.833 6 29.5 6s20.5 -2 29.5 -6s16.833 -9.5 23.5 -16.5s12 -15 16 -24s6 -18.833 6 -29.5c0 -10 -2 -19.667 -6 -29s-9.33301 -17.333 -16 -24
s-14.5 -12 -23.5 -16s-18.833 -6 -29.5 -6v0zM301.004 329.001l-29.998 -0.00488281c0 4.66699 -0.833008 8.83398 -2.5 12.501s-3.83398 6.83398 -6.50098 9.50098s-5.83398 4.83398 -9.50098 6.50098s-7.5 2.5 -11.5 2.5v30c8 0 15.667 -1.66699 23 -5
s13.833 -7.66602 19.5 -12.999s10 -11.666 13 -18.999s4.5 -15.333 4.5 -24v0z" />
    <glyph glyph-name="uniE61C" unicode="&#xe61c;" 
d="M468 394l-41.999 42c-4.66699 4.66699 -9.66699 8 -15 10s-11 3 -17 3s-11.667 -1 -17 -3s-10.333 -5.33301 -15 -10l-272 -273l-53 -159l159 53l272 273c4.66699 4.66699 8 9.66699 10 15s3.16699 11 3.5 17s-0.833984 11.667 -3.50098 17s-5.66699 10.333 -9 15h-1z
M93.001 80l21 59l57 -58l-58 -20l-20 19v0zM132.001 163l165 166l64 -64l-166 -165l-63 63v0zM318.001 350l23 22l62 -64l-21 -22l-64 64v0zM447.001 351l-21.999 -21l-63 63l21 22c2 1.33301 3.83301 2.33301 5.5 3s3.5 1 5.5 1s3.83301 -0.333008 5.5 -1
s3.5 -1.66699 5.5 -3l41 -42c2.66699 -2 4.16699 -3.83301 4.5 -5.5s0.666016 -3.5 0.999023 -5.5s0 -3.83301 -1 -5.5s-2.16699 -3.5 -3.5 -5.5v0z" />
    <glyph glyph-name="uniE61D" unicode="&#xe61d;" 
d="M497 424l-41.9971 42.002c-4.66699 4.66699 -9.83398 8 -15.501 10s-11.334 3.16699 -17.001 3.5s-11.334 -0.833984 -17.001 -3.50098s-10.5 -5.66699 -14.5 -9l-227 -228l-52 -158l158 52l227 228c2 1.33301 3.83301 3.33301 5.5 6s3 5.16699 4 7.5
s1.83301 5.16602 2.5 8.49902s1 6.33301 1 9c0 3.33301 -0.333008 6.33301 -1 9s-1.5 5.5 -2.5 8.5s-2.33301 5.5 -4 7.5s-3.5 4.33301 -5.5 7v0zM168.003 155.002l19 60l58 -59l-58 -19l-19 18v0zM206.003 239.002l120 119l63 -62l-120 -121l-63 64v0zM347.003 380.002
l22 22l64 -64l-22 -21l-64 63v0zM476.003 382.002l-22 -23.002l-64 65l22 20c1.33301 2.66699 3 4.16699 5 4.5l6 1c2 0.333008 3.83301 0 5.5 -1s3.16699 -2.16699 4.5 -3.5l43 -43c0.666992 0 1.16699 -0.5 1.5 -1.5s0.666016 -1.83301 0.999023 -2.5
s0.666016 -1.66699 0.999023 -3l0.5 -2c0 -2 -0.166992 -3.33301 -0.5 -4s-0.666016 -1.66699 -0.999023 -3s-0.666016 -2.16602 -0.999023 -2.49902s-0.833008 -1.16602 -1.5 -2.49902v1zM452.003 254l30 -1v-285l-482 -1v453l226 -1v-29l-196 -1v-391l422 -1v257v0z" />
    <glyph glyph-name="uniE61E" unicode="&#xe61e;" 
d="M452 420v59.9951h-392v-60h-15c-6.66699 0 -12.667 -1.16699 -18 -3.5s-10 -5.66602 -14 -9.99902s-7.16699 -9.16602 -9.5 -14.499s-3.5 -11.333 -3.5 -18v-90c0 -6 1.16699 -11.667 3.5 -17s5.5 -10.166 9.5 -14.499s8.66699 -7.66602 14 -9.99902s11.333 -3.5 18 -3.5
h181c2 0 4 -0.333008 6 -1s3.66699 -1.66699 5 -3s2.33301 -3 3 -5s1 -4 1 -6v-45h-30v-211h90v211h-30v45c0 6 -1.16699 11.833 -3.5 17.5s-5.5 10.5 -9.5 14.5s-8.83301 7.16699 -14.5 9.5s-11.5 3.5 -17.5 3.5h-181c-2 0 -4 0.5 -6 1.5s-3.66699 2.16699 -5 3.5
s-2.33301 2.83301 -3 4.5s-1 3.5 -1 5.5v90c0 2.66699 0.333008 4.83398 1 6.50098s1.66699 3.16699 3 4.5s3 2.5 5 3.5s4 1.5 6 1.5h15v-91h392v91h30v30h-30v0zM271 -2.00488h-30v151h30v-151v0zM422 328.995h-332v121h332v-121v0z" />
    <glyph glyph-name="uniE61F" unicode="&#xe61f;" 
d="M503 184l-267.001 269.001l-4 -4c-5.33301 5.33301 -10.833 9.83301 -16.5 13.5s-11.667 6.83398 -18 9.50098s-13 4.66699 -20 6s-13.833 2 -20.5 2v0v0v0v0c-7.33301 0 -14.5 -0.666992 -21.5 -2s-13.667 -3.33301 -20 -6s-12.333 -6 -18 -10
s-11.167 -8.33301 -16.5 -13c-4.66699 -5.33301 -9 -10.833 -13 -16.5s-7.33301 -11.834 -10 -18.501s-4.66699 -13.334 -6 -20.001s-2 -13.667 -2 -21s0.666992 -14.333 2 -21s3.33301 -13.167 6 -19.5s5.83398 -12.5 9.50098 -18.5s8.16699 -11.333 13.5 -16l-67 -67
c-2 -2 -4 -4.33301 -6 -7s-3.5 -5.5 -4.5 -8.5s-1.83301 -6 -2.5 -9s-1 -6.16699 -1 -9.5s0.333008 -6.5 1 -9.5s1.5 -6 2.5 -9s2.5 -5.66699 4.5 -8s4 -4.83301 6 -7.5l145 -146c2 -2.66699 4.33301 -4.83398 7 -6.50098s5.5 -3 8.5 -4s6 -1.83301 9 -2.5
s6.16699 -1 9.5 -1s6.5 0.333008 9.5 1s6 1.5 9 2.5s5.83301 2.33301 8.5 4s5 3.83398 7 6.50098l168 167h108v0zM79.999 373.001c0 5.33301 0.5 10.332 1.5 14.999s2.5 9.33398 4.5 14.001s4.33301 9.16699 7 13.5s5.66699 8.16602 9 11.499c4 4 8 7.33301 12 10
s8.33301 5 13 7s9.5 3.5 14.5 4.5s10.167 1.5 15.5 1.5v0v0v0v0c4.66699 0 9.5 -0.5 14.5 -1.5s9.83301 -2.5 14.5 -4.5s9 -4.33301 13 -7s8 -5.66699 12 -9l-109 -109c-3.33301 4 -6.5 8 -9.5 12s-5.33301 8.33301 -7 13s-3 9.33398 -4 14.001s-1.5 9.66699 -1.5 15v0z
M205.999 38c-0.666992 -0.666992 -1.5 -1.33398 -2.5 -2.00098s-2.16699 -1.16699 -3.5 -1.5s-2.5 -0.666016 -3.5 -0.999023s-2.16699 -0.5 -3.5 -0.5s-2.5 0.166992 -3.5 0.5s-2.16699 0.666016 -3.5 0.999023s-2.33301 0.833008 -3 1.5s-1.66699 1.33398 -3 2.00098
l-109 111h245l-110 -111v0zM345.999 179h-304.999l-6 5c-0.666992 1.33301 -1.33398 2.5 -2.00098 3.5s-1.16699 2 -1.5 3l-1 3c-0.333008 1 -0.5 2.16699 -0.5 3.5s0.166992 2.5 0.5 3.5s0.666016 2.16699 0.999023 3.5s0.833008 2.5 1.5 3.5s1.33398 1.83301 2.00098 2.5
l201 200l195 -196h-49l-36 -35v0zM472 120l-12.001 18l-12 -18c-2.66699 -3.33301 -6.33398 -8.5 -11.001 -15.5s-9.16699 -14.667 -13.5 -23s-8.16602 -16.5 -11.499 -24.5s-5 -15 -5 -21c0 -7.33301 1.33301 -14.166 4 -20.499s6.33398 -12 11.001 -17
s10.167 -8.83301 16.5 -11.5s13.166 -4 20.499 -4s14.166 1.33301 20.499 4s12 6.5 17 11.5s8.83301 10.667 11.5 17s4 13.166 4 20.499c0 6 -1.66699 13 -5 21s-7.16602 16.167 -11.499 24.5s-8.66602 16 -12.999 23s-7.83301 12.167 -10.5 15.5v0zM458.999 13
c-2.66699 0 -5.5 0.666992 -8.5 2s-5.5 3 -7.5 5s-3.5 4.33301 -4.5 7s-1.5 5.66699 -1.5 9c0 1.33301 0.5 3.66602 1.5 6.99902s2.66699 7.16602 5 11.499l7.5 14c2.66699 5 5.66699 10.167 9 15.5l8 -15.5c2.66699 -5 5 -9.66699 7 -14s3.66699 -8.16602 5 -11.499
s2 -5.66602 2 -6.99902c0 -3.33301 -0.666992 -6.33301 -2 -9s-3 -5 -5 -7s-4.33301 -3.66699 -7 -5s-5.66699 -2 -9 -2v0z" />
    <glyph glyph-name="uniE620" unicode="&#xe620;" 
d="M256 465c-33.333 0 -64.666 -6.33301 -93.999 -19s-54.833 -29.834 -76.5 -51.501s-38.834 -47.167 -51.501 -76.5s-19 -60.666 -19 -93.999s6.33301 -64.666 19 -93.999s29.834 -54.833 51.501 -76.5s47.167 -38.834 76.5 -51.501s60.666 -19 93.999 -19
s64.666 6.33301 93.999 19s54.833 29.834 76.5 51.501s38.834 47.167 51.501 76.5s19 60.666 19 93.999s-6.33301 64.666 -19 93.999s-29.834 54.833 -51.501 76.5s-47.167 38.834 -76.5 51.501s-60.666 19 -93.999 19v0zM256 435c13.333 0 26.168 -1.16504 38.501 -3.49805
s24.333 -5.83301 36 -10.5s22.834 -10.167 33.501 -16.5s20.667 -13.5 30 -21.5l-297 -297c-8 9.33301 -15.167 19.333 -21.5 30s-11.833 21.834 -16.5 33.501s-8.16699 23.667 -10.5 36s-3.5 25.166 -3.5 38.499c0 29.333 5.5 56.666 16.5 81.999
s26.167 47.666 45.5 66.999s41.666 34.5 66.999 45.5s52.666 16.5 81.999 16.5v0zM256.002 13.002c-13.333 0 -26.168 1.16504 -38.501 3.49805s-24.333 5.83301 -36 10.5s-22.834 10.167 -33.501 16.5s-20.667 13.5 -30 21.5l297 297c8 -9.33301 15.167 -19.333 21.5 -30
s11.833 -21.834 16.5 -33.501s8.16699 -23.667 10.5 -36s3.5 -25.166 3.5 -38.499c0 -29.333 -5.5 -56.666 -16.5 -81.999s-26.167 -47.666 -45.5 -66.999s-41.666 -34.5 -66.999 -45.5s-52.666 -16.5 -81.999 -16.5v0z" />
    <glyph glyph-name="uniE621" unicode="&#xe621;" 
d="M376 480h-241c-6 0 -11.833 -1.16699 -17.5 -3.5s-10.5 -5.5 -14.5 -9.5s-7.33301 -8.83301 -10 -14.5s-3.66699 -11.5 -3 -17.5l-1 -422c0.666992 -6 2 -11.833 4 -17.5s5.33301 -10.5 10 -14.5s9.5 -7.16699 14.5 -9.5s11.167 -3.5 18.5 -3.5h239
c7.33301 0 13.5 1.16699 18.5 3.5s9.83301 5.5 14.5 9.5s8 8.83301 10 14.5s3.33301 11.5 4 17.5l-1 422c0.666992 6 -0.333008 11.833 -3 17.5s-6 10.5 -10 14.5s-8.83301 7.16699 -14.5 9.5s-11.5 3.5 -17.5 3.5v0zM135 450h241.002c2 0 4 -0.333008 6 -1
s3.5 -1.83398 4.5 -3.50098s2.16699 -3.33398 3.5 -5.00098s1.66602 -3.5 0.999023 -5.5l1 -45h-273l1 45c-0.666992 2 -0.333984 3.83301 0.999023 5.5s2.5 3.33398 3.5 5.00098s2.5 2.83398 4.5 3.50098s4 1 6 1v0zM392.002 360l-1 -241h-271l-1 241h273v0zM375.002 -2
h-238.998c-3.33301 0 -5.66602 0.333008 -6.99902 1s-2.83301 1.83398 -4.5 3.50098s-2.83398 3.33398 -3.50098 5.00098s-1.33398 3.5 -2.00098 5.5l1 75h271l1 -75c-0.666992 -2 -1.33398 -3.83301 -2.00098 -5.5s-1.83398 -3.33398 -3.50098 -5.00098
s-3.16699 -2.83398 -4.5 -3.50098s-3.66602 -1 -6.99902 -1v0zM271.004 43c-0.666992 -2 -1.16699 -3.83301 -1.5 -5.5s-1.33301 -3.16699 -3 -4.5s-3.33398 -2.5 -5.00098 -3.5s-3.83398 -1.5 -6.50098 -1.5c-1.33301 0 -3.16602 0.5 -5.49902 1.5s-4 2.16699 -5 3.5
s-2 2.83301 -3 4.5s-1.16699 3.5 -0.5 5.5c-0.666992 2 -0.5 4 0.5 6s2 3.66699 3 5s2.66699 2.33301 5 3s4.16602 1 5.49902 1c2.66699 0 4.83398 -0.333008 6.50098 -1s3.33398 -1.66699 5.00098 -3s2.66699 -3 3 -5s0.833008 -4 1.5 -6v0z" />
    <glyph glyph-name="uniE622" unicode="&#xe622;" 
d="M452 239v-30h-392v30h392v0z" />
    <glyph glyph-name="uniE623" unicode="&#xe623;" 
d="M256 480c-20.667 0 -40.167 -4 -58.5 -12s-34.333 -18.833 -48 -32.5s-24.5 -29.5 -32.5 -47.5s-12 -37.667 -12 -59c0 -10 1.16699 -20 3.5 -30s5.5 -19.667 9.5 -29s8.83301 -18.166 14.5 -26.499s12.167 -15.833 19.5 -22.5l2 -2
c0.666992 -0.666992 1.5 -1.33398 2.5 -2.00098s1.83301 -1.16699 2.5 -1.5s1.33398 -0.833008 2.00098 -1.5l3 -3c1.33301 -0.666992 2.66602 -1.5 3.99902 -2.5l4 -3c1.33301 -1 2.83301 -2 4.5 -3s3.16699 -1.83301 4.5 -2.5v-217l74 57l76 -57v217
c1.33301 0.666992 2.83301 1.5 4.5 2.5s3.16699 2 4.5 3l4 3c1.33301 1 2.66602 1.83301 3.99902 2.5l3 3c0.666992 0.666992 1.33398 1.16699 2.00098 1.5s1.5 0.833008 2.5 1.5s1.83301 1.33398 2.5 2.00098l2 2c7.33301 6.66699 13.833 14.167 19.5 22.5
s10.5 17.166 14.5 26.499s7.16699 19 9.5 29s3.5 20 3.5 30c0 21.333 -4 41 -12 59s-18.833 33.833 -32.5 47.5s-29.667 24.5 -48 32.5s-37.833 12 -58.5 12v0zM301 44l-46 34l-44 -34v127c3.33301 -1.33301 6.83301 -2.33301 10.5 -3l11.5 -2
c4 -0.666992 7.83301 -1.16699 11.5 -1.5s7.5 -0.5 11.5 -0.5s7.83301 0.166992 11.5 0.5s7.5 0.833008 11.5 1.5l11.5 2c3.66699 0.666992 7.16699 1.66699 10.5 3v-127v0zM339 242c-0.666992 0 -1.16797 -0.166992 -1.50098 -0.5l-1.5 -1.5l-1.5 -1.5
c-0.333008 -0.333008 -0.833008 -0.5 -1.5 -0.5l-3 -3c-11.333 -8.66699 -23.333 -15.167 -36 -19.5s-25.334 -6.5 -38.001 -6.5s-25.334 2.16699 -38.001 6.5s-24.334 10.833 -35.001 19.5l-4 3c-0.666992 0 -1.16699 0.166992 -1.5 0.5l-1.5 1.5l-1.5 1.5
c-0.333008 0.333008 -0.833008 0.5 -1.5 0.5c-6 6 -11.333 12.333 -16 19s-8.66699 13.667 -12 21s-5.66602 15 -6.99902 23s-2 16 -2 24c0 16.667 3 32.334 9 47.001s14.5 27.5 25.5 38.5s23.833 19.667 38.5 26s30.334 9.5 47.001 9.5s32.334 -3.16699 47.001 -9.5
s27.5 -15 38.5 -26s19.5 -23.833 25.5 -38.5s9 -30.334 9 -47.001c0 -8 -0.666992 -16 -2 -24s-3.66602 -15.667 -6.99902 -23s-7.33301 -14.333 -12 -21s-10 -13 -16 -19v0zM329.999 374l5 -29l-55 -11l35 -58l-26 -15l-33 55l-33 -55l-25 15l34 58l-53 11l5 29l57 -11v57
h30v-57l59 11v0z" />
    <glyph glyph-name="uniE624" unicode="&#xe624;" 
d="M256 480c-20.667 0 -40.167 -4 -58.5 -12s-34.333 -18.833 -48 -32.5s-24.5 -29.5 -32.5 -47.5s-12 -37.667 -12 -59c0 -10 1.16699 -20 3.5 -30s5.5 -19.667 9.5 -29s8.83301 -18.166 14.5 -26.499s12.167 -15.833 19.5 -22.5l2 -2
c0.666992 -0.666992 1.5 -1.33398 2.5 -2.00098s1.83301 -1.16699 2.5 -1.5s1.33398 -0.833008 2.00098 -1.5l3 -3c1.33301 -0.666992 2.66602 -1.5 3.99902 -2.5l4 -3c1.33301 -1 2.83301 -2 4.5 -3s3.16699 -1.83301 4.5 -2.5v-217l74 57l76 -57v217
c1.33301 0.666992 2.83301 1.5 4.5 2.5s3.16699 2 4.5 3l4 3c1.33301 1 2.66602 1.83301 3.99902 2.5l3 3c0.666992 0.666992 1.33398 1.16699 2.00098 1.5s1.5 0.833008 2.5 1.5s1.83301 1.33398 2.5 2.00098l2 2c7.33301 6.66699 13.833 14.167 19.5 22.5
s10.5 17.166 14.5 26.499s7.16699 19 9.5 29s3.5 20 3.5 30c0 21.333 -4 41 -12 59s-18.833 33.833 -32.5 47.5s-29.667 24.5 -48 32.5s-37.833 12 -58.5 12v0zM301 44l-46 34l-44 -34v127c3.33301 -1.33301 6.83301 -2.33301 10.5 -3l11.5 -2
c4 -0.666992 7.83301 -1.16699 11.5 -1.5s7.5 -0.5 11.5 -0.5s7.83301 0.166992 11.5 0.5s7.5 0.833008 11.5 1.5l11.5 2c3.66699 0.666992 7.16699 1.66699 10.5 3v-127v0zM339 242c-0.666992 0 -1.16797 -0.166992 -1.50098 -0.5l-1.5 -1.5l-1.5 -1.5
c-0.333008 -0.333008 -0.833008 -0.5 -1.5 -0.5l-3 -3c-11.333 -8.66699 -23.333 -15.167 -36 -19.5s-25.334 -6.5 -38.001 -6.5s-25.334 2.16699 -38.001 6.5s-24.334 10.833 -35.001 19.5l-4 3c-0.666992 0 -1.16699 0.166992 -1.5 0.5l-1.5 1.5l-1.5 1.5
c-0.333008 0.333008 -0.833008 0.5 -1.5 0.5c-6 6 -11.333 12.333 -16 19s-8.66699 13.667 -12 21s-5.66602 15 -6.99902 23s-2 16 -2 24c0 16.667 3 32.334 9 47.001s14.5 27.5 25.5 38.5s23.833 19.667 38.5 26s30.334 9.5 47.001 9.5s32.334 -3.16699 47.001 -9.5
s27.5 -15 38.5 -26s19.5 -23.833 25.5 -38.5s9 -30.334 9 -47.001c0 -8 -0.666992 -16 -2 -24s-3.66602 -15.667 -6.99902 -23s-7.33301 -14.333 -12 -21s-10 -13 -16 -19v0zM308.999 329c0 -6.66699 -1.5 -13.334 -4.5 -20.001s-6.83301 -12.334 -11.5 -17.001
s-10.167 -8.33398 -16.5 -11.001s-13.166 -4 -20.499 -4s-14.166 1.33301 -20.499 4s-11.833 6.33398 -16.5 11.001s-8.5 10.334 -11.5 17.001s-4.5 13.334 -4.5 20.001c0 7.33301 1.5 14.333 4.5 21s6.83301 12.334 11.5 17.001s10.167 8.33398 16.5 11.001
s13.166 4 20.499 4s14.166 -1.33301 20.499 -4s11.833 -6.33398 16.5 -11.001s8.5 -10.334 11.5 -17.001s4.5 -13.667 4.5 -21v0z" />
    <glyph glyph-name="uniE625" unicode="&#xe625;" 
d="M321 450l-23.001 -0.00292969c-2 4.66699 -4.5 8.83398 -7.5 12.501s-6.16699 6.83398 -9.5 9.50098s-7.16602 4.66699 -11.499 6s-8.83301 2 -13.5 2h-75c-2 0 -4 -0.166992 -6 -0.5s-3.83301 -0.833008 -5.5 -1.5s-3.33398 -1.5 -5.00098 -2.5
s-3.16699 -2.16699 -4.5 -3.5c-2.66699 -2.66699 -4.5 -5.33398 -5.5 -8.00098s-1.83301 -5.66699 -2.5 -9s-1 -6.66602 -1 -9.99902v-11v-355l55 -70h5v-41l30 21v20h4l56 70v341h20c2 0 3.83301 -0.833008 5.5 -2.5s2.83398 -3.66699 3.50098 -6s1 -4.66602 1 -6.99902
v-4.5v-128h30v128c0 7.33301 -1 14 -3 20s-4.66699 11.333 -8 16s-7.5 8.16699 -12.5 10.5s-10.5 3.5 -16.5 3.5v0zM180.999 449.997l74.998 0.00195312c2 0 3.83301 -0.5 5.5 -1.5s3.33398 -2.33301 5.00098 -4s2.83398 -3.83398 3.50098 -6.50098s1 -5.33398 1 -8.00098
v-101h-90v105v5.5v4.5v4v2v0zM230.997 39.999h-10l-40 50v209h90v-209l-40 -50v0z" />
    <glyph glyph-name="uniE626" unicode="&#xe626;" 
d="M472 309l-16.002 16.0029c0 1.33301 0.5 2.66602 1.5 3.99902s1.5 2.83301 1.5 4.5s0.166992 3.16699 0.5 4.5s0.5 2.66602 0.5 3.99902c0.666992 3.33301 0.666992 6.5 0 9.5s-1.5 6 -2.5 9s-2.5 5.83301 -4.5 8.5s-3.66699 5 -5 7l-54 53
c-0.666992 1.33301 -2 2.66602 -4 3.99902s-3.66699 2.33301 -5 3s-3 1.16699 -5 1.5s-3.66699 0.5 -5 0.5c-4 0 -7.33301 -0.5 -10 -1.5s-5.5 -2.5 -8.5 -4.5s-5.66699 -4.16699 -8 -6.5s-5.16602 -4.83301 -8.49902 -7.5l-271 -272l-11 -89l4 -3l-30 -30l37 -6l14 14l4 -3
l88 10l263 262l12 -13c1.33301 -0.666992 2 -1.33398 2 -2.00098s0.333008 -1.33398 1 -2.00098s0.833984 -1.33398 0.500977 -2.00098s-0.166016 -1.33398 0.500977 -2.00098c-1.33301 -0.666992 -2 -1.66699 -2 -3s-0.5 -2.5 -1.5 -3.5s-1.83301 -2.16699 -2.5 -3.5
s-2 -2.66602 -4 -3.99902l-90 -91l21 -21l91 91c2 2 4.16699 4.33301 6.5 7s4 5.16699 5 7.5s2.16699 4.83301 3.5 7.5s1.66602 5.33398 0.999023 8.00098c1.33301 3.33301 1.83301 6.5 1.5 9.5s-0.833008 5.83301 -1.5 8.5s-2 5.33398 -4 8.00098
s-3.66699 5.33398 -5 8.00098h-1zM160.998 68.0029l-63 -7l-8 7l8 64l168 169l65 -64l-170 -169v0zM352.998 259.003l-65.001 63.999l75 74c0 0.666992 0.833008 1.66699 2.5 3s2.83398 2.5 3.50098 3.5s1.66699 1.83301 3 2.5s1.66602 1 0.999023 1l54 -52
c0 -0.666992 0.5 -1.66699 1.5 -3s1.33301 -2.33301 1 -3s-0.166016 -1.5 0.500977 -2.5s0.666992 -1.83301 0 -2.5c0 -1.33301 -0.333008 -2.66602 -1 -3.99902s-1 -2.5 -1 -3.5s-0.666992 -2 -2 -3s-2 -2.16699 -2 -3.5l-72 -71h1z" />
    <glyph glyph-name="uniE627" unicode="&#xe627;" 
d="M456 213l-185 185v-400h-30v400l-185 -185l-21 22l221 221l221 -221l-21 -22v0z" />
    <glyph glyph-name="uniE628" unicode="&#xe628;" 
d="M473 225l-221 -221l-22 21l185 186l-385 -1v31l385 -1l-185 186l22 20l221 -220v-1z" />
    <glyph glyph-name="uniE629" unicode="&#xe629;" 
d="M482 210h-385l185 -185l-22 -22l-221 222l221 221l22 -21l-185 -185h385v-30v0z" />
    <glyph glyph-name="uniE62A" unicode="&#xe62a;" 
d="M477 213l-221 -221l-221 221l21 22l185 -185v400h30v-400l185 185l21 -22v0z" />
    <glyph glyph-name="uniE62B" unicode="&#xe62b;" 
d="M286 150c0 -2.66699 -0.336914 -5.33301 -1.00391 -8s-1.66699 -5 -3 -7s-3 -4 -5 -6s-4 -3.33301 -6 -4v-66l-30 1v64c-2 2 -4 3.66699 -6 5s-3.66699 3.33301 -5 6s-2.33301 5 -3 7s-1 5 -1 9c0 3.33301 0.833008 7 2.5 11s3.83398 7.16699 6.50098 9.5
s5.83398 4.5 9.50098 6.5s7.5 2.66699 11.5 2c4 0.666992 7.83301 0 11.5 -2s6.83398 -4.16699 9.50098 -6.5s4.83398 -5.5 6.50098 -9.5s2.5 -7.66699 2.5 -11v-1zM450.996 225.001l-0.00195312 -212.005c0 -6.66699 -1.16699 -12.667 -3.5 -18
s-5.66602 -10.166 -9.99902 -14.499s-9.16602 -7.5 -14.499 -9.5s-11 -3.33301 -17 -4l-301 1c-6.66699 -0.666992 -12.667 0.333008 -18 3s-10 5.83398 -14 9.50098s-7.16699 8.5 -9.5 14.5s-3.5 11.667 -3.5 17v214c0 6 1.16699 11.833 3.5 17.5s5.5 10.334 9.5 14.001
s8.66699 6.83398 14 9.50098s11.333 3.66699 18 3v1v59c0 21.333 4 41 12 59s18.833 34 32.5 48s29.667 24.833 48 32.5s37.833 11.834 58.5 12.501c20.667 -0.666992 40.167 -4.83398 58.5 -12.501s34.333 -18.5 48 -32.5s24.5 -30 32.5 -48s12 -37.667 12 -59v-59
c6 -0.666992 11.667 -2 17 -4s10 -5.16699 14 -9.5s7.16699 -9.16602 9.5 -14.499s3.5 -11.333 3.5 -18v0zM135.994 270.996l240.002 -1v61c0 16 -3 31.5 -9 46.5s-14.5 27.833 -25.5 38.5s-23.833 19.334 -38.5 26.001s-30.334 9.66699 -47.001 9
c-16.667 0.666992 -32.334 -2.33301 -47.001 -9s-27.5 -15.334 -38.5 -26.001s-19.5 -23.5 -25.5 -38.5s-9 -30.5 -9 -46.5v-61v1zM420.996 225.996c0 1.33301 -0.5 2.99707 -1.5 4.99707s-2 3.5 -3 4.5s-2.33301 2.16699 -4 3.5s-3.5 1.66602 -5.5 0.999023v1l-302 -1v1v-1
c-2 0.666992 -4 0.5 -6 -0.5s-3.66699 -2 -5 -3s-2.33301 -2.66699 -3 -5s-1 -4.16602 -1 -5.49902v-214c0 -1.33301 0.333008 -3.16602 1 -5.49902s1.66699 -4 3 -5s3 -2 5 -3s4 -1.16699 6 -0.5l301 -1c2 0.666992 3.83301 1.16699 5.5 1.5s3.16699 1.33301 4.5 3
s2.5 3.33398 3.5 5.00098s1.5 3.83398 1.5 6.50098v212v1z" />
    <glyph glyph-name="uniE62C" unicode="&#xe62c;" 
d="M59 421l159 -425l37 229l228 37l-424 159v0zM228 251l-21 -138l-97 256l257 -96l-139 -22v0z" />
    <glyph glyph-name="uniE62D" unicode="&#xe62d;" 
d="M391 271l-27.999 -28l-22 21l29 28c7.33301 7.33301 12.833 15.666 16.5 24.999s5.5 18.833 5.5 28.5s-1.83301 19.167 -5.5 28.5s-9.16699 17.666 -16.5 24.999s-15.666 12.833 -24.999 16.5s-18.833 5.5 -28.5 5.5s-19.167 -1.83301 -28.5 -5.5
s-17.666 -9.16699 -24.999 -16.5l-90 -90c-7.33301 -7.33301 -12.833 -15.666 -16.5 -24.999s-5.5 -18.833 -5.5 -28.5s1.83301 -19.167 5.5 -28.5s9.16699 -17.666 16.5 -24.999s15.666 -12.833 24.999 -16.5s18.833 -5.5 28.5 -5.5s19.167 1.83301 28.5 5.5
s17.666 9.16699 24.999 16.5l21 -21c-5.33301 -5.33301 -10.833 -9.83301 -16.5 -13.5s-11.667 -6.83398 -18 -9.50098s-12.833 -4.66699 -19.5 -6s-13.334 -2 -20.001 -2c-7.33301 0 -14.333 0.666992 -21 2s-13.167 3.33301 -19.5 6s-12.333 5.83398 -18 9.50098
s-11.167 8.16699 -16.5 13.5c-10 10 -17.667 21.5 -23 34.5s-8 26.333 -8 40s2.66699 27 8 40s13 24.5 23 34.5l90 90c10 10 21.5 17.667 34.5 23s26.333 8 40 8s27 -2.66699 40 -8s24.5 -13 34.5 -23s17.667 -21.5 23 -34.5s8 -26.333 8 -40s-2.66699 -27 -8 -40
s-13 -24.5 -23 -34.5v0zM182.001 238l-4.00098 -3.99805l21 -21l4 4c7.33301 7.33301 15.666 12.833 24.999 16.5s18.833 5.5 28.5 5.5s19.167 -1.83301 28.5 -5.5s17.666 -9.16699 24.999 -16.5s12.833 -15.666 16.5 -24.999s5.5 -18.833 5.5 -28.5
s-1.83301 -19.167 -5.5 -28.5s-9.16699 -17.666 -16.5 -24.999l-91 -91c-7.33301 -7.33301 -15.666 -12.833 -24.999 -16.5s-18.833 -5.5 -28.5 -5.5s-19.167 1.83301 -28.5 5.5s-17.666 9.16699 -24.999 16.5s-12.833 15.666 -16.5 24.999s-5.5 18.833 -5.5 28.5
s1.83301 19.167 5.5 28.5s9.16699 17.666 16.5 24.999l32 32l-21 21l-32 -32c-10.667 -10.667 -18.5 -22.334 -23.5 -35.001s-7.5 -25.834 -7.5 -39.501s2.5 -27 7.5 -40s12.833 -24.5 23.5 -34.5c5.33301 -5.33301 10.833 -9.83301 16.5 -13.5s11.667 -6.83398 18 -9.50098
s12.833 -4.66699 19.5 -6s13.334 -2 20.001 -2c7.33301 0 14.333 0.666992 21 2s13.167 3.33301 19.5 6s12.333 5.83398 18 9.50098s11.167 8.16699 16.5 13.5l91 91c10 10 17.667 21.5 23 34.5s8 26.333 8 40s-2.66699 27 -8 40s-13 24.5 -23 34.5s-21.5 17.667 -34.5 23
s-26.333 8 -40 8s-27 -2.66699 -40 -8s-24.5 -13 -34.5 -23v0z" />
    <glyph glyph-name="uniE62E" unicode="&#xe62e;" 
d="M0 480v-512h512v512h-512v0zM30 299h271v-301h-271v301v0zM482 -2h-151v301h151v-301v0zM30 329v121h452v-121h-452v0z" />
    <glyph glyph-name="uniE62F" unicode="&#xe62f;" 
d="M392 450h-392v-331h392v331v0zM361 149h-331v271h331v-271v0zM512 329v-331h-392v91h31v-61h331v271h-61v30h91v0z" />
    <glyph glyph-name="uniE630" unicode="&#xe630;" 
d="M331 450h-331v-271h331v271v0zM301 209h-271v211h271v-211v0zM422 88h-332v60h30v-29h272v210h-30v31h60v-272v0zM512 269v-271h-331v60h30v-30h271v211h-30v30h60v0z" />
    <glyph glyph-name="uniE631" unicode="&#xe631;" 
d="M446 290l21.002 21l-52 53l23 21l-21 23l-246 -245c-3.33301 2.66699 -7 4.83398 -11 6.50098s-8.16699 3.5 -12.5 5.5s-8.83301 3.16699 -13.5 3.5s-9.33398 0.833008 -14.001 1.5c-12.667 -0.666992 -24.334 -3.16699 -35.001 -7.5s-20.167 -10.833 -28.5 -19.5
s-14.833 -18.334 -19.5 -29.001s-7 -22.667 -7 -36c0 -11.333 2.33301 -22.666 7 -33.999s11.167 -21 19.5 -29s17.833 -14.5 28.5 -19.5s22.334 -7.16699 35.001 -6.5c12.667 -0.666992 24.5 1.5 35.5 6.5s20.5 11.5 28.5 19.5s14.333 17.667 19 29s7 22.666 7 33.999
c0 6 -0.333008 11.167 -1 15.5s-1.83398 9 -3.50098 14s-3.5 9.33301 -5.5 13l-7 12.5l158 156l53 -51l21 20l-52 54l21 20l52 -52v0zM120.002 28c-8 0.666992 -15.667 2.5 -23 5.5s-13.833 7.33301 -19.5 13s-10 12 -13 19s-4.5 14.833 -4.5 23.5c0 8 1.5 15.833 4.5 23.5
s7.33301 14 13 19s12.167 9.33301 19.5 13s15 5.16699 23 4.5c8.66699 0.666992 16.5 -0.833008 23.5 -4.5s13.333 -8 19 -13s10 -11.333 13 -19s4.5 -15.5 4.5 -23.5c0 -8.66699 -1.5 -16.5 -4.5 -23.5s-7.33301 -13.333 -13 -19s-12 -10 -19 -13
s-14.833 -4.83301 -23.5 -5.5v0z" />
    <glyph glyph-name="uniE632" unicode="&#xe632;" 
d="M256 68l-146 145l21 22l110 -110v326l30 -1v-324l110 108l21 -20l-146 -147v1zM482 208l0.00390625 -195.998c0 -1.33301 -0.333008 -3 -1 -5s-1.83398 -3.66699 -3.50098 -5s-3.33398 -2.5 -5.00098 -3.5s-3.5 -1.16699 -5.5 -0.5l-422 -1
c-2 0.666992 -3.83301 1.16699 -5.5 1.5s-3.33398 1.5 -5.00098 3.5s-2.83398 3.66699 -3.50098 5s-1 3.33301 -1 6v194l-30 1v-196c0 -5.33301 1.16699 -11 3.5 -17s5.5 -10.833 9.5 -14.5s8.83301 -6.83398 14.5 -9.50098s11.5 -3.66699 17.5 -3l422 -1
c6 0.666992 11.833 2 17.5 4s10.5 5.16699 14.5 9.5s7.16699 9.16602 9.5 14.499s3.5 11.333 3.5 18v194l-30 1v0z" />
    <glyph glyph-name="uniE633" unicode="&#xe633;" 
d="M30 450v-452h452v452h-452v0zM452 28h-392v60h392v-60v0zM60 119v301h392v-301h-392v0zM428 174l-21 -22l-73 71l-47 -50l-75 132l-102 -149l-25 17l130 189l78 -139l40 43l95 -92v0z" />
    <glyph glyph-name="uniE634" unicode="&#xe634;" 
d="M376 460c-13.333 0 -25.833 -1.83203 -37.5 -5.49902s-23 -8.66699 -34 -15s-20.5 -14 -28.5 -23s-15 -18.833 -21 -29.5c-4.66699 10.667 -11.334 20.5 -20.001 29.5s-18.167 16.667 -28.5 23s-21.666 11.333 -33.999 15s-24.5 5.5 -36.5 5.5
c-19.333 0 -37.166 -3.5 -53.499 -10.5s-30.833 -16.667 -43.5 -29s-22.334 -26.666 -29.001 -42.999s-10.334 -33.833 -11.001 -52.5c0.666992 -2.66699 1 -5.33398 1 -8.00098s0.333008 -5.33398 1 -8.00098s1 -5.5 1 -8.5s1 -6.16699 3 -9.5l2 -11
c11.333 -32.667 29.5 -65.834 54.5 -99.501s51 -64.167 78 -91.5s51 -50 72 -68s32.833 -28 35.5 -30l8 -7l10 7c2 2 14.333 12.5 37 31.5s47.5 42.5 74.5 70.5s53.167 58.667 78.5 92s41.333 65.333 48 96l5 11c0 2.66699 0.333008 5.5 1 8.5s1 5.83301 1 8.5
s0.333008 5.33398 1 8.00098s0.666992 5.33398 0 8.00098c0.666992 18.667 -2.66602 36.167 -9.99902 52.5s-17 30.666 -29 42.999s-26.5 22 -43.5 29s-34.5 10.5 -52.5 10.5v0zM478 300.001l-3.00293 -11c-6.66699 -24.667 -19.667 -50.834 -39 -78.501s-41 -54 -65 -79
s-46.667 -47.333 -68 -67s-37.333 -33.834 -48 -42.501c-8.66699 8.66699 -23.667 22.334 -45 41.001s-43.166 40.334 -65.499 65.001s-43.833 51.167 -64.5 79.5s-35 55.833 -43 82.5l-4 9c0 2.66699 -0.5 5 -1.5 7s-1.33301 4.16699 -1 6.5s0.166016 4.5 -0.500977 6.5
s-0.666992 4 0 6c-0.666992 14 2 27.5 8 40.5s13.5 24.167 22.5 33.5s20.167 16.833 33.5 22.5s27 8.5 41 8.5c14.667 0 28.334 -2.83301 41.001 -8.5s23.834 -13.167 33.501 -22.5s17.167 -20.5 22.5 -33.5s8.33301 -26.5 9 -40.5l-1 -8h31l-1 8
c0.666992 14 3.66699 27.5 9 40.5s12.833 24.167 22.5 33.5s20.834 16.833 33.501 22.5s26.334 8.5 41.001 8.5c14 0 27.667 -2.83301 41 -8.5s24.5 -13.167 33.5 -22.5s16.5 -20.5 22.5 -33.5s8.66699 -26.5 8 -40.5c0.666992 -2 0.666992 -4 0 -6
s-0.833984 -4 -0.500977 -6s0 -4.16699 -1 -6.5s-1.16699 -4.5 -0.5 -6.5h-1z" />
    <glyph glyph-name="uniE635" unicode="&#xe635;" 
d="M5 291c-0.666992 3.33301 -1.33105 6.50195 -1.99805 9.50195s-1 5.83301 -1 8.5s-0.333008 5.33398 -1 8.00098s-0.666992 5.33398 0 8.00098c-0.666992 18.667 2.66602 36.167 9.99902 52.5s17 30.666 29 42.999s26.5 22 43.5 29s34.5 10.5 52.5 10.5
c13.333 0 25.833 -1.83301 37.5 -5.5s23 -8.66699 34 -15s20.5 -14 28.5 -23s15 -18.833 21 -29.5c4.66699 10.667 11.334 20.5 20.001 29.5s18.167 16.667 28.5 23s21.666 11.333 33.999 15s24.5 5.5 36.5 5.5c19.333 0 37.166 -3.5 53.499 -10.5s30.833 -16.667 43.5 -29
s22.334 -26.666 29.001 -42.999s10.334 -33.833 11.001 -52.5c-0.666992 -2.66699 -1 -5.33398 -1 -8.00098s-0.333008 -5.33398 -1 -8.00098s-1 -5.5 -1 -8.5s-0.666992 -5.83301 -2 -8.5l-3 -11c-1.33301 -2.66699 -2.16602 -5.33398 -2.49902 -8.00098
s-1.33301 -5.5 -3 -8.5s-3 -6.16699 -4 -9.5s-2.5 -6.66602 -4.5 -9.99902l-27 12c1.33301 3.33301 2.66602 6.5 3.99902 9.5s2.33301 5.66699 3 8s1.5 4.66602 2.5 6.99902s1.5 4.83301 1.5 7.5l5 11c-0.666992 2 -0.5 4.16699 0.5 6.5s1.33301 4.5 1 6.5
s-0.166016 4 0.500977 6s0.666992 4 0 6c0.666992 14 -2 27.5 -8 40.5s-13.5 24.167 -22.5 33.5s-20.167 16.833 -33.5 22.5s-27 8.5 -41 8.5c-14.667 0 -28.334 -2.83301 -41.001 -8.5s-23.834 -13.167 -33.501 -22.5s-17.167 -20.5 -22.5 -33.5s-8.33301 -26.5 -9 -40.5
h-29c-0.666992 14 -3.66699 27.5 -9 40.5s-12.833 24.167 -22.5 33.5s-20.834 16.833 -33.501 22.5s-26.334 8.5 -41.001 8.5c-14 0 -27.667 -2.83301 -41 -8.5s-24.5 -13.167 -33.5 -22.5s-16.5 -20.5 -22.5 -33.5s-8.66699 -26.5 -8 -40.5c-0.666992 -2 -0.666992 -4 0 -6
s0.833984 -4.16699 0.500977 -6.5s0 -4.5 1 -6.5s1.5 -4.33301 1.5 -7l4 -9c0 -2.66699 0.5 -5.16699 1.5 -7.5l3 -7c1 -2.33301 2.33301 -5 4 -8s2.83398 -5.83301 3.50098 -8.5l-26 -14c-2.66699 3.33301 -4.5 6.66602 -5.5 9.99902s-2.33301 6.33301 -4 9
s-2.83398 5.5 -3.50098 8.5s-1.66699 5.5 -3 7.5l-2 11h-1zM256.003 22.002l-24.999 21.001c-11.333 9.33301 -23.666 20.5 -36.999 33.5l-43.5 44c-15.667 16.333 -30.167 33.833 -43.5 52.5l-25 -18c18.667 -24 37.334 -45.833 56.001 -65.5s36.167 -36.834 52.5 -51.501
s29.666 -26 39.999 -34s16.166 -12.333 17.499 -13l8 -7l10 7c0 0.666992 5.66699 5.16699 17 13.5s25 19.833 41 34.5s33.667 31.834 53 51.501s37.666 41.167 54.999 64.5l-23 18c-14.667 -18 -29.5 -35.167 -44.5 -51.5s-29.667 -31 -44 -44l-38 -34
c-11 -9.66699 -19.833 -16.834 -26.5 -21.501v0zM428.004 257.003l-86 -61l-85 61l-86 -61l-85 61l-95 -67l19 -24l75 54l87 -60l84 60l87 -60l84 60l77 -54l17 24l-93 67v0z" />
    <glyph glyph-name="uniE636" unicode="&#xe636;" 
d="M422 347l0.0107422 -218.992c0 -6 -0.666992 -12.667 -2 -20s-2.83301 -14.333 -4.5 -21s-3.66699 -13.667 -6 -21l-6.5 -20c-1.33301 -4.66699 -2.66602 -8.83398 -3.99902 -12.501l-4 -11.5c-1.33301 -4 -2.16602 -7.33301 -2.49902 -10s-0.5 -5 -0.5 -7v-22
c0 -2.66699 -0.5 -4.83398 -1.5 -6.50098s-2.16699 -3.33398 -3.5 -5.00098s-2.83301 -2.66699 -4.5 -3s-3.83398 -0.833008 -6.50098 -1.5c-2 0.666992 -3.83301 1.16699 -5.5 1.5s-3.16699 1.33301 -4.5 3s-2.5 3.33398 -3.5 5.00098s-1.5 3.83398 -1.5 6.50098v22
c0 3.33301 0.333008 6.66602 1 9.99902s1.66699 7.16602 3 11.499l4 13l5 15.5c2 5.33301 4 11.333 6 18s3.83301 13.167 5.5 19.5s3.16699 12.666 4.5 18.999s2 11.833 2 16.5v219c0 1.33301 -0.5 3.16602 -1.5 5.49902s-2.16699 4 -3.5 5s-2.83301 2 -4.5 3
s-3.5 1.16699 -5.5 0.5c-2 0.666992 -4 0.5 -6 -0.5s-3.66699 -2 -5 -3s-2.33301 -2.5 -3 -4.5s-1.33398 -3.66699 -2.00098 -5c0 -0.666992 0 -0.833984 0 -0.500977v0v0c0 0.333008 0 0.166016 0 -0.500977v-116c0 -2.66699 -0.333008 -4.66699 -1 -6
s-1.66699 -2.83301 -3 -4.5s-3 -2.83398 -5 -3.50098l-6 -2c-2 0.666992 -3.83301 1.33398 -5.5 2.00098s-3.16699 1.83398 -4.5 3.50098l-3.5 4.5c-1 1.33301 -1.5 3.33301 -1.5 6v122v1v0.5v0c0 -0.333008 0 -0.166016 0 0.500977v41c0 2.66699 -0.166992 4.66699 -0.5 6
s-1.16602 2.83301 -2.49902 4.5s-2.83301 2.83398 -4.5 3.50098s-3.5 1.33398 -5.5 2.00098c-2 -0.666992 -4 -1.16699 -6 -1.5s-3.66699 -1.33301 -5 -3l-3.5 -4.5c-1 -1.33301 -1.5 -3.33301 -1.5 -6c0 0.666992 -0.166992 0.833984 -0.5 0.500977l-0.5 -0.5v-0.5
c0 -0.333008 0 -0.166016 0 0.500977v-136c0 -1.33301 -0.333008 -3.16602 -1 -5.49902s-1.66699 -4 -3 -5s-3 -2 -5 -3s-4 -1.16699 -6 -0.5c-2 -0.666992 -3.83301 -0.5 -5.5 0.5l-5 3c-1.66699 1 -2.83398 2.66699 -3.50098 5s-1 4.16602 -1 5.49902v149
c0 -0.666992 0 -0.833984 0 -0.500977v0.5v0.5c0 0.333008 0 0.166016 0 -0.500977v25c0 1.33301 -0.333008 3.16602 -1 5.49902s-1.66699 4 -3 5s-3 2 -5 3s-4 1.16699 -6 0.5c-2.66699 0.666992 -4.83398 0.5 -6.50098 -0.5s-3.16699 -2 -4.5 -3s-2.33301 -2.66699 -3 -5
s-1 -4.16602 -1 -5.49902v-27c0 0.666992 0 0.833984 0 0.500977v-0.5v-0.5c0 -0.333008 0 -0.166016 0 0.500977v-1v-146c0 -3.33301 -0.333008 -5.66602 -1 -6.99902s-1.83398 -2.83301 -3.50098 -4.5s-3.33398 -2.83398 -5.00098 -3.50098s-3.5 -1.33398 -5.5 -2.00098
l-6 2c-2 0.666992 -3.66699 1.83398 -5 3.50098s-2.33301 3.16699 -3 4.5s-1 3.66602 -1 6.99902v-1v139c0 -0.666992 0 -0.833984 0 -0.500977v0v0c0 0.333008 0 0.166016 0 -0.500977c-0.666992 2.66699 -1.33398 4.5 -2.00098 5.5s-1.66699 2.33301 -3 4s-3 2.66699 -5 3
s-3.66699 0.833008 -5 1.5c-2.66699 -0.666992 -4.83398 -1.33398 -6.50098 -2.00098s-3.16699 -1.83398 -4.5 -3.50098l-3.5 -4.5c-1 -1.33301 -1.5 -3.33301 -1.5 -6v-171c0 -2 -0.166992 -3.5 -0.5 -4.5s-0.833008 -2.33301 -1.5 -4s-1.66699 -2.83398 -3 -3.50098
s-2.66602 -1.66699 -3.99902 -3c-1.33301 0 -2.83301 -0.166992 -4.5 -0.5s-3.16699 -0.166016 -4.5 0.500977l-4 2c-1.33301 0.666992 -2.66602 1.66699 -3.99902 3l-34 37c-2.66699 4 -5.16699 6.5 -7.5 7.5s-4.5 1.83301 -6.5 2.5s-3.66699 0.5 -5 -0.5
s-2.33301 -1.16699 -3 -0.5c-0.666992 -1.33301 -1.5 -2.16602 -2.5 -2.49902s-1.83301 -1 -2.5 -2s-1.16699 -1.83301 -1.5 -2.5s-0.5 -1.66699 -0.5 -3c-0.666992 -0.666992 -1 -1.5 -1 -2.5s0.166992 -1.83301 0.5 -2.5s0.666016 -1.66699 0.999023 -3l0.5 -2l99 -212
c0.666992 0 1.33398 -0.5 2.00098 -1.5s1.33398 -1.5 2.00098 -1.5s1.5 -0.333008 2.5 -1s1.83301 -1 2.5 -1c2 -0.666992 3.66699 -1.33398 5 -2.00098s2.5 -1.83398 3.5 -3.50098s1.83301 -3.16699 2.5 -4.5s1 -3 1 -5v-26c0 -2.66699 -0.5 -4.83398 -1.5 -6.50098
s-2.16699 -3.33398 -3.5 -5.00098s-2.83301 -2.66699 -4.5 -3s-3.5 -0.833008 -5.5 -1.5c-2 0.666992 -4 1.16699 -6 1.5s-3.66699 1.33301 -5 3s-2.33301 3.33398 -3 5.00098s-1 3.83398 -1 6.50098v16c-2 1.33301 -3.83301 2.33301 -5.5 3s-3.16699 2 -4.5 4
s-2.66602 3.5 -3.99902 4.5s-2.33301 2.83301 -3 5.5l-99 210c-1.33301 2.66699 -2.5 5.16699 -3.5 7.5s-1.66699 5.16602 -2 8.49902s-0.333008 6.16602 0 8.49902s0.833008 5.5 1.5 9.5c0.666992 2 1.66699 4.5 3 7.5s2.83301 5.5 4.5 7.5s3.66699 4.16699 6 6.5
s4.83301 3.83301 7.5 4.5c5.33301 3.33301 10.5 5.33301 15.5 6s10.167 0.5 15.5 -0.5s10.5 -3.16699 15.5 -6.5s9.5 -7.33301 13.5 -12l7 -9v133c0 5.33301 1.16699 11 3.5 17s5.66602 10.833 9.99902 14.5s9.16602 6.83398 14.499 9.50098s11.333 3.66699 18 3
c1.33301 0.666992 2.66602 0.833984 3.99902 0.500977s2.5 -0.5 3.5 -0.5s2.16699 -0.333008 3.5 -1s2.66602 -1 3.99902 -1c0 5.33301 1.33301 10.666 4 15.999s6 9.66602 10 12.999s8.66699 6.16602 14 8.49902s11 3.16602 17 2.49902
c6 0.666992 11.667 -0.166016 17 -2.49902s10 -5.33301 14 -9s7.33301 -8.16699 10 -13.5s4 -10.333 4 -15c1.33301 0 2.66602 0.333008 3.99902 1s2.83301 0.833984 4.5 0.500977s3.16699 -0.166016 4.5 0.500977s2.66602 0.666992 3.99902 0
c6 0.666992 11.667 -0.333008 17 -3s10 -5.83398 14 -9.50098s7 -8.33398 9 -14.001s3 -11.5 3 -17.5v-9c1.33301 1.33301 2.66602 2 3.99902 2s2.66602 0.333008 3.99902 1s2.66602 0.833984 3.99902 0.500977s2.66602 -0.166016 3.99902 0.500977
c6.66699 -0.666992 12.667 -2 18 -4s10 -5.16699 14 -9.5s7.16699 -9 9.5 -14s3.5 -11.167 3.5 -18.5v1z" />
    <glyph glyph-name="uniE637" unicode="&#xe637;" 
d="M459 317l-36.0059 -243.01c-0.666992 -4.66699 -1.66699 -8.66699 -3 -12s-2.83301 -6.33301 -4.5 -9s-3.33398 -4.83398 -5.00098 -6.50098s-3.16699 -3.5 -4.5 -5.5c-2 -1.33301 -3.5 -2.66602 -4.5 -3.99902s-2 -3 -3 -5s-1.66699 -4.5 -2 -7.5
s-0.5 -6.83301 -0.5 -11.5v-30c0 -2 -0.333008 -4 -1 -6s-1.66699 -3.66699 -3 -5s-3 -2.33301 -5 -3s-4 -1 -6 -1s-4 0.333008 -6 1s-3.66699 1.66699 -5 3s-2.33301 3 -3 5s-1 4 -1 6v30c0 7.33301 0.5 13.666 1.5 18.999s2.33301 9.83301 4 13.5
s3.66699 6.83398 6 9.50098s4.5 5.33398 6.5 8.00098l3.5 3.5c1 1 1.83301 2 2.5 3s1.33398 2.33301 2.00098 4s1.33398 3.5 2.00098 5.5l35 242c0 0.666992 0.166992 2 0.5 4s0.166016 4 -0.500977 6s-1.5 3.66699 -2.5 5s-2.83301 2.33301 -5.5 3h-2.5
c-1 0 -1.83301 -0.166992 -2.5 -0.5s-1.16699 -0.5 -1.5 -0.5s-0.833008 -0.333008 -1.5 -1l-2 -2c-0.666992 -0.666992 -1.33398 -1.5 -2.00098 -2.5s-1.16699 -2.16699 -1.5 -3.5s-0.5 -2.33301 -0.5 -3l-15 -100c0 -1.33301 -0.333008 -2.66602 -1 -3.99902
s-1.33398 -2.5 -2.00098 -3.5s-1.5 -1.83301 -2.5 -2.5s-2.16699 -1.33398 -3.5 -2.00098s-2.5 -1 -3.5 -1h-3.5c-1.33301 0 -2.66602 0.166992 -3.99902 0.5s-2.33301 1.16602 -3 2.49902c-0.666992 -0.666992 -1.16699 -0.833984 -1.5 -0.500977s-0.833008 0.5 -1.5 0.5
s-1.33398 0.166992 -2.00098 0.5s-1.33398 0.833008 -2.00098 1.5c-1.33301 0.666992 -2.33301 1.5 -3 2.5l-2 3c-0.666992 1 -1.16699 2.16699 -1.5 3.5s-0.5 2.66602 -0.5 3.99902l9 160c0 2 -0.333008 3.83301 -1 5.5s-1.5 3.33398 -2.5 5.00098
s-2.33301 2.83398 -4 3.50098s-3.5 1.33398 -5.5 2.00098c-1.33301 0 -2.33301 -0.166992 -3 -0.5s-1.5 -0.5 -2.5 -0.5s-2 -0.333008 -3 -1s-1.83301 -1.33398 -2.5 -2.00098l-2 -2c-0.666992 -0.666992 -1.16699 -1.33398 -1.5 -2.00098s-0.666016 -1.5 -0.999023 -2.5
s-0.5 -1.83301 -0.5 -2.5l-14 -144c0 -2 -0.5 -3.83301 -1.5 -5.5s-2.16699 -3.16699 -3.5 -4.5s-2.83301 -2.33301 -4.5 -3s-3.83398 -1 -6.50098 -1h-1.5h-1.5h-2h-2c-2 0 -3.83301 0.5 -5.5 1.5s-3.16699 2.16699 -4.5 3.5s-2.5 2.83301 -3.5 4.5s-1.5 3.5 -1.5 5.5
l-3 184c0 2.66699 -0.333008 4.83398 -1 6.50098s-1.66699 3.16699 -3 4.5s-2.83301 2.33301 -4.5 3s-3.5 1 -5.5 1s-3.83301 -0.333008 -5.5 -1s-3.16699 -1.66699 -4.5 -3s-2.33301 -2.83301 -3 -4.5s-1 -3.5 -1 -5.5l-4 -199
c0 -1.33301 -0.166992 -2.66602 -0.5 -3.99902s-1 -2.5 -2 -3.5l-3 -3c-1 -1 -2.16699 -1.83301 -3.5 -2.5l-1 -0.5c-0.666992 -0.333008 -1.16699 -0.666016 -1.5 -0.999023s-0.666016 -0.5 -0.999023 -0.5s-0.833008 -0.333008 -1.5 -1
c-1.33301 -0.666992 -2.5 -1.16699 -3.5 -1.5s-2.16699 -0.5 -3.5 -0.5s-2.66602 0.166992 -3.99902 0.5s-2.33301 0.833008 -3 1.5c-1.33301 0.666992 -2.5 1.33398 -3.5 2.00098s-1.83301 1.66699 -2.5 3s-1.16699 2.5 -1.5 3.5s-0.5 2.16699 -0.5 3.5l-16 160
c0 1.33301 -0.166992 2.5 -0.5 3.5s-0.666016 1.83301 -0.999023 2.5s-0.833008 1.33398 -1.5 2.00098l-2 2c-0.666992 0.666992 -1.5 1.33398 -2.5 2.00098s-1.83301 1 -2.5 1s-1.5 0.166992 -2.5 0.5s-1.83301 0.5 -2.5 0.5c-1.33301 -0.666992 -2.33301 -1 -3 -1
s-1.5 -0.333008 -2.5 -1s-1.83301 -1.16699 -2.5 -1.5s-1.33398 -0.833008 -2.00098 -1.5l-1.5 -3c-0.333008 -0.666992 -0.666016 -1.5 -0.999023 -2.5s-0.5 -1.83301 -0.5 -2.5v-3l15 -214c0 -1.33301 -0.166992 -2.83301 -0.5 -4.5s-1 -3.16699 -2 -4.5s-2 -2.5 -3 -3.5
s-2.5 -1.83301 -4.5 -2.5c-1.33301 -0.666992 -2.83301 -1 -4.5 -1s-3.16699 0.166992 -4.5 0.5s-2.66602 1 -3.99902 2s-2.66602 2.16699 -3.99902 3.5l-47 59c-1.33301 2.66699 -3 4.83398 -5 6.50098s-4.16699 2.83398 -6.5 3.50098s-4.66602 0.833984 -6.99902 0.500977
s-4.5 -1.16602 -6.5 -2.49902c-0.666992 -0.666992 -1.5 -1.33398 -2.5 -2.00098s-1.83301 -1.5 -2.5 -2.5l-2 -3c-0.666992 -1 -1 -2.16699 -1 -3.5c-0.666992 -0.666992 -1 -1.66699 -1 -3s0.166992 -2.5 0.5 -3.5l1 -3c0.333008 -1 0.833008 -2.16699 1.5 -3.5l106 -183
c0.666992 -1.33301 1.33398 -2.33301 2.00098 -3l2.5 -2.5c1 -1 2 -1.66699 3 -2s2.16699 -0.833008 3.5 -1.5c2 0 3.66699 -0.5 5 -1.5s2.5 -2.16699 3.5 -3.5s1.83301 -2.83301 2.5 -4.5s1 -3.16699 1 -4.5v-21c0 -2 -0.5 -4 -1.5 -6s-2.16699 -3.66699 -3.5 -5
s-2.83301 -2.33301 -4.5 -3s-3.83398 -1 -6.50098 -1c-2 0 -3.83301 0.333008 -5.5 1s-3.16699 1.66699 -4.5 3s-2.5 3 -3.5 5s-1.5 4 -1.5 6v11c-1.33301 0.666992 -3 1.66699 -5 3s-3.66699 2.83301 -5 4.5l-4 5c-1.33301 1.66699 -2.66602 3.5 -3.99902 5.5l-106 183
c-2 2.66699 -3.5 5.5 -4.5 8.5s-1.66699 6 -2 9s-0.333008 6.16699 0 9.5s0.833008 6.33301 1.5 9c0.666992 3.33301 1.66699 6.33301 3 9s3 5.33398 5 8.00098s4.16699 5 6.5 7s4.83301 3.66699 7.5 5c6 3.33301 12 5.33301 18 6s12 0.333984 18 -0.999023s11.5 -4 16.5 -8
s9.16699 -8.66699 12.5 -14l15 -19l-11 165c-0.666992 2.66699 -0.833984 5.5 -0.500977 8.5s1 5.83301 2 8.5s2.16699 5.16699 3.5 7.5s3 4.83301 5 7.5c2 2 4.16699 4 6.5 6s4.66602 3.66699 6.99902 5s5 2.33301 8 3s5.83301 1.33398 8.5 2.00098
c3.33301 0 6.33301 -0.166992 9 -0.5s5.33398 -1 8.00098 -2s5.33398 -2.16699 8.00098 -3.5s5 -3 7 -5c1.33301 -0.666992 2.5 -1.5 3.5 -2.5l3 -3c1 -1 1.83301 -2.16699 2.5 -3.5l2 -4v23c0 6 1.16699 11.667 3.5 17s5.5 10 9.5 14s8.66699 7.16699 14 9.5
s11.333 3.5 18 3.5c6 0 11.667 -1.16699 17 -3.5s10 -5.5 14 -9.5s7.16699 -8.66699 9.5 -14s3.5 -11 3.5 -17v-23c0.666992 1.33301 1.5 2.66602 2.5 3.99902s1.83301 2.5 2.5 3.5s1.5 2 2.5 3s2.16699 1.83301 3.5 2.5c2 2 4.33301 3.66699 7 5s5.33398 2.5 8.00098 3.5
s5.5 1.66699 8.5 2s5.83301 0.5 8.5 0.5c6.66699 -0.666992 12.5 -2.5 17.5 -5.5s9.33301 -6.66699 13 -11s6.5 -9.16602 8.5 -14.499s2.66699 -11.333 2 -18l-2 -29l0.5 0.5c0.333008 0.333008 0.666016 0.5 0.999023 0.5s0.5 0.166992 0.5 0.5s0.333008 0.5 1 0.5
c2 1.33301 4.16699 2.66602 6.5 3.99902s4.83301 2.33301 7.5 3s5.33398 1 8.00098 1s5.33398 -0.333008 8.00098 -1c6 -0.666992 11.333 -2.5 16 -5.5s8.5 -6.66699 11.5 -11s5 -9.5 6 -15.5s1.16699 -12.333 0.5 -19v0z" />
    <glyph glyph-name="uniE638" unicode="&#xe638;" 
d="M421 311l0.00683594 -176.001c0 -5.33301 -0.666992 -10.5 -2 -15.5s-3 -9.33301 -5 -13s-4.16699 -7 -6.5 -10l-6.5 -8.5c-2 -2 -3.66699 -4 -5 -6s-2.5 -3.66699 -3.5 -5s-1.66699 -2.83301 -2 -4.5s-0.5 -3.5 -0.5 -5.5v-54c0 -2 -0.5 -3.83301 -1.5 -5.5
s-2.16699 -3.33398 -3.5 -5.00098s-2.83301 -2.83398 -4.5 -3.50098s-3.5 -1 -5.5 -1s-4 0.333008 -6 1s-3.66699 1.83398 -5 3.50098s-2.33301 3.33398 -3 5.00098s-1 3.5 -1 5.5v54c0 4.66699 0.5 9 1.5 13s2.33301 7.5 4 10.5s3.5 5.83301 5.5 8.5l6 8
c2 2 3.83301 4 5.5 6s3 4.16699 4 6.5s1.83301 4.83301 2.5 7.5s1 5.33398 1 8.00098v176c0 2.66699 -0.333008 5 -1 7s-1.83398 4 -3.50098 6s-3.5 3.5 -5.5 4.5s-4 1.5 -6 1.5c-2.66699 0 -4.83398 -0.166992 -6.50098 -0.5s-2.83398 -0.5 -3.50098 -0.5
s-1.16699 -0.166992 -1.5 -0.5l-0.5 -0.5c-0.666992 -0.666992 -1.16699 -2 -1.5 -4s-0.5 -4.33301 -0.5 -7v-8.5v-9.5v-4v-4.5v-5v-5.5c0 -2 -0.5 -3.83301 -1.5 -5.5s-2.16699 -3.16699 -3.5 -4.5s-2.83301 -2.5 -4.5 -3.5s-3.5 -1.5 -5.5 -1.5s-4 0.5 -6 1.5
s-3.66699 2.16699 -5 3.5s-2.33301 2.83301 -3 4.5s-1 3.5 -1 5.5v64c0 2.66699 -0.5 5 -1.5 7s-2.16699 3.66699 -3.5 5s-3 2.33301 -5 3s-4 1 -6 1s-3.83301 -0.333008 -5.5 -1s-3.16699 -1.66699 -4.5 -3s-2.33301 -2.83301 -3 -4.5s-1.33398 -3.5 -2.00098 -5.5v-61
c0 -2 -0.333008 -3.83301 -1 -5.5s-1.66699 -3.16699 -3 -4.5s-3 -2.5 -5 -3.5s-4 -1.5 -6 -1.5s-3.83301 0.5 -5.5 1.5s-3.16699 2.16699 -4.5 3.5s-2.5 2.83301 -3.5 4.5s-1.5 3.5 -1.5 5.5v0v61v0v0v0v0v24v3.5c0 2.33301 -0.5 4.5 -1.5 6.5s-2.5 4 -4.5 6
s-4.66699 3 -8 3s-6 -0.666992 -8 -2s-3.66699 -3 -5 -5s-2.16602 -4.16699 -2.49902 -6.5s-0.5 -4.16602 -0.5 -5.49902v-22v-0.5v-0.5v-0.5v-0.5v-78c0 -2 -0.5 -4 -1.5 -6s-2.16699 -3.66699 -3.5 -5s-2.83301 -2.33301 -4.5 -3s-3.5 -1 -5.5 -1s-4 0.333008 -6 1
s-3.66699 1.66699 -5 3s-2.33301 3 -3 5s-1 4 -1 6v0v81l-2 4c-0.666992 1.33301 -1.5 2.5 -2.5 3.5s-2.33301 1.83301 -4 2.5s-3.5 1 -5.5 1c-2.66699 0 -4.83398 -0.333008 -6.50098 -1s-3.33398 -1.83398 -5.00098 -3.50098s-2.83398 -3.5 -3.50098 -5.5
s-1 -4.33301 -1 -7v-101v0v0v0v0v-33c0 -2.66699 -0.5 -4.83398 -1.5 -6.50098s-2.16699 -3.16699 -3.5 -4.5s-2.83301 -2.33301 -4.5 -3s-3.5 -1 -5.5 -1c-2.66699 0 -4.83398 0.333008 -6.50098 1s-3.16699 1.66699 -4.5 3s-2.5 2.83301 -3.5 4.5
s-1.5 3.83398 -1.5 6.50098v25c-1.33301 0 -2.66602 0.333008 -3.99902 1s-2.83301 1 -4.5 1s-3.16699 0.166992 -4.5 0.5s-2.66602 0.166016 -3.99902 -0.500977c-0.666992 0 -1.5 -0.166992 -2.5 -0.5s-1.83301 -1 -2.5 -2s-1.33398 -1.83301 -2.00098 -2.5
s-1.33398 -1.66699 -2.00098 -3c-0.666992 -0.666992 -1.16699 -1.66699 -1.5 -3s-0.666016 -2.83301 -0.999023 -4.5s-0.333008 -3.5 0 -5.5s0.833008 -4 1.5 -6l52 -112v-0.5v-1c0 -0.333008 0.166992 -0.666016 0.5 -0.999023l0.5 -0.5c0 -2 0.666992 -3.83301 2 -5.5
s2.66602 -3.16699 3.99902 -4.5s3 -2.33301 5 -3s4 -0.666992 6 0h3.5c1 0 2 -0.166992 3 -0.5s2 -0.833008 3 -1.5s1.83301 -1.33398 2.5 -2.00098s1.33398 -1.5 2.00098 -2.5s1.16699 -2 1.5 -3l1 -3c0.333008 -1 0.5 -1.83301 0.5 -2.5v-53
c0 -2 -0.333008 -3.83301 -1 -5.5s-1.66699 -3.33398 -3 -5.00098s-3 -2.83398 -5 -3.50098s-4 -1 -6 -1s-4 0.333008 -6 1s-3.66699 1.83398 -5 3.50098s-2.33301 3.33398 -3 5.00098s-1 3.5 -1 5.5v39c-4 0.666992 -7.83301 2.16699 -11.5 4.5s-7 4.83301 -10 7.5
s-5.5 5.83398 -7.5 9.50098s-3.33301 7.83398 -4 12.501l-51 110c-2 4 -3.33301 8 -4 12s-1 7.83301 -1 11.5s0.5 7.5 1.5 11.5s2.5 7.66699 4.5 11c1.33301 3.33301 3.16602 6.16602 5.49902 8.49902s4.83301 4.66602 7.5 6.99902s5.33398 4.16602 8.00098 5.49902
s5.66699 2.33301 9 3c1.33301 0 3 0.166992 5 0.5s4 0.333008 6 0s4 -0.5 6 -0.5s4 -0.333008 6 -1v22v0h0.5h0.5v1v55c0 6.66699 1.16699 12.834 3.5 18.501s5.5 10.667 9.5 15s8.83301 7.83301 14.5 10.5s11.834 4 18.501 4c1.33301 0 2.66602 -0.166992 3.99902 -0.5
s2.83301 -0.666016 4.5 -0.999023s3.16699 -0.666016 4.5 -0.999023s2.66602 -0.833008 3.99902 -1.5c1.33301 4.66699 3.33301 9 6 13s5.83398 7.33301 9.50098 10s7.83398 4.83398 12.501 6.50098s9.66699 2.5 15 2.5c4.66699 0 9.33398 -0.833008 14.001 -2.5
s8.66699 -3.83398 12 -6.50098s6.33301 -6 9 -10s5 -8.33301 7 -13c1.33301 0.666992 2.66602 1.16699 3.99902 1.5l4 1c1.33301 0.333008 2.83301 0.666016 4.5 0.999023s3.16699 0.5 4.5 0.5c5.33301 0 10.333 -0.833008 15 -2.5s8.83398 -4 12.501 -7s7 -6.5 10 -10.5
s5.16699 -8.33301 6.5 -13c1.33301 0.666992 2.66602 1 3.99902 1s2.66602 0.166992 3.99902 0.5s2.66602 0.5 3.99902 0.5h4c6 0 11.833 -1.33301 17.5 -4s10.667 -6.16699 15 -10.5s7.83301 -9.5 10.5 -15.5s4 -12.333 4 -19v0z" />
    <glyph glyph-name="uniE639" unicode="&#xe639;" 
d="M241 360l-59 60h-182v-452h512v392h-271v0zM169 390l59 -61h254v-61l-452 1v121h139v0zM30 -2v241l452 -1v-240h-452v0z" />
    <glyph glyph-name="uniE63A" unicode="&#xe63a;" 
d="M392 179v278l-358 -139l358 -139v0zM361 223l-244 95l244 95v-190v0zM452 480v-512h-30v512h30v0z" />
    <glyph glyph-name="uniE63B" unicode="&#xe63b;" 
d="M452 480v-512h-30v512h30v0zM46 451h346v-241h-347l88 119l-87 122v0zM361 420h-256l65 -92l-65 -88h256v180v0z" />
    <glyph glyph-name="uniE63C" unicode="&#xe63c;" 
d="M452 480v-512h-30v512h30v0zM150 450h241v-241h-150v-60h-211v241h120v60v0zM211 209h-60v151h-91v-181h151v30v0zM180 420v-30h1v-151h180v181h-181v0z" />
    <glyph glyph-name="uniE63D" unicode="&#xe63d;" 
d="M511 214c-10 24.667 -23.5 47.167 -40.5 67.5s-36.667 37.666 -59 51.999s-46.666 25.5 -72.999 33.5s-53.833 12 -82.5 12s-56.167 -4 -82.5 -12s-50.666 -19.167 -72.999 -33.5s-42 -31.666 -59 -51.999s-30.5 -42.833 -40.5 -67.5
c0 -0.666992 -0.166992 -1.5 -0.5 -2.5s-0.5 -1.83301 -0.5 -2.5s0.166992 -1.5 0.5 -2.5s0.5 -2.16699 0.5 -3.5c10 -24 23.5 -46.167 40.5 -66.5s36.667 -37.666 59 -51.999s46.666 -25.5 72.999 -33.5s53.833 -12 82.5 -12s56.167 4 82.5 12s50.666 19.167 72.999 33.5
s42 31.666 59 51.999s30.5 42.5 40.5 66.5c0 1.33301 0.166992 2.5 0.5 3.5s0.5 1.83301 0.5 2.5s-0.166992 1.5 -0.5 2.5s-0.5 1.83301 -0.5 2.5v0zM256 69c-24.667 0 -48.667 3.33301 -72 10s-44.833 16.167 -64.5 28.5s-37 27 -52 44s-27.167 36.167 -36.5 57.5
c9.33301 20.667 21.5 39.667 36.5 57s32.333 32.166 52 44.499s41.167 21.833 64.5 28.5s47.333 10 72 10s48.667 -3.33301 72 -10s44.833 -16.167 64.5 -28.5s37 -27.166 52 -44.499s27.167 -36.333 36.5 -57c-9.33301 -21.333 -21.5 -40.5 -36.5 -57.5
s-32.333 -31.667 -52 -44s-41.167 -21.833 -64.5 -28.5s-47.333 -10 -72 -10v0zM256 319c-15.333 0 -29.666 -3 -42.999 -9s-24.833 -13.833 -34.5 -23.5s-17.5 -21.167 -23.5 -34.5s-9 -27.666 -9 -42.999s3 -29.666 9 -42.999s13.833 -25 23.5 -35
s21.167 -17.833 34.5 -23.5s27.666 -8.5 42.999 -8.5s29.666 2.83301 42.999 8.5s24.833 13.5 34.5 23.5s17.5 21.667 23.5 35s9 27.666 9 42.999s-3 29.666 -9 42.999s-13.833 24.833 -23.5 34.5s-21.167 17.5 -34.5 23.5s-27.666 9 -42.999 9v0zM256 129
c-10.667 0 -20.834 2.16699 -30.501 6.5s-18.167 10 -25.5 17s-13.166 15.333 -17.499 25s-6.5 20.167 -6.5 31.5c0 10.667 2.16699 20.834 6.5 30.501s10.166 18.167 17.499 25.5s15.833 13.166 25.5 17.499s19.834 6.5 30.501 6.5s20.834 -2.16699 30.501 -6.5
s18.167 -10.166 25.5 -17.499s13.166 -15.833 17.499 -25.5s6.5 -19.834 6.5 -30.501c0 -11.333 -2.16699 -21.833 -6.5 -31.5s-10.166 -18 -17.499 -25s-15.833 -12.667 -25.5 -17s-19.834 -6.5 -30.501 -6.5v0zM256 250c-5.33301 0 -10.5 -1.16699 -15.5 -3.5
s-9.33301 -5.33301 -13 -9s-6.66699 -8 -9 -13s-3.5 -10.167 -3.5 -15.5c0 -6 1.16699 -11.333 3.5 -16s5.33301 -8.83398 9 -12.501s8 -6.66699 13 -9s10.167 -3.5 15.5 -3.5s10.5 1.16699 15.5 3.5s9.33301 5.33301 13 9s6.66699 7.83398 9 12.501s3.5 10 3.5 16
c0 5.33301 -1.16699 10.5 -3.5 15.5s-5.33301 9.33301 -9 13s-8 6.66699 -13 9s-10.167 3.5 -15.5 3.5v0zM256 198c-1.33301 0 -2.66602 0.333008 -3.99902 1s-2.5 1.5 -3.5 2.5s-1.83301 2.16699 -2.5 3.5s-1 2.66602 -1 3.99902s0.333008 2.66602 1 3.99902
s1.5 2.5 2.5 3.5s2.16699 1.83301 3.5 2.5s2.66602 1 3.99902 1s2.66602 -0.333008 3.99902 -1s2.5 -1.5 3.5 -2.5s1.83301 -2.16699 2.5 -3.5s1 -2.66602 1 -3.99902s-0.333008 -2.66602 -1 -3.99902s-1.5 -2.5 -2.5 -3.5s-2.16699 -1.83301 -3.5 -2.5
s-2.66602 -1 -3.99902 -1v0z" />
    <glyph glyph-name="uniE63E" unicode="&#xe63e;" 
d="M131 301l-22 21l147 150l145 -150l-20 -21l-111 113l1 -325h-31l1 325l-111 -113h1zM482 208l-0.998047 -195c0.666992 -2 0.5 -3.83301 -0.5 -5.5s-2.16699 -3.33398 -3.5 -5.00098s-3 -2.83398 -5 -3.50098s-3.66699 -1 -5 -1h-423c-1.33301 0 -3 0.333008 -5 1
s-3.66699 1.83398 -5 3.50098s-2.5 3.33398 -3.5 5.00098s-1.16699 3.5 -0.5 5.5l-1 195h-29l-1 -195c0.666992 -6 2 -11.833 4 -17.5s5.16699 -10.5 9.5 -14.5s9.16602 -7.16699 14.499 -9.5s11.333 -3.5 18 -3.5h421c6.66699 0 12.667 1.16699 18 3.5
s10.166 5.5 14.499 9.5s7.5 8.83301 9.5 14.5s3.33301 11.5 4 17.5l-1 195h-29v0z" />
    <glyph glyph-name="uniE63F" unicode="&#xe63f;" 
d="M181 27v212h-30v-212l-110 110l-22 -22l147 -146l146 146l-21 22l-110 -110v0zM165 12h1v0h-1v0zM471 311l-110 110v-214h-30v214l-110 -110l-21 22l146 146l147 -146l-22 -22v0z" />
    <glyph glyph-name="uniE640" unicode="&#xe640;" 
d="M60 149h392v241h-392v-241v0zM90 360h332v-181h-332v181v0zM467 450h-422c-6 0 -11.833 -1.16699 -17.5 -3.5s-10.5 -5.33301 -14.5 -9s-7.16699 -8.16699 -9.5 -13.5s-3.5 -11 -3.5 -17v-306c0 -6 1.16699 -11.5 3.5 -16.5s5.5 -9.5 9.5 -13.5
s8.83301 -7.16699 14.5 -9.5s11.5 -3.5 17.5 -3.5h422c6 0 11.833 1.16699 17.5 3.5s10.5 5.5 14.5 9.5s7.16699 8.5 9.5 13.5s3.5 10.5 3.5 16.5v306c0 6 -1.16699 11.667 -3.5 17s-5.5 9.83301 -9.5 13.5s-8.83301 6.66699 -14.5 9s-11.5 3.5 -17.5 3.5v0zM482 101
c0 -1.33301 -0.333008 -2.83301 -1 -4.5s-1.83398 -3.16699 -3.50098 -4.5s-3.33398 -2.33301 -5.00098 -3s-3.5 -1 -5.5 -1h-422c-2 0 -3.83301 0.333008 -5.5 1s-3.33398 1.66699 -5.00098 3s-2.83398 2.83301 -3.50098 4.5s-1 3.16699 -1 4.5v306
c0 2 0.333008 3.66699 1 5s1.83398 2.66602 3.50098 3.99902s3.33398 2.33301 5.00098 3s3.5 1 5.5 1h422c2 0 3.83301 -0.333008 5.5 -1s3.33398 -1.66699 5.00098 -3s2.83398 -2.66602 3.50098 -3.99902s1 -3 1 -5v-306v0zM151 28h210v-30h-210v30v0z" />
    <glyph glyph-name="uniE641" unicode="&#xe641;" 
d="M512 450l-68.0039 0.000976562v4v3.5v3.5v4v15h-376v-15v-4v-3.5v-3.5v-4h-68v-15c0 -8 0.166992 -16.167 0.5 -24.5l1 -25c0.333008 -8.33301 0.833008 -16.666 1.5 -24.999s1.66699 -16.833 3 -25.5c2.66699 -22 6.33398 -44.5 11.001 -67.5s10.5 -44.333 17.5 -64
s15.167 -36.834 24.5 -51.501s19.666 -24.667 30.999 -30c1.33301 -0.666992 2.83301 -1.33398 4.5 -2.00098s3.16699 -1.16699 4.5 -1.5s2.83301 -0.666016 4.5 -0.999023s3.16699 -0.5 4.5 -0.5c2 0 3.83301 0.166992 5.5 0.5s3.33398 0.833008 5.00098 1.5
s3.5 1.33398 5.5 2.00098s3.66699 1.66699 5 3l7 4c6 -10 12.667 -19 20 -27s15.5 -14.833 24.5 -20.5s18.5 -10.5 28.5 -14.5s20.667 -6.33301 32 -7v-61h-89v-30h211v30h-92v60c10.667 1.33301 20.834 3.66602 30.501 6.99902s19 8 28 14s17.333 13 25 21
s14.834 17.333 21.501 28l7 -5c2 -0.666992 3.83301 -1.33398 5.5 -2.00098l5 -2c1.66699 -0.666992 3.33398 -1.16699 5.00098 -1.5s3.5 -0.5 5.5 -0.5c1.33301 0 2.83301 0.166992 4.5 0.5s3.16699 0.666016 4.5 0.999023s2.83301 0.833008 4.5 1.5
s3.16699 1.33398 4.5 2.00098c11.333 5.33301 21.666 15.333 30.999 30s17.5 31.834 24.5 51.501s12.833 41 17.5 64s8.33398 45.5 11.001 67.5c1.33301 8.66699 2.33301 17.167 3 25.5s1.16699 16.666 1.5 24.999l1 25c0.333008 8.33301 0.5 16.5 0.5 24.5v15v0z
M119.996 154.001l-7 -5.00098c-0.666992 -0.666992 -1.33398 -1 -2.00098 -1s-1.5 -0.166992 -2.5 -0.5s-1.83301 -0.333008 -2.5 0l-3 1.5c-6 2.66699 -12.167 9 -18.5 19s-12.666 23 -18.999 39s-12 35.167 -17 57.5s-9.16699 47.166 -12.5 74.499l-2 20l-2 20.5
c-0.666992 7 -1.16699 13.833 -1.5 20.5s-0.5 13.334 -0.5 20.001h39c0.666992 -22 2 -45 4 -69s5 -47.667 9 -71s9.33301 -46.166 16 -68.499s15 -42.833 25 -61.5l-3 4v0zM255.996 87c-34 0 -61.334 13.3291 -82.001 39.9961s-36.5 58.834 -47.5 96.501
s-18.333 77.334 -22 119.001s-5.83398 77.5 -6.50098 107.5h316c-0.666992 -35.333 -3 -74.166 -7 -116.499s-11.667 -81.666 -23 -117.999s-27.166 -66.833 -47.499 -91.5s-47.166 -37 -80.499 -37v0zM475.995 338.996c-3.33301 -27.333 -7.50098 -52.165 -12.501 -74.498
s-10.667 -41.5 -17 -57.5s-12.666 -29 -18.999 -39s-12.5 -16.333 -18.5 -19l-3 -1.5c-0.666992 -0.333008 -1.33398 -0.5 -2.00098 -0.5s-1.5 0.166992 -2.5 0.5s-1.83301 0.833008 -2.5 1.5l-7 5l-4 -6c8.66699 15.333 16.167 32.666 22.5 51.999s11.833 40.333 16.5 63
s8.33398 47 11.001 73s4.66699 54 6 84h38c0 -6.66699 -0.166992 -13.334 -0.5 -20.001s-0.833008 -13.5 -1.5 -20.5l-2 -20.5l-2 -20v0z" />
    <glyph glyph-name="uniE642" unicode="&#xe642;" 
d="M380 277l-123 201l-127 -201l-135 115l52 -394h418l52 394l-137 -115v0zM74 28l-4 30h372l-4 -30h-364v0zM446 88h-380l-31 230l102 -87l120 190l116 -190l104 88l-31 -231v0z" />
    <glyph glyph-name="uniE643" unicode="&#xe643;" 
d="M512 435v-240c0 -6.66699 -1.16699 -12.667 -3.5 -18s-5.5 -10 -9.5 -14s-8.83301 -7.16699 -14.5 -9.5s-11.5 -3.5 -17.5 -3.5h-15v30h15c2 0 3.83301 0.333008 5.5 1s3.33398 1.66699 5.00098 3s2.83398 3 3.50098 5s1 4 1 6v240c0 2 -0.333008 3.83301 -1 5.5
s-1.83398 3.33398 -3.50098 5.00098s-3.33398 2.83398 -5.00098 3.50098s-3.5 1 -5.5 1h-422c-2 0 -3.83301 -0.333008 -5.5 -1s-3.33398 -1.83398 -5.00098 -3.50098s-2.83398 -3.33398 -3.50098 -5.00098s-1 -3.5 -1 -5.5v-240c0 -2 0.333008 -4 1 -6
s1.83398 -3.66699 3.50098 -5s3.33398 -2.33301 5.00098 -3s3.5 -1 5.5 -1h45v-87l54 47l20 -23l-104 -91v124h-15c-6 0 -11.833 1.16699 -17.5 3.5s-10.5 5.5 -14.5 9.5s-7.16699 8.66699 -9.5 14s-3.5 11.333 -3.5 18v240c0 6 1.16699 11.833 3.5 17.5s5.5 10.5 9.5 14.5
s8.83301 7.16699 14.5 9.5s11.5 3.5 17.5 3.5h422c6 0 11.833 -1.16699 17.5 -3.5s10.5 -5.5 14.5 -9.5s7.16699 -8.83301 9.5 -14.5s3.5 -11.5 3.5 -17.5v0zM422 193v-92c0 -6 -1.16699 -11.833 -3.5 -17.5s-5.5 -10.5 -9.5 -14.5s-8.83301 -7.16699 -14.5 -9.5
s-11.5 -3.5 -17.5 -3.5h-15v-92l-110 92h-26c-6 0 -11.833 1.16699 -17.5 3.5s-10.5 5.5 -14.5 9.5s-7.16699 8.83301 -9.5 14.5s-3.5 11.5 -3.5 17.5v92c0 6 1.16699 11.667 3.5 17s5.5 10.166 9.5 14.499s8.83301 7.66602 14.5 9.99902s11.5 3.5 17.5 3.5h151
c6 0 11.833 -1.16699 17.5 -3.5s10.5 -5.66602 14.5 -9.99902s7.16699 -9.16602 9.5 -14.499s3.5 -11 3.5 -17v0zM392 193c0 2 -0.333008 3.83301 -1 5.5s-1.66699 3.16699 -3 4.5s-3 2.5 -5 3.5s-4 1.5 -6 1.5h-151c-2 0 -4 -0.5 -6 -1.5s-3.66699 -2.16699 -5 -3.5
s-2.33301 -2.83301 -3 -4.5s-1 -3.5 -1 -5.5v-92c0 -2 0.333008 -4 1 -6s1.66699 -3.66699 3 -5s3 -2.33301 5 -3s4 -1 6 -1h37l69 -58v58h45c2 0 4 0.333008 6 1s3.66699 1.66699 5 3s2.33301 3 3 5s1 4 1 6v92v0z" />
    <glyph glyph-name="uniE644" unicode="&#xe644;" 
d="M467 480h-422c-6 0 -11.833 -1.16699 -17.5 -3.5s-10.5 -5.5 -14.5 -9.5s-7.16699 -8.83301 -9.5 -14.5s-3.5 -11.5 -3.5 -17.5v-301c0 -6.66699 1.16699 -12.667 3.5 -18s5.5 -10 9.5 -14s8.83301 -7.33301 14.5 -10s11.5 -4 17.5 -4h15v-123l141 123h266
c6 0 11.833 1.33301 17.5 4s10.5 6 14.5 10s7.16699 8.66699 9.5 14s3.5 11.333 3.5 18v301c0 6 -1.16699 11.833 -3.5 17.5s-5.5 10.5 -9.5 14.5s-8.83301 7.16699 -14.5 9.5s-11.5 3.5 -17.5 3.5v0zM482 134c0 -2 -0.333008 -4 -1 -6s-1.83398 -3.66699 -3.50098 -5
s-3.33398 -2.33301 -5.00098 -3s-3.5 -1 -5.5 -1h-277l-100 -88v88h-45c-2 0 -3.83301 0.333008 -5.5 1s-3.33398 1.66699 -5.00098 3s-2.83398 3 -3.50098 5s-1 4 -1 6v301c0 2 0.333008 3.83301 1 5.5s1.83398 3.33398 3.50098 5.00098s3.33398 2.83398 5.00098 3.50098
s3.5 1 5.5 1h422c2 0 3.83301 -0.333008 5.5 -1s3.33398 -1.83398 5.00098 -3.50098s2.83398 -3.33398 3.50098 -5.00098s1 -3.5 1 -5.5v-301v0z" />
    <glyph glyph-name="uniE645" unicode="&#xe645;" 
d="M467 480h-422c-6 0 -11.833 -1.16699 -17.5 -3.5s-10.5 -5.5 -14.5 -9.5s-7.16699 -8.83301 -9.5 -14.5s-3.5 -11.5 -3.5 -17.5v-301c0 -6.66699 1.16699 -12.667 3.5 -18s5.5 -10 9.5 -14s8.83301 -7.33301 14.5 -10s11.5 -4 17.5 -4h15v-123l141 123h266
c6 0 11.833 1.33301 17.5 4s10.5 6 14.5 10s7.16699 8.66699 9.5 14s3.5 11.333 3.5 18v301c0 6 -1.16699 11.833 -3.5 17.5s-5.5 10.5 -9.5 14.5s-8.83301 7.16699 -14.5 9.5s-11.5 3.5 -17.5 3.5v0zM482 134c0 -2 -0.333008 -4 -1 -6s-1.83398 -3.66699 -3.50098 -5
s-3.33398 -2.33301 -5.00098 -3s-3.5 -1 -5.5 -1h-277l-100 -88v88h-45c-2 0 -3.83301 0.333008 -5.5 1s-3.33398 1.66699 -5.00098 3s-2.83398 3 -3.50098 5s-1 4 -1 6v301c0 2 0.333008 3.83301 1 5.5s1.83398 3.33398 3.50098 5.00098s3.33398 2.83398 5.00098 3.50098
s3.5 1 5.5 1h422c2 0 3.83301 -0.333008 5.5 -1s3.33398 -1.83398 5.00098 -3.50098s2.83398 -3.33398 3.50098 -5.00098s1 -3.5 1 -5.5v-301v0zM90 390h332v-30h-332v30v0zM90 329h332v-30h-332v30v0zM90 269h181v-30h-181v30v0z" />
    <glyph glyph-name="uniE646" unicode="&#xe646;" 
d="M277 224l200 -200l-21 -21l-200 200l-200 -200l-21 21l200 200l-200 200l21 21l200 -200l200 200l21 -21l-200 -200v0z" />
    <glyph glyph-name="uniE647" unicode="&#xe647;" 
d="M362 352l0.00292969 -256l-30 1v254c0 9.33301 -1.5 17.833 -4.5 25.5s-7.66699 15 -14 22s-14.333 12.333 -24 16s-21.167 5.83398 -34.5 6.50098c-14.667 -0.666992 -26.834 -3.16699 -36.501 -7.5s-17.167 -10.166 -22.5 -17.499s-9.16602 -14.833 -11.499 -22.5
s-3.5 -15.167 -3.5 -22.5v-243v-1v-43c0 -5.33301 1.16699 -10 3.5 -14s5.5 -7.83301 9.5 -11.5s8.66699 -6.33398 14 -8.00098s10.666 -2.83398 15.999 -3.50098c6.66699 0.666992 12.834 2 18.501 4s10.667 5 15 9s7.66602 8 9.99902 12s3.5 8.33301 3.5 13v7v1v229
c0 6.66699 -0.333008 11.667 -1 15s-1.66699 6 -3 8s-2.83301 3 -4.5 3s-3.5 0.333008 -5.5 1c-2.66699 -0.666992 -5 -1 -7 -1s-3.66699 -1 -5 -3s-2.33301 -4.5 -3 -7.5s-1 -7.83301 -1 -14.5v-154l-30 -1v156c0 2.66699 0.166992 7.33398 0.5 14.001s2 12.834 5 18.501
s7.66699 10.834 14 15.501s15.166 6.66699 26.499 6c5.33301 0.666992 10.666 0.166992 15.999 -1.5s10 -4.5 14 -8.5s7.5 -9.83301 10.5 -17.5s4.5 -16.834 4.5 -27.501l-1 -195v1v-45c0 -8 -2 -16.333 -6 -25s-9.66699 -15.834 -17 -21.501s-15.666 -10.5 -24.999 -14.5
s-19 -5.66699 -29 -5c-9.33301 -0.666992 -18.5 0.833008 -27.5 4.5s-16.833 8.5 -23.5 14.5s-12 13.167 -16 21.5s-6 16.5 -6 24.5v3v-1v287c0 11.333 2 23 6 35s10.333 22.5 19 31.5s19.5 16.667 32.5 23s28.5 9.16602 46.5 8.49902c17.333 0.666992 32.666 -2 45.999 -8
s24.5 -13.5 33.5 -22.5s15.833 -19.5 20.5 -31.5s7 -24 7 -36v0z" />
    <glyph glyph-name="uniE648" unicode="&#xe648;" 
d="M493 122l-21 -21l-216 215l-214 -215l-23 21l238 237l236 -237v0z" />
    <glyph glyph-name="uniE649" unicode="&#xe649;" 
d="M398 225l-237 -237l-21 22l215 215l-215 215l21 21l237 -236v0z" />
    <glyph glyph-name="uniE64A" unicode="&#xe64a;" 
d="M157 225l215 -215l-21 -22l-237 237l237 236l21 -21l-215 -215v0z" />
    <glyph glyph-name="uniE64B" unicode="&#xe64b;" 
d="M493 327l-237 -237l-237 237l22 20l215 -214l215 214l22 -20v0z" />
    <glyph glyph-name="uniE64C" unicode="&#xe64c;" 
d="M464 427l-266 -406l-148 132l20 23l122 -110l247 378l25 -17v0z" />
    <glyph glyph-name="uniE64D" unicode="&#xe64d;" 
d="M422 306h30v-308h-422v422h253v-30h-223v-362h362v278v0zM146 235l-21 -22l103 -103l229 347l-25 16l-209 -316l-77 78v0z" />
    <glyph glyph-name="uniE64E" unicode="&#xe64e;" 
d="M179 390v30h-87v-30h-92v-362h512v362h-333v0zM482 58h-452.002v211h198c-2.66699 -4 -5.16699 -8.5 -7.5 -13.5s-4.16602 -10 -5.49902 -15s-2.33301 -10.167 -3 -15.5s-1 -10.666 -1 -15.999c0 -16.667 3.16699 -32.334 9.5 -47.001s15 -27.5 26 -38.5
s23.667 -19.667 38 -26s29.833 -9.5 46.5 -9.5s32.334 3.16699 47.001 9.5s27.5 15 38.5 26s19.667 23.833 26 38.5s9.5 30.334 9.5 47.001c0 5.33301 -0.5 10.666 -1.5 15.999s-2.16699 10.5 -3.5 15.5s-3 10 -5 15s-4.33301 9.5 -7 13.5h47v-211v0zM421.998 209
c0 -12.667 -2.5 -24.5 -7.5 -35.5s-11.5 -20.5 -19.5 -28.5s-17.5 -14.333 -28.5 -19s-22.833 -7 -35.5 -7c-12 0 -23.5 2.33301 -34.5 7s-20.667 11 -29 19s-14.833 17.5 -19.5 28.5s-7 22.833 -7 35.5s2.33301 24.5 7 35.5s11.167 20.5 19.5 28.5s18 14.333 29 19
s22.5 7 34.5 7c12.667 0 24.5 -2.33301 35.5 -7s20.5 -11 28.5 -19s14.5 -17.5 19.5 -28.5s7.5 -22.833 7.5 -35.5v0zM409.998 299c-5.33301 4.66699 -11.0039 8.83398 -17.0039 12.501s-12.333 6.83398 -19 9.50098s-13.5 4.66699 -20.5 6s-14.5 2 -22.5 2
c-7.33301 0 -14.666 -0.666992 -21.999 -2s-14.166 -3.33301 -20.499 -6s-12.666 -5.83398 -18.999 -9.50098s-12.166 -7.83398 -17.499 -12.501h-222v61h452v-61h-72v0z" />
    <glyph glyph-name="uniE64F" unicode="&#xe64f;" 
d="M496 413l-58.002 -0.000976562c-2 0 -4 -0.333008 -6 -1s-3.66699 -1.83398 -5 -3.50098s-2.5 -3.33398 -3.5 -5.00098s-1.5 -3.83398 -1.5 -6.50098v-20l-331 -121v8c0 3.33301 -0.666992 6.33301 -2 9s-3 5.16699 -5 7.5s-4.5 4.16602 -7.5 5.49902s-6.16699 2 -9.5 2
h-43c-3.33301 0 -6.5 -0.666992 -9.5 -2s-5.5 -3.16602 -7.5 -5.49902s-3.66699 -4.83301 -5 -7.5s-2 -5.66699 -2 -9v-141c0 -3.33301 0.666992 -6.5 2 -9.5s3 -5.5 5 -7.5s4.5 -3.66699 7.5 -5s6.16699 -2 9.5 -2h43c3.33301 0 6.5 0.666992 9.5 2s5.5 3 7.5 5
s3.66699 4.5 5 7.5s2 6.16699 2 9.5v10l31 -6c0 -1.33301 -0.166992 -2.5 -0.5 -3.5s-0.5 -2.16699 -0.5 -3.5v-4v-4c0 -14 2.66699 -27.333 8 -40s12.833 -23.667 22.5 -33s20.834 -16.666 33.501 -21.999s26.334 -8 41.001 -8c12 0 23.667 2 35 6s21.5 9.5 30.5 16.5
s16.5 15.5 22.5 25.5s10.333 20.667 13 32l95 -17v-20c0 -2 0.5 -4 1.5 -6s2.16699 -3.66699 3.5 -5s3 -2.33301 5 -3s4 -1 6 -1h58c2 0 4 0.333008 6 1s3.66699 1.66699 5 3s2.5 3 3.5 5s1.5 4 1.5 6v345c0 2.66699 -0.5 4.83398 -1.5 6.50098
s-2.16699 3.33398 -3.5 5.00098s-3 2.83398 -5 3.50098s-4 1 -6 1v0zM225.998 38.999c-10.667 0 -20.499 1.83008 -29.499 5.49707s-16.833 8.83398 -23.5 15.501s-12 14.5 -16 23.5s-6 18.5 -6 28.5v3c0 0.666992 0.166992 1.33398 0.5 2.00098s0.5 1.33398 0.5 2.00098v3
l146 -27c-2 -8 -5.33301 -15.5 -10 -22.5s-10.167 -13 -16.5 -18s-13.333 -8.83301 -21 -11.5s-15.834 -4 -24.501 -4v0zM481.999 66.9961h-30v30l-391 72v-40h-31v128h31v-44l391 143v27h30v-316v0z" />
    <glyph glyph-name="uniE650" unicode="&#xe650;" 
d="M479 426l-196 -286l-24 17l195 286l25 -17v0zM271 59c0 -8.66699 -1.50098 -16.6709 -4.50098 -24.0039s-7.33301 -13.666 -13 -18.999s-12.167 -9.66602 -19.5 -12.999s-15 -5 -23 -5h-5h-5.5h-4h-1.5h-165l137 103c1.33301 0.666992 3.5 2 6.5 4s6.5 4 10.5 6
s8.33301 3.83301 13 5.5s9.33398 2.5 14.001 2.5c8 0 15.667 -1.66699 23 -5s13.833 -7.66602 19.5 -12.999s10 -11.666 13 -18.999s4.5 -15 4.5 -23v0zM240.999 58.9961c0 4 -0.833008 7.82617 -2.5 11.4932s-3.83398 6.83398 -6.50098 9.50098
s-5.83398 4.83398 -9.50098 6.50098s-7.5 2.5 -11.5 2.5c-1.33301 0 -3 -0.333008 -5 -1s-4.16699 -1.66699 -6.5 -3s-4.83301 -2.66602 -7.5 -3.99902s-5 -2.66602 -7 -3.99902l-65 -49h74h2h4.5h5.5h5c4 0 7.83301 0.833008 11.5 2.5s6.83398 3.83398 9.50098 6.50098
s4.83398 5.83398 6.50098 9.50098s2.5 7.83398 2.5 12.501v0z" />
    <glyph glyph-name="uniE651" unicode="&#xe651;" 
d="M211 88v45l30 1v-16l30 1v14l30 1v-47l-90 1v0zM512 148l-30.0029 1v-182l-452 1v180l-30 1v240l109 1c6.66699 12.667 15.334 24.834 26.001 36.501s22.334 21.167 35.001 28.5s26.334 13.333 41.001 18s29.667 6.66699 45 6c15.333 0.666992 30.333 -1.33301 45 -6
s28.5 -10.667 41.5 -18s24.667 -16.833 35 -28.5s18.833 -23.834 25.5 -36.501l109 -1v-240v-1zM143.997 389l223.999 1c-6 8.66699 -13 16.834 -21 24.501s-16.833 14 -26.5 19s-20 9 -31 12s-22.167 4.16699 -33.5 3.5c-11.333 0.666992 -22.5 -0.666016 -33.5 -3.99902
s-21.167 -7.33301 -30.5 -12s-18.166 -10.834 -26.499 -18.501s-15.5 -15.834 -21.5 -24.501v-1zM451.996 148l-392 1v-152l392 1v150v0zM481.996 360l-452 -1v-180l452 -1v182v0z" />
    <glyph glyph-name="uniE652" unicode="&#xe652;" 
d="M431 419h-215l-71 -211h51l-61 -182l286 242h-88l98 151v0zM339 238l-141 -120l39 120h-50l50 151h139l-98 -151h61v0z" />
    <glyph glyph-name="uniE653" unicode="&#xe653;" 
d="M356 239l-115 -218l-27 14l92 174h-154l148 219l25 -17l-116 -172h147v0z" />
    <glyph glyph-name="uniE654" unicode="&#xe654;" 
d="M271 420v60h-30v-60h-211v-301h452v301h-211v0zM452 149h-392v241h392v-241v0zM105 88h302v-30h-78l45 -70l-25 -16l-56 86h-22v-90h-30v90h-22l-56 -86l-25 16l46 70h-79v30v0z" />
    <glyph glyph-name="uniE655" unicode="&#xe655;" 
d="M392 360l0.000976562 72c0 6.66699 -1.33301 12.834 -4 18.501s-6.33398 10.667 -11.001 15s-10 7.83301 -16 10.5s-12.333 4 -19 4h-172c-6.66699 0 -13 -1.33301 -19 -4s-11.167 -6.16699 -15.5 -10.5s-7.83301 -9.33301 -10.5 -15s-4 -11.834 -4 -18.501v-72h-91v-392
h452v392h-90v0zM151.001 432c0 2 0.5 4.16699 1.5 6.5s2.33301 4.33301 4 6s3.66699 3 6 4s4.83301 1.5 7.5 1.5h172c2.66699 0 5.16699 -0.5 7.5 -1.5s4.33301 -2.33301 6 -4s3 -3.66699 4 -6s1.5 -4.5 1.5 -6.5v-72h-210v72v0zM452.001 -2h-392v241h392v-241v0z
M452.001 269h-392v60h61v-19h30v19h210v-19h31v19h60v-60v0z" />
    </font>
</defs>
</svg>
