<?xml version="1.0" standalone="no"?>
<!DOCTYPE svg PUBLIC "-//W3C//DTD SVG 20010904//EN"
 "http://www.w3.org/TR/2001/REC-SVG-20010904/DTD/svg10.dtd">
<svg version="1.0" xmlns="http://www.w3.org/2000/svg"
 width="260.000000pt" height="260.000000pt" viewBox="0 0 260.000000 260.000000"
 preserveAspectRatio="xMidYMid meet">
<metadata>
Created by potrace 1.14, written by Peter Selinger 2001-2017
</metadata>
<g transform="translate(0.000000,260.000000) scale(0.100000,-0.100000)"
fill="#000000" stroke="none">
<path d="M1201 2115 c-257 -47 -411 -182 -443 -389 -21 -140 18 -271 113 -371
67 -71 143 -118 303 -188 71 -31 151 -71 177 -88 123 -78 151 -170 79 -253
-41 -46 -99 -67 -200 -73 -140 -8 -287 33 -406 112 l-64 44 2 -177 3 -177 59
-23 c108 -43 197 -56 391 -55 196 0 274 13 389 68 164 78 257 247 243 440 -10
132 -62 229 -171 317 -57 45 -94 66 -339 182 -176 84 -230 152 -196 243 53
139 340 164 572 49 l67 -34 0 163 0 163 -47 17 c-124 42 -383 57 -532 30z"/>
</g>
</svg>
