<svg display="none" xmlns="http://www.w3.org/2000/svg">
    <symbol id="heart"  viewBox="0 0 24 24">
        <g>
            <path d="M11.9996 21.0541C-8 10 5.99999 -2 11.9996 5.58806C18 -2 32 10 11.9996 21.0541Z" stroke-width="1.8"/>
        </g>
    </symbol>

    <symbol id="cart" viewBox="0 0 24 24">
        <g>
            <path d="M1 2.50001H2.65424C3.13263 2.50001 3.37183 2.50001 3.56628 2.58675C3.73771 2.66322 3.88415 2.78639 3.98886 2.94217C4.10763 3.11889 4.14862 3.35455 4.23058 3.82586L4.6087 6.00001M4.6087 6.00001L5.49173 11.0774C5.67091 12.1077 5.7605 12.6229 6.02583 12.994C6.25945 13.3207 6.58606 13.5695 6.96311 13.7081C7.39133 13.8654 7.91176 13.815 8.95264 13.7143L18.614 12.7793C19.6298 12.681 20.1378 12.6318 20.5221 12.4033C20.8653 12.1993 21.1395 11.8972 21.3095 11.536C21.5 11.1314 21.5 10.6211 21.5 9.60051V9.60051C21.5 8.51583 21.5 7.97349 21.2922 7.55395C21.1068 7.17972 20.809 6.87291 20.4404 6.67655C20.0272 6.45641 19.4851 6.44036 18.4009 6.40827L4.6087 6.00001Z" stroke-width="1.8" stroke-linecap="round" stroke-linejoin="round"/>
            <circle cx="8.5" cy="19" r="2" stroke-width="1.8"/>
            <circle cx="18" cy="19" r="2" stroke-width="1.8"/>
        </g>
    </symbol>

    <symbol id="arrow" viewBox="0 0 512 277.05">
        <g>
            <path d="M269.49,388.72,506.18,152.44a19.84,19.84,0,0,0-28-28.09L255.53,346.57,33.93,123.34a19.85,19.85,0,0,0-28.17,28L241.39,388.66a19.84,19.84,0,0,0,28.1.06Z" transform="translate(0 -117.48)"/>
        </g>
    </symbol>

    <symbol id="search" viewBox="0 0 512 512">
        <g>
            <path d="M495,466.2L377.2,348.4c29.2-35.6,46.8-81.2,46.8-130.9C424,103.5,331.5,11,217.5,11C103.4,11,11,103.5,11,217.5   S103.4,424,217.5,424c49.7,0,95.2-17.5,130.8-46.7L466.1,495c8,8,20.9,8,28.9,0C503,487.1,503,474.1,495,466.2z M217.5,382.9   C126.2,382.9,52,308.7,52,217.5S126.2,52,217.5,52C308.7,52,383,126.3,383,217.5S308.7,382.9,217.5,382.9z"/>
        </g>
    </symbol>


    <symbol id="star-empty" viewBox="0 0 512.001 512.001">
        <g>
            <path d="M511.266,197.256c-1.764-5.431-6.458-9.388-12.108-10.209l-158.722-23.065L269.452,20.155
			c-2.527-5.12-7.741-8.361-13.451-8.361c-5.709,0-10.924,3.242-13.451,8.361l-70.988,143.828L12.843,187.047
			c-5.65,0.821-10.344,4.779-12.108,10.209c-1.765,5.43-0.293,11.391,3.795,15.376l114.848,111.955L92.27,482.67
			c-0.965,5.627,1.349,11.315,5.968,14.67c4.618,3.355,10.74,3.798,15.797,1.142L256,423.846l141.961,74.637
			c2.195,1.154,4.591,1.723,6.979,1.723c3.11,0,6.206-0.966,8.818-2.865c4.619-3.356,6.933-9.043,5.968-14.671L392.61,324.587
			l114.86-111.954C511.559,208.647,513.031,202.686,511.266,197.256z M366.023,308.608c-3.536,3.446-5.15,8.412-4.314,13.278
			l23.311,135.898l-122.038-64.162c-4.37-2.297-9.591-2.297-13.961,0l-122.045,64.163l23.304-135.9
			c0.834-4.866-0.779-9.83-4.313-13.276l-98.731-96.244l136.445-19.829c4.886-0.71,9.108-3.778,11.294-8.205L256,60.685
			l61.023,123.645c2.186,4.427,6.408,7.496,11.294,8.206l136.447,19.828L366.023,308.608z"/>
        </g>
    </symbol>

    <symbol id="star" viewBox="0 0 512.002 512.002">
        <g>
            <path d="M511.267,197.258c-1.764-5.431-6.457-9.389-12.107-10.209l-158.723-23.065L269.452,20.157
			c-2.526-5.12-7.741-8.361-13.45-8.361c-5.71,0-10.924,3.241-13.451,8.361l-70.988,143.827l-158.72,23.065
			c-5.649,0.82-10.344,4.778-12.108,10.208c-1.765,5.431-0.293,11.392,3.796,15.377l114.848,111.954L92.271,482.671
			c-0.966,5.628,1.348,11.314,5.967,14.671c2.613,1.898,5.708,2.864,8.818,2.864c2.388,0,4.784-0.569,6.978-1.723l141.967-74.638
			l141.961,74.637c5.055,2.657,11.178,2.215,15.797-1.141c4.619-3.356,6.934-9.044,5.969-14.672l-27.117-158.081l114.861-111.955
			C511.56,208.649,513.033,202.688,511.267,197.258z"/>
            
        </g>
    </symbol>

    <symbol id="quickView" viewBox="0 0 512.002 512.002">
        <g>
            
            <g>
                <path d="M508.745,246.041c-4.574-6.257-113.557-153.206-252.748-153.206S7.818,239.784,3.249,246.035
                    c-4.332,5.936-4.332,13.987,0,19.923c4.569,6.257,113.557,153.206,252.748,153.206s248.174-146.95,252.748-153.201
                    C513.083,260.028,513.083,251.971,508.745,246.041z M255.997,385.406c-102.529,0-191.33-97.533-217.617-129.418
                    c26.253-31.913,114.868-129.395,217.617-129.395c102.524,0,191.319,97.516,217.617,129.418
                    C447.361,287.923,358.746,385.406,255.997,385.406z"/>
            </g>
        </g>
        <g>
            <g>
                <path d="M255.997,154.725c-55.842,0-101.275,45.433-101.275,101.275s45.433,101.275,101.275,101.275
                    s101.275-45.433,101.275-101.275S311.839,154.725,255.997,154.725z M255.997,323.516c-37.23,0-67.516-30.287-67.516-67.516
                    s30.287-67.516,67.516-67.516s67.516,30.287,67.516,67.516S293.227,323.516,255.997,323.516z"/>
            </g>
            
        </g>
    </symbol>




    <symbol id="feature_1" viewBox="0 0 35 41">
        <g>
            
            <path id="https:_www.flaticon.com_free-icon_money-bag_126157_term_money_page_1_position_27" data-name="https://www.flaticon.com/free-icon/money-bag_126157#term=money&amp;page=1&amp;position=27" class="cls-1" d="M522.869,3484.72h-2.33a1.54,1.54,0,0,1,0-3.08h4.1a1.025,1.025,0,0,0,0-2.05h-1.923v-1.42a1.017,1.017,0,1,0-2.033,0v1.42h-0.144a3.59,3.59,0,0,0,0,7.18h2.33a1.54,1.54,0,0,1,0,3.08h-4.177a1.025,1.025,0,0,0,0,2.05h2v1.45a1.017,1.017,0,1,0,2.033,0v-1.45h0.195A3.59,3.59,0,0,0,522.869,3484.72Zm14.114-2.32a29.317,29.317,0,0,0-4.406-7.1,33.1,33.1,0,0,0-5.642-5.4l4.321-8.06a1.012,1.012,0,0,0-.186-1.21,5.055,5.055,0,0,0-3.626-1.64,8.465,8.465,0,0,0-3.287.87,6.081,6.081,0,0,1-2.068.62,1.274,1.274,0,0,1-.483-0.08,15,15,0,0,0-5.066-1.2,6.835,6.835,0,0,0-5.1,2.4,1.036,1.036,0,0,0-.118,1.28l4.659,7.08a33.437,33.437,0,0,0-5.566,5.34,29.594,29.594,0,0,0-4.405,7.1,24.31,24.31,0,0,0-2.016,9.65,7.93,7.93,0,0,0,7.887,7.94h19.231a7.93,7.93,0,0,0,7.887-7.94A24.31,24.31,0,0,0,536.983,3482.4Zm-23.492-19.95a4.429,4.429,0,0,1,3.049-1.23,13.009,13.009,0,0,1,4.363,1.09,3.58,3.58,0,0,0,1.178.2,7.521,7.521,0,0,0,2.846-.77,6.785,6.785,0,0,1,2.508-.72,2.7,2.7,0,0,1,1.635.56L525,3469.19h-7.083Zm17.621,35.49H511.881a5.877,5.877,0,0,1-5.854-5.89,23.927,23.927,0,0,1,5.905-15.4,31.3,31.3,0,0,1,5.752-5.42h7.608a30.637,30.637,0,0,1,5.752,5.42,23.858,23.858,0,0,1,5.9,15.4A5.852,5.852,0,0,1,531.112,3497.94Z" transform="translate(-504 -3459)"/>
            
        </g>
    </symbol>

    <symbol id="feature_2" viewBox="0 0 56 34">
        <g>
            
            <path id="https:_www.flaticon.com_free-icon_delivery-truck_259502_term_delivery_page_1_position_51" data-name="https://www.flaticon.com/free-icon/delivery-truck_259502#term=delivery&amp;page=1&amp;position=51" class="cls-1" d="M842.444,3484.25l-3.231-1.91-1.846-8.06a4.624,4.624,0,0,0-4.5-3.64h-9.285v-1.5a1.128,1.128,0,0,0-1.116-1.14H788.114a1.128,1.128,0,0,0-1.116,1.14v27.15a1.128,1.128,0,0,0,1.116,1.14H791.7a5.564,5.564,0,0,0,10.949,0h22.584a5.564,5.564,0,0,0,10.949,0h5.7a1.127,1.127,0,0,0,1.115-1.14v-11.05A1.154,1.154,0,0,0,842.444,3484.25Zm-45.271,15.47a3.426,3.426,0,1,1,3.356-3.43A3.4,3.4,0,0,1,797.173,3499.72Zm24.181-8.65H811.292a1.14,1.14,0,0,0,0,2.28h10.062v1.8H802.648a5.566,5.566,0,0,0-10.949,0h-2.47v-5.89h32.125v1.81h0Zm0-19.29v15.2H789.229v-16.7h32.125v1.5Zm8.7,1.14h2.814a2.385,2.385,0,0,1,2.324,1.88l1.635,7.14h-6.773v-9.02h0Zm0.649,26.8a3.394,3.394,0,0,1-3.347-3.2,1.121,1.121,0,0,0,.023-0.23,1.2,1.2,0,0,0-.023-0.23A3.359,3.359,0,1,1,830.706,3499.72Zm10.062-9.97h-2.122v-1.21h2.122v1.21Zm0-3.49H837.53a1.127,1.127,0,0,0-1.115,1.14v3.49a1.125,1.125,0,0,0,1.115,1.13h3.238v3.13h-4.587a5.566,5.566,0,0,0-10.949,0h-1.646v-22.23h4.24v10.15a1.127,1.127,0,0,0,1.115,1.14h9l2.832,1.68v0.37h0Zm-33.241,4.81h-0.941a1.14,1.14,0,0,0,0,2.28h0.941A1.14,1.14,0,0,0,807.527,3491.07Z" transform="translate(-787 -3468)"/>
            
        </g>
    </symbol>

    <symbol id="feature_3" viewBox="0 0 38 41">
        <g>
            
            <path id="https:_www.flaticon.com_free-icon_headphones_126100_term_headphones_page_1_position_9" data-name="https://www.flaticon.com/free-icon/headphones_126100#term=headphones&amp;page=1&amp;position=9" class="cls-1" d="M1120.82,3474.59v-1.58a14.5,14.5,0,0,0-3.7-9.88,12.656,12.656,0,0,0-9.47-4.13h-1.28a12.656,12.656,0,0,0-9.47,4.13,14.509,14.509,0,0,0-3.71,9.88v1.58a5.619,5.619,0,0,0-5.19,5.63v2.47a5.617,5.617,0,0,0,5.56,5.64h3.13a1.035,1.035,0,0,0,1.02-1.04V3475.6a1.033,1.033,0,0,0-1.02-1.03h-1.46v-1.56c0-6.81,4.79-11.95,11.13-11.95h1.28c6.35,0,11.13,5.14,11.13,11.95v1.56h-1.46a1.033,1.033,0,0,0-1.02,1.03v11.68a1.035,1.035,0,0,0,1.02,1.04h1.42c-0.41,5.39-4.07,6.64-5.77,6.92a3.575,3.575,0,0,0-3.4-2.5h-2.55a3.631,3.631,0,0,0,0,7.26h2.56a3.588,3.588,0,0,0,3.44-2.67,9.5,9.5,0,0,0,3.46-1.2c1.84-1.09,4.02-3.32,4.31-7.82a5.616,5.616,0,0,0,5.22-5.63v-2.47A5.587,5.587,0,0,0,1120.82,3474.59Zm-25.13,11.66h-2.11a3.551,3.551,0,0,1-3.53-3.57v-2.47a3.551,3.551,0,0,1,3.53-3.57h2.11v9.61Zm13.88,11.68h-2.56a1.56,1.56,0,0,1,0-3.12h2.56A1.56,1.56,0,0,1,1109.57,3497.93Zm14.4-15.25a3.549,3.549,0,0,1-3.52,3.57h-2.12v-9.61h2.12a3.549,3.549,0,0,1,3.52,3.57v2.47Z" transform="translate(-1088 -3459)"/>
            
        </g>
    </symbol>

    <symbol id="feature_4" viewBox="0 0 32 40">
        <g>
            
            <path id="https:_www.flaticon.com_free-icon_bitcoin_1435902_term_secure_20payment_page_1_position_85" data-name="https://www.flaticon.com/free-icon/bitcoin_1435902#term=secure%20payment&amp;page=1&amp;position=85" class="cls-1" d="M1400.15,3473.8v-1.33a1.15,1.15,0,1,0-2.3,0v1.33h-2.56a1.175,1.175,0,0,0,0,2.35h0.08v7.7h-0.08a1.17,1.17,0,0,0,0,2.34h2.56v1.34a1.15,1.15,0,1,0,2.3,0v-1.34h0.09a3.538,3.538,0,0,0,2.56-1.08,3.7,3.7,0,0,0,.09-5.11,3.728,3.728,0,0,0,.98-2.51,3.684,3.684,0,0,0-1.07-2.61,3.578,3.578,0,0,0-2.56-1.08h-0.09Zm1.02,9.66a1.31,1.31,0,0,1-.93.39h-2.56v-2.68h2.56a1.336,1.336,0,0,1,1.32,1.34A1.356,1.356,0,0,1,1401.17,3483.46Zm0.39-5.97a1.343,1.343,0,0,1-1.32,1.34h-2.56v-2.68h2.56a1.31,1.31,0,0,1,.93.39A1.339,1.339,0,0,1,1401.56,3477.49Zm12.65-12.41-14.84-5.02a1.048,1.048,0,0,0-.74,0l-14.84,5.02a1.166,1.166,0,0,0-.79,1.11v11.22a24.123,24.123,0,0,0,3.95,13.25,23.625,23.625,0,0,0,10.53,8.8l1.08,0.45a1.121,1.121,0,0,0,.88,0l1.08-.45a23.625,23.625,0,0,0,10.53-8.8,24.123,24.123,0,0,0,3.95-13.25v-11.22A1.166,1.166,0,0,0,1414.21,3465.08Zm-1.52,12.33a21.709,21.709,0,0,1-3.56,11.95,21.205,21.205,0,0,1-8.98,7.7v-4.51a1.15,1.15,0,1,0-2.3,0v4.51a21.205,21.205,0,0,1-8.98-7.7,21.709,21.709,0,0,1-3.56-11.95v-10.38l12.54-4.24v4.65a1.15,1.15,0,1,0,2.3,0v-4.65l12.54,4.24v10.38Z" transform="translate(-1383 -3460)"/>
            
        </g>
    </symbol>


    <symbol id="box" viewBox="0 0 512 512">
        <g>
            
            <path d="m511.9 126.269c-.598-5.507-4.02-10.381-9.135-12.768l-240-112c-4.289-2.001-9.243-2.001-13.532 0l-240 112c-5.114 2.387-8.536 7.26-9.135 12.768-.013.115-.098 1.647-.098 1.731v272c0 6.542 3.983 12.426 10.058 14.855l240 96c1.907.763 3.925 1.145 5.942 1.145s4.035-.381 5.942-1.145l240-96c6.075-2.429 10.058-8.313 10.058-14.855v-272c0-.084-.087-1.617-.1-1.731zm-255.9-92.613 199.744 93.214-76.914 30.766-203.503-86.332zm-119.69 55.856 200.346 84.993-80.656 32.262-199.744-79.897zm-104.31 62.12 208 83.2v237.535l-208-83.2zm240 320.736v-237.536l208-83.2v237.535z"/>
            
        </g>
    </symbol>

    <symbol id="comment" viewBox="0 0 512 512">
        <g>
            
            <path d="M390.986,120.988V0H0.026v300.969H61.02v105.481l59.994-46.22v60.727h193.612L450.98,512v-91.043h60.994V120.988H390.986z
			 M91.017,345.474v-74.301H30.023V29.997h330.966v240.976h-173.27L91.017,345.474z M481.977,390.96h-60.994v64.942L323.72,390.96
			H151.011V337.12l46.924-36.15h193.051V150.985h90.991V390.96z"/>
            
        </g>
    </symbol>

    <symbol id="instagram" viewBox="0 0 511 511.9">
        <g>
            
            <path d="m510.949219 150.5c-1.199219-27.199219-5.597657-45.898438-11.898438-62.101562-6.5-17.199219-16.5-32.597657-29.601562-45.398438-12.800781-13-28.300781-23.101562-45.300781-29.5-16.296876-6.300781-34.898438-10.699219-62.097657-11.898438-27.402343-1.300781-36.101562-1.601562-105.601562-1.601562s-78.199219.300781-105.5 1.5c-27.199219 1.199219-45.898438 5.601562-62.097657 11.898438-17.203124 6.5-32.601562 16.5-45.402343 29.601562-13 12.800781-23.097657 28.300781-29.5 45.300781-6.300781 16.300781-10.699219 34.898438-11.898438 62.097657-1.300781 27.402343-1.601562 36.101562-1.601562 105.601562s.300781 78.199219 1.5 105.5c1.199219 27.199219 5.601562 45.898438 11.902343 62.101562 6.5 17.199219 16.597657 32.597657 29.597657 45.398438 12.800781 13 28.300781 23.101562 45.300781 29.5 16.300781 6.300781 34.898438 10.699219 62.101562 11.898438 27.296876 1.203124 36 1.5 105.5 1.5s78.199219-.296876 105.5-1.5c27.199219-1.199219 45.898438-5.597657 62.097657-11.898438 34.402343-13.300781 61.601562-40.5 74.902343-74.898438 6.296876-16.300781 10.699219-34.902343 11.898438-62.101562 1.199219-27.300781 1.5-36 1.5-105.5s-.101562-78.199219-1.300781-105.5zm-46.097657 209c-1.101562 25-5.300781 38.5-8.800781 47.5-8.601562 22.300781-26.300781 40-48.601562 48.601562-9 3.5-22.597657 7.699219-47.5 8.796876-27 1.203124-35.097657 1.5-103.398438 1.5s-76.5-.296876-103.402343-1.5c-25-1.097657-38.5-5.296876-47.5-8.796876-11.097657-4.101562-21.199219-10.601562-29.398438-19.101562-8.5-8.300781-15-18.300781-19.101562-29.398438-3.5-9-7.699219-22.601562-8.796876-47.5-1.203124-27-1.5-35.101562-1.5-103.402343s.296876-76.5 1.5-103.398438c1.097657-25 5.296876-38.5 8.796876-47.5 4.101562-11.101562 10.601562-21.199219 19.203124-29.402343 8.296876-8.5 18.296876-15 29.398438-19.097657 9-3.5 22.601562-7.699219 47.5-8.800781 27-1.199219 35.101562-1.5 103.398438-1.5 68.402343 0 76.5.300781 103.402343 1.5 25 1.101562 38.5 5.300781 47.5 8.800781 11.097657 4.097657 21.199219 10.597657 29.398438 19.097657 8.5 8.300781 15 18.300781 19.101562 29.402343 3.5 9 7.699219 22.597657 8.800781 47.5 1.199219 27 1.5 35.097657 1.5 103.398438s-.300781 76.300781-1.5 103.300781zm0 0"/><path d="m256.449219 124.5c-72.597657 0-131.5 58.898438-131.5 131.5s58.902343 131.5 131.5 131.5c72.601562 0 131.5-58.898438 131.5-131.5s-58.898438-131.5-131.5-131.5zm0 216.800781c-47.097657 0-85.300781-38.199219-85.300781-85.300781s38.203124-85.300781 85.300781-85.300781c47.101562 0 85.300781 38.199219 85.300781 85.300781s-38.199219 85.300781-85.300781 85.300781zm0 0"/><path d="m423.851562 119.300781c0 16.953125-13.746093 30.699219-30.703124 30.699219-16.953126 0-30.699219-13.746094-30.699219-30.699219 0-16.957031 13.746093-30.699219 30.699219-30.699219 16.957031 0 30.703124 13.742188 30.703124 30.699219zm0 0"/>
            
        </g>
    </symbol>

    <symbol id="android" viewBox="0 0 553.048 553.048">
        <g>
            
            <path d="M76.774,179.141c-9.529,0-17.614,3.323-24.26,9.969c-6.646,6.646-9.97,14.621-9.97,23.929v142.914
			c0,9.541,3.323,17.619,9.97,24.266c6.646,6.646,14.731,9.97,24.26,9.97c9.522,0,17.558-3.323,24.101-9.97
			c6.53-6.646,9.804-14.725,9.804-24.266V213.039c0-9.309-3.323-17.283-9.97-23.929C94.062,182.464,86.082,179.141,76.774,179.141z"
			/>
            <path d="M351.972,50.847L375.57,7.315c1.549-2.882,0.998-5.092-1.658-6.646c-2.883-1.34-5.098-0.661-6.646,1.989l-23.928,43.88
                c-21.055-9.309-43.324-13.972-66.807-13.972c-23.488,0-45.759,4.664-66.806,13.972l-23.929-43.88
                c-1.555-2.65-3.77-3.323-6.646-1.989c-2.662,1.561-3.213,3.764-1.658,6.646l23.599,43.532
                c-23.929,12.203-42.987,29.198-57.167,51.022c-14.18,21.836-21.273,45.698-21.273,71.628h307.426
                c0-25.924-7.094-49.787-21.273-71.628C394.623,80.045,375.675,63.05,351.972,50.847z M215.539,114.165
                c-2.552,2.558-5.6,3.831-9.143,3.831c-3.55,0-6.536-1.273-8.972-3.831c-2.436-2.546-3.654-5.582-3.654-9.137
                c0-3.543,1.218-6.585,3.654-9.137c2.436-2.546,5.429-3.819,8.972-3.819s6.591,1.273,9.143,3.819
                c2.546,2.558,3.825,5.594,3.825,9.137C219.357,108.577,218.079,111.619,215.539,114.165z M355.625,114.165
                c-2.441,2.558-5.434,3.831-8.971,3.831c-3.551,0-6.598-1.273-9.145-3.831c-2.551-2.546-3.824-5.582-3.824-9.137
                c0-3.543,1.273-6.585,3.824-9.137c2.547-2.546,5.594-3.819,9.145-3.819c3.543,0,6.529,1.273,8.971,3.819
                c2.438,2.558,3.654,5.594,3.654,9.137C359.279,108.577,358.062,111.619,355.625,114.165z"/>
            <path d="M123.971,406.804c0,10.202,3.543,18.838,10.63,25.925c7.093,7.087,15.729,10.63,25.924,10.63h24.596l0.337,75.454
                c0,9.528,3.323,17.619,9.969,24.266s14.627,9.97,23.929,9.97c9.523,0,17.613-3.323,24.26-9.97s9.97-14.737,9.97-24.266v-75.447
                h45.864v75.447c0,9.528,3.322,17.619,9.969,24.266s14.73,9.97,24.26,9.97c9.523,0,17.613-3.323,24.26-9.97
                s9.969-14.737,9.969-24.266v-75.447h24.928c9.969,0,18.494-3.544,25.594-10.631c7.086-7.087,10.631-15.723,10.631-25.924V185.45
                H123.971V406.804z"/>
            <path d="M476.275,179.141c-9.309,0-17.283,3.274-23.93,9.804c-6.646,6.542-9.969,14.578-9.969,24.094v142.914
                c0,9.541,3.322,17.619,9.969,24.266s14.627,9.97,23.93,9.97c9.523,0,17.613-3.323,24.26-9.97s9.969-14.725,9.969-24.266V213.039
                c0-9.517-3.322-17.552-9.969-24.094C493.888,182.415,485.798,179.141,476.275,179.141z"/>
            
        </g>
    </symbol>

    <symbol id="apple" viewBox="0 0 512.065 512.065">
        <g>
            
            <g>
                <path d="M360.859,13.729c-1.216-8.288-8.512-14.432-16.96-13.664c-29.6,2.08-63.136,20.32-83.392,45.344
                    c-22.048,27.136-32.128,60.384-26.944,88.96c1.344,7.424,7.712,12.896,15.232,13.152c0.864,0.032,1.696,0.032,2.56,0.032
                    c30.432,0,62.912-17.024,83.392-43.904C355.675,76.385,365.179,43.617,360.859,13.729z M309.339,84.225l-0.032,0.032
                    c-11.392,14.944-28.224,25.824-44.896,29.728c1.536-18.336,11.008-36.224,20.928-48.416
                    c10.848-13.376,27.744-24.608,44.256-30.112C327.387,58.145,315.355,76.417,309.339,84.225z"/>
            </g>
        </g>
        <g>
            <g>
                <path d="M473.531,362.081c-1.696-4.064-4.928-7.2-9.024-8.8c-32.512-12.544-54.336-42.624-56.864-78.528
                    c-2.464-35.264,14.4-66.56,45.152-83.712c4.096-2.272,7.008-6.208,7.904-10.816s-0.224-9.376-3.136-13.056
                    c-27.04-34.272-65.632-54.752-103.232-54.752c-26.176,0-44.544,7.072-59.328,12.768c-11.392,4.384-20.352,7.84-30.816,7.84
                    c-11.712,0-22.688-4-35.392-8.608c-15.424-5.6-32.928-11.936-55.008-11.936c-42.656,0-85.792,26.048-112.576,67.968
                    c-40.192,63.072-28.768,171.776,27.2,258.464c21.824,33.856,52.256,72.768,94.528,73.152c0.256,0,0.544,0,0.832,0
                    c17.504,0,29.6-5.504,40.288-10.336c11.168-5.056,21.696-9.856,40.64-9.984c17.984-0.544,29.216,4.704,40.128,9.792
                    c10.656,4.992,23.072,10.368,40.672,10.432c41.12-0.32,71.616-39.008,96.032-76.832c14.784-22.912,20.48-34.784,31.84-60.448
                    C475.163,370.689,475.227,366.113,473.531,362.081z M414.683,417.793c-18.624,28.864-43.36,61.984-69.44,62.208
                    c-10.24-0.224-17.472-3.04-26.848-7.424c-12.352-5.76-27.872-12.448-53.856-12.768c-25.792,0.128-41.248,7.136-53.696,12.8
                    c-9.696,4.352-16.704,6.848-27.616,7.456c-26.976-0.256-50.464-31.36-67.936-58.496c-55.52-86.016-55.424-179.552-27.136-223.904
                    c20.96-32.8,53.76-53.184,85.6-53.184c16.448,0,29.888,4.896,44.16,10.048c14.24,5.152,28.96,10.496,46.304,10.496
                    c16.384,0,29.568-5.088,42.304-9.984c13.568-5.216,27.584-10.624,47.84-10.624c23.008,0,46.912,10.848,66.368,29.632
                    c-31.328,24.48-47.904,61.728-44.992,102.976c3.008,42.624,26.304,79.232,62.016,99.008
                    C430.715,391.329,425.307,401.313,414.683,417.793z"/>
            </g>
            
        </g>
    </symbol>


    <symbol id="facebook"  viewBox="0 0 24 24">
        <g>
            <path d="m15.997 3.985h2.191v-3.816c-.378-.052-1.678-.169-3.192-.169-3.159 0-5.323 1.987-5.323 5.639v3.361h-3.486v4.266h3.486v10.734h4.274v-10.733h3.345l.531-4.266h-3.877v-2.939c.001-1.233.333-2.077 2.051-2.077z"/>
        </g>
    </symbol>


    <symbol id="twitter"  viewBox="0 0 512 512">
        <g>
            <path d="M512,97.248c-19.04,8.352-39.328,13.888-60.48,16.576c21.76-12.992,38.368-33.408,46.176-58.016
			c-20.288,12.096-42.688,20.64-66.56,25.408C411.872,60.704,384.416,48,354.464,48c-58.112,0-104.896,47.168-104.896,104.992
			c0,8.32,0.704,16.32,2.432,23.936c-87.264-4.256-164.48-46.08-216.352-109.792c-9.056,15.712-14.368,33.696-14.368,53.056
			c0,36.352,18.72,68.576,46.624,87.232c-16.864-0.32-33.408-5.216-47.424-12.928c0,0.32,0,0.736,0,1.152
			c0,51.008,36.384,93.376,84.096,103.136c-8.544,2.336-17.856,3.456-27.52,3.456c-6.72,0-13.504-0.384-19.872-1.792
			c13.6,41.568,52.192,72.128,98.08,73.12c-35.712,27.936-81.056,44.768-130.144,44.768c-8.608,0-16.864-0.384-25.12-1.44
			C46.496,446.88,101.6,464,161.024,464c193.152,0,298.752-160,298.752-298.688c0-4.64-0.16-9.12-0.384-13.568
			C480.224,136.96,497.728,118.496,512,97.248z"/>
        </g>
    </symbol>


    <symbol id="pinterest"  viewBox="0 0 24 24">
        <g>
            <path d="m12.326 0c-6.579.001-10.076 4.216-10.076 8.812 0 2.131 1.191 4.79 3.098 5.633.544.245.472-.054.94-1.844.037-.149.018-.278-.102-.417-2.726-3.153-.532-9.635 5.751-9.635 9.093 0 7.394 12.582 1.582 12.582-1.498 0-2.614-1.176-2.261-2.631.428-1.733 1.266-3.596 1.266-4.845 0-3.148-4.69-2.681-4.69 1.49 0 1.289.456 2.159.456 2.159s-1.509 6.096-1.789 7.235c-.474 1.928.064 5.049.111 5.318.029.148.195.195.288.073.149-.195 1.973-2.797 2.484-4.678.186-.685.949-3.465.949-3.465.503.908 1.953 1.668 3.498 1.668 4.596 0 7.918-4.04 7.918-9.053-.016-4.806-4.129-8.402-9.423-8.402z"/>
        </g>
    </symbol>

    <symbol id="menu"  viewBox="0 -53 384 384">
        <g>
            <path d="m368 154.667969h-352c-8.832031 0-16-7.167969-16-16s7.167969-16 16-16h352c8.832031 0 16 7.167969 16 16s-7.167969 16-16 16zm0 0"/><path d="m368 32h-352c-8.832031 0-16-7.167969-16-16s7.167969-16 16-16h352c8.832031 0 16 7.167969 16 16s-7.167969 16-16 16zm0 0"/><path d="m368 277.332031h-352c-8.832031 0-16-7.167969-16-16s7.167969-16 16-16h352c8.832031 0 16 7.167969 16 16s-7.167969 16-16 16zm0 0"/>
        </g>
    </symbol>

    <symbol id="arrow" viewBox="0 0 16 9">
        <g>
            <path d="M13.8333 1.50006L8.00001 7.3334L2.16668 1.50006" stroke-width="3" stroke-linecap="round" stroke-linejoin="round"/>
        </g>
    </symbol>

    <symbol id="plus" viewBox="0 0 121.81 121.81">
        <g>
            <path d="M7.31,68.21H114.5a7.31,7.31,0,1,0,0-14.62H7.31a7.31,7.31,0,1,0,0,14.62Z" transform="translate(0 0)"/><path d="M53.59,7.31V114.49a7.31,7.31,0,1,0,14.62,0V7.31a7.31,7.31,0,1,0-14.62,0Z" transform="translate(0 0)"/>
        </g>
    </symbol>

    <symbol id="minus" viewBox="0 0 121.805 121.804">
        <g>
            <path d="M7.308,68.211h107.188c4.037,0,7.309-3.272,7.309-7.31c0-4.037-3.271-7.309-7.309-7.309H7.308
			C3.272,53.593,0,56.865,0,60.902C0,64.939,3.272,68.211,7.308,68.211z"/>
        </g>
    </symbol>

    <symbol id="trash" viewBox="0 0 512 512">
        <g>
            <path d="m424 64h-88v-16c0-26.467-21.533-48-48-48h-64c-26.467 0-48 21.533-48 48v16h-88c-22.056 0-40 17.944-40 40v56c0 8.836 7.164 16 16 16h8.744l13.823 290.283c1.221 25.636 22.281 45.717 47.945 45.717h242.976c25.665 0 46.725-20.081 47.945-45.717l13.823-290.283h8.744c8.836 0 16-7.164 16-16v-56c0-22.056-17.944-40-40-40zm-216-16c0-8.822 7.178-16 16-16h64c8.822 0 16 7.178 16 16v16h-96zm-128 56c0-4.411 3.589-8 8-8h336c4.411 0 8 3.589 8 8v40c-4.931 0-331.567 0-352 0zm313.469 360.761c-.407 8.545-7.427 15.239-15.981 15.239h-242.976c-8.555 0-15.575-6.694-15.981-15.239l-13.751-288.761h302.44z"/><path d="m256 448c8.836 0 16-7.164 16-16v-208c0-8.836-7.164-16-16-16s-16 7.164-16 16v208c0 8.836 7.163 16 16 16z"/><path d="m336 448c8.836 0 16-7.164 16-16v-208c0-8.836-7.164-16-16-16s-16 7.164-16 16v208c0 8.836 7.163 16 16 16z"/><path d="m176 448c8.836 0 16-7.164 16-16v-208c0-8.836-7.164-16-16-16s-16 7.164-16 16v208c0 8.836 7.163 16 16 16z"/>
        </g>
    </symbol>

    <symbol id="checkMark" viewBox="0 0 44.56 44.56">
        <g>
            <path d="M23.297,38.74c-1.17,1.588-2.992,2.564-4.962,2.661c-1.97,0.098-3.878-0.696-5.198-2.162L1.308,26.112
			c-1.88-2.085-1.713-5.299,0.372-7.179c2.087-1.88,5.299-1.712,7.179,0.374l8.369,9.288c0.124,0.138,0.304,0.212,0.489,0.203
			c0.186-0.009,0.356-0.102,0.467-0.25L35.386,5.217c1.665-2.26,4.847-2.741,7.108-1.075c2.259,1.666,2.739,4.848,1.073,7.107
			L23.297,38.74z"/>
        </g>
    </symbol>

    <symbol id="arrowBack" viewBox="0 0 339.6 252">
        <g>
            <path d="M217.94,378.53a15.41,15.41,0,0,0,20-.44,11.66,11.66,0,0,0-.48-17.82L128.91,268.6H411.65c7.81,0,14.15-5.64,14.15-12.6s-6.34-12.6-14.15-12.6H129.36l108.1-91.68a11.64,11.64,0,0,0,.48-17.81,15.39,15.39,0,0,0-20-.43L94.49,238.19A23.68,23.68,0,0,0,86.2,256c0,6.74,2.94,13.06,8.54,18Z" transform="translate(-86.2 -130)"/>
        </g>
    </symbol>

</svg>
